<?xml version="1.0" encoding="UTF-8" standalone="no"?>
<!DOCTYPE svg PUBLIC "-//W3C//DTD SVG 1.1//EN"
 "http://www.w3.org/Graphics/SVG/1.1/DTD/svg11.dtd">
<!-- Generated by graphviz version 2.26.3 (20100126.1600)
 -->
<!-- Title: controllers_diagram Pages: 1 -->
<svg width="802pt" height="893pt"
 viewBox="0.00 0.00 802.00 893.00" xmlns="http://www.w3.org/2000/svg" xmlns:xlink="http://www.w3.org/1999/xlink">
<g id="graph1" class="graph" transform="scale(1 1) rotate(0) translate(4 889)">
<title>controllers_diagram</title>
<polygon fill="white" stroke="white" points="-4,5 -4,-889 799,-889 799,5 -4,5"/>
<!-- _diagram_info -->
<g id="node1" class="node"><title>_diagram_info</title>
<text text-anchor="start" x="51" y="-141.3" font-family="Times Roman,serif" font-size="13.00">Controllers diagram</text>
<text text-anchor="start" x="51" y="-124.3" font-family="Times Roman,serif" font-size="13.00">Date: Oct 08 2011 &#45; 14:17</text>
<text text-anchor="start" x="51" y="-107.3" font-family="Times Roman,serif" font-size="13.00">Migration version: 20111008021123</text>
<text text-anchor="start" x="51" y="-90.3" font-family="Times Roman,serif" font-size="13.00">Generated by RailRoady 1.0.2</text>
<text text-anchor="start" x="51" y="-73.3" font-family="Times Roman,serif" font-size="13.00">http://railroady.prestonlee.com</text>
</g>
<!-- PeopleController -->
<g id="node2" class="node"><title>PeopleController</title>
<polyline fill="none" stroke="black" points="34,-337.5 141,-337.5 "/>
<path fill="none" stroke="black" d="M141,-337.5C147,-337.5 153,-343.5 153,-349.5"/>
<polyline fill="none" stroke="black" points="153,-349.5 153,-535.5 "/>
<path fill="none" stroke="black" d="M153,-535.5C153,-541.5 147,-547.5 141,-547.5"/>
<polyline fill="none" stroke="black" points="141,-547.5 34,-547.5 "/>
<path fill="none" stroke="black" d="M34,-547.5C28,-547.5 22,-541.5 22,-535.5"/>
<polyline fill="none" stroke="black" points="22,-535.5 22,-349.5 "/>
<path fill="none" stroke="black" d="M22,-349.5C22,-343.5 28,-337.5 34,-337.5"/>
<text text-anchor="middle" x="87.5" y="-530.9" font-family="Times Roman,serif" font-size="14.00">PeopleController</text>
<polyline fill="none" stroke="black" points="22,-521.5 153,-521.5 "/>
<text text-anchor="start" x="30" y="-504.9" font-family="Times Roman,serif" font-size="14.00">create</text>
<text text-anchor="start" x="30" y="-486.9" font-family="Times Roman,serif" font-size="14.00">destroy</text>
<text text-anchor="start" x="30" y="-468.9" font-family="Times Roman,serif" font-size="14.00">edit</text>
<text text-anchor="start" x="30" y="-450.9" font-family="Times Roman,serif" font-size="14.00">index</text>
<text text-anchor="start" x="30" y="-432.9" font-family="Times Roman,serif" font-size="14.00">new</text>
<text text-anchor="start" x="30" y="-414.9" font-family="Times Roman,serif" font-size="14.00">show</text>
<text text-anchor="start" x="30" y="-396.9" font-family="Times Roman,serif" font-size="14.00">update</text>
<polyline fill="none" stroke="black" points="22,-387.5 153,-387.5 "/>
<polyline fill="none" stroke="black" points="22,-363.5 153,-363.5 "/>
<text text-anchor="start" x="30" y="-346.9" font-family="Times Roman,serif" font-size="14.00">_layout</text>
</g>
<!-- ApplicationController -->
<g id="node3" class="node"><title>ApplicationController</title>
<polyline fill="none" stroke="black" points="223,-505.5 437,-505.5 "/>
<path fill="none" stroke="black" d="M437,-505.5C443,-505.5 449,-511.5 449,-517.5"/>
<polyline fill="none" stroke="black" points="449,-517.5 449,-613.5 "/>
<path fill="none" stroke="black" d="M449,-613.5C449,-619.5 443,-625.5 437,-625.5"/>
<polyline fill="none" stroke="black" points="437,-625.5 223,-625.5 "/>
<path fill="none" stroke="black" d="M223,-625.5C217,-625.5 211,-619.5 211,-613.5"/>
<polyline fill="none" stroke="black" points="211,-613.5 211,-517.5 "/>
<path fill="none" stroke="black" d="M211,-517.5C211,-511.5 217,-505.5 223,-505.5"/>
<text text-anchor="middle" x="330" y="-608.9" font-family="Times Roman,serif" font-size="14.00">ApplicationController</text>
<polyline fill="none" stroke="black" points="211,-599.5 449,-599.5 "/>
<text text-anchor="start" x="219" y="-582.9" font-family="Times Roman,serif" font-size="14.00">_one_time_conditions_valid_62?</text>
<polyline fill="none" stroke="black" points="211,-573.5 449,-573.5 "/>
<polyline fill="none" stroke="black" points="211,-549.5 449,-549.5 "/>
<text text-anchor="start" x="219" y="-532.9" font-family="Times Roman,serif" font-size="14.00">_layout</text>
<text text-anchor="start" x="219" y="-514.9" font-family="Times Roman,serif" font-size="14.00">_run_process_action_callbacks</text>
</g>
<!-- FoldersController -->
<g id="node4" class="node"><title>FoldersController</title>
<polyline fill="none" stroke="black" points="496,-169.5 719,-169.5 "/>
<path fill="none" stroke="black" d="M719,-169.5C725,-169.5 731,-175.5 731,-181.5"/>
<polyline fill="none" stroke="black" points="731,-181.5 731,-349.5 "/>
<path fill="none" stroke="black" d="M731,-349.5C731,-355.5 725,-361.5 719,-361.5"/>
<polyline fill="none" stroke="black" points="719,-361.5 496,-361.5 "/>
<path fill="none" stroke="black" d="M496,-361.5C490,-361.5 484,-355.5 484,-349.5"/>
<polyline fill="none" stroke="black" points="484,-349.5 484,-181.5 "/>
<path fill="none" stroke="black" d="M484,-181.5C484,-175.5 490,-169.5 496,-169.5"/>
<text text-anchor="middle" x="607.5" y="-344.9" font-family="Times Roman,serif" font-size="14.00">FoldersController</text>
<polyline fill="none" stroke="black" points="484,-335.5 731,-335.5 "/>
<text text-anchor="start" x="492" y="-318.9" font-family="Times Roman,serif" font-size="14.00">_one_time_conditions_valid_136?</text>
<text text-anchor="start" x="492" y="-300.9" font-family="Times Roman,serif" font-size="14.00">create</text>
<text text-anchor="start" x="492" y="-282.9" font-family="Times Roman,serif" font-size="14.00">index</text>
<text text-anchor="start" x="492" y="-264.9" font-family="Times Roman,serif" font-size="14.00">new</text>
<text text-anchor="start" x="492" y="-246.9" font-family="Times Roman,serif" font-size="14.00">show</text>
<polyline fill="none" stroke="black" points="484,-237.5 731,-237.5 "/>
<polyline fill="none" stroke="black" points="484,-213.5 731,-213.5 "/>
<text text-anchor="start" x="492" y="-196.9" font-family="Times Roman,serif" font-size="14.00">_layout</text>
<text text-anchor="start" x="492" y="-178.9" font-family="Times Roman,serif" font-size="14.00">_run_process_action_callbacks</text>
</g>
<!-- ProductsController -->
<g id="node5" class="node"><title>ProductsController</title>
<polyline fill="none" stroke="black" points="454,-673.5 576,-673.5 "/>
<path fill="none" stroke="black" d="M576,-673.5C582,-673.5 588,-679.5 588,-685.5"/>
<polyline fill="none" stroke="black" points="588,-685.5 588,-871.5 "/>
<path fill="none" stroke="black" d="M588,-871.5C588,-877.5 582,-883.5 576,-883.5"/>
<polyline fill="none" stroke="black" points="576,-883.5 454,-883.5 "/>
<path fill="none" stroke="black" d="M454,-883.5C448,-883.5 442,-877.5 442,-871.5"/>
<polyline fill="none" stroke="black" points="442,-871.5 442,-685.5 "/>
<path fill="none" stroke="black" d="M442,-685.5C442,-679.5 448,-673.5 454,-673.5"/>
<text text-anchor="middle" x="515" y="-866.9" font-family="Times Roman,serif" font-size="14.00">ProductsController</text>
<polyline fill="none" stroke="black" points="442,-857.5 588,-857.5 "/>
<text text-anchor="start" x="450" y="-840.9" font-family="Times Roman,serif" font-size="14.00">create</text>
<text text-anchor="start" x="450" y="-822.9" font-family="Times Roman,serif" font-size="14.00">destroy</text>
<text text-anchor="start" x="450" y="-804.9" font-family="Times Roman,serif" font-size="14.00">edit</text>
<text text-anchor="start" x="450" y="-786.9" font-family="Times Roman,serif" font-size="14.00">index</text>
<text text-anchor="start" x="450" y="-768.9" font-family="Times Roman,serif" font-size="14.00">new</text>
<text text-anchor="start" x="450" y="-750.9" font-family="Times Roman,serif" font-size="14.00">show</text>
<text text-anchor="start" x="450" y="-732.9" font-family="Times Roman,serif" font-size="14.00">update</text>
<polyline fill="none" stroke="black" points="442,-723.5 588,-723.5 "/>
<polyline fill="none" stroke="black" points="442,-699.5 588,-699.5 "/>
<text text-anchor="start" x="450" y="-682.9" font-family="Times Roman,serif" font-size="14.00">_layout</text>
</g>
<!-- TopicsController -->
<g id="node6" class="node"><title>TopicsController</title>
<polyline fill="none" stroke="black" points="202,-190.5 425,-190.5 "/>
<path fill="none" stroke="black" d="M425,-190.5C431,-190.5 437,-196.5 437,-202.5"/>
<polyline fill="none" stroke="black" points="437,-202.5 437,-460.5 "/>
<path fill="none" stroke="black" d="M437,-460.5C437,-466.5 431,-472.5 425,-472.5"/>
<polyline fill="none" stroke="black" points="425,-472.5 202,-472.5 "/>
<path fill="none" stroke="black" d="M202,-472.5C196,-472.5 190,-466.5 190,-460.5"/>
<polyline fill="none" stroke="black" points="190,-460.5 190,-202.5 "/>
<path fill="none" stroke="black" d="M190,-202.5C190,-196.5 196,-190.5 202,-190.5"/>
<text text-anchor="middle" x="313.5" y="-455.9" font-family="Times Roman,serif" font-size="14.00">TopicsController</text>
<polyline fill="none" stroke="black" points="190,-446.5 437,-446.5 "/>
<text text-anchor="start" x="198" y="-429.9" font-family="Times Roman,serif" font-size="14.00">_one_time_conditions_valid_204?</text>
<text text-anchor="start" x="198" y="-411.9" font-family="Times Roman,serif" font-size="14.00">_one_time_conditions_valid_206?</text>
<text text-anchor="start" x="198" y="-393.9" font-family="Times Roman,serif" font-size="14.00">all</text>
<text text-anchor="start" x="198" y="-375.9" font-family="Times Roman,serif" font-size="14.00">create</text>
<text text-anchor="start" x="198" y="-357.9" font-family="Times Roman,serif" font-size="14.00">destroy</text>
<text text-anchor="start" x="198" y="-339.9" font-family="Times Roman,serif" font-size="14.00">edit</text>
<text text-anchor="start" x="198" y="-321.9" font-family="Times Roman,serif" font-size="14.00">index</text>
<text text-anchor="start" x="198" y="-303.9" font-family="Times Roman,serif" font-size="14.00">new</text>
<text text-anchor="start" x="198" y="-285.9" font-family="Times Roman,serif" font-size="14.00">update</text>
<polyline fill="none" stroke="black" points="190,-276.5 437,-276.5 "/>
<polyline fill="none" stroke="black" points="190,-252.5 437,-252.5 "/>
<text text-anchor="start" x="198" y="-235.9" font-family="Times Roman,serif" font-size="14.00">_layout</text>
<text text-anchor="start" x="198" y="-217.9" font-family="Times Roman,serif" font-size="14.00">_run_process_action_callbacks</text>
<text text-anchor="start" x="198" y="-199.9" font-family="Times Roman,serif" font-size="14.00">load_folder</text>
</g>
<!-- StaffLevelsController -->
<g id="node7" class="node"><title>StaffLevelsController</title>
<polyline fill="none" stroke="black" points="643,-652.5 781,-652.5 "/>
<path fill="none" stroke="black" d="M781,-652.5C787,-652.5 793,-658.5 793,-664.5"/>
<polyline fill="none" stroke="black" points="793,-664.5 793,-850.5 "/>
<path fill="none" stroke="black" d="M793,-850.5C793,-856.5 787,-862.5 781,-862.5"/>
<polyline fill="none" stroke="black" points="781,-862.5 643,-862.5 "/>
<path fill="none" stroke="black" d="M643,-862.5C637,-862.5 631,-856.5 631,-850.5"/>
<polyline fill="none" stroke="black" points="631,-850.5 631,-664.5 "/>
<path fill="none" stroke="black" d="M631,-664.5C631,-658.5 637,-652.5 643,-652.5"/>
<text text-anchor="middle" x="712" y="-845.9" font-family="Times Roman,serif" font-size="14.00">StaffLevelsController</text>
<polyline fill="none" stroke="black" points="631,-836.5 793,-836.5 "/>
<text text-anchor="start" x="639" y="-819.9" font-family="Times Roman,serif" font-size="14.00">create</text>
<text text-anchor="start" x="639" y="-801.9" font-family="Times Roman,serif" font-size="14.00">destroy</text>
<text text-anchor="start" x="639" y="-783.9" font-family="Times Roman,serif" font-size="14.00">edit</text>
<text text-anchor="start" x="639" y="-765.9" font-family="Times Roman,serif" font-size="14.00">index</text>
<text text-anchor="start" x="639" y="-747.9" font-family="Times Roman,serif" font-size="14.00">new</text>
<text text-anchor="start" x="639" y="-729.9" font-family="Times Roman,serif" font-size="14.00">show</text>
<text text-anchor="start" x="639" y="-711.9" font-family="Times Roman,serif" font-size="14.00">update</text>
<polyline fill="none" stroke="black" points="631,-702.5 793,-702.5 "/>
<polyline fill="none" stroke="black" points="631,-678.5 793,-678.5 "/>
<text text-anchor="start" x="639" y="-661.9" font-family="Times Roman,serif" font-size="14.00">_layout</text>
</g>
<!-- FundingRoundsController -->
<g id="node8" class="node"><title>FundingRoundsController</title>
<polyline fill="none" stroke="black" points="496,-400.5 663,-400.5 "/>
<path fill="none" stroke="black" d="M663,-400.5C669,-400.5 675,-406.5 675,-412.5"/>
<polyline fill="none" stroke="black" points="675,-412.5 675,-598.5 "/>
<path fill="none" stroke="black" d="M675,-598.5C675,-604.5 669,-610.5 663,-610.5"/>
<polyline fill="none" stroke="black" points="663,-610.5 496,-610.5 "/>
<path fill="none" stroke="black" d="M496,-610.5C490,-610.5 484,-604.5 484,-598.5"/>
<polyline fill="none" stroke="black" points="484,-598.5 484,-412.5 "/>
<path fill="none" stroke="black" d="M484,-412.5C484,-406.5 490,-400.5 496,-400.5"/>
<text text-anchor="middle" x="579.5" y="-593.9" font-family="Times Roman,serif" font-size="14.00">FundingRoundsController</text>
<polyline fill="none" stroke="black" points="484,-584.5 675,-584.5 "/>
<text text-anchor="start" x="492" y="-567.9" font-family="Times Roman,serif" font-size="14.00">create</text>
<text text-anchor="start" x="492" y="-549.9" font-family="Times Roman,serif" font-size="14.00">destroy</text>
<text text-anchor="start" x="492" y="-531.9" font-family="Times Roman,serif" font-size="14.00">edit</text>
<text text-anchor="start" x="492" y="-513.9" font-family="Times Roman,serif" font-size="14.00">index</text>
<text text-anchor="start" x="492" y="-495.9" font-family="Times Roman,serif" font-size="14.00">new</text>
<text text-anchor="start" x="492" y="-477.9" font-family="Times Roman,serif" font-size="14.00">show</text>
<text text-anchor="start" x="492" y="-459.9" font-family="Times Roman,serif" font-size="14.00">update</text>
<polyline fill="none" stroke="black" points="484,-450.5 675,-450.5 "/>
<polyline fill="none" stroke="black" points="484,-426.5 675,-426.5 "/>
<text text-anchor="start" x="492" y="-409.9" font-family="Times Roman,serif" font-size="14.00">_layout</text>
</g>
<!-- CompaniesController -->
<g id="node9" class="node"><title>CompaniesController</title>
<polyline fill="none" stroke="black" points="13,-652.5 150,-652.5 "/>
<path fill="none" stroke="black" d="M150,-652.5C156,-652.5 162,-658.5 162,-664.5"/>
<polyline fill="none" stroke="black" points="162,-664.5 162,-850.5 "/>
<path fill="none" stroke="black" d="M162,-850.5C162,-856.5 156,-862.5 150,-862.5"/>
<polyline fill="none" stroke="black" points="150,-862.5 13,-862.5 "/>
<path fill="none" stroke="black" d="M13,-862.5C7,-862.5 1,-856.5 1,-850.5"/>
<polyline fill="none" stroke="black" points="1,-850.5 1,-664.5 "/>
<path fill="none" stroke="black" d="M1,-664.5C1,-658.5 7,-652.5 13,-652.5"/>
<text text-anchor="middle" x="81.5" y="-845.9" font-family="Times Roman,serif" font-size="14.00">CompaniesController</text>
<polyline fill="none" stroke="black" points="1,-836.5 162,-836.5 "/>
<text text-anchor="start" x="9" y="-819.9" font-family="Times Roman,serif" font-size="14.00">create</text>
<text text-anchor="start" x="9" y="-801.9" font-family="Times Roman,serif" font-size="14.00">destroy</text>
<text text-anchor="start" x="9" y="-783.9" font-family="Times Roman,serif" font-size="14.00">edit</text>
<text text-anchor="start" x="9" y="-765.9" font-family="Times Roman,serif" font-size="14.00">index</text>
<text text-anchor="start" x="9" y="-747.9" font-family="Times Roman,serif" font-size="14.00">new</text>
<text text-anchor="start" x="9" y="-729.9" font-family="Times Roman,serif" font-size="14.00">show</text>
<text text-anchor="start" x="9" y="-711.9" font-family="Times Roman,serif" font-size="14.00">update</text>
<polyline fill="none" stroke="black" points="1,-702.5 162,-702.5 "/>
<polyline fill="none" stroke="black" points="1,-678.5 162,-678.5 "/>
<text text-anchor="start" x="9" y="-661.9" font-family="Times Roman,serif" font-size="14.00">_layout</text>
</g>
<!-- DashboardController -->
<g id="node10" class="node"><title>DashboardController</title>
<polyline fill="none" stroke="black" points="559,-22.5 695,-22.5 "/>
<path fill="none" stroke="black" d="M695,-22.5C701,-22.5 707,-28.5 707,-34.5"/>
<polyline fill="none" stroke="black" points="707,-34.5 707,-112.5 "/>
<path fill="none" stroke="black" d="M707,-112.5C707,-118.5 701,-124.5 695,-124.5"/>
<polyline fill="none" stroke="black" points="695,-124.5 559,-124.5 "/>
<path fill="none" stroke="black" d="M559,-124.5C553,-124.5 547,-118.5 547,-112.5"/>
<polyline fill="none" stroke="black" points="547,-112.5 547,-34.5 "/>
<path fill="none" stroke="black" d="M547,-34.5C547,-28.5 553,-22.5 559,-22.5"/>
<text text-anchor="middle" x="627" y="-107.9" font-family="Times Roman,serif" font-size="14.00">DashboardController</text>
<polyline fill="none" stroke="black" points="547,-98.5 707,-98.5 "/>
<text text-anchor="start" x="555" y="-81.9" font-family="Times Roman,serif" font-size="14.00">create</text>
<polyline fill="none" stroke="black" points="547,-72.5 707,-72.5 "/>
<polyline fill="none" stroke="black" points="547,-48.5 707,-48.5 "/>
<text text-anchor="start" x="555" y="-31.9" font-family="Times Roman,serif" font-size="14.00">_layout</text>
</g>
<!-- NotificationsController -->
<g id="node11" class="node"><title>NotificationsController</title>
<polyline fill="none" stroke="black" points="349,-1.5 496,-1.5 "/>
<path fill="none" stroke="black" d="M496,-1.5C502,-1.5 508,-7.5 508,-13.5"/>
<polyline fill="none" stroke="black" points="508,-13.5 508,-109.5 "/>
<path fill="none" stroke="black" d="M508,-109.5C508,-115.5 502,-121.5 496,-121.5"/>
<polyline fill="none" stroke="black" points="496,-121.5 349,-121.5 "/>
<path fill="none" stroke="black" d="M349,-121.5C343,-121.5 337,-115.5 337,-109.5"/>
<polyline fill="none" stroke="black" points="337,-109.5 337,-13.5 "/>
<path fill="none" stroke="black" d="M337,-13.5C337,-7.5 343,-1.5 349,-1.5"/>
<text text-anchor="middle" x="422.5" y="-104.9" font-family="Times Roman,serif" font-size="14.00">NotificationsController</text>
<polyline fill="none" stroke="black" points="337,-95.5 508,-95.5 "/>
<text text-anchor="start" x="345" y="-78.9" font-family="Times Roman,serif" font-size="14.00">create</text>
<text text-anchor="start" x="345" y="-60.9" font-family="Times Roman,serif" font-size="14.00">new</text>
<polyline fill="none" stroke="black" points="337,-51.5 508,-51.5 "/>
<polyline fill="none" stroke="black" points="337,-27.5 508,-27.5 "/>
<text text-anchor="start" x="345" y="-10.9" font-family="Times Roman,serif" font-size="14.00">_layout</text>
</g>
<!-- UpdatesController -->
<g id="node12" class="node"><title>UpdatesController</title>
<polyline fill="none" stroke="black" points="265,-673.5 383,-673.5 "/>
<path fill="none" stroke="black" d="M383,-673.5C389,-673.5 395,-679.5 395,-685.5"/>
<polyline fill="none" stroke="black" points="395,-685.5 395,-781.5 "/>
<path fill="none" stroke="black" d="M395,-781.5C395,-787.5 389,-793.5 383,-793.5"/>
<polyline fill="none" stroke="black" points="383,-793.5 265,-793.5 "/>
<path fill="none" stroke="black" d="M265,-793.5C259,-793.5 253,-787.5 253,-781.5"/>
<polyline fill="none" stroke="black" points="253,-781.5 253,-685.5 "/>
<path fill="none" stroke="black" d="M253,-685.5C253,-679.5 259,-673.5 265,-673.5"/>
<text text-anchor="middle" x="324" y="-776.9" font-family="Times Roman,serif" font-size="14.00">UpdatesController</text>
<polyline fill="none" stroke="black" points="253,-767.5 395,-767.5 "/>
<text text-anchor="start" x="261" y="-750.9" font-family="Times Roman,serif" font-size="14.00">index</text>
<text text-anchor="start" x="261" y="-732.9" font-family="Times Roman,serif" font-size="14.00">userupdate</text>
<polyline fill="none" stroke="black" points="253,-723.5 395,-723.5 "/>
<polyline fill="none" stroke="black" points="253,-699.5 395,-699.5 "/>
<text text-anchor="start" x="261" y="-682.9" font-family="Times Roman,serif" font-size="14.00">_layout</text>
</g>
</g>
</svg>
