<?xml version="1.0" encoding="UTF-8" standalone="no"?>
<!DOCTYPE svg PUBLIC "-//W3C//DTD SVG 1.1//EN"
 "http://www.w3.org/Graphics/SVG/1.1/DTD/svg11.dtd">
<!-- Generated by graphviz version 2.26.3 (20100126.1600)
 -->
<!-- Title: controllers_diagram Pages: 1 -->
<svg width="887pt" height="893pt"
 viewBox="0.00 0.00 887.00 893.00" xmlns="http://www.w3.org/2000/svg" xmlns:xlink="http://www.w3.org/1999/xlink">
<g id="graph1" class="graph" transform="scale(1 1) rotate(0) translate(4 889)">
<title>controllers_diagram</title>
<polygon fill="white" stroke="white" points="-4,5 -4,-889 884,-889 884,5 -4,5"/>
<!-- _diagram_info -->
<g id="node1" class="node"><title>_diagram_info</title>
<text text-anchor="start" x="72" y="-141.3" font-family="Times Roman,serif" font-size="13.00">Controllers diagram</text>
<text text-anchor="start" x="72" y="-124.3" font-family="Times Roman,serif" font-size="13.00">Date: Oct 12 2011 &#45; 10:44</text>
<text text-anchor="start" x="72" y="-107.3" font-family="Times Roman,serif" font-size="13.00">Migration version: 20111011112234</text>
<text text-anchor="start" x="72" y="-90.3" font-family="Times Roman,serif" font-size="13.00">Generated by RailRoady 1.0.2</text>
<text text-anchor="start" x="72" y="-73.3" font-family="Times Roman,serif" font-size="13.00">http://railroady.prestonlee.com</text>
</g>
<!-- PeopleController -->
<g id="node2" class="node"><title>PeopleController</title>
<polyline fill="none" stroke="black" points="55,-337.5 162,-337.5 "/>
<path fill="none" stroke="black" d="M162,-337.5C168,-337.5 174,-343.5 174,-349.5"/>
<polyline fill="none" stroke="black" points="174,-349.5 174,-535.5 "/>
<path fill="none" stroke="black" d="M174,-535.5C174,-541.5 168,-547.5 162,-547.5"/>
<polyline fill="none" stroke="black" points="162,-547.5 55,-547.5 "/>
<path fill="none" stroke="black" d="M55,-547.5C49,-547.5 43,-541.5 43,-535.5"/>
<polyline fill="none" stroke="black" points="43,-535.5 43,-349.5 "/>
<path fill="none" stroke="black" d="M43,-349.5C43,-343.5 49,-337.5 55,-337.5"/>
<text text-anchor="middle" x="108.5" y="-530.9" font-family="Times Roman,serif" font-size="14.00">PeopleController</text>
<polyline fill="none" stroke="black" points="43,-521.5 174,-521.5 "/>
<text text-anchor="start" x="51" y="-504.9" font-family="Times Roman,serif" font-size="14.00">create</text>
<text text-anchor="start" x="51" y="-486.9" font-family="Times Roman,serif" font-size="14.00">destroy</text>
<text text-anchor="start" x="51" y="-468.9" font-family="Times Roman,serif" font-size="14.00">edit</text>
<text text-anchor="start" x="51" y="-450.9" font-family="Times Roman,serif" font-size="14.00">index</text>
<text text-anchor="start" x="51" y="-432.9" font-family="Times Roman,serif" font-size="14.00">new</text>
<text text-anchor="start" x="51" y="-414.9" font-family="Times Roman,serif" font-size="14.00">show</text>
<text text-anchor="start" x="51" y="-396.9" font-family="Times Roman,serif" font-size="14.00">update</text>
<polyline fill="none" stroke="black" points="43,-387.5 174,-387.5 "/>
<polyline fill="none" stroke="black" points="43,-363.5 174,-363.5 "/>
<text text-anchor="start" x="51" y="-346.9" font-family="Times Roman,serif" font-size="14.00">_layout</text>
</g>
<!-- OfficesController -->
<g id="node3" class="node"><title>OfficesController</title>
<polyline fill="none" stroke="black" points="307,-673.5 415,-673.5 "/>
<path fill="none" stroke="black" d="M415,-673.5C421,-673.5 427,-679.5 427,-685.5"/>
<polyline fill="none" stroke="black" points="427,-685.5 427,-781.5 "/>
<path fill="none" stroke="black" d="M427,-781.5C427,-787.5 421,-793.5 415,-793.5"/>
<polyline fill="none" stroke="black" points="415,-793.5 307,-793.5 "/>
<path fill="none" stroke="black" d="M307,-793.5C301,-793.5 295,-787.5 295,-781.5"/>
<polyline fill="none" stroke="black" points="295,-781.5 295,-685.5 "/>
<path fill="none" stroke="black" d="M295,-685.5C295,-679.5 301,-673.5 307,-673.5"/>
<text text-anchor="middle" x="361" y="-776.9" font-family="Times Roman,serif" font-size="14.00">OfficesController</text>
<polyline fill="none" stroke="black" points="295,-767.5 427,-767.5 "/>
<text text-anchor="start" x="303" y="-750.9" font-family="Times Roman,serif" font-size="14.00">create</text>
<text text-anchor="start" x="303" y="-732.9" font-family="Times Roman,serif" font-size="14.00">index</text>
<polyline fill="none" stroke="black" points="295,-723.5 427,-723.5 "/>
<polyline fill="none" stroke="black" points="295,-699.5 427,-699.5 "/>
<text text-anchor="start" x="303" y="-682.9" font-family="Times Roman,serif" font-size="14.00">_layout</text>
</g>
<!-- ApplicationController -->
<g id="node4" class="node"><title>ApplicationController</title>
<polyline fill="none" stroke="black" points="244,-505.5 458,-505.5 "/>
<path fill="none" stroke="black" d="M458,-505.5C464,-505.5 470,-511.5 470,-517.5"/>
<polyline fill="none" stroke="black" points="470,-517.5 470,-613.5 "/>
<path fill="none" stroke="black" d="M470,-613.5C470,-619.5 464,-625.5 458,-625.5"/>
<polyline fill="none" stroke="black" points="458,-625.5 244,-625.5 "/>
<path fill="none" stroke="black" d="M244,-625.5C238,-625.5 232,-619.5 232,-613.5"/>
<polyline fill="none" stroke="black" points="232,-613.5 232,-517.5 "/>
<path fill="none" stroke="black" d="M232,-517.5C232,-511.5 238,-505.5 244,-505.5"/>
<text text-anchor="middle" x="351" y="-608.9" font-family="Times Roman,serif" font-size="14.00">ApplicationController</text>
<polyline fill="none" stroke="black" points="232,-599.5 470,-599.5 "/>
<text text-anchor="start" x="240" y="-582.9" font-family="Times Roman,serif" font-size="14.00">_one_time_conditions_valid_62?</text>
<polyline fill="none" stroke="black" points="232,-573.5 470,-573.5 "/>
<polyline fill="none" stroke="black" points="232,-549.5 470,-549.5 "/>
<text text-anchor="start" x="240" y="-532.9" font-family="Times Roman,serif" font-size="14.00">_layout</text>
<text text-anchor="start" x="240" y="-514.9" font-family="Times Roman,serif" font-size="14.00">_run_process_action_callbacks</text>
</g>
<!-- FoldersController -->
<g id="node5" class="node"><title>FoldersController</title>
<polyline fill="none" stroke="black" points="517,-169.5 740,-169.5 "/>
<path fill="none" stroke="black" d="M740,-169.5C746,-169.5 752,-175.5 752,-181.5"/>
<polyline fill="none" stroke="black" points="752,-181.5 752,-349.5 "/>
<path fill="none" stroke="black" d="M752,-349.5C752,-355.5 746,-361.5 740,-361.5"/>
<polyline fill="none" stroke="black" points="740,-361.5 517,-361.5 "/>
<path fill="none" stroke="black" d="M517,-361.5C511,-361.5 505,-355.5 505,-349.5"/>
<polyline fill="none" stroke="black" points="505,-349.5 505,-181.5 "/>
<path fill="none" stroke="black" d="M505,-181.5C505,-175.5 511,-169.5 517,-169.5"/>
<text text-anchor="middle" x="628.5" y="-344.9" font-family="Times Roman,serif" font-size="14.00">FoldersController</text>
<polyline fill="none" stroke="black" points="505,-335.5 752,-335.5 "/>
<text text-anchor="start" x="513" y="-318.9" font-family="Times Roman,serif" font-size="14.00">_one_time_conditions_valid_114?</text>
<text text-anchor="start" x="513" y="-300.9" font-family="Times Roman,serif" font-size="14.00">create</text>
<text text-anchor="start" x="513" y="-282.9" font-family="Times Roman,serif" font-size="14.00">index</text>
<text text-anchor="start" x="513" y="-264.9" font-family="Times Roman,serif" font-size="14.00">new</text>
<text text-anchor="start" x="513" y="-246.9" font-family="Times Roman,serif" font-size="14.00">show</text>
<polyline fill="none" stroke="black" points="505,-237.5 752,-237.5 "/>
<polyline fill="none" stroke="black" points="505,-213.5 752,-213.5 "/>
<text text-anchor="start" x="513" y="-196.9" font-family="Times Roman,serif" font-size="14.00">_layout</text>
<text text-anchor="start" x="513" y="-178.9" font-family="Times Roman,serif" font-size="14.00">_run_process_action_callbacks</text>
</g>
<!-- EmploymentStatusesController -->
<g id="node6" class="node"><title>EmploymentStatusesController</title>
<polyline fill="none" stroke="black" points="370,-1.5 578,-1.5 "/>
<path fill="none" stroke="black" d="M578,-1.5C584,-1.5 590,-7.5 590,-13.5"/>
<polyline fill="none" stroke="black" points="590,-13.5 590,-109.5 "/>
<path fill="none" stroke="black" d="M590,-109.5C590,-115.5 584,-121.5 578,-121.5"/>
<polyline fill="none" stroke="black" points="578,-121.5 370,-121.5 "/>
<path fill="none" stroke="black" d="M370,-121.5C364,-121.5 358,-115.5 358,-109.5"/>
<polyline fill="none" stroke="black" points="358,-109.5 358,-13.5 "/>
<path fill="none" stroke="black" d="M358,-13.5C358,-7.5 364,-1.5 370,-1.5"/>
<text text-anchor="middle" x="474" y="-104.9" font-family="Times Roman,serif" font-size="14.00">EmploymentStatusesController</text>
<polyline fill="none" stroke="black" points="358,-95.5 590,-95.5 "/>
<text text-anchor="start" x="366" y="-78.9" font-family="Times Roman,serif" font-size="14.00">create</text>
<text text-anchor="start" x="366" y="-60.9" font-family="Times Roman,serif" font-size="14.00">index</text>
<polyline fill="none" stroke="black" points="358,-51.5 590,-51.5 "/>
<polyline fill="none" stroke="black" points="358,-27.5 590,-27.5 "/>
<text text-anchor="start" x="366" y="-10.9" font-family="Times Roman,serif" font-size="14.00">_layout</text>
</g>
<!-- ProductsController -->
<g id="node7" class="node"><title>ProductsController</title>
<polyline fill="none" stroke="black" points="475,-673.5 597,-673.5 "/>
<path fill="none" stroke="black" d="M597,-673.5C603,-673.5 609,-679.5 609,-685.5"/>
<polyline fill="none" stroke="black" points="609,-685.5 609,-871.5 "/>
<path fill="none" stroke="black" d="M609,-871.5C609,-877.5 603,-883.5 597,-883.5"/>
<polyline fill="none" stroke="black" points="597,-883.5 475,-883.5 "/>
<path fill="none" stroke="black" d="M475,-883.5C469,-883.5 463,-877.5 463,-871.5"/>
<polyline fill="none" stroke="black" points="463,-871.5 463,-685.5 "/>
<path fill="none" stroke="black" d="M463,-685.5C463,-679.5 469,-673.5 475,-673.5"/>
<text text-anchor="middle" x="536" y="-866.9" font-family="Times Roman,serif" font-size="14.00">ProductsController</text>
<polyline fill="none" stroke="black" points="463,-857.5 609,-857.5 "/>
<text text-anchor="start" x="471" y="-840.9" font-family="Times Roman,serif" font-size="14.00">create</text>
<text text-anchor="start" x="471" y="-822.9" font-family="Times Roman,serif" font-size="14.00">destroy</text>
<text text-anchor="start" x="471" y="-804.9" font-family="Times Roman,serif" font-size="14.00">edit</text>
<text text-anchor="start" x="471" y="-786.9" font-family="Times Roman,serif" font-size="14.00">index</text>
<text text-anchor="start" x="471" y="-768.9" font-family="Times Roman,serif" font-size="14.00">new</text>
<text text-anchor="start" x="471" y="-750.9" font-family="Times Roman,serif" font-size="14.00">show</text>
<text text-anchor="start" x="471" y="-732.9" font-family="Times Roman,serif" font-size="14.00">update</text>
<polyline fill="none" stroke="black" points="463,-723.5 609,-723.5 "/>
<polyline fill="none" stroke="black" points="463,-699.5 609,-699.5 "/>
<text text-anchor="start" x="471" y="-682.9" font-family="Times Roman,serif" font-size="14.00">_layout</text>
</g>
<!-- TopicsController -->
<g id="node8" class="node"><title>TopicsController</title>
<polyline fill="none" stroke="black" points="223,-190.5 446,-190.5 "/>
<path fill="none" stroke="black" d="M446,-190.5C452,-190.5 458,-196.5 458,-202.5"/>
<polyline fill="none" stroke="black" points="458,-202.5 458,-460.5 "/>
<path fill="none" stroke="black" d="M458,-460.5C458,-466.5 452,-472.5 446,-472.5"/>
<polyline fill="none" stroke="black" points="446,-472.5 223,-472.5 "/>
<path fill="none" stroke="black" d="M223,-472.5C217,-472.5 211,-466.5 211,-460.5"/>
<polyline fill="none" stroke="black" points="211,-460.5 211,-202.5 "/>
<path fill="none" stroke="black" d="M211,-202.5C211,-196.5 217,-190.5 223,-190.5"/>
<text text-anchor="middle" x="334.5" y="-455.9" font-family="Times Roman,serif" font-size="14.00">TopicsController</text>
<polyline fill="none" stroke="black" points="211,-446.5 458,-446.5 "/>
<text text-anchor="start" x="219" y="-429.9" font-family="Times Roman,serif" font-size="14.00">_one_time_conditions_valid_158?</text>
<text text-anchor="start" x="219" y="-411.9" font-family="Times Roman,serif" font-size="14.00">_one_time_conditions_valid_160?</text>
<text text-anchor="start" x="219" y="-393.9" font-family="Times Roman,serif" font-size="14.00">all</text>
<text text-anchor="start" x="219" y="-375.9" font-family="Times Roman,serif" font-size="14.00">create</text>
<text text-anchor="start" x="219" y="-357.9" font-family="Times Roman,serif" font-size="14.00">destroy</text>
<text text-anchor="start" x="219" y="-339.9" font-family="Times Roman,serif" font-size="14.00">edit</text>
<text text-anchor="start" x="219" y="-321.9" font-family="Times Roman,serif" font-size="14.00">index</text>
<text text-anchor="start" x="219" y="-303.9" font-family="Times Roman,serif" font-size="14.00">new</text>
<text text-anchor="start" x="219" y="-285.9" font-family="Times Roman,serif" font-size="14.00">update</text>
<polyline fill="none" stroke="black" points="211,-276.5 458,-276.5 "/>
<polyline fill="none" stroke="black" points="211,-252.5 458,-252.5 "/>
<text text-anchor="start" x="219" y="-235.9" font-family="Times Roman,serif" font-size="14.00">_layout</text>
<text text-anchor="start" x="219" y="-217.9" font-family="Times Roman,serif" font-size="14.00">_run_process_action_callbacks</text>
<text text-anchor="start" x="219" y="-199.9" font-family="Times Roman,serif" font-size="14.00">load_folder</text>
</g>
<!-- StaffLevelsController -->
<g id="node9" class="node"><title>StaffLevelsController</title>
<polyline fill="none" stroke="black" points="664,-652.5 802,-652.5 "/>
<path fill="none" stroke="black" d="M802,-652.5C808,-652.5 814,-658.5 814,-664.5"/>
<polyline fill="none" stroke="black" points="814,-664.5 814,-850.5 "/>
<path fill="none" stroke="black" d="M814,-850.5C814,-856.5 808,-862.5 802,-862.5"/>
<polyline fill="none" stroke="black" points="802,-862.5 664,-862.5 "/>
<path fill="none" stroke="black" d="M664,-862.5C658,-862.5 652,-856.5 652,-850.5"/>
<polyline fill="none" stroke="black" points="652,-850.5 652,-664.5 "/>
<path fill="none" stroke="black" d="M652,-664.5C652,-658.5 658,-652.5 664,-652.5"/>
<text text-anchor="middle" x="733" y="-845.9" font-family="Times Roman,serif" font-size="14.00">StaffLevelsController</text>
<polyline fill="none" stroke="black" points="652,-836.5 814,-836.5 "/>
<text text-anchor="start" x="660" y="-819.9" font-family="Times Roman,serif" font-size="14.00">create</text>
<text text-anchor="start" x="660" y="-801.9" font-family="Times Roman,serif" font-size="14.00">destroy</text>
<text text-anchor="start" x="660" y="-783.9" font-family="Times Roman,serif" font-size="14.00">edit</text>
<text text-anchor="start" x="660" y="-765.9" font-family="Times Roman,serif" font-size="14.00">index</text>
<text text-anchor="start" x="660" y="-747.9" font-family="Times Roman,serif" font-size="14.00">new</text>
<text text-anchor="start" x="660" y="-729.9" font-family="Times Roman,serif" font-size="14.00">show</text>
<text text-anchor="start" x="660" y="-711.9" font-family="Times Roman,serif" font-size="14.00">update</text>
<polyline fill="none" stroke="black" points="652,-702.5 814,-702.5 "/>
<polyline fill="none" stroke="black" points="652,-678.5 814,-678.5 "/>
<text text-anchor="start" x="660" y="-661.9" font-family="Times Roman,serif" font-size="14.00">_layout</text>
</g>
<!-- FundingRoundsController -->
<g id="node10" class="node"><title>FundingRoundsController</title>
<polyline fill="none" stroke="black" points="517,-400.5 684,-400.5 "/>
<path fill="none" stroke="black" d="M684,-400.5C690,-400.5 696,-406.5 696,-412.5"/>
<polyline fill="none" stroke="black" points="696,-412.5 696,-598.5 "/>
<path fill="none" stroke="black" d="M696,-598.5C696,-604.5 690,-610.5 684,-610.5"/>
<polyline fill="none" stroke="black" points="684,-610.5 517,-610.5 "/>
<path fill="none" stroke="black" d="M517,-610.5C511,-610.5 505,-604.5 505,-598.5"/>
<polyline fill="none" stroke="black" points="505,-598.5 505,-412.5 "/>
<path fill="none" stroke="black" d="M505,-412.5C505,-406.5 511,-400.5 517,-400.5"/>
<text text-anchor="middle" x="600.5" y="-593.9" font-family="Times Roman,serif" font-size="14.00">FundingRoundsController</text>
<polyline fill="none" stroke="black" points="505,-584.5 696,-584.5 "/>
<text text-anchor="start" x="513" y="-567.9" font-family="Times Roman,serif" font-size="14.00">create</text>
<text text-anchor="start" x="513" y="-549.9" font-family="Times Roman,serif" font-size="14.00">destroy</text>
<text text-anchor="start" x="513" y="-531.9" font-family="Times Roman,serif" font-size="14.00">edit</text>
<text text-anchor="start" x="513" y="-513.9" font-family="Times Roman,serif" font-size="14.00">index</text>
<text text-anchor="start" x="513" y="-495.9" font-family="Times Roman,serif" font-size="14.00">new</text>
<text text-anchor="start" x="513" y="-477.9" font-family="Times Roman,serif" font-size="14.00">show</text>
<text text-anchor="start" x="513" y="-459.9" font-family="Times Roman,serif" font-size="14.00">update</text>
<polyline fill="none" stroke="black" points="505,-450.5 696,-450.5 "/>
<polyline fill="none" stroke="black" points="505,-426.5 696,-426.5 "/>
<text text-anchor="start" x="513" y="-409.9" font-family="Times Roman,serif" font-size="14.00">_layout</text>
</g>
<!-- CompaniesController -->
<g id="node11" class="node"><title>CompaniesController</title>
<polyline fill="none" stroke="black" points="34,-652.5 171,-652.5 "/>
<path fill="none" stroke="black" d="M171,-652.5C177,-652.5 183,-658.5 183,-664.5"/>
<polyline fill="none" stroke="black" points="183,-664.5 183,-850.5 "/>
<path fill="none" stroke="black" d="M183,-850.5C183,-856.5 177,-862.5 171,-862.5"/>
<polyline fill="none" stroke="black" points="171,-862.5 34,-862.5 "/>
<path fill="none" stroke="black" d="M34,-862.5C28,-862.5 22,-856.5 22,-850.5"/>
<polyline fill="none" stroke="black" points="22,-850.5 22,-664.5 "/>
<path fill="none" stroke="black" d="M22,-664.5C22,-658.5 28,-652.5 34,-652.5"/>
<text text-anchor="middle" x="102.5" y="-845.9" font-family="Times Roman,serif" font-size="14.00">CompaniesController</text>
<polyline fill="none" stroke="black" points="22,-836.5 183,-836.5 "/>
<text text-anchor="start" x="30" y="-819.9" font-family="Times Roman,serif" font-size="14.00">create</text>
<text text-anchor="start" x="30" y="-801.9" font-family="Times Roman,serif" font-size="14.00">destroy</text>
<text text-anchor="start" x="30" y="-783.9" font-family="Times Roman,serif" font-size="14.00">edit</text>
<text text-anchor="start" x="30" y="-765.9" font-family="Times Roman,serif" font-size="14.00">index</text>
<text text-anchor="start" x="30" y="-747.9" font-family="Times Roman,serif" font-size="14.00">new</text>
<text text-anchor="start" x="30" y="-729.9" font-family="Times Roman,serif" font-size="14.00">show</text>
<text text-anchor="start" x="30" y="-711.9" font-family="Times Roman,serif" font-size="14.00">update</text>
<polyline fill="none" stroke="black" points="22,-702.5 183,-702.5 "/>
<polyline fill="none" stroke="black" points="22,-678.5 183,-678.5 "/>
<text text-anchor="start" x="30" y="-661.9" font-family="Times Roman,serif" font-size="14.00">_layout</text>
</g>
<!-- DashboardController -->
<g id="node12" class="node"><title>DashboardController</title>
<polyline fill="none" stroke="black" points="13,-190.5 149,-190.5 "/>
<path fill="none" stroke="black" d="M149,-190.5C155,-190.5 161,-196.5 161,-202.5"/>
<polyline fill="none" stroke="black" points="161,-202.5 161,-280.5 "/>
<path fill="none" stroke="black" d="M161,-280.5C161,-286.5 155,-292.5 149,-292.5"/>
<polyline fill="none" stroke="black" points="149,-292.5 13,-292.5 "/>
<path fill="none" stroke="black" d="M13,-292.5C7,-292.5 1,-286.5 1,-280.5"/>
<polyline fill="none" stroke="black" points="1,-280.5 1,-202.5 "/>
<path fill="none" stroke="black" d="M1,-202.5C1,-196.5 7,-190.5 13,-190.5"/>
<text text-anchor="middle" x="81" y="-275.9" font-family="Times Roman,serif" font-size="14.00">DashboardController</text>
<polyline fill="none" stroke="black" points="1,-266.5 161,-266.5 "/>
<text text-anchor="start" x="9" y="-249.9" font-family="Times Roman,serif" font-size="14.00">index</text>
<polyline fill="none" stroke="black" points="1,-240.5 161,-240.5 "/>
<polyline fill="none" stroke="black" points="1,-216.5 161,-216.5 "/>
<text text-anchor="start" x="9" y="-199.9" font-family="Times Roman,serif" font-size="14.00">_layout</text>
</g>
<!-- NotificationsController -->
<g id="node13" class="node"><title>NotificationsController</title>
<polyline fill="none" stroke="black" points="643,-1.5 790,-1.5 "/>
<path fill="none" stroke="black" d="M790,-1.5C796,-1.5 802,-7.5 802,-13.5"/>
<polyline fill="none" stroke="black" points="802,-13.5 802,-109.5 "/>
<path fill="none" stroke="black" d="M802,-109.5C802,-115.5 796,-121.5 790,-121.5"/>
<polyline fill="none" stroke="black" points="790,-121.5 643,-121.5 "/>
<path fill="none" stroke="black" d="M643,-121.5C637,-121.5 631,-115.5 631,-109.5"/>
<polyline fill="none" stroke="black" points="631,-109.5 631,-13.5 "/>
<path fill="none" stroke="black" d="M631,-13.5C631,-7.5 637,-1.5 643,-1.5"/>
<text text-anchor="middle" x="716.5" y="-104.9" font-family="Times Roman,serif" font-size="14.00">NotificationsController</text>
<polyline fill="none" stroke="black" points="631,-95.5 802,-95.5 "/>
<text text-anchor="start" x="639" y="-78.9" font-family="Times Roman,serif" font-size="14.00">create</text>
<text text-anchor="start" x="639" y="-60.9" font-family="Times Roman,serif" font-size="14.00">new</text>
<polyline fill="none" stroke="black" points="631,-51.5 802,-51.5 "/>
<polyline fill="none" stroke="black" points="631,-27.5 802,-27.5 "/>
<text text-anchor="start" x="639" y="-10.9" font-family="Times Roman,serif" font-size="14.00">_layout</text>
</g>
<!-- UpdatesController -->
<g id="node14" class="node"><title>UpdatesController</title>
<polyline fill="none" stroke="black" points="748,-400.5 866,-400.5 "/>
<path fill="none" stroke="black" d="M866,-400.5C872,-400.5 878,-406.5 878,-412.5"/>
<polyline fill="none" stroke="black" points="878,-412.5 878,-508.5 "/>
<path fill="none" stroke="black" d="M878,-508.5C878,-514.5 872,-520.5 866,-520.5"/>
<polyline fill="none" stroke="black" points="866,-520.5 748,-520.5 "/>
<path fill="none" stroke="black" d="M748,-520.5C742,-520.5 736,-514.5 736,-508.5"/>
<polyline fill="none" stroke="black" points="736,-508.5 736,-412.5 "/>
<path fill="none" stroke="black" d="M736,-412.5C736,-406.5 742,-400.5 748,-400.5"/>
<text text-anchor="middle" x="807" y="-503.9" font-family="Times Roman,serif" font-size="14.00">UpdatesController</text>
<polyline fill="none" stroke="black" points="736,-494.5 878,-494.5 "/>
<text text-anchor="start" x="744" y="-477.9" font-family="Times Roman,serif" font-size="14.00">index</text>
<text text-anchor="start" x="744" y="-459.9" font-family="Times Roman,serif" font-size="14.00">userupdate</text>
<polyline fill="none" stroke="black" points="736,-450.5 878,-450.5 "/>
<polyline fill="none" stroke="black" points="736,-426.5 878,-426.5 "/>
<text text-anchor="start" x="744" y="-409.9" font-family="Times Roman,serif" font-size="14.00">_layout</text>
</g>
</g>
</svg>
