<?xml version="1.0" encoding="UTF-8" standalone="no"?>
<!DOCTYPE svg PUBLIC "-//W3C//DTD SVG 1.1//EN"
 "http://www.w3.org/Graphics/SVG/1.1/DTD/svg11.dtd">
<!-- Generated by graphviz version 2.26.3 (20100126.1600)
 -->
<!-- Title: controllers_diagram Pages: 1 -->
<svg width="982pt" height="998pt"
 viewBox="0.00 0.00 982.00 998.00" xmlns="http://www.w3.org/2000/svg" xmlns:xlink="http://www.w3.org/1999/xlink">
<g id="graph1" class="graph" transform="scale(1 1) rotate(0) translate(4 994)">
<title>controllers_diagram</title>
<polygon fill="white" stroke="white" points="-4,5 -4,-994 979,-994 979,5 -4,5"/>
<!-- _diagram_info -->
<g id="node1" class="node"><title>_diagram_info</title>
<text text-anchor="start" x="177" y="-246.3" font-family="Times Roman,serif" font-size="13.00">Controllers diagram</text>
<text text-anchor="start" x="177" y="-229.3" font-family="Times Roman,serif" font-size="13.00">Date: Oct 15 2011 &#45; 15:23</text>
<text text-anchor="start" x="177" y="-212.3" font-family="Times Roman,serif" font-size="13.00">Migration version: 20111015010439</text>
<text text-anchor="start" x="177" y="-195.3" font-family="Times Roman,serif" font-size="13.00">Generated by RailRoady 1.0.2</text>
<text text-anchor="start" x="177" y="-178.3" font-family="Times Roman,serif" font-size="13.00">http://railroady.prestonlee.com</text>
</g>
<!-- PeopleController -->
<g id="node2" class="node"><title>PeopleController</title>
<polyline fill="none" stroke="black" points="601,-778.5 708,-778.5 "/>
<path fill="none" stroke="black" d="M708,-778.5C714,-778.5 720,-784.5 720,-790.5"/>
<polyline fill="none" stroke="black" points="720,-790.5 720,-976.5 "/>
<path fill="none" stroke="black" d="M720,-976.5C720,-982.5 714,-988.5 708,-988.5"/>
<polyline fill="none" stroke="black" points="708,-988.5 601,-988.5 "/>
<path fill="none" stroke="black" d="M601,-988.5C595,-988.5 589,-982.5 589,-976.5"/>
<polyline fill="none" stroke="black" points="589,-976.5 589,-790.5 "/>
<path fill="none" stroke="black" d="M589,-790.5C589,-784.5 595,-778.5 601,-778.5"/>
<text text-anchor="middle" x="654.5" y="-971.9" font-family="Times Roman,serif" font-size="14.00">PeopleController</text>
<polyline fill="none" stroke="black" points="589,-962.5 720,-962.5 "/>
<text text-anchor="start" x="597" y="-945.9" font-family="Times Roman,serif" font-size="14.00">create</text>
<text text-anchor="start" x="597" y="-927.9" font-family="Times Roman,serif" font-size="14.00">destroy</text>
<text text-anchor="start" x="597" y="-909.9" font-family="Times Roman,serif" font-size="14.00">edit</text>
<text text-anchor="start" x="597" y="-891.9" font-family="Times Roman,serif" font-size="14.00">index</text>
<text text-anchor="start" x="597" y="-873.9" font-family="Times Roman,serif" font-size="14.00">new</text>
<text text-anchor="start" x="597" y="-855.9" font-family="Times Roman,serif" font-size="14.00">show</text>
<text text-anchor="start" x="597" y="-837.9" font-family="Times Roman,serif" font-size="14.00">update</text>
<polyline fill="none" stroke="black" points="589,-828.5 720,-828.5 "/>
<polyline fill="none" stroke="black" points="589,-804.5 720,-804.5 "/>
<text text-anchor="start" x="597" y="-787.9" font-family="Times Roman,serif" font-size="14.00">_layout</text>
</g>
<!-- OfficesController -->
<g id="node3" class="node"><title>OfficesController</title>
<polyline fill="none" stroke="black" points="853,-505.5 961,-505.5 "/>
<path fill="none" stroke="black" d="M961,-505.5C967,-505.5 973,-511.5 973,-517.5"/>
<polyline fill="none" stroke="black" points="973,-517.5 973,-613.5 "/>
<path fill="none" stroke="black" d="M973,-613.5C973,-619.5 967,-625.5 961,-625.5"/>
<polyline fill="none" stroke="black" points="961,-625.5 853,-625.5 "/>
<path fill="none" stroke="black" d="M853,-625.5C847,-625.5 841,-619.5 841,-613.5"/>
<polyline fill="none" stroke="black" points="841,-613.5 841,-517.5 "/>
<path fill="none" stroke="black" d="M841,-517.5C841,-511.5 847,-505.5 853,-505.5"/>
<text text-anchor="middle" x="907" y="-608.9" font-family="Times Roman,serif" font-size="14.00">OfficesController</text>
<polyline fill="none" stroke="black" points="841,-599.5 973,-599.5 "/>
<text text-anchor="start" x="849" y="-582.9" font-family="Times Roman,serif" font-size="14.00">create</text>
<text text-anchor="start" x="849" y="-564.9" font-family="Times Roman,serif" font-size="14.00">index</text>
<polyline fill="none" stroke="black" points="841,-555.5 973,-555.5 "/>
<polyline fill="none" stroke="black" points="841,-531.5 973,-531.5 "/>
<text text-anchor="start" x="849" y="-514.9" font-family="Times Roman,serif" font-size="14.00">_layout</text>
</g>
<!-- ApplicationController -->
<g id="node4" class="node"><title>ApplicationController</title>
<polyline fill="none" stroke="black" points="349,-610.5 563,-610.5 "/>
<path fill="none" stroke="black" d="M563,-610.5C569,-610.5 575,-616.5 575,-622.5"/>
<polyline fill="none" stroke="black" points="575,-622.5 575,-718.5 "/>
<path fill="none" stroke="black" d="M575,-718.5C575,-724.5 569,-730.5 563,-730.5"/>
<polyline fill="none" stroke="black" points="563,-730.5 349,-730.5 "/>
<path fill="none" stroke="black" d="M349,-730.5C343,-730.5 337,-724.5 337,-718.5"/>
<polyline fill="none" stroke="black" points="337,-718.5 337,-622.5 "/>
<path fill="none" stroke="black" d="M337,-622.5C337,-616.5 343,-610.5 349,-610.5"/>
<text text-anchor="middle" x="456" y="-713.9" font-family="Times Roman,serif" font-size="14.00">ApplicationController</text>
<polyline fill="none" stroke="black" points="337,-704.5 575,-704.5 "/>
<text text-anchor="start" x="345" y="-687.9" font-family="Times Roman,serif" font-size="14.00">_one_time_conditions_valid_62?</text>
<polyline fill="none" stroke="black" points="337,-678.5 575,-678.5 "/>
<polyline fill="none" stroke="black" points="337,-654.5 575,-654.5 "/>
<text text-anchor="start" x="345" y="-637.9" font-family="Times Roman,serif" font-size="14.00">_layout</text>
<text text-anchor="start" x="345" y="-619.9" font-family="Times Roman,serif" font-size="14.00">_run_process_action_callbacks</text>
</g>
<!-- FoldersController -->
<g id="node5" class="node"><title>FoldersController</title>
<polyline fill="none" stroke="black" points="622,-274.5 845,-274.5 "/>
<path fill="none" stroke="black" d="M845,-274.5C851,-274.5 857,-280.5 857,-286.5"/>
<polyline fill="none" stroke="black" points="857,-286.5 857,-454.5 "/>
<path fill="none" stroke="black" d="M857,-454.5C857,-460.5 851,-466.5 845,-466.5"/>
<polyline fill="none" stroke="black" points="845,-466.5 622,-466.5 "/>
<path fill="none" stroke="black" d="M622,-466.5C616,-466.5 610,-460.5 610,-454.5"/>
<polyline fill="none" stroke="black" points="610,-454.5 610,-286.5 "/>
<path fill="none" stroke="black" d="M610,-286.5C610,-280.5 616,-274.5 622,-274.5"/>
<text text-anchor="middle" x="733.5" y="-449.9" font-family="Times Roman,serif" font-size="14.00">FoldersController</text>
<polyline fill="none" stroke="black" points="610,-440.5 857,-440.5 "/>
<text text-anchor="start" x="618" y="-423.9" font-family="Times Roman,serif" font-size="14.00">_one_time_conditions_valid_138?</text>
<text text-anchor="start" x="618" y="-405.9" font-family="Times Roman,serif" font-size="14.00">create</text>
<text text-anchor="start" x="618" y="-387.9" font-family="Times Roman,serif" font-size="14.00">index</text>
<text text-anchor="start" x="618" y="-369.9" font-family="Times Roman,serif" font-size="14.00">new</text>
<text text-anchor="start" x="618" y="-351.9" font-family="Times Roman,serif" font-size="14.00">show</text>
<polyline fill="none" stroke="black" points="610,-342.5 857,-342.5 "/>
<polyline fill="none" stroke="black" points="610,-318.5 857,-318.5 "/>
<text text-anchor="start" x="618" y="-301.9" font-family="Times Roman,serif" font-size="14.00">_layout</text>
<text text-anchor="start" x="618" y="-283.9" font-family="Times Roman,serif" font-size="14.00">_run_process_action_callbacks</text>
</g>
<!-- EmploymentStatusesController -->
<g id="node6" class="node"><title>EmploymentStatusesController</title>
<polyline fill="none" stroke="black" points="475,-106.5 683,-106.5 "/>
<path fill="none" stroke="black" d="M683,-106.5C689,-106.5 695,-112.5 695,-118.5"/>
<polyline fill="none" stroke="black" points="695,-118.5 695,-214.5 "/>
<path fill="none" stroke="black" d="M695,-214.5C695,-220.5 689,-226.5 683,-226.5"/>
<polyline fill="none" stroke="black" points="683,-226.5 475,-226.5 "/>
<path fill="none" stroke="black" d="M475,-226.5C469,-226.5 463,-220.5 463,-214.5"/>
<polyline fill="none" stroke="black" points="463,-214.5 463,-118.5 "/>
<path fill="none" stroke="black" d="M463,-118.5C463,-112.5 469,-106.5 475,-106.5"/>
<text text-anchor="middle" x="579" y="-209.9" font-family="Times Roman,serif" font-size="14.00">EmploymentStatusesController</text>
<polyline fill="none" stroke="black" points="463,-200.5 695,-200.5 "/>
<text text-anchor="start" x="471" y="-183.9" font-family="Times Roman,serif" font-size="14.00">create</text>
<text text-anchor="start" x="471" y="-165.9" font-family="Times Roman,serif" font-size="14.00">index</text>
<polyline fill="none" stroke="black" points="463,-156.5 695,-156.5 "/>
<polyline fill="none" stroke="black" points="463,-132.5 695,-132.5 "/>
<text text-anchor="start" x="471" y="-115.9" font-family="Times Roman,serif" font-size="14.00">_layout</text>
</g>
<!-- ProductsController -->
<g id="node7" class="node"><title>ProductsController</title>
<polyline fill="none" stroke="black" points="412,-778.5 534,-778.5 "/>
<path fill="none" stroke="black" d="M534,-778.5C540,-778.5 546,-784.5 546,-790.5"/>
<polyline fill="none" stroke="black" points="546,-790.5 546,-976.5 "/>
<path fill="none" stroke="black" d="M546,-976.5C546,-982.5 540,-988.5 534,-988.5"/>
<polyline fill="none" stroke="black" points="534,-988.5 412,-988.5 "/>
<path fill="none" stroke="black" d="M412,-988.5C406,-988.5 400,-982.5 400,-976.5"/>
<polyline fill="none" stroke="black" points="400,-976.5 400,-790.5 "/>
<path fill="none" stroke="black" d="M400,-790.5C400,-784.5 406,-778.5 412,-778.5"/>
<text text-anchor="middle" x="473" y="-971.9" font-family="Times Roman,serif" font-size="14.00">ProductsController</text>
<polyline fill="none" stroke="black" points="400,-962.5 546,-962.5 "/>
<text text-anchor="start" x="408" y="-945.9" font-family="Times Roman,serif" font-size="14.00">create</text>
<text text-anchor="start" x="408" y="-927.9" font-family="Times Roman,serif" font-size="14.00">destroy</text>
<text text-anchor="start" x="408" y="-909.9" font-family="Times Roman,serif" font-size="14.00">edit</text>
<text text-anchor="start" x="408" y="-891.9" font-family="Times Roman,serif" font-size="14.00">index</text>
<text text-anchor="start" x="408" y="-873.9" font-family="Times Roman,serif" font-size="14.00">new</text>
<text text-anchor="start" x="408" y="-855.9" font-family="Times Roman,serif" font-size="14.00">show</text>
<text text-anchor="start" x="408" y="-837.9" font-family="Times Roman,serif" font-size="14.00">update</text>
<polyline fill="none" stroke="black" points="400,-828.5 546,-828.5 "/>
<polyline fill="none" stroke="black" points="400,-804.5 546,-804.5 "/>
<text text-anchor="start" x="408" y="-787.9" font-family="Times Roman,serif" font-size="14.00">_layout</text>
</g>
<!-- TopicsController -->
<g id="node8" class="node"><title>TopicsController</title>
<polyline fill="none" stroke="black" points="328,-295.5 551,-295.5 "/>
<path fill="none" stroke="black" d="M551,-295.5C557,-295.5 563,-301.5 563,-307.5"/>
<polyline fill="none" stroke="black" points="563,-307.5 563,-565.5 "/>
<path fill="none" stroke="black" d="M563,-565.5C563,-571.5 557,-577.5 551,-577.5"/>
<polyline fill="none" stroke="black" points="551,-577.5 328,-577.5 "/>
<path fill="none" stroke="black" d="M328,-577.5C322,-577.5 316,-571.5 316,-565.5"/>
<polyline fill="none" stroke="black" points="316,-565.5 316,-307.5 "/>
<path fill="none" stroke="black" d="M316,-307.5C316,-301.5 322,-295.5 328,-295.5"/>
<text text-anchor="middle" x="439.5" y="-560.9" font-family="Times Roman,serif" font-size="14.00">TopicsController</text>
<polyline fill="none" stroke="black" points="316,-551.5 563,-551.5 "/>
<text text-anchor="start" x="324" y="-534.9" font-family="Times Roman,serif" font-size="14.00">_one_time_conditions_valid_246?</text>
<text text-anchor="start" x="324" y="-516.9" font-family="Times Roman,serif" font-size="14.00">_one_time_conditions_valid_248?</text>
<text text-anchor="start" x="324" y="-498.9" font-family="Times Roman,serif" font-size="14.00">all</text>
<text text-anchor="start" x="324" y="-480.9" font-family="Times Roman,serif" font-size="14.00">create</text>
<text text-anchor="start" x="324" y="-462.9" font-family="Times Roman,serif" font-size="14.00">destroy</text>
<text text-anchor="start" x="324" y="-444.9" font-family="Times Roman,serif" font-size="14.00">edit</text>
<text text-anchor="start" x="324" y="-426.9" font-family="Times Roman,serif" font-size="14.00">index</text>
<text text-anchor="start" x="324" y="-408.9" font-family="Times Roman,serif" font-size="14.00">new</text>
<text text-anchor="start" x="324" y="-390.9" font-family="Times Roman,serif" font-size="14.00">update</text>
<polyline fill="none" stroke="black" points="316,-381.5 563,-381.5 "/>
<polyline fill="none" stroke="black" points="316,-357.5 563,-357.5 "/>
<text text-anchor="start" x="324" y="-340.9" font-family="Times Roman,serif" font-size="14.00">_layout</text>
<text text-anchor="start" x="324" y="-322.9" font-family="Times Roman,serif" font-size="14.00">_run_process_action_callbacks</text>
<text text-anchor="start" x="324" y="-304.9" font-family="Times Roman,serif" font-size="14.00">load_folder</text>
</g>
<!-- StaffLevelsController -->
<g id="node9" class="node"><title>StaffLevelsController</title>
<polyline fill="none" stroke="black" points="769,-757.5 907,-757.5 "/>
<path fill="none" stroke="black" d="M907,-757.5C913,-757.5 919,-763.5 919,-769.5"/>
<polyline fill="none" stroke="black" points="919,-769.5 919,-955.5 "/>
<path fill="none" stroke="black" d="M919,-955.5C919,-961.5 913,-967.5 907,-967.5"/>
<polyline fill="none" stroke="black" points="907,-967.5 769,-967.5 "/>
<path fill="none" stroke="black" d="M769,-967.5C763,-967.5 757,-961.5 757,-955.5"/>
<polyline fill="none" stroke="black" points="757,-955.5 757,-769.5 "/>
<path fill="none" stroke="black" d="M757,-769.5C757,-763.5 763,-757.5 769,-757.5"/>
<text text-anchor="middle" x="838" y="-950.9" font-family="Times Roman,serif" font-size="14.00">StaffLevelsController</text>
<polyline fill="none" stroke="black" points="757,-941.5 919,-941.5 "/>
<text text-anchor="start" x="765" y="-924.9" font-family="Times Roman,serif" font-size="14.00">create</text>
<text text-anchor="start" x="765" y="-906.9" font-family="Times Roman,serif" font-size="14.00">destroy</text>
<text text-anchor="start" x="765" y="-888.9" font-family="Times Roman,serif" font-size="14.00">edit</text>
<text text-anchor="start" x="765" y="-870.9" font-family="Times Roman,serif" font-size="14.00">index</text>
<text text-anchor="start" x="765" y="-852.9" font-family="Times Roman,serif" font-size="14.00">new</text>
<text text-anchor="start" x="765" y="-834.9" font-family="Times Roman,serif" font-size="14.00">show</text>
<text text-anchor="start" x="765" y="-816.9" font-family="Times Roman,serif" font-size="14.00">update</text>
<polyline fill="none" stroke="black" points="757,-807.5 919,-807.5 "/>
<polyline fill="none" stroke="black" points="757,-783.5 919,-783.5 "/>
<text text-anchor="start" x="765" y="-766.9" font-family="Times Roman,serif" font-size="14.00">_layout</text>
</g>
<!-- FundingRoundsController -->
<g id="node10" class="node"><title>FundingRoundsController</title>
<polyline fill="none" stroke="black" points="622,-505.5 789,-505.5 "/>
<path fill="none" stroke="black" d="M789,-505.5C795,-505.5 801,-511.5 801,-517.5"/>
<polyline fill="none" stroke="black" points="801,-517.5 801,-703.5 "/>
<path fill="none" stroke="black" d="M801,-703.5C801,-709.5 795,-715.5 789,-715.5"/>
<polyline fill="none" stroke="black" points="789,-715.5 622,-715.5 "/>
<path fill="none" stroke="black" d="M622,-715.5C616,-715.5 610,-709.5 610,-703.5"/>
<polyline fill="none" stroke="black" points="610,-703.5 610,-517.5 "/>
<path fill="none" stroke="black" d="M610,-517.5C610,-511.5 616,-505.5 622,-505.5"/>
<text text-anchor="middle" x="705.5" y="-698.9" font-family="Times Roman,serif" font-size="14.00">FundingRoundsController</text>
<polyline fill="none" stroke="black" points="610,-689.5 801,-689.5 "/>
<text text-anchor="start" x="618" y="-672.9" font-family="Times Roman,serif" font-size="14.00">create</text>
<text text-anchor="start" x="618" y="-654.9" font-family="Times Roman,serif" font-size="14.00">destroy</text>
<text text-anchor="start" x="618" y="-636.9" font-family="Times Roman,serif" font-size="14.00">edit</text>
<text text-anchor="start" x="618" y="-618.9" font-family="Times Roman,serif" font-size="14.00">index</text>
<text text-anchor="start" x="618" y="-600.9" font-family="Times Roman,serif" font-size="14.00">new</text>
<text text-anchor="start" x="618" y="-582.9" font-family="Times Roman,serif" font-size="14.00">show</text>
<text text-anchor="start" x="618" y="-564.9" font-family="Times Roman,serif" font-size="14.00">update</text>
<polyline fill="none" stroke="black" points="610,-555.5 801,-555.5 "/>
<polyline fill="none" stroke="black" points="610,-531.5 801,-531.5 "/>
<text text-anchor="start" x="618" y="-514.9" font-family="Times Roman,serif" font-size="14.00">_layout</text>
</g>
<!-- AttachmentsController -->
<g id="node11" class="node"><title>AttachmentsController</title>
<polyline fill="none" stroke="black" points="139,-757.5 289,-757.5 "/>
<path fill="none" stroke="black" d="M289,-757.5C295,-757.5 301,-763.5 301,-769.5"/>
<polyline fill="none" stroke="black" points="301,-769.5 301,-919.5 "/>
<path fill="none" stroke="black" d="M301,-919.5C301,-925.5 295,-931.5 289,-931.5"/>
<polyline fill="none" stroke="black" points="289,-931.5 139,-931.5 "/>
<path fill="none" stroke="black" d="M139,-931.5C133,-931.5 127,-925.5 127,-919.5"/>
<polyline fill="none" stroke="black" points="127,-919.5 127,-769.5 "/>
<path fill="none" stroke="black" d="M127,-769.5C127,-763.5 133,-757.5 139,-757.5"/>
<text text-anchor="middle" x="214" y="-914.9" font-family="Times Roman,serif" font-size="14.00">AttachmentsController</text>
<polyline fill="none" stroke="black" points="127,-905.5 301,-905.5 "/>
<text text-anchor="start" x="135" y="-888.9" font-family="Times Roman,serif" font-size="14.00">create</text>
<text text-anchor="start" x="135" y="-870.9" font-family="Times Roman,serif" font-size="14.00">destroy</text>
<text text-anchor="start" x="135" y="-852.9" font-family="Times Roman,serif" font-size="14.00">index</text>
<text text-anchor="start" x="135" y="-834.9" font-family="Times Roman,serif" font-size="14.00">new</text>
<text text-anchor="start" x="135" y="-816.9" font-family="Times Roman,serif" font-size="14.00">show</text>
<polyline fill="none" stroke="black" points="127,-807.5 301,-807.5 "/>
<polyline fill="none" stroke="black" points="127,-783.5 301,-783.5 "/>
<text text-anchor="start" x="135" y="-766.9" font-family="Times Roman,serif" font-size="14.00">_layout</text>
</g>
<!-- CompaniesController -->
<g id="node12" class="node"><title>CompaniesController</title>
<polyline fill="none" stroke="black" points="118,-442.5 255,-442.5 "/>
<path fill="none" stroke="black" d="M255,-442.5C261,-442.5 267,-448.5 267,-454.5"/>
<polyline fill="none" stroke="black" points="267,-454.5 267,-640.5 "/>
<path fill="none" stroke="black" d="M267,-640.5C267,-646.5 261,-652.5 255,-652.5"/>
<polyline fill="none" stroke="black" points="255,-652.5 118,-652.5 "/>
<path fill="none" stroke="black" d="M118,-652.5C112,-652.5 106,-646.5 106,-640.5"/>
<polyline fill="none" stroke="black" points="106,-640.5 106,-454.5 "/>
<path fill="none" stroke="black" d="M106,-454.5C106,-448.5 112,-442.5 118,-442.5"/>
<text text-anchor="middle" x="186.5" y="-635.9" font-family="Times Roman,serif" font-size="14.00">CompaniesController</text>
<polyline fill="none" stroke="black" points="106,-626.5 267,-626.5 "/>
<text text-anchor="start" x="114" y="-609.9" font-family="Times Roman,serif" font-size="14.00">create</text>
<text text-anchor="start" x="114" y="-591.9" font-family="Times Roman,serif" font-size="14.00">destroy</text>
<text text-anchor="start" x="114" y="-573.9" font-family="Times Roman,serif" font-size="14.00">edit</text>
<text text-anchor="start" x="114" y="-555.9" font-family="Times Roman,serif" font-size="14.00">index</text>
<text text-anchor="start" x="114" y="-537.9" font-family="Times Roman,serif" font-size="14.00">new</text>
<text text-anchor="start" x="114" y="-519.9" font-family="Times Roman,serif" font-size="14.00">show</text>
<text text-anchor="start" x="114" y="-501.9" font-family="Times Roman,serif" font-size="14.00">update</text>
<polyline fill="none" stroke="black" points="106,-492.5 267,-492.5 "/>
<polyline fill="none" stroke="black" points="106,-468.5 267,-468.5 "/>
<text text-anchor="start" x="114" y="-451.9" font-family="Times Roman,serif" font-size="14.00">_layout</text>
</g>
<!-- DashboardController -->
<g id="node13" class="node"><title>DashboardController</title>
<polyline fill="none" stroke="black" points="118,-295.5 254,-295.5 "/>
<path fill="none" stroke="black" d="M254,-295.5C260,-295.5 266,-301.5 266,-307.5"/>
<polyline fill="none" stroke="black" points="266,-307.5 266,-385.5 "/>
<path fill="none" stroke="black" d="M266,-385.5C266,-391.5 260,-397.5 254,-397.5"/>
<polyline fill="none" stroke="black" points="254,-397.5 118,-397.5 "/>
<path fill="none" stroke="black" d="M118,-397.5C112,-397.5 106,-391.5 106,-385.5"/>
<polyline fill="none" stroke="black" points="106,-385.5 106,-307.5 "/>
<path fill="none" stroke="black" d="M106,-307.5C106,-301.5 112,-295.5 118,-295.5"/>
<text text-anchor="middle" x="186" y="-380.9" font-family="Times Roman,serif" font-size="14.00">DashboardController</text>
<polyline fill="none" stroke="black" points="106,-371.5 266,-371.5 "/>
<text text-anchor="start" x="114" y="-354.9" font-family="Times Roman,serif" font-size="14.00">index</text>
<polyline fill="none" stroke="black" points="106,-345.5 266,-345.5 "/>
<polyline fill="none" stroke="black" points="106,-321.5 266,-321.5 "/>
<text text-anchor="start" x="114" y="-304.9" font-family="Times Roman,serif" font-size="14.00">_layout</text>
</g>
<!-- NotificationsController -->
<g id="node14" class="node"><title>NotificationsController</title>
<polyline fill="none" stroke="black" points="748,-106.5 895,-106.5 "/>
<path fill="none" stroke="black" d="M895,-106.5C901,-106.5 907,-112.5 907,-118.5"/>
<polyline fill="none" stroke="black" points="907,-118.5 907,-214.5 "/>
<path fill="none" stroke="black" d="M907,-214.5C907,-220.5 901,-226.5 895,-226.5"/>
<polyline fill="none" stroke="black" points="895,-226.5 748,-226.5 "/>
<path fill="none" stroke="black" d="M748,-226.5C742,-226.5 736,-220.5 736,-214.5"/>
<polyline fill="none" stroke="black" points="736,-214.5 736,-118.5 "/>
<path fill="none" stroke="black" d="M736,-118.5C736,-112.5 742,-106.5 748,-106.5"/>
<text text-anchor="middle" x="821.5" y="-209.9" font-family="Times Roman,serif" font-size="14.00">NotificationsController</text>
<polyline fill="none" stroke="black" points="736,-200.5 907,-200.5 "/>
<text text-anchor="start" x="744" y="-183.9" font-family="Times Roman,serif" font-size="14.00">create</text>
<text text-anchor="start" x="744" y="-165.9" font-family="Times Roman,serif" font-size="14.00">new</text>
<polyline fill="none" stroke="black" points="736,-156.5 907,-156.5 "/>
<polyline fill="none" stroke="black" points="736,-132.5 907,-132.5 "/>
<text text-anchor="start" x="744" y="-115.9" font-family="Times Roman,serif" font-size="14.00">_layout</text>
</g>
<!-- UpdatesController -->
<g id="node15" class="node"><title>UpdatesController</title>
<polyline fill="none" stroke="black" points="13,-1.5 131,-1.5 "/>
<path fill="none" stroke="black" d="M131,-1.5C137,-1.5 143,-7.5 143,-13.5"/>
<polyline fill="none" stroke="black" points="143,-13.5 143,-109.5 "/>
<path fill="none" stroke="black" d="M143,-109.5C143,-115.5 137,-121.5 131,-121.5"/>
<polyline fill="none" stroke="black" points="131,-121.5 13,-121.5 "/>
<path fill="none" stroke="black" d="M13,-121.5C7,-121.5 1,-115.5 1,-109.5"/>
<polyline fill="none" stroke="black" points="1,-109.5 1,-13.5 "/>
<path fill="none" stroke="black" d="M1,-13.5C1,-7.5 7,-1.5 13,-1.5"/>
<text text-anchor="middle" x="72" y="-104.9" font-family="Times Roman,serif" font-size="14.00">UpdatesController</text>
<polyline fill="none" stroke="black" points="1,-95.5 143,-95.5 "/>
<text text-anchor="start" x="9" y="-78.9" font-family="Times Roman,serif" font-size="14.00">index</text>
<text text-anchor="start" x="9" y="-60.9" font-family="Times Roman,serif" font-size="14.00">userupdate</text>
<polyline fill="none" stroke="black" points="1,-51.5 143,-51.5 "/>
<polyline fill="none" stroke="black" points="1,-27.5 143,-27.5 "/>
<text text-anchor="start" x="9" y="-10.9" font-family="Times Roman,serif" font-size="14.00">_layout</text>
</g>
</g>
</svg>
