<?xml version="1.0" encoding="UTF-8" standalone="no"?>
<!DOCTYPE svg PUBLIC "-//W3C//DTD SVG 1.1//EN"
 "http://www.w3.org/Graphics/SVG/1.1/DTD/svg11.dtd">
<!-- Generated by graphviz version 2.26.3 (20100126.1600)
 -->
<!-- Title: controllers_diagram Pages: 1 -->
<svg width="1031pt" height="1040pt"
 viewBox="0.00 0.00 1031.00 1040.00" xmlns="http://www.w3.org/2000/svg" xmlns:xlink="http://www.w3.org/1999/xlink">
<g id="graph1" class="graph" transform="scale(1 1) rotate(0) translate(4 1036)">
<title>controllers_diagram</title>
<polygon fill="white" stroke="white" points="-4,5 -4,-1036 1028,-1036 1028,5 -4,5"/>
<!-- _diagram_info -->
<g id="node1" class="node"><title>_diagram_info</title>
<text text-anchor="start" x="303" y="-246.3" font-family="Times Roman,serif" font-size="13.00">Controllers diagram</text>
<text text-anchor="start" x="303" y="-229.3" font-family="Times Roman,serif" font-size="13.00">Date: Oct 18 2011 &#45; 15:53</text>
<text text-anchor="start" x="303" y="-212.3" font-family="Times Roman,serif" font-size="13.00">Migration version: 20111017113700</text>
<text text-anchor="start" x="303" y="-195.3" font-family="Times Roman,serif" font-size="13.00">Generated by RailRoady 1.0.2</text>
<text text-anchor="start" x="303" y="-178.3" font-family="Times Roman,serif" font-size="13.00">http://railroady.prestonlee.com</text>
</g>
<!-- PeopleController -->
<g id="node2" class="node"><title>PeopleController</title>
<polyline fill="none" stroke="black" points="433,-778.5 540,-778.5 "/>
<path fill="none" stroke="black" d="M540,-778.5C546,-778.5 552,-784.5 552,-790.5"/>
<polyline fill="none" stroke="black" points="552,-790.5 552,-976.5 "/>
<path fill="none" stroke="black" d="M552,-976.5C552,-982.5 546,-988.5 540,-988.5"/>
<polyline fill="none" stroke="black" points="540,-988.5 433,-988.5 "/>
<path fill="none" stroke="black" d="M433,-988.5C427,-988.5 421,-982.5 421,-976.5"/>
<polyline fill="none" stroke="black" points="421,-976.5 421,-790.5 "/>
<path fill="none" stroke="black" d="M421,-790.5C421,-784.5 427,-778.5 433,-778.5"/>
<text text-anchor="middle" x="486.5" y="-971.9" font-family="Times Roman,serif" font-size="14.00">PeopleController</text>
<polyline fill="none" stroke="black" points="421,-962.5 552,-962.5 "/>
<text text-anchor="start" x="429" y="-945.9" font-family="Times Roman,serif" font-size="14.00">create</text>
<text text-anchor="start" x="429" y="-927.9" font-family="Times Roman,serif" font-size="14.00">destroy</text>
<text text-anchor="start" x="429" y="-909.9" font-family="Times Roman,serif" font-size="14.00">edit</text>
<text text-anchor="start" x="429" y="-891.9" font-family="Times Roman,serif" font-size="14.00">index</text>
<text text-anchor="start" x="429" y="-873.9" font-family="Times Roman,serif" font-size="14.00">new</text>
<text text-anchor="start" x="429" y="-855.9" font-family="Times Roman,serif" font-size="14.00">show</text>
<text text-anchor="start" x="429" y="-837.9" font-family="Times Roman,serif" font-size="14.00">update</text>
<polyline fill="none" stroke="black" points="421,-828.5 552,-828.5 "/>
<polyline fill="none" stroke="black" points="421,-804.5 552,-804.5 "/>
<text text-anchor="start" x="429" y="-787.9" font-family="Times Roman,serif" font-size="14.00">_layout</text>
</g>
<!-- OfficesController -->
<g id="node3" class="node"><title>OfficesController</title>
<polyline fill="none" stroke="black" points="433,-1.5 541,-1.5 "/>
<path fill="none" stroke="black" d="M541,-1.5C547,-1.5 553,-7.5 553,-13.5"/>
<polyline fill="none" stroke="black" points="553,-13.5 553,-109.5 "/>
<path fill="none" stroke="black" d="M553,-109.5C553,-115.5 547,-121.5 541,-121.5"/>
<polyline fill="none" stroke="black" points="541,-121.5 433,-121.5 "/>
<path fill="none" stroke="black" d="M433,-121.5C427,-121.5 421,-115.5 421,-109.5"/>
<polyline fill="none" stroke="black" points="421,-109.5 421,-13.5 "/>
<path fill="none" stroke="black" d="M421,-13.5C421,-7.5 427,-1.5 433,-1.5"/>
<text text-anchor="middle" x="487" y="-104.9" font-family="Times Roman,serif" font-size="14.00">OfficesController</text>
<polyline fill="none" stroke="black" points="421,-95.5 553,-95.5 "/>
<text text-anchor="start" x="429" y="-78.9" font-family="Times Roman,serif" font-size="14.00">create</text>
<text text-anchor="start" x="429" y="-60.9" font-family="Times Roman,serif" font-size="14.00">index</text>
<polyline fill="none" stroke="black" points="421,-51.5 553,-51.5 "/>
<polyline fill="none" stroke="black" points="421,-27.5 553,-27.5 "/>
<text text-anchor="start" x="429" y="-10.9" font-family="Times Roman,serif" font-size="14.00">_layout</text>
</g>
<!-- ApplicationController -->
<g id="node4" class="node"><title>ApplicationController</title>
<polyline fill="none" stroke="black" points="328,-610.5 542,-610.5 "/>
<path fill="none" stroke="black" d="M542,-610.5C548,-610.5 554,-616.5 554,-622.5"/>
<polyline fill="none" stroke="black" points="554,-622.5 554,-718.5 "/>
<path fill="none" stroke="black" d="M554,-718.5C554,-724.5 548,-730.5 542,-730.5"/>
<polyline fill="none" stroke="black" points="542,-730.5 328,-730.5 "/>
<path fill="none" stroke="black" d="M328,-730.5C322,-730.5 316,-724.5 316,-718.5"/>
<polyline fill="none" stroke="black" points="316,-718.5 316,-622.5 "/>
<path fill="none" stroke="black" d="M316,-622.5C316,-616.5 322,-610.5 328,-610.5"/>
<text text-anchor="middle" x="435" y="-713.9" font-family="Times Roman,serif" font-size="14.00">ApplicationController</text>
<polyline fill="none" stroke="black" points="316,-704.5 554,-704.5 "/>
<text text-anchor="start" x="324" y="-687.9" font-family="Times Roman,serif" font-size="14.00">_one_time_conditions_valid_62?</text>
<polyline fill="none" stroke="black" points="316,-678.5 554,-678.5 "/>
<polyline fill="none" stroke="black" points="316,-654.5 554,-654.5 "/>
<text text-anchor="start" x="324" y="-637.9" font-family="Times Roman,serif" font-size="14.00">_layout</text>
<text text-anchor="start" x="324" y="-619.9" font-family="Times Roman,serif" font-size="14.00">_run_process_action_callbacks</text>
</g>
<!-- FoldersController -->
<g id="node5" class="node"><title>FoldersController</title>
<polyline fill="none" stroke="black" points="601,-274.5 824,-274.5 "/>
<path fill="none" stroke="black" d="M824,-274.5C830,-274.5 836,-280.5 836,-286.5"/>
<polyline fill="none" stroke="black" points="836,-286.5 836,-490.5 "/>
<path fill="none" stroke="black" d="M836,-490.5C836,-496.5 830,-502.5 824,-502.5"/>
<polyline fill="none" stroke="black" points="824,-502.5 601,-502.5 "/>
<path fill="none" stroke="black" d="M601,-502.5C595,-502.5 589,-496.5 589,-490.5"/>
<polyline fill="none" stroke="black" points="589,-490.5 589,-286.5 "/>
<path fill="none" stroke="black" d="M589,-286.5C589,-280.5 595,-274.5 601,-274.5"/>
<text text-anchor="middle" x="712.5" y="-485.9" font-family="Times Roman,serif" font-size="14.00">FoldersController</text>
<polyline fill="none" stroke="black" points="589,-476.5 836,-476.5 "/>
<text text-anchor="start" x="597" y="-459.9" font-family="Times Roman,serif" font-size="14.00">_one_time_conditions_valid_140?</text>
<text text-anchor="start" x="597" y="-441.9" font-family="Times Roman,serif" font-size="14.00">_one_time_conditions_valid_142?</text>
<text text-anchor="start" x="597" y="-423.9" font-family="Times Roman,serif" font-size="14.00">create</text>
<text text-anchor="start" x="597" y="-405.9" font-family="Times Roman,serif" font-size="14.00">index</text>
<text text-anchor="start" x="597" y="-387.9" font-family="Times Roman,serif" font-size="14.00">new</text>
<text text-anchor="start" x="597" y="-369.9" font-family="Times Roman,serif" font-size="14.00">show</text>
<polyline fill="none" stroke="black" points="589,-360.5 836,-360.5 "/>
<polyline fill="none" stroke="black" points="589,-336.5 836,-336.5 "/>
<text text-anchor="start" x="597" y="-319.9" font-family="Times Roman,serif" font-size="14.00">_layout</text>
<text text-anchor="start" x="597" y="-301.9" font-family="Times Roman,serif" font-size="14.00">_run_process_action_callbacks</text>
<text text-anchor="start" x="597" y="-283.9" font-family="Times Roman,serif" font-size="14.00">load_research</text>
</g>
<!-- EmploymentStatusesController -->
<g id="node6" class="node"><title>EmploymentStatusesController</title>
<polyline fill="none" stroke="black" points="601,-106.5 809,-106.5 "/>
<path fill="none" stroke="black" d="M809,-106.5C815,-106.5 821,-112.5 821,-118.5"/>
<polyline fill="none" stroke="black" points="821,-118.5 821,-214.5 "/>
<path fill="none" stroke="black" d="M821,-214.5C821,-220.5 815,-226.5 809,-226.5"/>
<polyline fill="none" stroke="black" points="809,-226.5 601,-226.5 "/>
<path fill="none" stroke="black" d="M601,-226.5C595,-226.5 589,-220.5 589,-214.5"/>
<polyline fill="none" stroke="black" points="589,-214.5 589,-118.5 "/>
<path fill="none" stroke="black" d="M589,-118.5C589,-112.5 595,-106.5 601,-106.5"/>
<text text-anchor="middle" x="705" y="-209.9" font-family="Times Roman,serif" font-size="14.00">EmploymentStatusesController</text>
<polyline fill="none" stroke="black" points="589,-200.5 821,-200.5 "/>
<text text-anchor="start" x="597" y="-183.9" font-family="Times Roman,serif" font-size="14.00">create</text>
<text text-anchor="start" x="597" y="-165.9" font-family="Times Roman,serif" font-size="14.00">index</text>
<polyline fill="none" stroke="black" points="589,-156.5 821,-156.5 "/>
<polyline fill="none" stroke="black" points="589,-132.5 821,-132.5 "/>
<text text-anchor="start" x="597" y="-115.9" font-family="Times Roman,serif" font-size="14.00">_layout</text>
</g>
<!-- ProductsController -->
<g id="node7" class="node"><title>ProductsController</title>
<polyline fill="none" stroke="black" points="811,-820.5 933,-820.5 "/>
<path fill="none" stroke="black" d="M933,-820.5C939,-820.5 945,-826.5 945,-832.5"/>
<polyline fill="none" stroke="black" points="945,-832.5 945,-1018.5 "/>
<path fill="none" stroke="black" d="M945,-1018.5C945,-1024.5 939,-1030.5 933,-1030.5"/>
<polyline fill="none" stroke="black" points="933,-1030.5 811,-1030.5 "/>
<path fill="none" stroke="black" d="M811,-1030.5C805,-1030.5 799,-1024.5 799,-1018.5"/>
<polyline fill="none" stroke="black" points="799,-1018.5 799,-832.5 "/>
<path fill="none" stroke="black" d="M799,-832.5C799,-826.5 805,-820.5 811,-820.5"/>
<text text-anchor="middle" x="872" y="-1013.9" font-family="Times Roman,serif" font-size="14.00">ProductsController</text>
<polyline fill="none" stroke="black" points="799,-1004.5 945,-1004.5 "/>
<text text-anchor="start" x="807" y="-987.9" font-family="Times Roman,serif" font-size="14.00">create</text>
<text text-anchor="start" x="807" y="-969.9" font-family="Times Roman,serif" font-size="14.00">destroy</text>
<text text-anchor="start" x="807" y="-951.9" font-family="Times Roman,serif" font-size="14.00">edit</text>
<text text-anchor="start" x="807" y="-933.9" font-family="Times Roman,serif" font-size="14.00">index</text>
<text text-anchor="start" x="807" y="-915.9" font-family="Times Roman,serif" font-size="14.00">new</text>
<text text-anchor="start" x="807" y="-897.9" font-family="Times Roman,serif" font-size="14.00">show</text>
<text text-anchor="start" x="807" y="-879.9" font-family="Times Roman,serif" font-size="14.00">update</text>
<polyline fill="none" stroke="black" points="799,-870.5 945,-870.5 "/>
<polyline fill="none" stroke="black" points="799,-846.5 945,-846.5 "/>
<text text-anchor="start" x="807" y="-829.9" font-family="Times Roman,serif" font-size="14.00">_layout</text>
</g>
<!-- TopicsController -->
<g id="node8" class="node"><title>TopicsController</title>
<polyline fill="none" stroke="black" points="307,-295.5 530,-295.5 "/>
<path fill="none" stroke="black" d="M530,-295.5C536,-295.5 542,-301.5 542,-307.5"/>
<polyline fill="none" stroke="black" points="542,-307.5 542,-565.5 "/>
<path fill="none" stroke="black" d="M542,-565.5C542,-571.5 536,-577.5 530,-577.5"/>
<polyline fill="none" stroke="black" points="530,-577.5 307,-577.5 "/>
<path fill="none" stroke="black" d="M307,-577.5C301,-577.5 295,-571.5 295,-565.5"/>
<polyline fill="none" stroke="black" points="295,-565.5 295,-307.5 "/>
<path fill="none" stroke="black" d="M295,-307.5C295,-301.5 301,-295.5 307,-295.5"/>
<text text-anchor="middle" x="418.5" y="-560.9" font-family="Times Roman,serif" font-size="14.00">TopicsController</text>
<polyline fill="none" stroke="black" points="295,-551.5 542,-551.5 "/>
<text text-anchor="start" x="303" y="-534.9" font-family="Times Roman,serif" font-size="14.00">_one_time_conditions_valid_250?</text>
<text text-anchor="start" x="303" y="-516.9" font-family="Times Roman,serif" font-size="14.00">_one_time_conditions_valid_252?</text>
<text text-anchor="start" x="303" y="-498.9" font-family="Times Roman,serif" font-size="14.00">all</text>
<text text-anchor="start" x="303" y="-480.9" font-family="Times Roman,serif" font-size="14.00">create</text>
<text text-anchor="start" x="303" y="-462.9" font-family="Times Roman,serif" font-size="14.00">destroy</text>
<text text-anchor="start" x="303" y="-444.9" font-family="Times Roman,serif" font-size="14.00">edit</text>
<text text-anchor="start" x="303" y="-426.9" font-family="Times Roman,serif" font-size="14.00">index</text>
<text text-anchor="start" x="303" y="-408.9" font-family="Times Roman,serif" font-size="14.00">new</text>
<text text-anchor="start" x="303" y="-390.9" font-family="Times Roman,serif" font-size="14.00">update</text>
<polyline fill="none" stroke="black" points="295,-381.5 542,-381.5 "/>
<polyline fill="none" stroke="black" points="295,-357.5 542,-357.5 "/>
<text text-anchor="start" x="303" y="-340.9" font-family="Times Roman,serif" font-size="14.00">_layout</text>
<text text-anchor="start" x="303" y="-322.9" font-family="Times Roman,serif" font-size="14.00">_run_process_action_callbacks</text>
<text text-anchor="start" x="303" y="-304.9" font-family="Times Roman,serif" font-size="14.00">load_research_folder</text>
</g>
<!-- ResearchesController -->
<g id="node9" class="node"><title>ResearchesController</title>
<polyline fill="none" stroke="black" points="118,-757.5 257,-757.5 "/>
<path fill="none" stroke="black" d="M257,-757.5C263,-757.5 269,-763.5 269,-769.5"/>
<polyline fill="none" stroke="black" points="269,-769.5 269,-955.5 "/>
<path fill="none" stroke="black" d="M269,-955.5C269,-961.5 263,-967.5 257,-967.5"/>
<polyline fill="none" stroke="black" points="257,-967.5 118,-967.5 "/>
<path fill="none" stroke="black" d="M118,-967.5C112,-967.5 106,-961.5 106,-955.5"/>
<polyline fill="none" stroke="black" points="106,-955.5 106,-769.5 "/>
<path fill="none" stroke="black" d="M106,-769.5C106,-763.5 112,-757.5 118,-757.5"/>
<text text-anchor="middle" x="187.5" y="-950.9" font-family="Times Roman,serif" font-size="14.00">ResearchesController</text>
<polyline fill="none" stroke="black" points="106,-941.5 269,-941.5 "/>
<text text-anchor="start" x="114" y="-924.9" font-family="Times Roman,serif" font-size="14.00">create</text>
<text text-anchor="start" x="114" y="-906.9" font-family="Times Roman,serif" font-size="14.00">destroy</text>
<text text-anchor="start" x="114" y="-888.9" font-family="Times Roman,serif" font-size="14.00">edit</text>
<text text-anchor="start" x="114" y="-870.9" font-family="Times Roman,serif" font-size="14.00">index</text>
<text text-anchor="start" x="114" y="-852.9" font-family="Times Roman,serif" font-size="14.00">new</text>
<text text-anchor="start" x="114" y="-834.9" font-family="Times Roman,serif" font-size="14.00">show</text>
<text text-anchor="start" x="114" y="-816.9" font-family="Times Roman,serif" font-size="14.00">update</text>
<polyline fill="none" stroke="black" points="106,-807.5 269,-807.5 "/>
<polyline fill="none" stroke="black" points="106,-783.5 269,-783.5 "/>
<text text-anchor="start" x="114" y="-766.9" font-family="Times Roman,serif" font-size="14.00">_layout</text>
</g>
<!-- StaffLevelsController -->
<g id="node10" class="node"><title>StaffLevelsController</title>
<polyline fill="none" stroke="black" points="97,-442.5 235,-442.5 "/>
<path fill="none" stroke="black" d="M235,-442.5C241,-442.5 247,-448.5 247,-454.5"/>
<polyline fill="none" stroke="black" points="247,-454.5 247,-622.5 "/>
<path fill="none" stroke="black" d="M247,-622.5C247,-628.5 241,-634.5 235,-634.5"/>
<polyline fill="none" stroke="black" points="235,-634.5 97,-634.5 "/>
<path fill="none" stroke="black" d="M97,-634.5C91,-634.5 85,-628.5 85,-622.5"/>
<polyline fill="none" stroke="black" points="85,-622.5 85,-454.5 "/>
<path fill="none" stroke="black" d="M85,-454.5C85,-448.5 91,-442.5 97,-442.5"/>
<text text-anchor="middle" x="166" y="-617.9" font-family="Times Roman,serif" font-size="14.00">StaffLevelsController</text>
<polyline fill="none" stroke="black" points="85,-608.5 247,-608.5 "/>
<text text-anchor="start" x="93" y="-591.9" font-family="Times Roman,serif" font-size="14.00">create</text>
<text text-anchor="start" x="93" y="-573.9" font-family="Times Roman,serif" font-size="14.00">destroy</text>
<text text-anchor="start" x="93" y="-555.9" font-family="Times Roman,serif" font-size="14.00">edit</text>
<text text-anchor="start" x="93" y="-537.9" font-family="Times Roman,serif" font-size="14.00">new</text>
<text text-anchor="start" x="93" y="-519.9" font-family="Times Roman,serif" font-size="14.00">show</text>
<text text-anchor="start" x="93" y="-501.9" font-family="Times Roman,serif" font-size="14.00">update</text>
<polyline fill="none" stroke="black" points="85,-492.5 247,-492.5 "/>
<polyline fill="none" stroke="black" points="85,-468.5 247,-468.5 "/>
<text text-anchor="start" x="93" y="-451.9" font-family="Times Roman,serif" font-size="14.00">_layout</text>
</g>
<!-- FundingRoundsController -->
<g id="node11" class="node"><title>FundingRoundsController</title>
<polyline fill="none" stroke="black" points="13,-22.5 180,-22.5 "/>
<path fill="none" stroke="black" d="M180,-22.5C186,-22.5 192,-28.5 192,-34.5"/>
<polyline fill="none" stroke="black" points="192,-34.5 192,-130.5 "/>
<path fill="none" stroke="black" d="M192,-130.5C192,-136.5 186,-142.5 180,-142.5"/>
<polyline fill="none" stroke="black" points="180,-142.5 13,-142.5 "/>
<path fill="none" stroke="black" d="M13,-142.5C7,-142.5 1,-136.5 1,-130.5"/>
<polyline fill="none" stroke="black" points="1,-130.5 1,-34.5 "/>
<path fill="none" stroke="black" d="M1,-34.5C1,-28.5 7,-22.5 13,-22.5"/>
<text text-anchor="middle" x="96.5" y="-125.9" font-family="Times Roman,serif" font-size="14.00">FundingRoundsController</text>
<polyline fill="none" stroke="black" points="1,-116.5 192,-116.5 "/>
<text text-anchor="start" x="9" y="-99.9" font-family="Times Roman,serif" font-size="14.00">create</text>
<text text-anchor="start" x="9" y="-81.9" font-family="Times Roman,serif" font-size="14.00">index</text>
<polyline fill="none" stroke="black" points="1,-72.5 192,-72.5 "/>
<polyline fill="none" stroke="black" points="1,-48.5 192,-48.5 "/>
<text text-anchor="start" x="9" y="-31.9" font-family="Times Roman,serif" font-size="14.00">_layout</text>
</g>
<!-- AttachmentsController -->
<g id="node12" class="node"><title>AttachmentsController</title>
<polyline fill="none" stroke="black" points="601,-547.5 824,-547.5 "/>
<path fill="none" stroke="black" d="M824,-547.5C830,-547.5 836,-553.5 836,-559.5"/>
<polyline fill="none" stroke="black" points="836,-559.5 836,-763.5 "/>
<path fill="none" stroke="black" d="M836,-763.5C836,-769.5 830,-775.5 824,-775.5"/>
<polyline fill="none" stroke="black" points="824,-775.5 601,-775.5 "/>
<path fill="none" stroke="black" d="M601,-775.5C595,-775.5 589,-769.5 589,-763.5"/>
<polyline fill="none" stroke="black" points="589,-763.5 589,-559.5 "/>
<path fill="none" stroke="black" d="M589,-559.5C589,-553.5 595,-547.5 601,-547.5"/>
<text text-anchor="middle" x="712.5" y="-758.9" font-family="Times Roman,serif" font-size="14.00">AttachmentsController</text>
<polyline fill="none" stroke="black" points="589,-749.5 836,-749.5 "/>
<text text-anchor="start" x="597" y="-732.9" font-family="Times Roman,serif" font-size="14.00">_one_time_conditions_valid_306?</text>
<text text-anchor="start" x="597" y="-714.9" font-family="Times Roman,serif" font-size="14.00">create</text>
<text text-anchor="start" x="597" y="-696.9" font-family="Times Roman,serif" font-size="14.00">destroy</text>
<text text-anchor="start" x="597" y="-678.9" font-family="Times Roman,serif" font-size="14.00">index</text>
<text text-anchor="start" x="597" y="-660.9" font-family="Times Roman,serif" font-size="14.00">new</text>
<text text-anchor="start" x="597" y="-642.9" font-family="Times Roman,serif" font-size="14.00">show</text>
<polyline fill="none" stroke="black" points="589,-633.5 836,-633.5 "/>
<polyline fill="none" stroke="black" points="589,-609.5 836,-609.5 "/>
<text text-anchor="start" x="597" y="-592.9" font-family="Times Roman,serif" font-size="14.00">_layout</text>
<text text-anchor="start" x="597" y="-574.9" font-family="Times Roman,serif" font-size="14.00">_run_process_action_callbacks</text>
<text text-anchor="start" x="597" y="-556.9" font-family="Times Roman,serif" font-size="14.00">load_research_folder</text>
</g>
<!-- CompaniesController -->
<g id="node13" class="node"><title>CompaniesController</title>
<polyline fill="none" stroke="black" points="97,-190.5 234,-190.5 "/>
<path fill="none" stroke="black" d="M234,-190.5C240,-190.5 246,-196.5 246,-202.5"/>
<polyline fill="none" stroke="black" points="246,-202.5 246,-388.5 "/>
<path fill="none" stroke="black" d="M246,-388.5C246,-394.5 240,-400.5 234,-400.5"/>
<polyline fill="none" stroke="black" points="234,-400.5 97,-400.5 "/>
<path fill="none" stroke="black" d="M97,-400.5C91,-400.5 85,-394.5 85,-388.5"/>
<polyline fill="none" stroke="black" points="85,-388.5 85,-202.5 "/>
<path fill="none" stroke="black" d="M85,-202.5C85,-196.5 91,-190.5 97,-190.5"/>
<text text-anchor="middle" x="165.5" y="-383.9" font-family="Times Roman,serif" font-size="14.00">CompaniesController</text>
<polyline fill="none" stroke="black" points="85,-374.5 246,-374.5 "/>
<text text-anchor="start" x="93" y="-357.9" font-family="Times Roman,serif" font-size="14.00">create</text>
<text text-anchor="start" x="93" y="-339.9" font-family="Times Roman,serif" font-size="14.00">destroy</text>
<text text-anchor="start" x="93" y="-321.9" font-family="Times Roman,serif" font-size="14.00">edit</text>
<text text-anchor="start" x="93" y="-303.9" font-family="Times Roman,serif" font-size="14.00">index</text>
<text text-anchor="start" x="93" y="-285.9" font-family="Times Roman,serif" font-size="14.00">new</text>
<text text-anchor="start" x="93" y="-267.9" font-family="Times Roman,serif" font-size="14.00">show</text>
<text text-anchor="start" x="93" y="-249.9" font-family="Times Roman,serif" font-size="14.00">update</text>
<polyline fill="none" stroke="black" points="85,-240.5 246,-240.5 "/>
<polyline fill="none" stroke="black" points="85,-216.5 246,-216.5 "/>
<text text-anchor="start" x="93" y="-199.9" font-family="Times Roman,serif" font-size="14.00">_layout</text>
</g>
<!-- DashboardController -->
<g id="node14" class="node"><title>DashboardController</title>
<polyline fill="none" stroke="black" points="874,-1.5 1010,-1.5 "/>
<path fill="none" stroke="black" d="M1010,-1.5C1016,-1.5 1022,-7.5 1022,-13.5"/>
<polyline fill="none" stroke="black" points="1022,-13.5 1022,-91.5 "/>
<path fill="none" stroke="black" d="M1022,-91.5C1022,-97.5 1016,-103.5 1010,-103.5"/>
<polyline fill="none" stroke="black" points="1010,-103.5 874,-103.5 "/>
<path fill="none" stroke="black" d="M874,-103.5C868,-103.5 862,-97.5 862,-91.5"/>
<polyline fill="none" stroke="black" points="862,-91.5 862,-13.5 "/>
<path fill="none" stroke="black" d="M862,-13.5C862,-7.5 868,-1.5 874,-1.5"/>
<text text-anchor="middle" x="942" y="-86.9" font-family="Times Roman,serif" font-size="14.00">DashboardController</text>
<polyline fill="none" stroke="black" points="862,-77.5 1022,-77.5 "/>
<text text-anchor="start" x="870" y="-60.9" font-family="Times Roman,serif" font-size="14.00">index</text>
<polyline fill="none" stroke="black" points="862,-51.5 1022,-51.5 "/>
<polyline fill="none" stroke="black" points="862,-27.5 1022,-27.5 "/>
<text text-anchor="start" x="870" y="-10.9" font-family="Times Roman,serif" font-size="14.00">_layout</text>
</g>
<!-- NotificationsController -->
<g id="node15" class="node"><title>NotificationsController</title>
<polyline fill="none" stroke="black" points="601,-820.5 748,-820.5 "/>
<path fill="none" stroke="black" d="M748,-820.5C754,-820.5 760,-826.5 760,-832.5"/>
<polyline fill="none" stroke="black" points="760,-832.5 760,-928.5 "/>
<path fill="none" stroke="black" d="M760,-928.5C760,-934.5 754,-940.5 748,-940.5"/>
<polyline fill="none" stroke="black" points="748,-940.5 601,-940.5 "/>
<path fill="none" stroke="black" d="M601,-940.5C595,-940.5 589,-934.5 589,-928.5"/>
<polyline fill="none" stroke="black" points="589,-928.5 589,-832.5 "/>
<path fill="none" stroke="black" d="M589,-832.5C589,-826.5 595,-820.5 601,-820.5"/>
<text text-anchor="middle" x="674.5" y="-923.9" font-family="Times Roman,serif" font-size="14.00">NotificationsController</text>
<polyline fill="none" stroke="black" points="589,-914.5 760,-914.5 "/>
<text text-anchor="start" x="597" y="-897.9" font-family="Times Roman,serif" font-size="14.00">create</text>
<text text-anchor="start" x="597" y="-879.9" font-family="Times Roman,serif" font-size="14.00">new</text>
<polyline fill="none" stroke="black" points="589,-870.5 760,-870.5 "/>
<polyline fill="none" stroke="black" points="589,-846.5 760,-846.5 "/>
<text text-anchor="start" x="597" y="-829.9" font-family="Times Roman,serif" font-size="14.00">_layout</text>
</g>
<!-- UpdatesController -->
<g id="node16" class="node"><title>UpdatesController</title>
<polyline fill="none" stroke="black" points="244,-1.5 362,-1.5 "/>
<path fill="none" stroke="black" d="M362,-1.5C368,-1.5 374,-7.5 374,-13.5"/>
<polyline fill="none" stroke="black" points="374,-13.5 374,-109.5 "/>
<path fill="none" stroke="black" d="M374,-109.5C374,-115.5 368,-121.5 362,-121.5"/>
<polyline fill="none" stroke="black" points="362,-121.5 244,-121.5 "/>
<path fill="none" stroke="black" d="M244,-121.5C238,-121.5 232,-115.5 232,-109.5"/>
<polyline fill="none" stroke="black" points="232,-109.5 232,-13.5 "/>
<path fill="none" stroke="black" d="M232,-13.5C232,-7.5 238,-1.5 244,-1.5"/>
<text text-anchor="middle" x="303" y="-104.9" font-family="Times Roman,serif" font-size="14.00">UpdatesController</text>
<polyline fill="none" stroke="black" points="232,-95.5 374,-95.5 "/>
<text text-anchor="start" x="240" y="-78.9" font-family="Times Roman,serif" font-size="14.00">index</text>
<text text-anchor="start" x="240" y="-60.9" font-family="Times Roman,serif" font-size="14.00">userupdate</text>
<polyline fill="none" stroke="black" points="232,-51.5 374,-51.5 "/>
<polyline fill="none" stroke="black" points="232,-27.5 374,-27.5 "/>
<text text-anchor="start" x="240" y="-10.9" font-family="Times Roman,serif" font-size="14.00">_layout</text>
</g>
</g>
</svg>
