<?xml version="1.0" encoding="UTF-8" standalone="no"?>
<!DOCTYPE svg PUBLIC "-//W3C//DTD SVG 1.1//EN"
 "http://www.w3.org/Graphics/SVG/1.1/DTD/svg11.dtd">
<!-- Generated by graphviz version 2.26.3 (20100126.1600)
 -->
<!-- Title: models_diagram Pages: 1 -->
<svg width="2217pt" height="930pt"
 viewBox="0.00 0.00 2217.00 930.00" xmlns="http://www.w3.org/2000/svg" xmlns:xlink="http://www.w3.org/1999/xlink">
<g id="graph1" class="graph" transform="scale(1 1) rotate(0) translate(4 926)">
<title>models_diagram</title>
<polygon fill="white" stroke="white" points="-4,5 -4,-926 2214,-926 2214,5 -4,5"/>
<!-- _diagram_info -->
<g id="node1" class="node"><title>_diagram_info</title>
<text text-anchor="start" x="8" y="-790.8" font-family="Times Roman,serif" font-size="13.00">Models diagram</text>
<text text-anchor="start" x="8" y="-773.8" font-family="Times Roman,serif" font-size="13.00">Date: Oct 17 2011 &#45; 02:11</text>
<text text-anchor="start" x="8" y="-756.8" font-family="Times Roman,serif" font-size="13.00">Migration version: 20111015112216</text>
<text text-anchor="start" x="8" y="-739.8" font-family="Times Roman,serif" font-size="13.00">Generated by RailRoady 1.0.2</text>
<text text-anchor="start" x="8" y="-722.8" font-family="Times Roman,serif" font-size="13.00">http://railroady.prestonlee.com</text>
</g>
<!-- Attachment -->
<g id="node2" class="node"><title>Attachment</title>
<polyline fill="none" stroke="black" points="279.5,-689 496.5,-689 "/>
<path fill="none" stroke="black" d="M496.5,-689C502.5,-689 508.5,-695 508.5,-701"/>
<polyline fill="none" stroke="black" points="508.5,-701 508.5,-819 "/>
<path fill="none" stroke="black" d="M508.5,-819C508.5,-825 502.5,-831 496.5,-831"/>
<polyline fill="none" stroke="black" points="496.5,-831 279.5,-831 "/>
<path fill="none" stroke="black" d="M279.5,-831C273.5,-831 267.5,-825 267.5,-819"/>
<polyline fill="none" stroke="black" points="267.5,-819 267.5,-701 "/>
<path fill="none" stroke="black" d="M267.5,-701C267.5,-695 273.5,-689 279.5,-689"/>
<text text-anchor="middle" x="388" y="-814.4" font-family="Times Roman,serif" font-size="14.00">Attachment</text>
<polyline fill="none" stroke="black" points="267.5,-805 508.5,-805 "/>
<text text-anchor="start" x="275.5" y="-788.4" font-family="Times Roman,serif" font-size="14.00">document_file_name :string</text>
<text text-anchor="start" x="275.5" y="-770.4" font-family="Times Roman,serif" font-size="14.00">document_content_type :string</text>
<text text-anchor="start" x="275.5" y="-752.4" font-family="Times Roman,serif" font-size="14.00">document_file_size :integer</text>
<text text-anchor="start" x="275.5" y="-734.4" font-family="Times Roman,serif" font-size="14.00">document_updated_at :datetime</text>
<text text-anchor="start" x="275.5" y="-716.4" font-family="Times Roman,serif" font-size="14.00">created_at :datetime</text>
<text text-anchor="start" x="275.5" y="-698.4" font-family="Times Roman,serif" font-size="14.00">updated_at :datetime</text>
</g>
<!-- Topic -->
<g id="node6" class="node"><title>Topic</title>
<polyline fill="none" stroke="black" points="640.5,-417 781.5,-417 "/>
<path fill="none" stroke="black" d="M781.5,-417C787.5,-417 793.5,-423 793.5,-429"/>
<polyline fill="none" stroke="black" points="793.5,-429 793.5,-547 "/>
<path fill="none" stroke="black" d="M793.5,-547C793.5,-553 787.5,-559 781.5,-559"/>
<polyline fill="none" stroke="black" points="781.5,-559 640.5,-559 "/>
<path fill="none" stroke="black" d="M640.5,-559C634.5,-559 628.5,-553 628.5,-547"/>
<polyline fill="none" stroke="black" points="628.5,-547 628.5,-429 "/>
<path fill="none" stroke="black" d="M628.5,-429C628.5,-423 634.5,-417 640.5,-417"/>
<text text-anchor="middle" x="711" y="-542.4" font-family="Times Roman,serif" font-size="14.00">Topic</text>
<polyline fill="none" stroke="black" points="628.5,-533 793.5,-533 "/>
<text text-anchor="start" x="636.5" y="-516.4" font-family="Times Roman,serif" font-size="14.00">title :string</text>
<text text-anchor="start" x="636.5" y="-498.4" font-family="Times Roman,serif" font-size="14.00">content :text</text>
<text text-anchor="start" x="636.5" y="-480.4" font-family="Times Roman,serif" font-size="14.00">created_at :datetime</text>
<text text-anchor="start" x="636.5" y="-462.4" font-family="Times Roman,serif" font-size="14.00">updated_at :datetime</text>
<text text-anchor="start" x="636.5" y="-444.4" font-family="Times Roman,serif" font-size="14.00">progress :integer</text>
<text text-anchor="start" x="636.5" y="-426.4" font-family="Times Roman,serif" font-size="14.00">version :string</text>
</g>
<!-- Attachment&#45;&gt;Topic -->
<g id="edge4" class="edge"><title>Attachment&#45;&gt;Topic</title>
<path fill="none" stroke="black" d="M441.653,-680.47C463.009,-652.341 489.137,-621.807 517,-598 547.534,-571.91 585.176,-548.903 619.151,-530.764"/>
<polygon fill="black" stroke="black" points="441.468,-680.718 431.87,-686.023 438.47,-684.719 435.472,-688.721 435.472,-688.721 435.472,-688.721 438.47,-684.719 439.073,-691.419 441.468,-680.718 441.468,-680.718"/>
<polygon fill="black" stroke="black" points="619.315,-530.678 630.26,-530.001 623.74,-528.349 628.164,-526.019 628.164,-526.019 628.164,-526.019 623.74,-528.349 626.068,-522.037 619.315,-530.678 619.315,-530.678"/>
</g>
<!-- Attach -->
<g id="node16" class="node"><title>Attach</title>
<polyline fill="none" stroke="black" points="348.5,-201 489.5,-201 "/>
<path fill="none" stroke="black" d="M489.5,-201C495.5,-201 501.5,-207 501.5,-213"/>
<polyline fill="none" stroke="black" points="501.5,-213 501.5,-259 "/>
<path fill="none" stroke="black" d="M501.5,-259C501.5,-265 495.5,-271 489.5,-271"/>
<polyline fill="none" stroke="black" points="489.5,-271 348.5,-271 "/>
<path fill="none" stroke="black" d="M348.5,-271C342.5,-271 336.5,-265 336.5,-259"/>
<polyline fill="none" stroke="black" points="336.5,-259 336.5,-213 "/>
<path fill="none" stroke="black" d="M336.5,-213C336.5,-207 342.5,-201 348.5,-201"/>
<text text-anchor="middle" x="419" y="-254.4" font-family="Times Roman,serif" font-size="14.00">Attach</text>
<polyline fill="none" stroke="black" points="336.5,-245 501.5,-245 "/>
<text text-anchor="start" x="344.5" y="-228.4" font-family="Times Roman,serif" font-size="14.00">created_at :datetime</text>
<text text-anchor="start" x="344.5" y="-210.4" font-family="Times Roman,serif" font-size="14.00">updated_at :datetime</text>
</g>
<!-- Attachment&#45;&gt;Attach -->
<g id="edge2" class="edge"><title>Attachment&#45;&gt;Attach</title>
<path fill="none" stroke="black" d="M392.696,-680.618C399.283,-569.274 411.05,-370.385 416.319,-281.314"/>
<ellipse fill="none" stroke="black" cx="392.449" cy="-684.793" rx="4" ry="4"/>
<polygon fill="black" stroke="black" points="416.323,-281.245 421.406,-271.528 416.619,-276.254 416.914,-271.262 416.914,-271.262 416.914,-271.262 416.619,-276.254 412.422,-270.996 416.323,-281.245 416.323,-281.245"/>
</g>
<!-- Update -->
<g id="node3" class="node"><title>Update</title>
<polyline fill="none" stroke="black" points="543,-183 703,-183 "/>
<path fill="none" stroke="black" d="M703,-183C709,-183 715,-189 715,-195"/>
<polyline fill="none" stroke="black" points="715,-195 715,-277 "/>
<path fill="none" stroke="black" d="M715,-277C715,-283 709,-289 703,-289"/>
<polyline fill="none" stroke="black" points="703,-289 543,-289 "/>
<path fill="none" stroke="black" d="M543,-289C537,-289 531,-283 531,-277"/>
<polyline fill="none" stroke="black" points="531,-277 531,-195 "/>
<path fill="none" stroke="black" d="M531,-195C531,-189 537,-183 543,-183"/>
<text text-anchor="middle" x="623" y="-272.4" font-family="Times Roman,serif" font-size="14.00">Update</text>
<polyline fill="none" stroke="black" points="531,-263 715,-263 "/>
<text text-anchor="start" x="539" y="-246.4" font-family="Times Roman,serif" font-size="14.00">type_of_update :string</text>
<text text-anchor="start" x="539" y="-228.4" font-family="Times Roman,serif" font-size="14.00">created_at :datetime</text>
<text text-anchor="start" x="539" y="-210.4" font-family="Times Roman,serif" font-size="14.00">updated_at :datetime</text>
<text text-anchor="start" x="539" y="-192.4" font-family="Times Roman,serif" font-size="14.00">progress_status :integer</text>
</g>
<!-- StaffLevel -->
<g id="node4" class="node"><title>StaffLevel</title>
<polyline fill="none" stroke="black" points="1454.5,-183 1659.5,-183 "/>
<path fill="none" stroke="black" d="M1659.5,-183C1665.5,-183 1671.5,-189 1671.5,-195"/>
<polyline fill="none" stroke="black" points="1671.5,-195 1671.5,-277 "/>
<path fill="none" stroke="black" d="M1671.5,-277C1671.5,-283 1665.5,-289 1659.5,-289"/>
<polyline fill="none" stroke="black" points="1659.5,-289 1454.5,-289 "/>
<path fill="none" stroke="black" d="M1454.5,-289C1448.5,-289 1442.5,-283 1442.5,-277"/>
<polyline fill="none" stroke="black" points="1442.5,-277 1442.5,-195 "/>
<path fill="none" stroke="black" d="M1442.5,-195C1442.5,-189 1448.5,-183 1454.5,-183"/>
<text text-anchor="middle" x="1557" y="-272.4" font-family="Times Roman,serif" font-size="14.00">StaffLevel</text>
<polyline fill="none" stroke="black" points="1442.5,-263 1671.5,-263 "/>
<text text-anchor="start" x="1450.5" y="-246.4" font-family="Times Roman,serif" font-size="14.00">number_of_employees :integer</text>
<text text-anchor="start" x="1450.5" y="-228.4" font-family="Times Roman,serif" font-size="14.00">created_at :datetime</text>
<text text-anchor="start" x="1450.5" y="-210.4" font-family="Times Roman,serif" font-size="14.00">updated_at :datetime</text>
<text text-anchor="start" x="1450.5" y="-192.4" font-family="Times Roman,serif" font-size="14.00">company_permalink :string</text>
</g>
<!-- Folder -->
<g id="node5" class="node"><title>Folder</title>
<polyline fill="none" stroke="black" points="809.5,-716 950.5,-716 "/>
<path fill="none" stroke="black" d="M950.5,-716C956.5,-716 962.5,-722 962.5,-728"/>
<polyline fill="none" stroke="black" points="962.5,-728 962.5,-792 "/>
<path fill="none" stroke="black" d="M962.5,-792C962.5,-798 956.5,-804 950.5,-804"/>
<polyline fill="none" stroke="black" points="950.5,-804 809.5,-804 "/>
<path fill="none" stroke="black" d="M809.5,-804C803.5,-804 797.5,-798 797.5,-792"/>
<polyline fill="none" stroke="black" points="797.5,-792 797.5,-728 "/>
<path fill="none" stroke="black" d="M797.5,-728C797.5,-722 803.5,-716 809.5,-716"/>
<text text-anchor="middle" x="880" y="-787.4" font-family="Times Roman,serif" font-size="14.00">Folder</text>
<polyline fill="none" stroke="black" points="797.5,-778 962.5,-778 "/>
<text text-anchor="start" x="805.5" y="-761.4" font-family="Times Roman,serif" font-size="14.00">title :string</text>
<text text-anchor="start" x="805.5" y="-743.4" font-family="Times Roman,serif" font-size="14.00">created_at :datetime</text>
<text text-anchor="start" x="805.5" y="-725.4" font-family="Times Roman,serif" font-size="14.00">updated_at :datetime</text>
</g>
<!-- Folder&#45;&gt;Topic -->
<g id="edge6" class="edge"><title>Folder&#45;&gt;Topic</title>
<path fill="none" stroke="black" d="M853.034,-708.81C835.592,-676.527 811.937,-634.237 789,-598 782.691,-588.032 775.843,-577.726 768.913,-567.602"/>
<ellipse fill="none" stroke="black" cx="854.986" cy="-712.434" rx="4.00002" ry="4.00002"/>
<polygon fill="black" stroke="black" points="768.762,-567.382 766.787,-556.596 765.923,-563.267 763.083,-559.151 763.083,-559.151 763.083,-559.151 765.923,-563.267 759.379,-561.707 768.762,-567.382 768.762,-567.382"/>
</g>
<!-- Notification -->
<g id="node13" class="node"><title>Notification</title>
<polyline fill="none" stroke="black" points="770.5,-192 949.5,-192 "/>
<path fill="none" stroke="black" d="M949.5,-192C955.5,-192 961.5,-198 961.5,-204"/>
<polyline fill="none" stroke="black" points="961.5,-204 961.5,-268 "/>
<path fill="none" stroke="black" d="M961.5,-268C961.5,-274 955.5,-280 949.5,-280"/>
<polyline fill="none" stroke="black" points="949.5,-280 770.5,-280 "/>
<path fill="none" stroke="black" d="M770.5,-280C764.5,-280 758.5,-274 758.5,-268"/>
<polyline fill="none" stroke="black" points="758.5,-268 758.5,-204 "/>
<path fill="none" stroke="black" d="M758.5,-204C758.5,-198 764.5,-192 770.5,-192"/>
<text text-anchor="middle" x="860" y="-263.4" font-family="Times Roman,serif" font-size="14.00">Notification</text>
<polyline fill="none" stroke="black" points="758.5,-254 961.5,-254 "/>
<text text-anchor="start" x="766.5" y="-237.4" font-family="Times Roman,serif" font-size="14.00">next_notification :datetime</text>
<text text-anchor="start" x="766.5" y="-219.4" font-family="Times Roman,serif" font-size="14.00">created_at :datetime</text>
<text text-anchor="start" x="766.5" y="-201.4" font-family="Times Roman,serif" font-size="14.00">updated_at :datetime</text>
</g>
<!-- Folder&#45;&gt;Notification -->
<g id="edge8" class="edge"><title>Folder&#45;&gt;Notification</title>
<path fill="none" stroke="black" d="M878.003,-707.674C874.196,-607.94 865.938,-391.564 862.073,-290.307"/>
<ellipse fill="none" stroke="black" cx="878.159" cy="-711.779" rx="4" ry="4"/>
<polygon fill="black" stroke="black" points="862.072,-290.284 866.187,-280.119 861.881,-285.287 861.69,-280.291 861.69,-280.291 861.69,-280.291 861.881,-285.287 857.194,-280.462 862.072,-290.284 862.072,-290.284"/>
</g>
<!-- Topic&#45;&gt;Update -->
<g id="edge10" class="edge"><title>Topic&#45;&gt;Update</title>
<path fill="none" stroke="black" d="M683.44,-409.078C671.015,-373.498 656.548,-332.068 644.883,-298.664"/>
<ellipse fill="none" stroke="black" cx="684.817" cy="-413.021" rx="4.00001" ry="4.00001"/>
<polygon fill="black" stroke="black" points="644.812,-298.461 645.763,-287.536 643.163,-293.741 641.515,-289.02 641.515,-289.02 641.515,-289.02 643.163,-293.741 637.267,-290.504 644.812,-298.461 644.812,-298.461"/>
</g>
<!-- Topic&#45;&gt;Notification -->
<g id="edge14" class="edge"><title>Topic&#45;&gt;Notification</title>
<path fill="none" stroke="black" d="M757.264,-409.756C780.52,-370.423 808.085,-323.803 828.804,-288.761"/>
<ellipse fill="none" stroke="black" cx="755.136" cy="-413.354" rx="4.00002" ry="4.00002"/>
<polygon fill="black" stroke="black" points="828.828,-288.72 837.791,-282.403 831.373,-284.416 833.918,-280.112 833.918,-280.112 833.918,-280.112 831.373,-284.416 830.044,-277.822 828.828,-288.72 828.828,-288.72"/>
</g>
<!-- Topic&#45;&gt;Attach -->
<g id="edge12" class="edge"><title>Topic&#45;&gt;Attach</title>
<path fill="none" stroke="black" d="M621.113,-435.836C588.34,-414.866 551.996,-389.21 522,-362 494.714,-337.248 468.504,-305.023 449.351,-279.359"/>
<ellipse fill="none" stroke="black" cx="624.671" cy="-438.095" rx="4.00002" ry="4.00002"/>
<polygon fill="black" stroke="black" points="449.324,-279.323 447.01,-268.604 446.356,-275.299 443.388,-271.275 443.388,-271.275 443.388,-271.275 446.356,-275.299 439.767,-273.946 449.324,-279.323 449.324,-279.323"/>
</g>
<!-- Deployment -->
<g id="node7" class="node"><title>Deployment</title>
<polyline fill="none" stroke="black" points="1591.5,-1 1732.5,-1 "/>
<path fill="none" stroke="black" d="M1732.5,-1C1738.5,-1 1744.5,-7 1744.5,-13"/>
<polyline fill="none" stroke="black" points="1744.5,-13 1744.5,-59 "/>
<path fill="none" stroke="black" d="M1744.5,-59C1744.5,-65 1738.5,-71 1732.5,-71"/>
<polyline fill="none" stroke="black" points="1732.5,-71 1591.5,-71 "/>
<path fill="none" stroke="black" d="M1591.5,-71C1585.5,-71 1579.5,-65 1579.5,-59"/>
<polyline fill="none" stroke="black" points="1579.5,-59 1579.5,-13 "/>
<path fill="none" stroke="black" d="M1579.5,-13C1579.5,-7 1585.5,-1 1591.5,-1"/>
<text text-anchor="middle" x="1662" y="-54.4" font-family="Times Roman,serif" font-size="14.00">Deployment</text>
<polyline fill="none" stroke="black" points="1579.5,-45 1744.5,-45 "/>
<text text-anchor="start" x="1587.5" y="-28.4" font-family="Times Roman,serif" font-size="14.00">created_at :datetime</text>
<text text-anchor="start" x="1587.5" y="-10.4" font-family="Times Roman,serif" font-size="14.00">updated_at :datetime</text>
</g>
<!-- FundingRound -->
<g id="node8" class="node"><title>FundingRound</title>
<polyline fill="none" stroke="black" points="990.5,-183 1155.5,-183 "/>
<path fill="none" stroke="black" d="M1155.5,-183C1161.5,-183 1167.5,-189 1167.5,-195"/>
<polyline fill="none" stroke="black" points="1167.5,-195 1167.5,-277 "/>
<path fill="none" stroke="black" d="M1167.5,-277C1167.5,-283 1161.5,-289 1155.5,-289"/>
<polyline fill="none" stroke="black" points="1155.5,-289 990.5,-289 "/>
<path fill="none" stroke="black" d="M990.5,-289C984.5,-289 978.5,-283 978.5,-277"/>
<polyline fill="none" stroke="black" points="978.5,-277 978.5,-195 "/>
<path fill="none" stroke="black" d="M978.5,-195C978.5,-189 984.5,-183 990.5,-183"/>
<text text-anchor="middle" x="1073" y="-272.4" font-family="Times Roman,serif" font-size="14.00">FundingRound</text>
<polyline fill="none" stroke="black" points="978.5,-263 1167.5,-263 "/>
<text text-anchor="start" x="986.5" y="-246.4" font-family="Times Roman,serif" font-size="14.00">date_of_record :datetime</text>
<text text-anchor="start" x="986.5" y="-228.4" font-family="Times Roman,serif" font-size="14.00">money :integer</text>
<text text-anchor="start" x="986.5" y="-210.4" font-family="Times Roman,serif" font-size="14.00">created_at :datetime</text>
<text text-anchor="start" x="986.5" y="-192.4" font-family="Times Roman,serif" font-size="14.00">updated_at :datetime</text>
</g>
<!-- EmploymentStatus -->
<g id="node9" class="node"><title>EmploymentStatus</title>
<polyline fill="none" stroke="black" points="2018.5,-707 2197.5,-707 "/>
<path fill="none" stroke="black" d="M2197.5,-707C2203.5,-707 2209.5,-713 2209.5,-719"/>
<polyline fill="none" stroke="black" points="2209.5,-719 2209.5,-801 "/>
<path fill="none" stroke="black" d="M2209.5,-801C2209.5,-807 2203.5,-813 2197.5,-813"/>
<polyline fill="none" stroke="black" points="2197.5,-813 2018.5,-813 "/>
<path fill="none" stroke="black" d="M2018.5,-813C2012.5,-813 2006.5,-807 2006.5,-801"/>
<polyline fill="none" stroke="black" points="2006.5,-801 2006.5,-719 "/>
<path fill="none" stroke="black" d="M2006.5,-719C2006.5,-713 2012.5,-707 2018.5,-707"/>
<text text-anchor="middle" x="2108" y="-796.4" font-family="Times Roman,serif" font-size="14.00">EmploymentStatus</text>
<polyline fill="none" stroke="black" points="2006.5,-787 2209.5,-787 "/>
<text text-anchor="start" x="2014.5" y="-770.4" font-family="Times Roman,serif" font-size="14.00">is_past :boolean</text>
<text text-anchor="start" x="2014.5" y="-752.4" font-family="Times Roman,serif" font-size="14.00">title :string</text>
<text text-anchor="start" x="2014.5" y="-734.4" font-family="Times Roman,serif" font-size="14.00">company_permalink :string</text>
<text text-anchor="start" x="2014.5" y="-716.4" font-family="Times Roman,serif" font-size="14.00">person_permalink :string</text>
</g>
<!-- Person -->
<g id="node10" class="node"><title>Person</title>
<polyline fill="none" stroke="black" points="1836.5,-698 1977.5,-698 "/>
<path fill="none" stroke="black" d="M1977.5,-698C1983.5,-698 1989.5,-704 1989.5,-710"/>
<polyline fill="none" stroke="black" points="1989.5,-710 1989.5,-810 "/>
<path fill="none" stroke="black" d="M1989.5,-810C1989.5,-816 1983.5,-822 1977.5,-822"/>
<polyline fill="none" stroke="black" points="1977.5,-822 1836.5,-822 "/>
<path fill="none" stroke="black" d="M1836.5,-822C1830.5,-822 1824.5,-816 1824.5,-810"/>
<polyline fill="none" stroke="black" points="1824.5,-810 1824.5,-710 "/>
<path fill="none" stroke="black" d="M1824.5,-710C1824.5,-704 1830.5,-698 1836.5,-698"/>
<text text-anchor="middle" x="1907" y="-805.4" font-family="Times Roman,serif" font-size="14.00">Person</text>
<polyline fill="none" stroke="black" points="1824.5,-796 1989.5,-796 "/>
<text text-anchor="start" x="1832.5" y="-779.4" font-family="Times Roman,serif" font-size="14.00">first_name :string</text>
<text text-anchor="start" x="1832.5" y="-761.4" font-family="Times Roman,serif" font-size="14.00">created_at :datetime</text>
<text text-anchor="start" x="1832.5" y="-743.4" font-family="Times Roman,serif" font-size="14.00">updated_at :datetime</text>
<text text-anchor="start" x="1832.5" y="-725.4" font-family="Times Roman,serif" font-size="14.00">last_name :string</text>
<text text-anchor="start" x="1832.5" y="-707.4" font-family="Times Roman,serif" font-size="14.00">permalink :string</text>
</g>
<!-- Assignment -->
<g id="node14" class="node"><title>Assignment</title>
<polyline fill="none" stroke="black" points="2019.5,-1 2160.5,-1 "/>
<path fill="none" stroke="black" d="M2160.5,-1C2166.5,-1 2172.5,-7 2172.5,-13"/>
<polyline fill="none" stroke="black" points="2172.5,-13 2172.5,-59 "/>
<path fill="none" stroke="black" d="M2172.5,-59C2172.5,-65 2166.5,-71 2160.5,-71"/>
<polyline fill="none" stroke="black" points="2160.5,-71 2019.5,-71 "/>
<path fill="none" stroke="black" d="M2019.5,-71C2013.5,-71 2007.5,-65 2007.5,-59"/>
<polyline fill="none" stroke="black" points="2007.5,-59 2007.5,-13 "/>
<path fill="none" stroke="black" d="M2007.5,-13C2007.5,-7 2013.5,-1 2019.5,-1"/>
<text text-anchor="middle" x="2090" y="-54.4" font-family="Times Roman,serif" font-size="14.00">Assignment</text>
<polyline fill="none" stroke="black" points="2007.5,-45 2172.5,-45 "/>
<text text-anchor="start" x="2015.5" y="-28.4" font-family="Times Roman,serif" font-size="14.00">created_at :datetime</text>
<text text-anchor="start" x="2015.5" y="-10.4" font-family="Times Roman,serif" font-size="14.00">updated_at :datetime</text>
</g>
<!-- Person&#45;&gt;Assignment -->
<g id="edge20" class="edge"><title>Person&#45;&gt;Assignment</title>
<path fill="none" stroke="black" d="M1945.7,-690.737C2003.72,-586.249 2107.43,-396.768 2116,-362 2142.82,-253.258 2134.83,-220.406 2116,-110 2114.35,-100.336 2111.57,-90.2556 2108.43,-80.7567"/>
<ellipse fill="none" stroke="black" cx="1943.72" cy="-694.306" rx="4.00002" ry="4.00002"/>
<polygon fill="black" stroke="black" points="2108.36,-80.5498 2109.31,-69.6249 2106.71,-75.83 2105.06,-71.1103 2105.06,-71.1103 2105.06,-71.1103 2106.71,-75.83 2100.81,-72.5956 2108.36,-80.5498 2108.36,-80.5498"/>
</g>
<!-- Company -->
<g id="node15" class="node"><title>Company</title>
<polyline fill="none" stroke="black" points="1486.5,-435 1627.5,-435 "/>
<path fill="none" stroke="black" d="M1627.5,-435C1633.5,-435 1639.5,-441 1639.5,-447"/>
<polyline fill="none" stroke="black" points="1639.5,-447 1639.5,-529 "/>
<path fill="none" stroke="black" d="M1639.5,-529C1639.5,-535 1633.5,-541 1627.5,-541"/>
<polyline fill="none" stroke="black" points="1627.5,-541 1486.5,-541 "/>
<path fill="none" stroke="black" d="M1486.5,-541C1480.5,-541 1474.5,-535 1474.5,-529"/>
<polyline fill="none" stroke="black" points="1474.5,-529 1474.5,-447 "/>
<path fill="none" stroke="black" d="M1474.5,-447C1474.5,-441 1480.5,-435 1486.5,-435"/>
<text text-anchor="middle" x="1557" y="-524.4" font-family="Times Roman,serif" font-size="14.00">Company</text>
<polyline fill="none" stroke="black" points="1474.5,-515 1639.5,-515 "/>
<text text-anchor="start" x="1482.5" y="-498.4" font-family="Times Roman,serif" font-size="14.00">name :string</text>
<text text-anchor="start" x="1482.5" y="-480.4" font-family="Times Roman,serif" font-size="14.00">created_at :datetime</text>
<text text-anchor="start" x="1482.5" y="-462.4" font-family="Times Roman,serif" font-size="14.00">updated_at :datetime</text>
<text text-anchor="start" x="1482.5" y="-444.4" font-family="Times Roman,serif" font-size="14.00">permalink :string</text>
</g>
<!-- Person&#45;&gt;Company -->
<g id="edge18" class="edge"><title>Person&#45;&gt;Company</title>
<path fill="none" stroke="black" d="M1819.17,-691.742C1761.94,-647.265 1688,-589.805 1633.24,-547.251"/>
<polygon fill="black" stroke="black" points="1819.25,-691.802 1824.38,-701.492 1823.19,-694.87 1827.14,-697.939 1827.14,-697.939 1827.14,-697.939 1823.19,-694.87 1829.9,-694.385 1819.25,-691.802 1819.25,-691.802"/>
<polygon fill="black" stroke="black" points="1633.2,-547.22 1628.07,-537.531 1629.25,-544.152 1625.31,-541.084 1625.31,-541.084 1625.31,-541.084 1629.25,-544.152 1622.54,-544.637 1633.2,-547.22 1633.2,-547.22"/>
</g>
<!-- Product -->
<g id="node17" class="node"><title>Product</title>
<polyline fill="none" stroke="black" points="1916.5,-174 2095.5,-174 "/>
<path fill="none" stroke="black" d="M2095.5,-174C2101.5,-174 2107.5,-180 2107.5,-186"/>
<polyline fill="none" stroke="black" points="2107.5,-186 2107.5,-286 "/>
<path fill="none" stroke="black" d="M2107.5,-286C2107.5,-292 2101.5,-298 2095.5,-298"/>
<polyline fill="none" stroke="black" points="2095.5,-298 1916.5,-298 "/>
<path fill="none" stroke="black" d="M1916.5,-298C1910.5,-298 1904.5,-292 1904.5,-286"/>
<polyline fill="none" stroke="black" points="1904.5,-286 1904.5,-186 "/>
<path fill="none" stroke="black" d="M1904.5,-186C1904.5,-180 1910.5,-174 1916.5,-174"/>
<text text-anchor="middle" x="2006" y="-281.4" font-family="Times Roman,serif" font-size="14.00">Product</text>
<polyline fill="none" stroke="black" points="1904.5,-272 2107.5,-272 "/>
<text text-anchor="start" x="1912.5" y="-255.4" font-family="Times Roman,serif" font-size="14.00">name :string</text>
<text text-anchor="start" x="1912.5" y="-237.4" font-family="Times Roman,serif" font-size="14.00">created_at :datetime</text>
<text text-anchor="start" x="1912.5" y="-219.4" font-family="Times Roman,serif" font-size="14.00">updated_at :datetime</text>
<text text-anchor="start" x="1912.5" y="-201.4" font-family="Times Roman,serif" font-size="14.00">permalink :string</text>
<text text-anchor="start" x="1912.5" y="-183.4" font-family="Times Roman,serif" font-size="14.00">company_permalink :string</text>
</g>
<!-- Person&#45;&gt;Product -->
<g id="edge22" class="edge"><title>Person&#45;&gt;Product</title>
<path fill="none" stroke="black" d="M1934.95,-688.064C1948.48,-650.45 1963.76,-603.331 1973,-560 1991.19,-474.705 1999.44,-374.569 2003.13,-308.443"/>
<polygon fill="black" stroke="black" points="1934.78,-688.512 1927.14,-696.372 1933.08,-693.211 1931.37,-697.91 1931.37,-697.91 1931.37,-697.91 1933.08,-693.211 1935.6,-699.448 1934.78,-688.512 1934.78,-688.512"/>
<polygon fill="black" stroke="black" points="2003.14,-308.115 2008.17,-298.371 2003.41,-303.123 2003.68,-298.13 2003.68,-298.13 2003.68,-298.13 2003.41,-303.123 1999.19,-297.889 2003.14,-308.115 2003.14,-308.115"/>
</g>
<!-- EmploymentStatu -->
<g id="node26" class="node"><title>EmploymentStatu</title>
<ellipse fill="none" stroke="black" cx="1788" cy="-236" rx="99.201" ry="18.3848"/>
<text text-anchor="middle" x="1788" y="-232.4" font-family="Times Roman,serif" font-size="14.00">EmploymentStatu</text>
</g>
<!-- Person&#45;&gt;EmploymentStatu -->
<g id="edge16" class="edge"><title>Person&#45;&gt;EmploymentStatu</title>
<path fill="none" stroke="black" d="M1869.38,-690.595C1850.76,-653.019 1829.8,-605.16 1818,-560 1790.24,-453.711 1787.34,-321.941 1787.55,-264.736"/>
<ellipse fill="none" stroke="black" cx="1871.27" cy="-694.392" rx="4.00002" ry="4.00002"/>
<polygon fill="black" stroke="black" points="1787.55,-264.631 1792.13,-254.664 1787.59,-259.631 1787.63,-254.631 1787.63,-254.631 1787.63,-254.631 1787.59,-259.631 1783.13,-254.598 1787.55,-264.631 1787.55,-264.631"/>
<text text-anchor="middle" x="1893.5" y="-484.4" font-family="Times Roman,serif" font-size="14.00">employment_statuses</text>
</g>
<!-- Office -->
<g id="node11" class="node"><title>Office</title>
<polyline fill="none" stroke="black" points="1196.5,-111 1375.5,-111 "/>
<path fill="none" stroke="black" d="M1375.5,-111C1381.5,-111 1387.5,-117 1387.5,-123"/>
<polyline fill="none" stroke="black" points="1387.5,-123 1387.5,-349 "/>
<path fill="none" stroke="black" d="M1387.5,-349C1387.5,-355 1381.5,-361 1375.5,-361"/>
<polyline fill="none" stroke="black" points="1375.5,-361 1196.5,-361 "/>
<path fill="none" stroke="black" d="M1196.5,-361C1190.5,-361 1184.5,-355 1184.5,-349"/>
<polyline fill="none" stroke="black" points="1184.5,-349 1184.5,-123 "/>
<path fill="none" stroke="black" d="M1184.5,-123C1184.5,-117 1190.5,-111 1196.5,-111"/>
<text text-anchor="middle" x="1286" y="-344.4" font-family="Times Roman,serif" font-size="14.00">Office</text>
<polyline fill="none" stroke="black" points="1184.5,-335 1387.5,-335 "/>
<text text-anchor="start" x="1192.5" y="-318.4" font-family="Times Roman,serif" font-size="14.00">description :text</text>
<text text-anchor="start" x="1192.5" y="-300.4" font-family="Times Roman,serif" font-size="14.00">address1 :text</text>
<text text-anchor="start" x="1192.5" y="-282.4" font-family="Times Roman,serif" font-size="14.00">address2 :text</text>
<text text-anchor="start" x="1192.5" y="-264.4" font-family="Times Roman,serif" font-size="14.00">zip_code :integer</text>
<text text-anchor="start" x="1192.5" y="-246.4" font-family="Times Roman,serif" font-size="14.00">city :string</text>
<text text-anchor="start" x="1192.5" y="-228.4" font-family="Times Roman,serif" font-size="14.00">state_code :string</text>
<text text-anchor="start" x="1192.5" y="-210.4" font-family="Times Roman,serif" font-size="14.00">country_code :string</text>
<text text-anchor="start" x="1192.5" y="-192.4" font-family="Times Roman,serif" font-size="14.00">latitude :decimal</text>
<text text-anchor="start" x="1192.5" y="-174.4" font-family="Times Roman,serif" font-size="14.00">longitude :decimal</text>
<text text-anchor="start" x="1192.5" y="-156.4" font-family="Times Roman,serif" font-size="14.00">created_at :datetime</text>
<text text-anchor="start" x="1192.5" y="-138.4" font-family="Times Roman,serif" font-size="14.00">updated_at :datetime</text>
<text text-anchor="start" x="1192.5" y="-120.4" font-family="Times Roman,serif" font-size="14.00">company_permalink :string</text>
</g>
<!-- User -->
<g id="node12" class="node"><title>User</title>
<polyline fill="none" stroke="black" points="538,-599 768,-599 "/>
<path fill="none" stroke="black" d="M768,-599C774,-599 780,-605 780,-611"/>
<polyline fill="none" stroke="black" points="780,-611 780,-909 "/>
<path fill="none" stroke="black" d="M780,-909C780,-915 774,-921 768,-921"/>
<polyline fill="none" stroke="black" points="768,-921 538,-921 "/>
<path fill="none" stroke="black" d="M538,-921C532,-921 526,-915 526,-909"/>
<polyline fill="none" stroke="black" points="526,-909 526,-611 "/>
<path fill="none" stroke="black" d="M526,-611C526,-605 532,-599 538,-599"/>
<text text-anchor="middle" x="653" y="-904.4" font-family="Times Roman,serif" font-size="14.00">User</text>
<polyline fill="none" stroke="black" points="526,-895 780,-895 "/>
<text text-anchor="start" x="534" y="-878.4" font-family="Times Roman,serif" font-size="14.00">firstName :string</text>
<text text-anchor="start" x="534" y="-860.4" font-family="Times Roman,serif" font-size="14.00">email :string</text>
<text text-anchor="start" x="534" y="-842.4" font-family="Times Roman,serif" font-size="14.00">encrypted_password :string</text>
<text text-anchor="start" x="534" y="-824.4" font-family="Times Roman,serif" font-size="14.00">confirmation_token :string</text>
<text text-anchor="start" x="534" y="-806.4" font-family="Times Roman,serif" font-size="14.00">confirmed_at :datetime</text>
<text text-anchor="start" x="534" y="-788.4" font-family="Times Roman,serif" font-size="14.00">confirmation_sent_at :datetime</text>
<text text-anchor="start" x="534" y="-770.4" font-family="Times Roman,serif" font-size="14.00">reset_password_token :string</text>
<text text-anchor="start" x="534" y="-752.4" font-family="Times Roman,serif" font-size="14.00">reset_password_sent_at :datetime</text>
<text text-anchor="start" x="534" y="-734.4" font-family="Times Roman,serif" font-size="14.00">remember_created_at :datetime</text>
<text text-anchor="start" x="534" y="-716.4" font-family="Times Roman,serif" font-size="14.00">current_sign_in_at :datetime</text>
<text text-anchor="start" x="534" y="-698.4" font-family="Times Roman,serif" font-size="14.00">last_sign_in_at :datetime</text>
<text text-anchor="start" x="534" y="-680.4" font-family="Times Roman,serif" font-size="14.00">current_sign_in_ip :string</text>
<text text-anchor="start" x="534" y="-662.4" font-family="Times Roman,serif" font-size="14.00">last_sign_in_ip :string</text>
<text text-anchor="start" x="534" y="-644.4" font-family="Times Roman,serif" font-size="14.00">created_at :datetime</text>
<text text-anchor="start" x="534" y="-626.4" font-family="Times Roman,serif" font-size="14.00">updated_at :datetime</text>
<text text-anchor="start" x="534" y="-608.4" font-family="Times Roman,serif" font-size="14.00">lastName :string</text>
</g>
<!-- User&#45;&gt;Update -->
<g id="edge26" class="edge"><title>User&#45;&gt;Update</title>
<path fill="none" stroke="black" d="M623.101,-590.771C621.879,-580.38 620.825,-570.062 620,-560 614.773,-496.214 619.467,-479.998 620,-416 620.322,-377.339 621.033,-334.011 621.683,-299.555"/>
<ellipse fill="none" stroke="black" cx="623.585" cy="-594.757" rx="4.00001" ry="4.00001"/>
<polygon fill="black" stroke="black" points="621.69,-299.159 626.381,-289.247 621.786,-294.16 621.882,-289.161 621.882,-289.161 621.882,-289.161 621.786,-294.16 617.382,-289.075 621.69,-299.159 621.69,-299.159"/>
</g>
<!-- User&#45;&gt;Topic -->
<g id="edge24" class="edge"><title>User&#45;&gt;Topic</title>
<path fill="none" stroke="black" d="M689.115,-590.635C690.679,-583.301 692.213,-576.104 693.698,-569.139"/>
<ellipse fill="none" stroke="black" cx="688.243" cy="-594.721" rx="4.00001" ry="4.00001"/>
<polygon fill="black" stroke="black" points="693.751,-568.89 700.238,-560.048 694.794,-564 695.837,-559.11 695.837,-559.11 695.837,-559.11 694.794,-564 691.436,-558.171 693.751,-568.89 693.751,-568.89"/>
</g>
<!-- Company&#45;&gt;StaffLevel -->
<g id="edge30" class="edge"><title>Company&#45;&gt;StaffLevel</title>
<path fill="none" stroke="black" d="M1557,-426.631C1557,-387.992 1557,-338.233 1557,-299.242"/>
<ellipse fill="none" stroke="black" cx="1557" cy="-430.865" rx="4" ry="4"/>
<polygon fill="black" stroke="black" points="1557,-299.062 1561.5,-289.062 1557,-294.062 1557,-289.062 1557,-289.062 1557,-289.062 1557,-294.062 1552.5,-289.062 1557,-299.062 1557,-299.062"/>
</g>
<!-- Company&#45;&gt;Deployment -->
<g id="edge36" class="edge"><title>Company&#45;&gt;Deployment</title>
<path fill="none" stroke="black" d="M1481.24,-429.147C1462.18,-410.008 1444.24,-387.145 1434,-362 1412.88,-310.135 1401.08,-155.3 1434,-110 1450.62,-87.1347 1513.8,-67.6991 1569.45,-54.4917"/>
<ellipse fill="none" stroke="black" cx="1484.33" cy="-432.167" rx="4.00002" ry="4.00002"/>
<polygon fill="black" stroke="black" points="1569.64,-54.4473 1580.4,-56.5635 1574.51,-53.314 1579.38,-52.1806 1579.38,-52.1806 1579.38,-52.1806 1574.51,-53.314 1578.36,-47.7978 1569.64,-54.4473 1569.64,-54.4473"/>
</g>
<!-- Company&#45;&gt;FundingRound -->
<g id="edge28" class="edge"><title>Company&#45;&gt;FundingRound</title>
<path fill="none" stroke="black" d="M1466.17,-472.953C1384.64,-456.132 1264.52,-422.877 1176,-362 1151.33,-345.032 1129.43,-320.517 1112.24,-297.613"/>
<ellipse fill="none" stroke="black" cx="1470.51" cy="-473.833" rx="4.00001" ry="4.00001"/>
<polygon fill="black" stroke="black" points="1112.03,-297.331 1109.75,-286.605 1109.08,-293.298 1106.12,-289.264 1106.12,-289.264 1106.12,-289.264 1109.08,-293.298 1102.49,-291.924 1112.03,-297.331 1112.03,-297.331"/>
</g>
<!-- Company&#45;&gt;Office -->
<g id="edge34" class="edge"><title>Company&#45;&gt;Office</title>
<path fill="none" stroke="black" d="M1467.27,-444.997C1444.31,-431.721 1420.59,-415.833 1401,-398 1391.34,-389.213 1382.03,-379.482 1373.17,-369.28"/>
<ellipse fill="none" stroke="black" cx="1470.89" cy="-447.056" rx="4.00002" ry="4.00002"/>
<polygon fill="black" stroke="black" points="1372.95,-369.02 1369.91,-358.483 1369.71,-365.207 1366.48,-361.393 1366.48,-361.393 1366.48,-361.393 1369.71,-365.207 1363.05,-364.304 1372.95,-369.02 1372.95,-369.02"/>
</g>
<!-- Company&#45;&gt;Product -->
<g id="edge38" class="edge"><title>Company&#45;&gt;Product</title>
<path fill="none" stroke="black" d="M1649.42,-459.343C1735.02,-431.787 1855.08,-390.261 1896,-362 1918.14,-346.708 1938.66,-325.978 1955.84,-305.75"/>
<polygon fill="black" stroke="black" points="1649.2,-459.412 1638.31,-458.18 1644.44,-460.939 1639.68,-462.465 1639.68,-462.465 1639.68,-462.465 1644.44,-460.939 1641.05,-466.751 1649.2,-459.412 1649.2,-459.412"/>
<polygon fill="black" stroke="black" points="1955.86,-305.724 1965.72,-300.912 1959.06,-301.879 1962.26,-298.035 1962.26,-298.035 1962.26,-298.035 1959.06,-301.879 1958.8,-295.158 1955.86,-305.724 1955.86,-305.724"/>
</g>
<!-- Company&#45;&gt;EmploymentStatu -->
<g id="edge32" class="edge"><title>Company&#45;&gt;EmploymentStatu</title>
<path fill="none" stroke="black" d="M1580.07,-427.348C1589.25,-409.953 1601.42,-392.37 1617,-380 1639.81,-361.894 1655.49,-377.72 1680,-362 1719.83,-336.458 1753,-291.833 1771.67,-263.121"/>
<ellipse fill="none" stroke="black" cx="1578.12" cy="-431.205" rx="4.00002" ry="4.00002"/>
<polygon fill="black" stroke="black" points="1771.85,-262.842 1781.01,-256.816 1774.53,-258.622 1777.21,-254.402 1777.21,-254.402 1777.21,-254.402 1774.53,-258.622 1773.41,-251.989 1771.85,-262.842 1771.85,-262.842"/>
<text text-anchor="middle" x="1692.5" y="-385.4" font-family="Times Roman,serif" font-size="14.00">employment_statuses</text>
</g>
<!-- Product&#45;&gt;Deployment -->
<g id="edge42" class="edge"><title>Product&#45;&gt;Deployment</title>
<path fill="none" stroke="black" d="M1957.92,-167.506C1940.45,-146.631 1919.23,-125.208 1896,-110 1853.41,-82.1137 1799.6,-64.1382 1754.32,-52.8969"/>
<ellipse fill="none" stroke="black" cx="1960.68" cy="-170.868" rx="4.00002" ry="4.00002"/>
<polygon fill="black" stroke="black" points="1754.22,-52.873 1745.56,-46.1551 1749.36,-51.7015 1744.5,-50.5299 1744.5,-50.5299 1744.5,-50.5299 1749.36,-51.7015 1743.45,-54.9046 1754.22,-52.873 1754.22,-52.873"/>
</g>
<!-- Product&#45;&gt;Assignment -->
<g id="edge40" class="edge"><title>Product&#45;&gt;Assignment</title>
<path fill="none" stroke="black" d="M2035.32,-166.179C2047.3,-137.671 2060.79,-105.552 2071.37,-80.3515"/>
<ellipse fill="none" stroke="black" cx="2033.67" cy="-170.127" rx="4.00001" ry="4.00001"/>
<polygon fill="black" stroke="black" points="2071.41,-80.2735 2079.43,-72.7962 2073.34,-75.6636 2075.28,-71.0537 2075.28,-71.0537 2075.28,-71.0537 2073.34,-75.6636 2071.13,-69.3111 2071.41,-80.2735 2071.41,-80.2735"/>
</g>
</g>
</svg>
