<?xml version="1.0" encoding="UTF-8" standalone="no"?>
<!DOCTYPE svg PUBLIC "-//W3C//DTD SVG 1.1//EN"
 "http://www.w3.org/Graphics/SVG/1.1/DTD/svg11.dtd">
<!-- Generated by graphviz version 2.26.3 (20100126.1600)
 -->
<!-- Title: models_diagram Pages: 1 -->
<svg width="1899pt" height="948pt"
 viewBox="0.00 0.00 1899.00 948.00" xmlns="http://www.w3.org/2000/svg" xmlns:xlink="http://www.w3.org/1999/xlink">
<g id="graph1" class="graph" transform="scale(1 1) rotate(0) translate(4 944)">
<title>models_diagram</title>
<polygon fill="white" stroke="white" points="-4,5 -4,-944 1896,-944 1896,5 -4,5"/>
<!-- _diagram_info -->
<g id="node1" class="node"><title>_diagram_info</title>
<text text-anchor="start" x="270" y="-907.8" font-family="Times Roman,serif" font-size="13.00">Models diagram</text>
<text text-anchor="start" x="270" y="-890.8" font-family="Times Roman,serif" font-size="13.00">Date: Oct 18 2011 &#45; 15:52</text>
<text text-anchor="start" x="270" y="-873.8" font-family="Times Roman,serif" font-size="13.00">Migration version: 20111017113700</text>
<text text-anchor="start" x="270" y="-856.8" font-family="Times Roman,serif" font-size="13.00">Generated by RailRoady 1.0.2</text>
<text text-anchor="start" x="270" y="-839.8" font-family="Times Roman,serif" font-size="13.00">http://railroady.prestonlee.com</text>
</g>
<!-- Attachment -->
<g id="node2" class="node"><title>Attachment</title>
<polyline fill="none" stroke="black" points="11.5,-543 228.5,-543 "/>
<path fill="none" stroke="black" d="M228.5,-543C234.5,-543 240.5,-549 240.5,-555"/>
<polyline fill="none" stroke="black" points="240.5,-555 240.5,-673 "/>
<path fill="none" stroke="black" d="M240.5,-673C240.5,-679 234.5,-685 228.5,-685"/>
<polyline fill="none" stroke="black" points="228.5,-685 11.5,-685 "/>
<path fill="none" stroke="black" d="M11.5,-685C5.5,-685 -0.5,-679 -0.5,-673"/>
<polyline fill="none" stroke="black" points="-0.5,-673 -0.5,-555 "/>
<path fill="none" stroke="black" d="M-0.5,-555C-0.5,-549 5.5,-543 11.5,-543"/>
<text text-anchor="middle" x="120" y="-668.4" font-family="Times Roman,serif" font-size="14.00">Attachment</text>
<polyline fill="none" stroke="black" points="-0.5,-659 240.5,-659 "/>
<text text-anchor="start" x="7.5" y="-642.4" font-family="Times Roman,serif" font-size="14.00">document_file_name :string</text>
<text text-anchor="start" x="7.5" y="-624.4" font-family="Times Roman,serif" font-size="14.00">document_content_type :string</text>
<text text-anchor="start" x="7.5" y="-606.4" font-family="Times Roman,serif" font-size="14.00">document_file_size :integer</text>
<text text-anchor="start" x="7.5" y="-588.4" font-family="Times Roman,serif" font-size="14.00">document_updated_at :datetime</text>
<text text-anchor="start" x="7.5" y="-570.4" font-family="Times Roman,serif" font-size="14.00">created_at :datetime</text>
<text text-anchor="start" x="7.5" y="-552.4" font-family="Times Roman,serif" font-size="14.00">updated_at :datetime</text>
</g>
<!-- Topic -->
<g id="node6" class="node"><title>Topic</title>
<polyline fill="none" stroke="black" points="376.5,-201 517.5,-201 "/>
<path fill="none" stroke="black" d="M517.5,-201C523.5,-201 529.5,-207 529.5,-213"/>
<polyline fill="none" stroke="black" points="529.5,-213 529.5,-331 "/>
<path fill="none" stroke="black" d="M529.5,-331C529.5,-337 523.5,-343 517.5,-343"/>
<polyline fill="none" stroke="black" points="517.5,-343 376.5,-343 "/>
<path fill="none" stroke="black" d="M376.5,-343C370.5,-343 364.5,-337 364.5,-331"/>
<polyline fill="none" stroke="black" points="364.5,-331 364.5,-213 "/>
<path fill="none" stroke="black" d="M364.5,-213C364.5,-207 370.5,-201 376.5,-201"/>
<text text-anchor="middle" x="447" y="-326.4" font-family="Times Roman,serif" font-size="14.00">Topic</text>
<polyline fill="none" stroke="black" points="364.5,-317 529.5,-317 "/>
<text text-anchor="start" x="372.5" y="-300.4" font-family="Times Roman,serif" font-size="14.00">title :string</text>
<text text-anchor="start" x="372.5" y="-282.4" font-family="Times Roman,serif" font-size="14.00">content :text</text>
<text text-anchor="start" x="372.5" y="-264.4" font-family="Times Roman,serif" font-size="14.00">created_at :datetime</text>
<text text-anchor="start" x="372.5" y="-246.4" font-family="Times Roman,serif" font-size="14.00">updated_at :datetime</text>
<text text-anchor="start" x="372.5" y="-228.4" font-family="Times Roman,serif" font-size="14.00">progress :integer</text>
<text text-anchor="start" x="372.5" y="-210.4" font-family="Times Roman,serif" font-size="14.00">version :string</text>
</g>
<!-- Attachment&#45;&gt;Topic -->
<g id="edge4" class="edge"><title>Attachment&#45;&gt;Topic</title>
<path fill="none" stroke="black" d="M178.749,-535.05C199.987,-507.939 224.728,-477.912 249,-452 282.365,-416.381 321.689,-379.683 356.464,-348.791"/>
<polygon fill="black" stroke="black" points="178.712,-535.098 169.016,-540.221 175.639,-539.042 172.566,-542.987 172.566,-542.987 172.566,-542.987 175.639,-539.042 176.116,-545.752 178.712,-535.098 178.712,-535.098"/>
<polygon fill="black" stroke="black" points="356.781,-348.51 367.253,-345.255 360.526,-345.197 364.271,-341.884 364.271,-341.884 364.271,-341.884 360.526,-345.197 361.29,-338.514 356.781,-348.51 356.781,-348.51"/>
</g>
<!-- Attach -->
<g id="node17" class="node"><title>Attach</title>
<polyline fill="none" stroke="black" points="87.5,-19 228.5,-19 "/>
<path fill="none" stroke="black" d="M228.5,-19C234.5,-19 240.5,-25 240.5,-31"/>
<polyline fill="none" stroke="black" points="240.5,-31 240.5,-77 "/>
<path fill="none" stroke="black" d="M240.5,-77C240.5,-83 234.5,-89 228.5,-89"/>
<polyline fill="none" stroke="black" points="228.5,-89 87.5,-89 "/>
<path fill="none" stroke="black" d="M87.5,-89C81.5,-89 75.5,-83 75.5,-77"/>
<polyline fill="none" stroke="black" points="75.5,-77 75.5,-31 "/>
<path fill="none" stroke="black" d="M75.5,-31C75.5,-25 81.5,-19 87.5,-19"/>
<text text-anchor="middle" x="158" y="-72.4" font-family="Times Roman,serif" font-size="14.00">Attach</text>
<polyline fill="none" stroke="black" points="75.5,-63 240.5,-63 "/>
<text text-anchor="start" x="83.5" y="-46.4" font-family="Times Roman,serif" font-size="14.00">created_at :datetime</text>
<text text-anchor="start" x="83.5" y="-28.4" font-family="Times Roman,serif" font-size="14.00">updated_at :datetime</text>
</g>
<!-- Attachment&#45;&gt;Attach -->
<g id="edge2" class="edge"><title>Attachment&#45;&gt;Attach</title>
<path fill="none" stroke="black" d="M125.398,-534.443C133.487,-415.238 148.489,-194.155 154.931,-99.2254"/>
<ellipse fill="none" stroke="black" cx="125.103" cy="-538.801" rx="4" ry="4"/>
<polygon fill="black" stroke="black" points="154.942,-99.0703 160.108,-89.3979 155.28,-94.0818 155.619,-89.0932 155.619,-89.0932 155.619,-89.0932 155.28,-94.0818 151.129,-88.7885 154.942,-99.0703 154.942,-99.0703"/>
</g>
<!-- Update -->
<g id="node3" class="node"><title>Update</title>
<polyline fill="none" stroke="black" points="278,-1 438,-1 "/>
<path fill="none" stroke="black" d="M438,-1C444,-1 450,-7 450,-13"/>
<polyline fill="none" stroke="black" points="450,-13 450,-95 "/>
<path fill="none" stroke="black" d="M450,-95C450,-101 444,-107 438,-107"/>
<polyline fill="none" stroke="black" points="438,-107 278,-107 "/>
<path fill="none" stroke="black" d="M278,-107C272,-107 266,-101 266,-95"/>
<polyline fill="none" stroke="black" points="266,-95 266,-13 "/>
<path fill="none" stroke="black" d="M266,-13C266,-7 272,-1 278,-1"/>
<text text-anchor="middle" x="358" y="-90.4" font-family="Times Roman,serif" font-size="14.00">Update</text>
<polyline fill="none" stroke="black" points="266,-81 450,-81 "/>
<text text-anchor="start" x="274" y="-64.4" font-family="Times Roman,serif" font-size="14.00">type_of_update :string</text>
<text text-anchor="start" x="274" y="-46.4" font-family="Times Roman,serif" font-size="14.00">created_at :datetime</text>
<text text-anchor="start" x="274" y="-28.4" font-family="Times Roman,serif" font-size="14.00">updated_at :datetime</text>
<text text-anchor="start" x="274" y="-10.4" font-family="Times Roman,serif" font-size="14.00">progress_status :integer</text>
</g>
<!-- StaffLevel -->
<g id="node4" class="node"><title>StaffLevel</title>
<polyline fill="none" stroke="black" points="1134.5,-210 1339.5,-210 "/>
<path fill="none" stroke="black" d="M1339.5,-210C1345.5,-210 1351.5,-216 1351.5,-222"/>
<polyline fill="none" stroke="black" points="1351.5,-222 1351.5,-322 "/>
<path fill="none" stroke="black" d="M1351.5,-322C1351.5,-328 1345.5,-334 1339.5,-334"/>
<polyline fill="none" stroke="black" points="1339.5,-334 1134.5,-334 "/>
<path fill="none" stroke="black" d="M1134.5,-334C1128.5,-334 1122.5,-328 1122.5,-322"/>
<polyline fill="none" stroke="black" points="1122.5,-322 1122.5,-222 "/>
<path fill="none" stroke="black" d="M1122.5,-222C1122.5,-216 1128.5,-210 1134.5,-210"/>
<text text-anchor="middle" x="1237" y="-317.4" font-family="Times Roman,serif" font-size="14.00">StaffLevel</text>
<polyline fill="none" stroke="black" points="1122.5,-308 1351.5,-308 "/>
<text text-anchor="start" x="1130.5" y="-291.4" font-family="Times Roman,serif" font-size="14.00">number_of_employees :integer</text>
<text text-anchor="start" x="1130.5" y="-273.4" font-family="Times Roman,serif" font-size="14.00">created_at :datetime</text>
<text text-anchor="start" x="1130.5" y="-255.4" font-family="Times Roman,serif" font-size="14.00">updated_at :datetime</text>
<text text-anchor="start" x="1130.5" y="-237.4" font-family="Times Roman,serif" font-size="14.00">company_permalink :string</text>
<text text-anchor="start" x="1130.5" y="-219.4" font-family="Times Roman,serif" font-size="14.00">date_of_record :datetime</text>
</g>
<!-- Folder -->
<g id="node5" class="node"><title>Folder</title>
<polyline fill="none" stroke="black" points="541.5,-570 682.5,-570 "/>
<path fill="none" stroke="black" d="M682.5,-570C688.5,-570 694.5,-576 694.5,-582"/>
<polyline fill="none" stroke="black" points="694.5,-582 694.5,-646 "/>
<path fill="none" stroke="black" d="M694.5,-646C694.5,-652 688.5,-658 682.5,-658"/>
<polyline fill="none" stroke="black" points="682.5,-658 541.5,-658 "/>
<path fill="none" stroke="black" d="M541.5,-658C535.5,-658 529.5,-652 529.5,-646"/>
<polyline fill="none" stroke="black" points="529.5,-646 529.5,-582 "/>
<path fill="none" stroke="black" d="M529.5,-582C529.5,-576 535.5,-570 541.5,-570"/>
<text text-anchor="middle" x="612" y="-641.4" font-family="Times Roman,serif" font-size="14.00">Folder</text>
<polyline fill="none" stroke="black" points="529.5,-632 694.5,-632 "/>
<text text-anchor="start" x="537.5" y="-615.4" font-family="Times Roman,serif" font-size="14.00">title :string</text>
<text text-anchor="start" x="537.5" y="-597.4" font-family="Times Roman,serif" font-size="14.00">created_at :datetime</text>
<text text-anchor="start" x="537.5" y="-579.4" font-family="Times Roman,serif" font-size="14.00">updated_at :datetime</text>
</g>
<!-- Folder&#45;&gt;Topic -->
<g id="edge6" class="edge"><title>Folder&#45;&gt;Topic</title>
<path fill="none" stroke="black" d="M587.257,-562.715C560.38,-507.005 517.089,-417.275 485.705,-352.225"/>
<ellipse fill="none" stroke="black" cx="589.029" cy="-566.387" rx="4.00002" ry="4.00002"/>
<polygon fill="black" stroke="black" points="485.704,-352.223 485.412,-341.261 483.531,-347.72 481.359,-343.216 481.359,-343.216 481.359,-343.216 483.531,-347.72 477.306,-345.172 485.704,-352.223 485.704,-352.223"/>
</g>
<!-- Notification -->
<g id="node14" class="node"><title>Notification</title>
<polyline fill="none" stroke="black" points="483.5,-10 662.5,-10 "/>
<path fill="none" stroke="black" d="M662.5,-10C668.5,-10 674.5,-16 674.5,-22"/>
<polyline fill="none" stroke="black" points="674.5,-22 674.5,-86 "/>
<path fill="none" stroke="black" d="M674.5,-86C674.5,-92 668.5,-98 662.5,-98"/>
<polyline fill="none" stroke="black" points="662.5,-98 483.5,-98 "/>
<path fill="none" stroke="black" d="M483.5,-98C477.5,-98 471.5,-92 471.5,-86"/>
<polyline fill="none" stroke="black" points="471.5,-86 471.5,-22 "/>
<path fill="none" stroke="black" d="M471.5,-22C471.5,-16 477.5,-10 483.5,-10"/>
<text text-anchor="middle" x="573" y="-81.4" font-family="Times Roman,serif" font-size="14.00">Notification</text>
<polyline fill="none" stroke="black" points="471.5,-72 674.5,-72 "/>
<text text-anchor="start" x="479.5" y="-55.4" font-family="Times Roman,serif" font-size="14.00">next_notification :datetime</text>
<text text-anchor="start" x="479.5" y="-37.4" font-family="Times Roman,serif" font-size="14.00">created_at :datetime</text>
<text text-anchor="start" x="479.5" y="-19.4" font-family="Times Roman,serif" font-size="14.00">updated_at :datetime</text>
</g>
<!-- Folder&#45;&gt;Notification -->
<g id="edge8" class="edge"><title>Folder&#45;&gt;Notification</title>
<path fill="none" stroke="black" d="M608.33,-561.3C600.921,-454.91 584.246,-215.477 576.761,-108.007"/>
<ellipse fill="none" stroke="black" cx="608.629" cy="-565.599" rx="4" ry="4"/>
<polygon fill="black" stroke="black" points="576.761,-108.003 580.555,-97.7149 576.414,-103.016 576.066,-98.0276 576.066,-98.0276 576.066,-98.0276 576.414,-103.016 571.577,-98.3403 576.761,-108.003 576.761,-108.003"/>
</g>
<!-- Topic&#45;&gt;Update -->
<g id="edge10" class="edge"><title>Topic&#45;&gt;Update</title>
<path fill="none" stroke="black" d="M429.729,-193.177C423.566,-170.941 415.689,-147.077 406,-126 404.467,-122.664 402.789,-119.309 401.007,-115.969"/>
<ellipse fill="none" stroke="black" cx="430.793" cy="-197.106" rx="4.00001" ry="4.00001"/>
<polygon fill="black" stroke="black" points="400.973,-115.907 400.005,-104.984 398.527,-111.547 396.081,-107.186 396.081,-107.186 396.081,-107.186 398.527,-111.547 392.156,-109.387 400.973,-115.907 400.973,-115.907"/>
</g>
<!-- Topic&#45;&gt;Notification -->
<g id="edge14" class="edge"><title>Topic&#45;&gt;Notification</title>
<path fill="none" stroke="black" d="M492.248,-193.714C508.831,-165.022 527.202,-133.237 542.227,-107.243"/>
<ellipse fill="none" stroke="black" cx="490.084" cy="-197.457" rx="4.00002" ry="4.00002"/>
<polygon fill="black" stroke="black" points="542.389,-106.962 551.289,-100.556 544.891,-102.633 547.393,-98.3044 547.393,-98.3044 547.393,-98.3044 544.891,-102.633 543.497,-96.0525 542.389,-106.962 542.389,-106.962"/>
</g>
<!-- Topic&#45;&gt;Attach -->
<g id="edge12" class="edge"><title>Topic&#45;&gt;Attach</title>
<path fill="none" stroke="black" d="M357.759,-204.683C310.467,-169.01 253.877,-126.323 213.023,-95.5055"/>
<ellipse fill="none" stroke="black" cx="360.991" cy="-207.121" rx="4.00002" ry="4.00002"/>
<polygon fill="black" stroke="black" points="212.795,-95.3335 207.522,-85.7188 208.804,-92.3224 204.812,-89.3114 204.812,-89.3114 204.812,-89.3114 208.804,-92.3224 202.102,-92.9039 212.795,-95.3335 212.795,-95.3335"/>
</g>
<!-- Deployment -->
<g id="node7" class="node"><title>Deployment</title>
<polyline fill="none" stroke="black" points="1271.5,-19 1412.5,-19 "/>
<path fill="none" stroke="black" d="M1412.5,-19C1418.5,-19 1424.5,-25 1424.5,-31"/>
<polyline fill="none" stroke="black" points="1424.5,-31 1424.5,-77 "/>
<path fill="none" stroke="black" d="M1424.5,-77C1424.5,-83 1418.5,-89 1412.5,-89"/>
<polyline fill="none" stroke="black" points="1412.5,-89 1271.5,-89 "/>
<path fill="none" stroke="black" d="M1271.5,-89C1265.5,-89 1259.5,-83 1259.5,-77"/>
<polyline fill="none" stroke="black" points="1259.5,-77 1259.5,-31 "/>
<path fill="none" stroke="black" d="M1259.5,-31C1259.5,-25 1265.5,-19 1271.5,-19"/>
<text text-anchor="middle" x="1342" y="-72.4" font-family="Times Roman,serif" font-size="14.00">Deployment</text>
<polyline fill="none" stroke="black" points="1259.5,-63 1424.5,-63 "/>
<text text-anchor="start" x="1267.5" y="-46.4" font-family="Times Roman,serif" font-size="14.00">created_at :datetime</text>
<text text-anchor="start" x="1267.5" y="-28.4" font-family="Times Roman,serif" font-size="14.00">updated_at :datetime</text>
</g>
<!-- FundingRound -->
<g id="node8" class="node"><title>FundingRound</title>
<polyline fill="none" stroke="black" points="646.5,-156 835.5,-156 "/>
<path fill="none" stroke="black" d="M835.5,-156C841.5,-156 847.5,-162 847.5,-168"/>
<polyline fill="none" stroke="black" points="847.5,-168 847.5,-376 "/>
<path fill="none" stroke="black" d="M847.5,-376C847.5,-382 841.5,-388 835.5,-388"/>
<polyline fill="none" stroke="black" points="835.5,-388 646.5,-388 "/>
<path fill="none" stroke="black" d="M646.5,-388C640.5,-388 634.5,-382 634.5,-376"/>
<polyline fill="none" stroke="black" points="634.5,-376 634.5,-168 "/>
<path fill="none" stroke="black" d="M634.5,-168C634.5,-162 640.5,-156 646.5,-156"/>
<text text-anchor="middle" x="741" y="-371.4" font-family="Times Roman,serif" font-size="14.00">FundingRound</text>
<polyline fill="none" stroke="black" points="634.5,-362 847.5,-362 "/>
<text text-anchor="start" x="642.5" y="-345.4" font-family="Times Roman,serif" font-size="14.00">funded_year :integer</text>
<text text-anchor="start" x="642.5" y="-327.4" font-family="Times Roman,serif" font-size="14.00">funded_month :integer</text>
<text text-anchor="start" x="642.5" y="-309.4" font-family="Times Roman,serif" font-size="14.00">raised_amount :integer</text>
<text text-anchor="start" x="642.5" y="-291.4" font-family="Times Roman,serif" font-size="14.00">raised_currency_code :string</text>
<text text-anchor="start" x="642.5" y="-273.4" font-family="Times Roman,serif" font-size="14.00">round_code :string</text>
<text text-anchor="start" x="642.5" y="-255.4" font-family="Times Roman,serif" font-size="14.00">source_description :string</text>
<text text-anchor="start" x="642.5" y="-237.4" font-family="Times Roman,serif" font-size="14.00">source_url :string</text>
<text text-anchor="start" x="642.5" y="-219.4" font-family="Times Roman,serif" font-size="14.00">company_permalink :string</text>
<text text-anchor="start" x="642.5" y="-201.4" font-family="Times Roman,serif" font-size="14.00">created_at :datetime</text>
<text text-anchor="start" x="642.5" y="-183.4" font-family="Times Roman,serif" font-size="14.00">updated_at :datetime</text>
<text text-anchor="start" x="642.5" y="-165.4" font-family="Times Roman,serif" font-size="14.00">funded_day :integer</text>
</g>
<!-- EmploymentStatus -->
<g id="node9" class="node"><title>EmploymentStatus</title>
<polyline fill="none" stroke="black" points="1700.5,-824 1879.5,-824 "/>
<path fill="none" stroke="black" d="M1879.5,-824C1885.5,-824 1891.5,-830 1891.5,-836"/>
<polyline fill="none" stroke="black" points="1891.5,-836 1891.5,-918 "/>
<path fill="none" stroke="black" d="M1891.5,-918C1891.5,-924 1885.5,-930 1879.5,-930"/>
<polyline fill="none" stroke="black" points="1879.5,-930 1700.5,-930 "/>
<path fill="none" stroke="black" d="M1700.5,-930C1694.5,-930 1688.5,-924 1688.5,-918"/>
<polyline fill="none" stroke="black" points="1688.5,-918 1688.5,-836 "/>
<path fill="none" stroke="black" d="M1688.5,-836C1688.5,-830 1694.5,-824 1700.5,-824"/>
<text text-anchor="middle" x="1790" y="-913.4" font-family="Times Roman,serif" font-size="14.00">EmploymentStatus</text>
<polyline fill="none" stroke="black" points="1688.5,-904 1891.5,-904 "/>
<text text-anchor="start" x="1696.5" y="-887.4" font-family="Times Roman,serif" font-size="14.00">is_past :boolean</text>
<text text-anchor="start" x="1696.5" y="-869.4" font-family="Times Roman,serif" font-size="14.00">title :string</text>
<text text-anchor="start" x="1696.5" y="-851.4" font-family="Times Roman,serif" font-size="14.00">company_permalink :string</text>
<text text-anchor="start" x="1696.5" y="-833.4" font-family="Times Roman,serif" font-size="14.00">person_permalink :string</text>
</g>
<!-- Research -->
<g id="node10" class="node"><title>Research</title>
<polyline fill="none" stroke="black" points="541.5,-833 682.5,-833 "/>
<path fill="none" stroke="black" d="M682.5,-833C688.5,-833 694.5,-839 694.5,-845"/>
<polyline fill="none" stroke="black" points="694.5,-845 694.5,-909 "/>
<path fill="none" stroke="black" d="M694.5,-909C694.5,-915 688.5,-921 682.5,-921"/>
<polyline fill="none" stroke="black" points="682.5,-921 541.5,-921 "/>
<path fill="none" stroke="black" d="M541.5,-921C535.5,-921 529.5,-915 529.5,-909"/>
<polyline fill="none" stroke="black" points="529.5,-909 529.5,-845 "/>
<path fill="none" stroke="black" d="M529.5,-845C529.5,-839 535.5,-833 541.5,-833"/>
<text text-anchor="middle" x="612" y="-904.4" font-family="Times Roman,serif" font-size="14.00">Research</text>
<polyline fill="none" stroke="black" points="529.5,-895 694.5,-895 "/>
<text text-anchor="start" x="537.5" y="-878.4" font-family="Times Roman,serif" font-size="14.00">title :string</text>
<text text-anchor="start" x="537.5" y="-860.4" font-family="Times Roman,serif" font-size="14.00">created_at :datetime</text>
<text text-anchor="start" x="537.5" y="-842.4" font-family="Times Roman,serif" font-size="14.00">updated_at :datetime</text>
</g>
<!-- Research&#45;&gt;Folder -->
<g id="edge16" class="edge"><title>Research&#45;&gt;Folder</title>
<path fill="none" stroke="black" d="M612,-824.763C612,-779.451 612,-714.11 612,-668.224"/>
<ellipse fill="none" stroke="black" cx="612" cy="-828.98" rx="4" ry="4"/>
<polygon fill="black" stroke="black" points="612,-668.164 616.5,-658.164 612,-663.164 612,-658.164 612,-658.164 612,-658.164 612,-663.164 607.5,-658.164 612,-668.164 612,-668.164"/>
</g>
<!-- Person -->
<g id="node11" class="node"><title>Person</title>
<polyline fill="none" stroke="black" points="1518.5,-815 1659.5,-815 "/>
<path fill="none" stroke="black" d="M1659.5,-815C1665.5,-815 1671.5,-821 1671.5,-827"/>
<polyline fill="none" stroke="black" points="1671.5,-827 1671.5,-927 "/>
<path fill="none" stroke="black" d="M1671.5,-927C1671.5,-933 1665.5,-939 1659.5,-939"/>
<polyline fill="none" stroke="black" points="1659.5,-939 1518.5,-939 "/>
<path fill="none" stroke="black" d="M1518.5,-939C1512.5,-939 1506.5,-933 1506.5,-927"/>
<polyline fill="none" stroke="black" points="1506.5,-927 1506.5,-827 "/>
<path fill="none" stroke="black" d="M1506.5,-827C1506.5,-821 1512.5,-815 1518.5,-815"/>
<text text-anchor="middle" x="1589" y="-922.4" font-family="Times Roman,serif" font-size="14.00">Person</text>
<polyline fill="none" stroke="black" points="1506.5,-913 1671.5,-913 "/>
<text text-anchor="start" x="1514.5" y="-896.4" font-family="Times Roman,serif" font-size="14.00">first_name :string</text>
<text text-anchor="start" x="1514.5" y="-878.4" font-family="Times Roman,serif" font-size="14.00">created_at :datetime</text>
<text text-anchor="start" x="1514.5" y="-860.4" font-family="Times Roman,serif" font-size="14.00">updated_at :datetime</text>
<text text-anchor="start" x="1514.5" y="-842.4" font-family="Times Roman,serif" font-size="14.00">last_name :string</text>
<text text-anchor="start" x="1514.5" y="-824.4" font-family="Times Roman,serif" font-size="14.00">permalink :string</text>
</g>
<!-- Assignment -->
<g id="node15" class="node"><title>Assignment</title>
<polyline fill="none" stroke="black" points="1699.5,-19 1840.5,-19 "/>
<path fill="none" stroke="black" d="M1840.5,-19C1846.5,-19 1852.5,-25 1852.5,-31"/>
<polyline fill="none" stroke="black" points="1852.5,-31 1852.5,-77 "/>
<path fill="none" stroke="black" d="M1852.5,-77C1852.5,-83 1846.5,-89 1840.5,-89"/>
<polyline fill="none" stroke="black" points="1840.5,-89 1699.5,-89 "/>
<path fill="none" stroke="black" d="M1699.5,-89C1693.5,-89 1687.5,-83 1687.5,-77"/>
<polyline fill="none" stroke="black" points="1687.5,-77 1687.5,-31 "/>
<path fill="none" stroke="black" d="M1687.5,-31C1687.5,-25 1693.5,-19 1699.5,-19"/>
<text text-anchor="middle" x="1770" y="-72.4" font-family="Times Roman,serif" font-size="14.00">Assignment</text>
<polyline fill="none" stroke="black" points="1687.5,-63 1852.5,-63 "/>
<text text-anchor="start" x="1695.5" y="-46.4" font-family="Times Roman,serif" font-size="14.00">created_at :datetime</text>
<text text-anchor="start" x="1695.5" y="-28.4" font-family="Times Roman,serif" font-size="14.00">updated_at :datetime</text>
</g>
<!-- Person&#45;&gt;Assignment -->
<g id="edge22" class="edge"><title>Person&#45;&gt;Assignment</title>
<path fill="none" stroke="black" d="M1664.23,-808.946C1673.1,-798.547 1681.34,-787.444 1688,-776 1775.85,-624.971 1771.77,-571.034 1796,-398 1811.53,-287.083 1811.38,-256.94 1796,-146 1793.85,-130.505 1789.76,-113.949 1785.45,-99.2138"/>
<ellipse fill="none" stroke="black" cx="1661.58" cy="-811.975" rx="4.00002" ry="4.00002"/>
<polygon fill="black" stroke="black" points="1785.36,-98.9073 1786.76,-88.0311 1783.9,-94.123 1782.45,-89.3388 1782.45,-89.3388 1782.45,-89.3388 1783.9,-94.123 1778.15,-90.6466 1785.36,-98.9073 1785.36,-98.9073"/>
</g>
<!-- Company -->
<g id="node16" class="node"><title>Company</title>
<polyline fill="none" stroke="black" points="1166.5,-561 1307.5,-561 "/>
<path fill="none" stroke="black" d="M1307.5,-561C1313.5,-561 1319.5,-567 1319.5,-573"/>
<polyline fill="none" stroke="black" points="1319.5,-573 1319.5,-655 "/>
<path fill="none" stroke="black" d="M1319.5,-655C1319.5,-661 1313.5,-667 1307.5,-667"/>
<polyline fill="none" stroke="black" points="1307.5,-667 1166.5,-667 "/>
<path fill="none" stroke="black" d="M1166.5,-667C1160.5,-667 1154.5,-661 1154.5,-655"/>
<polyline fill="none" stroke="black" points="1154.5,-655 1154.5,-573 "/>
<path fill="none" stroke="black" d="M1154.5,-573C1154.5,-567 1160.5,-561 1166.5,-561"/>
<text text-anchor="middle" x="1237" y="-650.4" font-family="Times Roman,serif" font-size="14.00">Company</text>
<polyline fill="none" stroke="black" points="1154.5,-641 1319.5,-641 "/>
<text text-anchor="start" x="1162.5" y="-624.4" font-family="Times Roman,serif" font-size="14.00">name :string</text>
<text text-anchor="start" x="1162.5" y="-606.4" font-family="Times Roman,serif" font-size="14.00">created_at :datetime</text>
<text text-anchor="start" x="1162.5" y="-588.4" font-family="Times Roman,serif" font-size="14.00">updated_at :datetime</text>
<text text-anchor="start" x="1162.5" y="-570.4" font-family="Times Roman,serif" font-size="14.00">permalink :string</text>
</g>
<!-- Person&#45;&gt;Company -->
<g id="edge20" class="edge"><title>Person&#45;&gt;Company</title>
<path fill="none" stroke="black" d="M1498.23,-809.181C1441.9,-767.091 1370.21,-713.527 1316.18,-673.163"/>
<polygon fill="black" stroke="black" points="1498.46,-809.353 1503.78,-818.943 1502.47,-812.345 1506.47,-815.338 1506.47,-815.338 1506.47,-815.338 1502.47,-812.345 1509.17,-811.733 1498.46,-809.353 1498.46,-809.353"/>
<polygon fill="black" stroke="black" points="1316.02,-673.04 1310.7,-663.45 1312.01,-670.047 1308.01,-667.054 1308.01,-667.054 1308.01,-667.054 1312.01,-670.047 1305.31,-670.659 1316.02,-673.04 1316.02,-673.04"/>
</g>
<!-- Product -->
<g id="node18" class="node"><title>Product</title>
<polyline fill="none" stroke="black" points="1596.5,-210 1775.5,-210 "/>
<path fill="none" stroke="black" d="M1775.5,-210C1781.5,-210 1787.5,-216 1787.5,-222"/>
<polyline fill="none" stroke="black" points="1787.5,-222 1787.5,-322 "/>
<path fill="none" stroke="black" d="M1787.5,-322C1787.5,-328 1781.5,-334 1775.5,-334"/>
<polyline fill="none" stroke="black" points="1775.5,-334 1596.5,-334 "/>
<path fill="none" stroke="black" d="M1596.5,-334C1590.5,-334 1584.5,-328 1584.5,-322"/>
<polyline fill="none" stroke="black" points="1584.5,-322 1584.5,-222 "/>
<path fill="none" stroke="black" d="M1584.5,-222C1584.5,-216 1590.5,-210 1596.5,-210"/>
<text text-anchor="middle" x="1686" y="-317.4" font-family="Times Roman,serif" font-size="14.00">Product</text>
<polyline fill="none" stroke="black" points="1584.5,-308 1787.5,-308 "/>
<text text-anchor="start" x="1592.5" y="-291.4" font-family="Times Roman,serif" font-size="14.00">name :string</text>
<text text-anchor="start" x="1592.5" y="-273.4" font-family="Times Roman,serif" font-size="14.00">created_at :datetime</text>
<text text-anchor="start" x="1592.5" y="-255.4" font-family="Times Roman,serif" font-size="14.00">updated_at :datetime</text>
<text text-anchor="start" x="1592.5" y="-237.4" font-family="Times Roman,serif" font-size="14.00">permalink :string</text>
<text text-anchor="start" x="1592.5" y="-219.4" font-family="Times Roman,serif" font-size="14.00">company_permalink :string</text>
</g>
<!-- Person&#45;&gt;Product -->
<g id="edge24" class="edge"><title>Person&#45;&gt;Product</title>
<path fill="none" stroke="black" d="M1639.99,-805.961C1645.15,-796.247 1649.7,-786.124 1653,-776 1701.08,-628.498 1698.46,-444.15 1692.26,-344.336"/>
<polygon fill="black" stroke="black" points="1639.96,-806.018 1631.16,-812.568 1637.53,-810.387 1635.1,-814.756 1635.1,-814.756 1635.1,-814.756 1637.53,-810.387 1639.03,-816.945 1639.96,-806.018 1639.96,-806.018"/>
<polygon fill="black" stroke="black" points="1692.26,-344.335 1696.1,-334.064 1691.94,-339.346 1691.61,-334.356 1691.61,-334.356 1691.61,-334.356 1691.94,-339.346 1687.12,-334.649 1692.26,-344.335 1692.26,-344.335"/>
</g>
<!-- EmploymentStatu -->
<g id="node28" class="node"><title>EmploymentStatu</title>
<ellipse fill="none" stroke="black" cx="1468" cy="-272" rx="99.201" ry="18.3848"/>
<text text-anchor="middle" x="1468" y="-268.4" font-family="Times Roman,serif" font-size="14.00">EmploymentStatu</text>
</g>
<!-- Person&#45;&gt;EmploymentStatu -->
<g id="edge18" class="edge"><title>Person&#45;&gt;EmploymentStatu</title>
<path fill="none" stroke="black" d="M1516.63,-808.188C1509.23,-798.077 1502.71,-787.252 1498,-776 1461.74,-689.375 1465.16,-394.688 1467.24,-300.91"/>
<ellipse fill="none" stroke="black" cx="1519.19" cy="-811.546" rx="4.00002" ry="4.00002"/>
<polygon fill="black" stroke="black" points="1467.25,-300.738 1471.98,-290.846 1467.36,-295.739 1467.48,-290.741 1467.48,-290.741 1467.48,-290.741 1467.36,-295.739 1462.98,-290.635 1467.25,-300.738 1467.25,-300.738"/>
<text text-anchor="middle" x="1573.5" y="-610.4" font-family="Times Roman,serif" font-size="14.00">employment_statuses</text>
</g>
<!-- Office -->
<g id="node12" class="node"><title>Office</title>
<polyline fill="none" stroke="black" points="876.5,-147 1055.5,-147 "/>
<path fill="none" stroke="black" d="M1055.5,-147C1061.5,-147 1067.5,-153 1067.5,-159"/>
<polyline fill="none" stroke="black" points="1067.5,-159 1067.5,-385 "/>
<path fill="none" stroke="black" d="M1067.5,-385C1067.5,-391 1061.5,-397 1055.5,-397"/>
<polyline fill="none" stroke="black" points="1055.5,-397 876.5,-397 "/>
<path fill="none" stroke="black" d="M876.5,-397C870.5,-397 864.5,-391 864.5,-385"/>
<polyline fill="none" stroke="black" points="864.5,-385 864.5,-159 "/>
<path fill="none" stroke="black" d="M864.5,-159C864.5,-153 870.5,-147 876.5,-147"/>
<text text-anchor="middle" x="966" y="-380.4" font-family="Times Roman,serif" font-size="14.00">Office</text>
<polyline fill="none" stroke="black" points="864.5,-371 1067.5,-371 "/>
<text text-anchor="start" x="872.5" y="-354.4" font-family="Times Roman,serif" font-size="14.00">description :text</text>
<text text-anchor="start" x="872.5" y="-336.4" font-family="Times Roman,serif" font-size="14.00">address1 :text</text>
<text text-anchor="start" x="872.5" y="-318.4" font-family="Times Roman,serif" font-size="14.00">address2 :text</text>
<text text-anchor="start" x="872.5" y="-300.4" font-family="Times Roman,serif" font-size="14.00">zip_code :integer</text>
<text text-anchor="start" x="872.5" y="-282.4" font-family="Times Roman,serif" font-size="14.00">city :string</text>
<text text-anchor="start" x="872.5" y="-264.4" font-family="Times Roman,serif" font-size="14.00">state_code :string</text>
<text text-anchor="start" x="872.5" y="-246.4" font-family="Times Roman,serif" font-size="14.00">country_code :string</text>
<text text-anchor="start" x="872.5" y="-228.4" font-family="Times Roman,serif" font-size="14.00">latitude :decimal</text>
<text text-anchor="start" x="872.5" y="-210.4" font-family="Times Roman,serif" font-size="14.00">longitude :decimal</text>
<text text-anchor="start" x="872.5" y="-192.4" font-family="Times Roman,serif" font-size="14.00">created_at :datetime</text>
<text text-anchor="start" x="872.5" y="-174.4" font-family="Times Roman,serif" font-size="14.00">updated_at :datetime</text>
<text text-anchor="start" x="872.5" y="-156.4" font-family="Times Roman,serif" font-size="14.00">company_permalink :string</text>
</g>
<!-- User -->
<g id="node13" class="node"><title>User</title>
<polyline fill="none" stroke="black" points="270,-453 500,-453 "/>
<path fill="none" stroke="black" d="M500,-453C506,-453 512,-459 512,-465"/>
<polyline fill="none" stroke="black" points="512,-465 512,-763 "/>
<path fill="none" stroke="black" d="M512,-763C512,-769 506,-775 500,-775"/>
<polyline fill="none" stroke="black" points="500,-775 270,-775 "/>
<path fill="none" stroke="black" d="M270,-775C264,-775 258,-769 258,-763"/>
<polyline fill="none" stroke="black" points="258,-763 258,-465 "/>
<path fill="none" stroke="black" d="M258,-465C258,-459 264,-453 270,-453"/>
<text text-anchor="middle" x="385" y="-758.4" font-family="Times Roman,serif" font-size="14.00">User</text>
<polyline fill="none" stroke="black" points="258,-749 512,-749 "/>
<text text-anchor="start" x="266" y="-732.4" font-family="Times Roman,serif" font-size="14.00">firstName :string</text>
<text text-anchor="start" x="266" y="-714.4" font-family="Times Roman,serif" font-size="14.00">email :string</text>
<text text-anchor="start" x="266" y="-696.4" font-family="Times Roman,serif" font-size="14.00">encrypted_password :string</text>
<text text-anchor="start" x="266" y="-678.4" font-family="Times Roman,serif" font-size="14.00">confirmation_token :string</text>
<text text-anchor="start" x="266" y="-660.4" font-family="Times Roman,serif" font-size="14.00">confirmed_at :datetime</text>
<text text-anchor="start" x="266" y="-642.4" font-family="Times Roman,serif" font-size="14.00">confirmation_sent_at :datetime</text>
<text text-anchor="start" x="266" y="-624.4" font-family="Times Roman,serif" font-size="14.00">reset_password_token :string</text>
<text text-anchor="start" x="266" y="-606.4" font-family="Times Roman,serif" font-size="14.00">reset_password_sent_at :datetime</text>
<text text-anchor="start" x="266" y="-588.4" font-family="Times Roman,serif" font-size="14.00">remember_created_at :datetime</text>
<text text-anchor="start" x="266" y="-570.4" font-family="Times Roman,serif" font-size="14.00">current_sign_in_at :datetime</text>
<text text-anchor="start" x="266" y="-552.4" font-family="Times Roman,serif" font-size="14.00">last_sign_in_at :datetime</text>
<text text-anchor="start" x="266" y="-534.4" font-family="Times Roman,serif" font-size="14.00">current_sign_in_ip :string</text>
<text text-anchor="start" x="266" y="-516.4" font-family="Times Roman,serif" font-size="14.00">last_sign_in_ip :string</text>
<text text-anchor="start" x="266" y="-498.4" font-family="Times Roman,serif" font-size="14.00">created_at :datetime</text>
<text text-anchor="start" x="266" y="-480.4" font-family="Times Roman,serif" font-size="14.00">updated_at :datetime</text>
<text text-anchor="start" x="266" y="-462.4" font-family="Times Roman,serif" font-size="14.00">lastName :string</text>
</g>
<!-- User&#45;&gt;Update -->
<g id="edge28" class="edge"><title>User&#45;&gt;Update</title>
<path fill="none" stroke="black" d="M360.087,-444.702C358.428,-428.941 357.015,-413.19 356,-398 348.532,-286.249 354.783,-257.993 356,-146 356.102,-136.633 356.262,-126.731 356.448,-117.03"/>
<ellipse fill="none" stroke="black" cx="360.548" cy="-448.964" rx="4" ry="4"/>
<polygon fill="black" stroke="black" points="356.448,-117.023 361.15,-107.116 356.549,-112.024 356.651,-107.025 356.651,-107.025 356.651,-107.025 356.549,-112.024 352.151,-106.934 356.448,-117.023 356.448,-117.023"/>
</g>
<!-- User&#45;&gt;Topic -->
<g id="edge26" class="edge"><title>User&#45;&gt;Topic</title>
<path fill="none" stroke="black" d="M415.701,-444.651C421.477,-412.788 427.267,-380.847 432.269,-353.257"/>
<ellipse fill="none" stroke="black" cx="414.943" cy="-448.828" rx="4.00001" ry="4.00001"/>
<polygon fill="black" stroke="black" points="432.291,-353.136 438.503,-344.1 433.183,-348.217 434.075,-343.297 434.075,-343.297 434.075,-343.297 433.183,-348.217 429.647,-342.494 432.291,-353.136 432.291,-353.136"/>
</g>
<!-- Company&#45;&gt;StaffLevel -->
<g id="edge32" class="edge"><title>Company&#45;&gt;StaffLevel</title>
<path fill="none" stroke="black" d="M1237,-552.829C1237,-494.353 1237,-406.174 1237,-344.262"/>
<ellipse fill="none" stroke="black" cx="1237" cy="-556.938" rx="4" ry="4"/>
<polygon fill="black" stroke="black" points="1237,-344.176 1241.5,-334.176 1237,-339.176 1237,-334.176 1237,-334.176 1237,-334.176 1237,-339.176 1232.5,-334.177 1237,-344.176 1237,-344.176"/>
</g>
<!-- Company&#45;&gt;Deployment -->
<g id="edge38" class="edge"><title>Company&#45;&gt;Deployment</title>
<path fill="none" stroke="black" d="M1192.85,-554.297C1128.99,-460.009 1027.49,-274.188 1114,-146 1144.21,-101.231 1200.26,-78.2418 1249.22,-66.4397"/>
<ellipse fill="none" stroke="black" cx="1195.12" cy="-557.623" rx="4.00002" ry="4.00002"/>
<polygon fill="black" stroke="black" points="1249.48,-66.3808 1260.23,-68.5436 1254.35,-65.2686 1259.23,-64.1563 1259.23,-64.1563 1259.23,-64.1563 1254.35,-65.2686 1258.23,-59.7691 1249.48,-66.3808 1249.48,-66.3808"/>
</g>
<!-- Company&#45;&gt;FundingRound -->
<g id="edge30" class="edge"><title>Company&#45;&gt;FundingRound</title>
<path fill="none" stroke="black" d="M1146.63,-572.888C1066.12,-533.984 947.267,-470.81 856,-398 854.647,-396.921 853.296,-395.825 851.947,-394.714"/>
<ellipse fill="none" stroke="black" cx="1150.69" cy="-574.843" rx="4.00002" ry="4.00002"/>
<polygon fill="black" stroke="black" points="851.885,-394.661 847.164,-384.763 848.07,-391.429 844.255,-388.197 844.255,-388.197 844.255,-388.197 848.07,-391.429 841.346,-391.63 851.885,-394.661 851.885,-394.661"/>
</g>
<!-- Company&#45;&gt;Office -->
<g id="edge36" class="edge"><title>Company&#45;&gt;Office</title>
<path fill="none" stroke="black" d="M1182.86,-554.483C1152.14,-519.99 1113.46,-475.334 1081,-434 1073.76,-424.781 1066.42,-415.155 1059.12,-405.392"/>
<ellipse fill="none" stroke="black" cx="1185.84" cy="-557.818" rx="4.00002" ry="4.00002"/>
<polygon fill="black" stroke="black" points="1058.98,-405.193 1056.62,-394.482 1055.99,-401.179 1053.01,-397.165 1053.01,-397.165 1053.01,-397.165 1055.99,-401.179 1049.4,-399.849 1058.98,-405.193 1058.98,-405.193"/>
</g>
<!-- Company&#45;&gt;Product -->
<g id="edge40" class="edge"><title>Company&#45;&gt;Product</title>
<path fill="none" stroke="black" d="M1319.42,-555.127C1364.88,-523.428 1422.75,-484.314 1476,-452 1519.18,-425.797 1536.54,-429.529 1576,-398 1596.33,-381.758 1615.9,-361.45 1632.76,-341.911"/>
<polygon fill="black" stroke="black" points="1319.28,-555.227 1308.51,-557.268 1315.18,-558.091 1311.08,-560.956 1311.08,-560.956 1311.08,-560.956 1315.18,-558.091 1313.66,-564.644 1319.28,-555.227 1319.28,-555.227"/>
<polygon fill="black" stroke="black" points="1632.85,-341.804 1642.75,-337.095 1636.09,-337.993 1639.33,-334.182 1639.33,-334.182 1639.33,-334.182 1636.09,-337.993 1635.9,-331.269 1632.85,-341.804 1632.85,-341.804"/>
</g>
<!-- Company&#45;&gt;EmploymentStatu -->
<g id="edge34" class="edge"><title>Company&#45;&gt;EmploymentStatu</title>
<path fill="none" stroke="black" d="M1240.45,-552.602C1246.13,-508.907 1260.61,-451.815 1297,-416 1317.75,-395.573 1335.49,-413.72 1360,-398 1399.83,-372.458 1433,-327.833 1451.67,-299.121"/>
<ellipse fill="none" stroke="black" cx="1239.97" cy="-556.626" rx="4.00001" ry="4.00001"/>
<polygon fill="black" stroke="black" points="1451.85,-298.842 1461.01,-292.816 1454.53,-294.622 1457.21,-290.402 1457.21,-290.402 1457.21,-290.402 1454.53,-294.622 1453.41,-287.989 1451.85,-298.842 1451.85,-298.842"/>
<text text-anchor="middle" x="1372.5" y="-421.4" font-family="Times Roman,serif" font-size="14.00">employment_statuses</text>
</g>
<!-- Product&#45;&gt;Deployment -->
<g id="edge44" class="edge"><title>Product&#45;&gt;Deployment</title>
<path fill="none" stroke="black" d="M1636.55,-203.541C1619.18,-183 1598.37,-161.765 1576,-146 1533.36,-115.953 1479.54,-93.9106 1434.27,-78.9474"/>
<ellipse fill="none" stroke="black" cx="1639.26" cy="-206.811" rx="4.00002" ry="4.00002"/>
<polygon fill="black" stroke="black" points="1434.26,-78.9441 1426.13,-71.5807 1429.5,-77.4028 1424.74,-75.8616 1424.74,-75.8616 1424.74,-75.8616 1429.5,-77.4028 1423.36,-80.1424 1434.26,-78.9441 1434.26,-78.9441"/>
</g>
<!-- Product&#45;&gt;Assignment -->
<g id="edge42" class="edge"><title>Product&#45;&gt;Assignment</title>
<path fill="none" stroke="black" d="M1713.01,-201.901C1726.05,-168.062 1741.31,-128.466 1752.75,-98.7641"/>
<ellipse fill="none" stroke="black" cx="1711.4" cy="-206.089" rx="4.00001" ry="4.00001"/>
<polygon fill="black" stroke="black" points="1752.88,-98.4243 1760.68,-90.7111 1754.68,-93.7587 1756.48,-89.0931 1756.48,-89.0931 1756.48,-89.0931 1754.68,-93.7587 1752.28,-87.4751 1752.88,-98.4243 1752.88,-98.4243"/>
</g>
</g>
</svg>
