<?xml version="1.0" encoding="UTF-8" standalone="no"?>
<!DOCTYPE svg PUBLIC "-//W3C//DTD SVG 1.1//EN"
 "http://www.w3.org/Graphics/SVG/1.1/DTD/svg11.dtd">
<!-- Generated by graphviz version 2.26.3 (20100126.1600)
 -->
<!-- Title: models_diagram Pages: 1 -->
<svg width="2235pt" height="804pt"
 viewBox="0.00 0.00 2235.00 804.00" xmlns="http://www.w3.org/2000/svg" xmlns:xlink="http://www.w3.org/1999/xlink">
<g id="graph1" class="graph" transform="scale(1 1) rotate(0) translate(4 800)">
<title>models_diagram</title>
<polygon fill="white" stroke="white" points="-4,5 -4,-800 2232,-800 2232,5 -4,5"/>
<!-- _diagram_info -->
<g id="node1" class="node"><title>_diagram_info</title>
<text text-anchor="start" x="8" y="-664.8" font-family="Times Roman,serif" font-size="13.00">Models diagram</text>
<text text-anchor="start" x="8" y="-647.8" font-family="Times Roman,serif" font-size="13.00">Date: Oct 15 2011 &#45; 15:22</text>
<text text-anchor="start" x="8" y="-630.8" font-family="Times Roman,serif" font-size="13.00">Migration version: 20111015010439</text>
<text text-anchor="start" x="8" y="-613.8" font-family="Times Roman,serif" font-size="13.00">Generated by RailRoady 1.0.2</text>
<text text-anchor="start" x="8" y="-596.8" font-family="Times Roman,serif" font-size="13.00">http://railroady.prestonlee.com</text>
</g>
<!-- Attachment -->
<g id="node2" class="node"><title>Attachment</title>
<polyline fill="none" stroke="black" points="279.5,-563 496.5,-563 "/>
<path fill="none" stroke="black" d="M496.5,-563C502.5,-563 508.5,-569 508.5,-575"/>
<polyline fill="none" stroke="black" points="508.5,-575 508.5,-693 "/>
<path fill="none" stroke="black" d="M508.5,-693C508.5,-699 502.5,-705 496.5,-705"/>
<polyline fill="none" stroke="black" points="496.5,-705 279.5,-705 "/>
<path fill="none" stroke="black" d="M279.5,-705C273.5,-705 267.5,-699 267.5,-693"/>
<polyline fill="none" stroke="black" points="267.5,-693 267.5,-575 "/>
<path fill="none" stroke="black" d="M267.5,-575C267.5,-569 273.5,-563 279.5,-563"/>
<text text-anchor="middle" x="388" y="-688.4" font-family="Times Roman,serif" font-size="14.00">Attachment</text>
<polyline fill="none" stroke="black" points="267.5,-679 508.5,-679 "/>
<text text-anchor="start" x="275.5" y="-662.4" font-family="Times Roman,serif" font-size="14.00">document_file_name :string</text>
<text text-anchor="start" x="275.5" y="-644.4" font-family="Times Roman,serif" font-size="14.00">document_content_type :string</text>
<text text-anchor="start" x="275.5" y="-626.4" font-family="Times Roman,serif" font-size="14.00">document_file_size :integer</text>
<text text-anchor="start" x="275.5" y="-608.4" font-family="Times Roman,serif" font-size="14.00">document_updated_at :datetime</text>
<text text-anchor="start" x="275.5" y="-590.4" font-family="Times Roman,serif" font-size="14.00">created_at :datetime</text>
<text text-anchor="start" x="275.5" y="-572.4" font-family="Times Roman,serif" font-size="14.00">updated_at :datetime</text>
</g>
<!-- Topic -->
<g id="node6" class="node"><title>Topic</title>
<polyline fill="none" stroke="black" points="632.5,-291 773.5,-291 "/>
<path fill="none" stroke="black" d="M773.5,-291C779.5,-291 785.5,-297 785.5,-303"/>
<polyline fill="none" stroke="black" points="785.5,-303 785.5,-421 "/>
<path fill="none" stroke="black" d="M785.5,-421C785.5,-427 779.5,-433 773.5,-433"/>
<polyline fill="none" stroke="black" points="773.5,-433 632.5,-433 "/>
<path fill="none" stroke="black" d="M632.5,-433C626.5,-433 620.5,-427 620.5,-421"/>
<polyline fill="none" stroke="black" points="620.5,-421 620.5,-303 "/>
<path fill="none" stroke="black" d="M620.5,-303C620.5,-297 626.5,-291 632.5,-291"/>
<text text-anchor="middle" x="703" y="-416.4" font-family="Times Roman,serif" font-size="14.00">Topic</text>
<polyline fill="none" stroke="black" points="620.5,-407 785.5,-407 "/>
<text text-anchor="start" x="628.5" y="-390.4" font-family="Times Roman,serif" font-size="14.00">title :string</text>
<text text-anchor="start" x="628.5" y="-372.4" font-family="Times Roman,serif" font-size="14.00">content :text</text>
<text text-anchor="start" x="628.5" y="-354.4" font-family="Times Roman,serif" font-size="14.00">created_at :datetime</text>
<text text-anchor="start" x="628.5" y="-336.4" font-family="Times Roman,serif" font-size="14.00">updated_at :datetime</text>
<text text-anchor="start" x="628.5" y="-318.4" font-family="Times Roman,serif" font-size="14.00">progress :integer</text>
<text text-anchor="start" x="628.5" y="-300.4" font-family="Times Roman,serif" font-size="14.00">version :string</text>
</g>
<!-- Attachment&#45;&gt;Topic -->
<g id="edge4" class="edge"><title>Attachment&#45;&gt;Topic</title>
<path fill="none" stroke="black" d="M441.891,-554.745C463.272,-526.646 489.355,-496.061 517,-472 545.324,-447.348 579.933,-425.158 611.582,-407.273"/>
<polygon fill="black" stroke="black" points="441.707,-554.99 432.102,-560.282 438.703,-558.988 435.699,-562.985 435.699,-562.985 435.699,-562.985 438.703,-558.988 439.297,-565.688 441.707,-554.99 441.707,-554.99"/>
<polygon fill="black" stroke="black" points="611.688,-407.214 622.613,-406.274 616.055,-404.779 620.422,-402.344 620.422,-402.344 620.422,-402.344 616.055,-404.779 618.231,-398.413 611.688,-407.214 611.688,-407.214"/>
</g>
<!-- Attach -->
<g id="node16" class="node"><title>Attach</title>
<polyline fill="none" stroke="black" points="354.5,-138 495.5,-138 "/>
<path fill="none" stroke="black" d="M495.5,-138C501.5,-138 507.5,-144 507.5,-150"/>
<polyline fill="none" stroke="black" points="507.5,-150 507.5,-196 "/>
<path fill="none" stroke="black" d="M507.5,-196C507.5,-202 501.5,-208 495.5,-208"/>
<polyline fill="none" stroke="black" points="495.5,-208 354.5,-208 "/>
<path fill="none" stroke="black" d="M354.5,-208C348.5,-208 342.5,-202 342.5,-196"/>
<polyline fill="none" stroke="black" points="342.5,-196 342.5,-150 "/>
<path fill="none" stroke="black" d="M342.5,-150C342.5,-144 348.5,-138 354.5,-138"/>
<text text-anchor="middle" x="425" y="-191.4" font-family="Times Roman,serif" font-size="14.00">Attach</text>
<polyline fill="none" stroke="black" points="342.5,-182 507.5,-182 "/>
<text text-anchor="start" x="350.5" y="-165.4" font-family="Times Roman,serif" font-size="14.00">created_at :datetime</text>
<text text-anchor="start" x="350.5" y="-147.4" font-family="Times Roman,serif" font-size="14.00">updated_at :datetime</text>
</g>
<!-- Attachment&#45;&gt;Attach -->
<g id="edge2" class="edge"><title>Attachment&#45;&gt;Attach</title>
<path fill="none" stroke="black" d="M394.35,-554.886C402.15,-457.694 415.119,-296.118 421.387,-218.011"/>
<ellipse fill="none" stroke="black" cx="394.02" cy="-558.992" rx="4" ry="4"/>
<polygon fill="black" stroke="black" points="421.39,-217.977 426.676,-208.369 421.79,-212.993 422.19,-208.009 422.19,-208.009 422.19,-208.009 421.79,-212.993 417.705,-207.649 421.39,-217.977 421.39,-217.977"/>
</g>
<!-- Update -->
<g id="node3" class="node"><title>Update</title>
<polyline fill="none" stroke="black" points="549,-120 709,-120 "/>
<path fill="none" stroke="black" d="M709,-120C715,-120 721,-126 721,-132"/>
<polyline fill="none" stroke="black" points="721,-132 721,-214 "/>
<path fill="none" stroke="black" d="M721,-214C721,-220 715,-226 709,-226"/>
<polyline fill="none" stroke="black" points="709,-226 549,-226 "/>
<path fill="none" stroke="black" d="M549,-226C543,-226 537,-220 537,-214"/>
<polyline fill="none" stroke="black" points="537,-214 537,-132 "/>
<path fill="none" stroke="black" d="M537,-132C537,-126 543,-120 549,-120"/>
<text text-anchor="middle" x="629" y="-209.4" font-family="Times Roman,serif" font-size="14.00">Update</text>
<polyline fill="none" stroke="black" points="537,-200 721,-200 "/>
<text text-anchor="start" x="545" y="-183.4" font-family="Times Roman,serif" font-size="14.00">type_of_update :string</text>
<text text-anchor="start" x="545" y="-165.4" font-family="Times Roman,serif" font-size="14.00">created_at :datetime</text>
<text text-anchor="start" x="545" y="-147.4" font-family="Times Roman,serif" font-size="14.00">updated_at :datetime</text>
<text text-anchor="start" x="545" y="-129.4" font-family="Times Roman,serif" font-size="14.00">progress_status :integer</text>
</g>
<!-- StaffLevel -->
<g id="node4" class="node"><title>StaffLevel</title>
<polyline fill="none" stroke="black" points="996.5,-120 1201.5,-120 "/>
<path fill="none" stroke="black" d="M1201.5,-120C1207.5,-120 1213.5,-126 1213.5,-132"/>
<polyline fill="none" stroke="black" points="1213.5,-132 1213.5,-214 "/>
<path fill="none" stroke="black" d="M1213.5,-214C1213.5,-220 1207.5,-226 1201.5,-226"/>
<polyline fill="none" stroke="black" points="1201.5,-226 996.5,-226 "/>
<path fill="none" stroke="black" d="M996.5,-226C990.5,-226 984.5,-220 984.5,-214"/>
<polyline fill="none" stroke="black" points="984.5,-214 984.5,-132 "/>
<path fill="none" stroke="black" d="M984.5,-132C984.5,-126 990.5,-120 996.5,-120"/>
<text text-anchor="middle" x="1099" y="-209.4" font-family="Times Roman,serif" font-size="14.00">StaffLevel</text>
<polyline fill="none" stroke="black" points="984.5,-200 1213.5,-200 "/>
<text text-anchor="start" x="992.5" y="-183.4" font-family="Times Roman,serif" font-size="14.00">number_of_employees :integer</text>
<text text-anchor="start" x="992.5" y="-165.4" font-family="Times Roman,serif" font-size="14.00">created_at :datetime</text>
<text text-anchor="start" x="992.5" y="-147.4" font-family="Times Roman,serif" font-size="14.00">updated_at :datetime</text>
<text text-anchor="start" x="992.5" y="-129.4" font-family="Times Roman,serif" font-size="14.00">company_permalink :string</text>
</g>
<!-- Folder -->
<g id="node5" class="node"><title>Folder</title>
<polyline fill="none" stroke="black" points="809.5,-590 950.5,-590 "/>
<path fill="none" stroke="black" d="M950.5,-590C956.5,-590 962.5,-596 962.5,-602"/>
<polyline fill="none" stroke="black" points="962.5,-602 962.5,-666 "/>
<path fill="none" stroke="black" d="M962.5,-666C962.5,-672 956.5,-678 950.5,-678"/>
<polyline fill="none" stroke="black" points="950.5,-678 809.5,-678 "/>
<path fill="none" stroke="black" d="M809.5,-678C803.5,-678 797.5,-672 797.5,-666"/>
<polyline fill="none" stroke="black" points="797.5,-666 797.5,-602 "/>
<path fill="none" stroke="black" d="M797.5,-602C797.5,-596 803.5,-590 809.5,-590"/>
<text text-anchor="middle" x="880" y="-661.4" font-family="Times Roman,serif" font-size="14.00">Folder</text>
<polyline fill="none" stroke="black" points="797.5,-652 962.5,-652 "/>
<text text-anchor="start" x="805.5" y="-635.4" font-family="Times Roman,serif" font-size="14.00">title :string</text>
<text text-anchor="start" x="805.5" y="-617.4" font-family="Times Roman,serif" font-size="14.00">created_at :datetime</text>
<text text-anchor="start" x="805.5" y="-599.4" font-family="Times Roman,serif" font-size="14.00">updated_at :datetime</text>
</g>
<!-- Folder&#45;&gt;Topic -->
<g id="edge6" class="edge"><title>Folder&#45;&gt;Topic</title>
<path fill="none" stroke="black" d="M853.798,-582.772C836.566,-550.298 812.861,-507.816 789,-472 782.213,-461.812 774.757,-451.363 767.16,-441.153"/>
<ellipse fill="none" stroke="black" cx="855.726" cy="-586.423" rx="4.00002" ry="4.00002"/>
<polygon fill="black" stroke="black" points="767.058,-441.017 764.644,-430.32 764.053,-437.021 761.047,-433.025 761.047,-433.025 761.047,-433.025 764.053,-437.021 757.451,-435.729 767.058,-441.017 767.058,-441.017"/>
</g>
<!-- Notification -->
<g id="node13" class="node"><title>Notification</title>
<polyline fill="none" stroke="black" points="776.5,-129 955.5,-129 "/>
<path fill="none" stroke="black" d="M955.5,-129C961.5,-129 967.5,-135 967.5,-141"/>
<polyline fill="none" stroke="black" points="967.5,-141 967.5,-205 "/>
<path fill="none" stroke="black" d="M967.5,-205C967.5,-211 961.5,-217 955.5,-217"/>
<polyline fill="none" stroke="black" points="955.5,-217 776.5,-217 "/>
<path fill="none" stroke="black" d="M776.5,-217C770.5,-217 764.5,-211 764.5,-205"/>
<polyline fill="none" stroke="black" points="764.5,-205 764.5,-141 "/>
<path fill="none" stroke="black" d="M764.5,-141C764.5,-135 770.5,-129 776.5,-129"/>
<text text-anchor="middle" x="866" y="-200.4" font-family="Times Roman,serif" font-size="14.00">Notification</text>
<polyline fill="none" stroke="black" points="764.5,-191 967.5,-191 "/>
<text text-anchor="start" x="772.5" y="-174.4" font-family="Times Roman,serif" font-size="14.00">next_notification :datetime</text>
<text text-anchor="start" x="772.5" y="-156.4" font-family="Times Roman,serif" font-size="14.00">created_at :datetime</text>
<text text-anchor="start" x="772.5" y="-138.4" font-family="Times Roman,serif" font-size="14.00">updated_at :datetime</text>
</g>
<!-- Folder&#45;&gt;Notification -->
<g id="edge8" class="edge"><title>Folder&#45;&gt;Notification</title>
<path fill="none" stroke="black" d="M878.414,-581.779C875.74,-493.74 870.363,-316.659 867.648,-227.264"/>
<ellipse fill="none" stroke="black" cx="878.536" cy="-585.799" rx="4" ry="4"/>
<polygon fill="black" stroke="black" points="867.642,-227.064 871.836,-216.932 867.49,-222.066 867.338,-217.069 867.338,-217.069 867.338,-217.069 867.49,-222.066 862.84,-217.205 867.642,-227.064 867.642,-227.064"/>
</g>
<!-- Topic&#45;&gt;Update -->
<g id="edge10" class="edge"><title>Topic&#45;&gt;Update</title>
<path fill="none" stroke="black" d="M672.152,-283.212C665.916,-267.285 659.44,-250.745 653.46,-235.471"/>
<ellipse fill="none" stroke="black" cx="673.671" cy="-287.092" rx="4.00001" ry="4.00001"/>
<polygon fill="black" stroke="black" points="653.453,-235.453 653.997,-224.501 651.63,-230.797 649.807,-226.142 649.807,-226.142 649.807,-226.142 651.63,-230.797 645.617,-227.782 653.453,-235.453 653.453,-235.453"/>
</g>
<!-- Topic&#45;&gt;Notification -->
<g id="edge14" class="edge"><title>Topic&#45;&gt;Notification</title>
<path fill="none" stroke="black" d="M769.668,-284.698C786.999,-264.603 805.255,-243.435 821.158,-224.994"/>
<ellipse fill="none" stroke="black" cx="767.003" cy="-287.787" rx="4.00002" ry="4.00002"/>
<polygon fill="black" stroke="black" points="821.29,-224.842 831.228,-220.208 824.555,-221.056 827.821,-217.269 827.821,-217.269 827.821,-217.269 824.555,-221.056 824.413,-214.33 821.29,-224.842 821.29,-224.842"/>
</g>
<!-- Topic&#45;&gt;Attach -->
<g id="edge12" class="edge"><title>Topic&#45;&gt;Attach</title>
<path fill="none" stroke="black" d="M613.451,-301.12C571.444,-272.561 522.508,-239.291 485.032,-213.813"/>
<ellipse fill="none" stroke="black" cx="617.036" cy="-303.557" rx="4.00002" ry="4.00002"/>
<polygon fill="black" stroke="black" points="485.003,-213.794 479.263,-204.45 480.868,-210.982 476.733,-208.171 476.733,-208.171 476.733,-208.171 480.868,-210.982 474.203,-211.893 485.003,-213.794 485.003,-213.794"/>
</g>
<!-- Deployment -->
<g id="node7" class="node"><title>Deployment</title>
<polyline fill="none" stroke="black" points="1292.5,-1 1433.5,-1 "/>
<path fill="none" stroke="black" d="M1433.5,-1C1439.5,-1 1445.5,-7 1445.5,-13"/>
<polyline fill="none" stroke="black" points="1445.5,-13 1445.5,-59 "/>
<path fill="none" stroke="black" d="M1445.5,-59C1445.5,-65 1439.5,-71 1433.5,-71"/>
<polyline fill="none" stroke="black" points="1433.5,-71 1292.5,-71 "/>
<path fill="none" stroke="black" d="M1292.5,-71C1286.5,-71 1280.5,-65 1280.5,-59"/>
<polyline fill="none" stroke="black" points="1280.5,-59 1280.5,-13 "/>
<path fill="none" stroke="black" d="M1280.5,-13C1280.5,-7 1286.5,-1 1292.5,-1"/>
<text text-anchor="middle" x="1363" y="-54.4" font-family="Times Roman,serif" font-size="14.00">Deployment</text>
<polyline fill="none" stroke="black" points="1280.5,-45 1445.5,-45 "/>
<text text-anchor="start" x="1288.5" y="-28.4" font-family="Times Roman,serif" font-size="14.00">created_at :datetime</text>
<text text-anchor="start" x="1288.5" y="-10.4" font-family="Times Roman,serif" font-size="14.00">updated_at :datetime</text>
</g>
<!-- FundingRound -->
<g id="node8" class="node"><title>FundingRound</title>
<polyline fill="none" stroke="black" points="1280.5,-120 1445.5,-120 "/>
<path fill="none" stroke="black" d="M1445.5,-120C1451.5,-120 1457.5,-126 1457.5,-132"/>
<polyline fill="none" stroke="black" points="1457.5,-132 1457.5,-214 "/>
<path fill="none" stroke="black" d="M1457.5,-214C1457.5,-220 1451.5,-226 1445.5,-226"/>
<polyline fill="none" stroke="black" points="1445.5,-226 1280.5,-226 "/>
<path fill="none" stroke="black" d="M1280.5,-226C1274.5,-226 1268.5,-220 1268.5,-214"/>
<polyline fill="none" stroke="black" points="1268.5,-214 1268.5,-132 "/>
<path fill="none" stroke="black" d="M1268.5,-132C1268.5,-126 1274.5,-120 1280.5,-120"/>
<text text-anchor="middle" x="1363" y="-209.4" font-family="Times Roman,serif" font-size="14.00">FundingRound</text>
<polyline fill="none" stroke="black" points="1268.5,-200 1457.5,-200 "/>
<text text-anchor="start" x="1276.5" y="-183.4" font-family="Times Roman,serif" font-size="14.00">date_of_record :datetime</text>
<text text-anchor="start" x="1276.5" y="-165.4" font-family="Times Roman,serif" font-size="14.00">money :integer</text>
<text text-anchor="start" x="1276.5" y="-147.4" font-family="Times Roman,serif" font-size="14.00">created_at :datetime</text>
<text text-anchor="start" x="1276.5" y="-129.4" font-family="Times Roman,serif" font-size="14.00">updated_at :datetime</text>
</g>
<!-- EmploymentStatus -->
<g id="node9" class="node"><title>EmploymentStatus</title>
<polyline fill="none" stroke="black" points="1816.5,-563 1995.5,-563 "/>
<path fill="none" stroke="black" d="M1995.5,-563C2001.5,-563 2007.5,-569 2007.5,-575"/>
<polyline fill="none" stroke="black" points="2007.5,-575 2007.5,-693 "/>
<path fill="none" stroke="black" d="M2007.5,-693C2007.5,-699 2001.5,-705 1995.5,-705"/>
<polyline fill="none" stroke="black" points="1995.5,-705 1816.5,-705 "/>
<path fill="none" stroke="black" d="M1816.5,-705C1810.5,-705 1804.5,-699 1804.5,-693"/>
<polyline fill="none" stroke="black" points="1804.5,-693 1804.5,-575 "/>
<path fill="none" stroke="black" d="M1804.5,-575C1804.5,-569 1810.5,-563 1816.5,-563"/>
<text text-anchor="middle" x="1906" y="-688.4" font-family="Times Roman,serif" font-size="14.00">EmploymentStatus</text>
<polyline fill="none" stroke="black" points="1804.5,-679 2007.5,-679 "/>
<text text-anchor="start" x="1812.5" y="-662.4" font-family="Times Roman,serif" font-size="14.00">is_past :string</text>
<text text-anchor="start" x="1812.5" y="-644.4" font-family="Times Roman,serif" font-size="14.00">title :string</text>
<text text-anchor="start" x="1812.5" y="-626.4" font-family="Times Roman,serif" font-size="14.00">created_at :datetime</text>
<text text-anchor="start" x="1812.5" y="-608.4" font-family="Times Roman,serif" font-size="14.00">updated_at :datetime</text>
<text text-anchor="start" x="1812.5" y="-590.4" font-family="Times Roman,serif" font-size="14.00">company_permalink :string</text>
<text text-anchor="start" x="1812.5" y="-572.4" font-family="Times Roman,serif" font-size="14.00">person_permalink :string</text>
</g>
<!-- Person -->
<g id="node10" class="node"><title>Person</title>
<polyline fill="none" stroke="black" points="1634.5,-572 1775.5,-572 "/>
<path fill="none" stroke="black" d="M1775.5,-572C1781.5,-572 1787.5,-578 1787.5,-584"/>
<polyline fill="none" stroke="black" points="1787.5,-584 1787.5,-684 "/>
<path fill="none" stroke="black" d="M1787.5,-684C1787.5,-690 1781.5,-696 1775.5,-696"/>
<polyline fill="none" stroke="black" points="1775.5,-696 1634.5,-696 "/>
<path fill="none" stroke="black" d="M1634.5,-696C1628.5,-696 1622.5,-690 1622.5,-684"/>
<polyline fill="none" stroke="black" points="1622.5,-684 1622.5,-584 "/>
<path fill="none" stroke="black" d="M1622.5,-584C1622.5,-578 1628.5,-572 1634.5,-572"/>
<text text-anchor="middle" x="1705" y="-679.4" font-family="Times Roman,serif" font-size="14.00">Person</text>
<polyline fill="none" stroke="black" points="1622.5,-670 1787.5,-670 "/>
<text text-anchor="start" x="1630.5" y="-653.4" font-family="Times Roman,serif" font-size="14.00">first_name :string</text>
<text text-anchor="start" x="1630.5" y="-635.4" font-family="Times Roman,serif" font-size="14.00">created_at :datetime</text>
<text text-anchor="start" x="1630.5" y="-617.4" font-family="Times Roman,serif" font-size="14.00">updated_at :datetime</text>
<text text-anchor="start" x="1630.5" y="-599.4" font-family="Times Roman,serif" font-size="14.00">last_name :string</text>
<text text-anchor="start" x="1630.5" y="-581.4" font-family="Times Roman,serif" font-size="14.00">permalink :string</text>
</g>
<!-- Assignment -->
<g id="node14" class="node"><title>Assignment</title>
<polyline fill="none" stroke="black" points="1595.5,-1 1736.5,-1 "/>
<path fill="none" stroke="black" d="M1736.5,-1C1742.5,-1 1748.5,-7 1748.5,-13"/>
<polyline fill="none" stroke="black" points="1748.5,-13 1748.5,-59 "/>
<path fill="none" stroke="black" d="M1748.5,-59C1748.5,-65 1742.5,-71 1736.5,-71"/>
<polyline fill="none" stroke="black" points="1736.5,-71 1595.5,-71 "/>
<path fill="none" stroke="black" d="M1595.5,-71C1589.5,-71 1583.5,-65 1583.5,-59"/>
<polyline fill="none" stroke="black" points="1583.5,-59 1583.5,-13 "/>
<path fill="none" stroke="black" d="M1583.5,-13C1583.5,-7 1589.5,-1 1595.5,-1"/>
<text text-anchor="middle" x="1666" y="-54.4" font-family="Times Roman,serif" font-size="14.00">Assignment</text>
<polyline fill="none" stroke="black" points="1583.5,-45 1748.5,-45 "/>
<text text-anchor="start" x="1591.5" y="-28.4" font-family="Times Roman,serif" font-size="14.00">created_at :datetime</text>
<text text-anchor="start" x="1591.5" y="-10.4" font-family="Times Roman,serif" font-size="14.00">updated_at :datetime</text>
</g>
<!-- Person&#45;&gt;Assignment -->
<g id="edge20" class="edge"><title>Person&#45;&gt;Assignment</title>
<path fill="none" stroke="black" d="M1730.66,-564.037C1745.46,-532.135 1766.97,-496.176 1796,-472 1836.07,-438.631 1876.68,-476.424 1907,-434 1920.91,-414.529 1910.96,-121.846 1902,-110 1884.13,-86.3636 1816.93,-66.7047 1758.79,-53.6046"/>
<ellipse fill="none" stroke="black" cx="1728.88" cy="-567.979" rx="4.00002" ry="4.00002"/>
<polygon fill="black" stroke="black" points="1758.57,-53.5551 1749.77,-47.0033 1753.68,-52.4762 1748.8,-51.3973 1748.8,-51.3973 1748.8,-51.3973 1753.68,-52.4762 1747.83,-55.7913 1758.57,-53.5551 1758.57,-53.5551"/>
</g>
<!-- Company -->
<g id="node15" class="node"><title>Company</title>
<polyline fill="none" stroke="black" points="1299.5,-309 1440.5,-309 "/>
<path fill="none" stroke="black" d="M1440.5,-309C1446.5,-309 1452.5,-315 1452.5,-321"/>
<polyline fill="none" stroke="black" points="1452.5,-321 1452.5,-403 "/>
<path fill="none" stroke="black" d="M1452.5,-403C1452.5,-409 1446.5,-415 1440.5,-415"/>
<polyline fill="none" stroke="black" points="1440.5,-415 1299.5,-415 "/>
<path fill="none" stroke="black" d="M1299.5,-415C1293.5,-415 1287.5,-409 1287.5,-403"/>
<polyline fill="none" stroke="black" points="1287.5,-403 1287.5,-321 "/>
<path fill="none" stroke="black" d="M1287.5,-321C1287.5,-315 1293.5,-309 1299.5,-309"/>
<text text-anchor="middle" x="1370" y="-398.4" font-family="Times Roman,serif" font-size="14.00">Company</text>
<polyline fill="none" stroke="black" points="1287.5,-389 1452.5,-389 "/>
<text text-anchor="start" x="1295.5" y="-372.4" font-family="Times Roman,serif" font-size="14.00">name :string</text>
<text text-anchor="start" x="1295.5" y="-354.4" font-family="Times Roman,serif" font-size="14.00">created_at :datetime</text>
<text text-anchor="start" x="1295.5" y="-336.4" font-family="Times Roman,serif" font-size="14.00">updated_at :datetime</text>
<text text-anchor="start" x="1295.5" y="-318.4" font-family="Times Roman,serif" font-size="14.00">permalink :string</text>
</g>
<!-- Person&#45;&gt;Company -->
<g id="edge18" class="edge"><title>Person&#45;&gt;Company</title>
<path fill="none" stroke="black" d="M1620.58,-565.457C1565.96,-521.105 1495.55,-463.938 1443.28,-421.499"/>
<polygon fill="black" stroke="black" points="1620.8,-565.635 1625.73,-575.432 1624.68,-568.787 1628.56,-571.939 1628.56,-571.939 1628.56,-571.939 1624.68,-568.787 1631.4,-568.445 1620.8,-565.635 1620.8,-565.635"/>
<polygon fill="black" stroke="black" points="1443.14,-421.387 1438.22,-411.59 1439.26,-418.235 1435.38,-415.084 1435.38,-415.084 1435.38,-415.084 1439.26,-418.235 1432.54,-418.577 1443.14,-421.387 1443.14,-421.387"/>
</g>
<!-- Product -->
<g id="node17" class="node"><title>Product</title>
<polyline fill="none" stroke="black" points="1486.5,-111 1665.5,-111 "/>
<path fill="none" stroke="black" d="M1665.5,-111C1671.5,-111 1677.5,-117 1677.5,-123"/>
<polyline fill="none" stroke="black" points="1677.5,-123 1677.5,-223 "/>
<path fill="none" stroke="black" d="M1677.5,-223C1677.5,-229 1671.5,-235 1665.5,-235"/>
<polyline fill="none" stroke="black" points="1665.5,-235 1486.5,-235 "/>
<path fill="none" stroke="black" d="M1486.5,-235C1480.5,-235 1474.5,-229 1474.5,-223"/>
<polyline fill="none" stroke="black" points="1474.5,-223 1474.5,-123 "/>
<path fill="none" stroke="black" d="M1474.5,-123C1474.5,-117 1480.5,-111 1486.5,-111"/>
<text text-anchor="middle" x="1576" y="-218.4" font-family="Times Roman,serif" font-size="14.00">Product</text>
<polyline fill="none" stroke="black" points="1474.5,-209 1677.5,-209 "/>
<text text-anchor="start" x="1482.5" y="-192.4" font-family="Times Roman,serif" font-size="14.00">name :string</text>
<text text-anchor="start" x="1482.5" y="-174.4" font-family="Times Roman,serif" font-size="14.00">created_at :datetime</text>
<text text-anchor="start" x="1482.5" y="-156.4" font-family="Times Roman,serif" font-size="14.00">updated_at :datetime</text>
<text text-anchor="start" x="1482.5" y="-138.4" font-family="Times Roman,serif" font-size="14.00">permalink :string</text>
<text text-anchor="start" x="1482.5" y="-120.4" font-family="Times Roman,serif" font-size="14.00">company_permalink :string</text>
</g>
<!-- Person&#45;&gt;Product -->
<g id="edge22" class="edge"><title>Person&#45;&gt;Product</title>
<path fill="none" stroke="black" d="M1711.14,-561.352C1714.72,-481.646 1711.05,-352.018 1662,-254 1660.19,-250.389 1658.16,-246.854 1655.93,-243.406"/>
<polygon fill="black" stroke="black" points="1711.12,-561.791 1706.12,-571.553 1710.87,-566.785 1710.62,-571.779 1710.62,-571.779 1710.62,-571.779 1710.87,-566.785 1715.11,-572.004 1711.12,-561.791 1711.12,-561.791"/>
<polygon fill="black" stroke="black" points="1655.79,-243.206 1653.74,-232.434 1652.92,-239.111 1650.05,-235.016 1650.05,-235.016 1650.05,-235.016 1652.92,-239.111 1646.37,-237.598 1655.79,-243.206 1655.79,-243.206"/>
</g>
<!-- EmploymentStatu -->
<g id="node26" class="node"><title>EmploymentStatu</title>
<ellipse fill="none" stroke="black" cx="1794" cy="-173" rx="99.201" ry="18.3848"/>
<text text-anchor="middle" x="1794" y="-169.4" font-family="Times Roman,serif" font-size="14.00">EmploymentStatu</text>
</g>
<!-- Person&#45;&gt;EmploymentStatu -->
<g id="edge16" class="edge"><title>Person&#45;&gt;EmploymentStatu</title>
<path fill="none" stroke="black" d="M1711.96,-563.561C1719.69,-493.571 1734.05,-383.476 1756,-290 1763.23,-259.211 1774.81,-224.892 1783.29,-201.43"/>
<ellipse fill="none" stroke="black" cx="1711.49" cy="-567.918" rx="4" ry="4"/>
<polygon fill="black" stroke="black" points="1783.39,-201.164 1791.05,-193.321 1785.11,-196.469 1786.83,-191.774 1786.83,-191.774 1786.83,-191.774 1785.11,-196.469 1782.6,-190.226 1783.39,-201.164 1783.39,-201.164"/>
<text text-anchor="middle" x="1831.5" y="-358.4" font-family="Times Roman,serif" font-size="14.00">employment_statuses</text>
</g>
<!-- Office -->
<g id="node11" class="node"><title>Office</title>
<polyline fill="none" stroke="black" points="2036.5,-509 2215.5,-509 "/>
<path fill="none" stroke="black" d="M2215.5,-509C2221.5,-509 2227.5,-515 2227.5,-521"/>
<polyline fill="none" stroke="black" points="2227.5,-521 2227.5,-747 "/>
<path fill="none" stroke="black" d="M2227.5,-747C2227.5,-753 2221.5,-759 2215.5,-759"/>
<polyline fill="none" stroke="black" points="2215.5,-759 2036.5,-759 "/>
<path fill="none" stroke="black" d="M2036.5,-759C2030.5,-759 2024.5,-753 2024.5,-747"/>
<polyline fill="none" stroke="black" points="2024.5,-747 2024.5,-521 "/>
<path fill="none" stroke="black" d="M2024.5,-521C2024.5,-515 2030.5,-509 2036.5,-509"/>
<text text-anchor="middle" x="2126" y="-742.4" font-family="Times Roman,serif" font-size="14.00">Office</text>
<polyline fill="none" stroke="black" points="2024.5,-733 2227.5,-733 "/>
<text text-anchor="start" x="2032.5" y="-716.4" font-family="Times Roman,serif" font-size="14.00">description :text</text>
<text text-anchor="start" x="2032.5" y="-698.4" font-family="Times Roman,serif" font-size="14.00">address1 :text</text>
<text text-anchor="start" x="2032.5" y="-680.4" font-family="Times Roman,serif" font-size="14.00">address2 :text</text>
<text text-anchor="start" x="2032.5" y="-662.4" font-family="Times Roman,serif" font-size="14.00">zip_code :integer</text>
<text text-anchor="start" x="2032.5" y="-644.4" font-family="Times Roman,serif" font-size="14.00">city :string</text>
<text text-anchor="start" x="2032.5" y="-626.4" font-family="Times Roman,serif" font-size="14.00">state_code :string</text>
<text text-anchor="start" x="2032.5" y="-608.4" font-family="Times Roman,serif" font-size="14.00">country_code :string</text>
<text text-anchor="start" x="2032.5" y="-590.4" font-family="Times Roman,serif" font-size="14.00">latitude :decimal</text>
<text text-anchor="start" x="2032.5" y="-572.4" font-family="Times Roman,serif" font-size="14.00">longitude :decimal</text>
<text text-anchor="start" x="2032.5" y="-554.4" font-family="Times Roman,serif" font-size="14.00">created_at :datetime</text>
<text text-anchor="start" x="2032.5" y="-536.4" font-family="Times Roman,serif" font-size="14.00">updated_at :datetime</text>
<text text-anchor="start" x="2032.5" y="-518.4" font-family="Times Roman,serif" font-size="14.00">company_permalink :string</text>
</g>
<!-- User -->
<g id="node12" class="node"><title>User</title>
<polyline fill="none" stroke="black" points="538,-473 768,-473 "/>
<path fill="none" stroke="black" d="M768,-473C774,-473 780,-479 780,-485"/>
<polyline fill="none" stroke="black" points="780,-485 780,-783 "/>
<path fill="none" stroke="black" d="M780,-783C780,-789 774,-795 768,-795"/>
<polyline fill="none" stroke="black" points="768,-795 538,-795 "/>
<path fill="none" stroke="black" d="M538,-795C532,-795 526,-789 526,-783"/>
<polyline fill="none" stroke="black" points="526,-783 526,-485 "/>
<path fill="none" stroke="black" d="M526,-485C526,-479 532,-473 538,-473"/>
<text text-anchor="middle" x="653" y="-778.4" font-family="Times Roman,serif" font-size="14.00">User</text>
<polyline fill="none" stroke="black" points="526,-769 780,-769 "/>
<text text-anchor="start" x="534" y="-752.4" font-family="Times Roman,serif" font-size="14.00">firstName :string</text>
<text text-anchor="start" x="534" y="-734.4" font-family="Times Roman,serif" font-size="14.00">email :string</text>
<text text-anchor="start" x="534" y="-716.4" font-family="Times Roman,serif" font-size="14.00">encrypted_password :string</text>
<text text-anchor="start" x="534" y="-698.4" font-family="Times Roman,serif" font-size="14.00">confirmation_token :string</text>
<text text-anchor="start" x="534" y="-680.4" font-family="Times Roman,serif" font-size="14.00">confirmed_at :datetime</text>
<text text-anchor="start" x="534" y="-662.4" font-family="Times Roman,serif" font-size="14.00">confirmation_sent_at :datetime</text>
<text text-anchor="start" x="534" y="-644.4" font-family="Times Roman,serif" font-size="14.00">reset_password_token :string</text>
<text text-anchor="start" x="534" y="-626.4" font-family="Times Roman,serif" font-size="14.00">reset_password_sent_at :datetime</text>
<text text-anchor="start" x="534" y="-608.4" font-family="Times Roman,serif" font-size="14.00">remember_created_at :datetime</text>
<text text-anchor="start" x="534" y="-590.4" font-family="Times Roman,serif" font-size="14.00">current_sign_in_at :datetime</text>
<text text-anchor="start" x="534" y="-572.4" font-family="Times Roman,serif" font-size="14.00">last_sign_in_at :datetime</text>
<text text-anchor="start" x="534" y="-554.4" font-family="Times Roman,serif" font-size="14.00">current_sign_in_ip :string</text>
<text text-anchor="start" x="534" y="-536.4" font-family="Times Roman,serif" font-size="14.00">last_sign_in_ip :string</text>
<text text-anchor="start" x="534" y="-518.4" font-family="Times Roman,serif" font-size="14.00">created_at :datetime</text>
<text text-anchor="start" x="534" y="-500.4" font-family="Times Roman,serif" font-size="14.00">updated_at :datetime</text>
<text text-anchor="start" x="534" y="-482.4" font-family="Times Roman,serif" font-size="14.00">lastName :string</text>
</g>
<!-- User&#45;&gt;Update -->
<g id="edge26" class="edge"><title>User&#45;&gt;Update</title>
<path fill="none" stroke="black" d="M615.857,-464.9C614.337,-454.477 613.026,-444.116 612,-434 605.541,-370.327 607.387,-353.834 612,-290 613.268,-272.459 615.591,-253.552 618.122,-236.16"/>
<ellipse fill="none" stroke="black" cx="616.462" cy="-468.924" rx="4.00001" ry="4.00001"/>
<polygon fill="black" stroke="black" points="618.145,-236.006 624.079,-226.785 618.887,-231.061 619.629,-226.117 619.629,-226.117 619.629,-226.117 618.887,-231.061 615.179,-225.449 618.145,-236.006 618.145,-236.006"/>
</g>
<!-- User&#45;&gt;Topic -->
<g id="edge24" class="edge"><title>User&#45;&gt;Topic</title>
<path fill="none" stroke="black" d="M684.133,-464.635C685.482,-457.301 686.804,-450.104 688.085,-443.139"/>
<ellipse fill="none" stroke="black" cx="683.386" cy="-468.699" rx="4.00001" ry="4.00001"/>
<polygon fill="black" stroke="black" points="688.12,-442.945 694.354,-433.923 689.024,-438.027 689.928,-433.11 689.928,-433.11 689.928,-433.11 689.024,-438.027 685.503,-432.296 688.12,-442.945 688.12,-442.945"/>
</g>
<!-- Company&#45;&gt;StaffLevel -->
<g id="edge30" class="edge"><title>Company&#45;&gt;StaffLevel</title>
<path fill="none" stroke="black" d="M1280.36,-307.44C1262.48,-296.039 1243.98,-283.869 1227,-272 1209.23,-259.578 1190.54,-245.648 1173.1,-232.248"/>
<ellipse fill="none" stroke="black" cx="1284.06" cy="-309.794" rx="4.00002" ry="4.00002"/>
<polygon fill="black" stroke="black" points="1173.1,-232.247 1167.93,-222.574 1169.14,-229.191 1165.18,-226.136 1165.18,-226.136 1165.18,-226.136 1169.14,-229.191 1162.43,-229.698 1173.1,-232.247 1173.1,-232.247"/>
</g>
<!-- Company&#45;&gt;Deployment -->
<g id="edge34" class="edge"><title>Company&#45;&gt;Deployment</title>
<path fill="none" stroke="black" d="M1303.17,-303.038C1285.73,-283.624 1269.24,-260.64 1260,-236 1240.33,-183.567 1234.44,-159.829 1260,-110 1266.39,-97.5453 1275.95,-86.7131 1286.73,-77.4655"/>
<ellipse fill="none" stroke="black" cx="1305.89" cy="-306.003" rx="4.00002" ry="4.00002"/>
<polygon fill="black" stroke="black" points="1286.96,-77.2764 1297.58,-74.5187 1290.86,-74.1439 1294.76,-71.0113 1294.76,-71.0113 1294.76,-71.0113 1290.86,-74.1439 1291.94,-67.5039 1286.96,-77.2764 1286.96,-77.2764"/>
</g>
<!-- Company&#45;&gt;FundingRound -->
<g id="edge28" class="edge"><title>Company&#45;&gt;FundingRound</title>
<path fill="none" stroke="black" d="M1367.73,-300.817C1366.97,-280.112 1366.11,-256.96 1365.34,-236.109"/>
<ellipse fill="none" stroke="black" cx="1367.88" cy="-304.853" rx="4" ry="4"/>
<polygon fill="black" stroke="black" points="1365.34,-236.071 1369.46,-225.912 1365.15,-231.075 1364.97,-226.078 1364.97,-226.078 1364.97,-226.078 1365.15,-231.075 1360.47,-226.245 1365.34,-236.071 1365.34,-236.071"/>
</g>
<!-- Company&#45;&gt;Product -->
<g id="edge36" class="edge"><title>Company&#45;&gt;Product</title>
<path fill="none" stroke="black" d="M1416.76,-300.952C1430.27,-284.923 1445.55,-268.17 1461,-254 1465.61,-249.776 1470.44,-245.587 1475.41,-241.468"/>
<polygon fill="black" stroke="black" points="1416.68,-301.057 1406.82,-305.873 1413.48,-304.903 1410.29,-308.749 1410.29,-308.749 1410.29,-308.749 1413.48,-304.903 1413.75,-311.625 1416.68,-301.057 1416.68,-301.057"/>
<polygon fill="black" stroke="black" points="1475.55,-241.353 1486.16,-238.554 1479.44,-238.205 1483.32,-235.058 1483.32,-235.058 1483.32,-235.058 1479.44,-238.205 1480.49,-231.561 1475.55,-241.353 1475.55,-241.353"/>
</g>
<!-- Company&#45;&gt;EmploymentStatu -->
<g id="edge32" class="edge"><title>Company&#45;&gt;EmploymentStatu</title>
<path fill="none" stroke="black" d="M1459.8,-305.048C1493.26,-286.134 1532.29,-266.687 1570,-254 1619.45,-237.364 1636.83,-253.449 1686,-236 1712.67,-226.535 1740.19,-210.371 1760.77,-196.786"/>
<ellipse fill="none" stroke="black" cx="1456.22" cy="-307.09" rx="4.00002" ry="4.00002"/>
<polygon fill="black" stroke="black" points="1760.85,-196.733 1771.66,-194.882 1765,-193.941 1769.14,-191.149 1769.14,-191.149 1769.14,-191.149 1765,-193.941 1766.63,-187.416 1760.85,-196.733 1760.85,-196.733"/>
<text text-anchor="middle" x="1645.5" y="-259.4" font-family="Times Roman,serif" font-size="14.00">employment_statuses</text>
</g>
<!-- Product&#45;&gt;Deployment -->
<g id="edge40" class="edge"><title>Product&#45;&gt;Deployment</title>
<path fill="none" stroke="black" d="M1472.49,-106.421C1456.61,-96.2113 1440.65,-85.9452 1426.01,-76.5301"/>
<ellipse fill="none" stroke="black" cx="1476.11" cy="-108.75" rx="4.00002" ry="4.00002"/>
<polygon fill="black" stroke="black" points="1425.97,-76.5015 1419.99,-67.3072 1421.76,-73.7967 1417.56,-71.0919 1417.56,-71.0919 1417.56,-71.0919 1421.76,-73.7967 1415.12,-74.8766 1425.97,-76.5015 1425.97,-76.5015"/>
</g>
<!-- Product&#45;&gt;Assignment -->
<g id="edge38" class="edge"><title>Product&#45;&gt;Assignment</title>
<path fill="none" stroke="black" d="M1621.19,-104.205C1626.64,-95.917 1632.08,-87.6345 1637.2,-79.8431"/>
<ellipse fill="none" stroke="black" cx="1618.98" cy="-107.57" rx="4.00002" ry="4.00002"/>
<polygon fill="black" stroke="black" points="1637.33,-79.6388 1646.58,-73.7517 1640.08,-75.4598 1642.82,-71.2809 1642.82,-71.2809 1642.82,-71.2809 1640.08,-75.4598 1639.06,-68.8101 1637.33,-79.6388 1637.33,-79.6388"/>
</g>
</g>
</svg>
