<?xml version="1.0" encoding="UTF-8" standalone="no"?>
<!DOCTYPE svg PUBLIC "-//W3C//DTD SVG 1.1//EN"
 "http://www.w3.org/Graphics/SVG/1.1/DTD/svg11.dtd">
<!-- Generated by graphviz version 2.26.3 (20100126.1600)
 -->
<!-- Title: models_diagram Pages: 1 -->
<svg width="1535pt" height="346pt"
 viewBox="0.00 0.00 1535.00 346.00" xmlns="http://www.w3.org/2000/svg" xmlns:xlink="http://www.w3.org/1999/xlink">
<g id="graph1" class="graph" transform="scale(1 1) rotate(0) translate(4 342)">
<title>models_diagram</title>
<polygon fill="white" stroke="white" points="-4,5 -4,-342 1532,-342 1532,5 -4,5"/>
<!-- _diagram_info -->
<g id="node1" class="node"><title>_diagram_info</title>
<text text-anchor="start" x="8" y="-321.8" font-family="Times Roman,serif" font-size="13.00">Models diagram</text>
<text text-anchor="start" x="8" y="-304.8" font-family="Times Roman,serif" font-size="13.00">Date: Oct 15 2011 &#45; 15:23</text>
<text text-anchor="start" x="8" y="-287.8" font-family="Times Roman,serif" font-size="13.00">Migration version: 20111015010439</text>
<text text-anchor="start" x="8" y="-270.8" font-family="Times Roman,serif" font-size="13.00">Generated by RailRoady 1.0.2</text>
<text text-anchor="start" x="8" y="-253.8" font-family="Times Roman,serif" font-size="13.00">http://railroady.prestonlee.com</text>
</g>
<!-- Attachment -->
<g id="node2" class="node"><title>Attachment</title>
<ellipse fill="none" stroke="black" cx="337" cy="-291" rx="68.7979" ry="18.3848"/>
<text text-anchor="middle" x="337" y="-287.4" font-family="Times Roman,serif" font-size="14.00">Attachment</text>
</g>
<!-- Topic -->
<g id="node6" class="node"><title>Topic</title>
<ellipse fill="none" stroke="black" cx="499" cy="-187" rx="34.8574" ry="18.3848"/>
<text text-anchor="middle" x="499" y="-183.4" font-family="Times Roman,serif" font-size="14.00">Topic</text>
</g>
<!-- Attachment&#45;&gt;Topic -->
<g id="edge4" class="edge"><title>Attachment&#45;&gt;Topic</title>
<path fill="none" stroke="black" d="M372.306,-268.334C400.819,-250.029 440.559,-224.518 467.889,-206.973"/>
<polygon fill="black" stroke="black" points="372.166,-268.424 361.32,-270.04 367.959,-271.125 363.751,-273.827 363.751,-273.827 363.751,-273.827 367.959,-271.125 366.182,-277.613 372.166,-268.424 372.166,-268.424"/>
<polygon fill="black" stroke="black" points="468.232,-206.752 479.078,-205.137 472.44,-204.051 476.647,-201.35 476.647,-201.35 476.647,-201.35 472.44,-204.051 474.216,-197.563 468.232,-206.752 468.232,-206.752"/>
</g>
<!-- Attach -->
<g id="node16" class="node"><title>Attach</title>
<ellipse fill="none" stroke="black" cx="331" cy="-95" rx="43.8406" ry="18.3848"/>
<text text-anchor="middle" x="331" y="-91.4" font-family="Times Roman,serif" font-size="14.00">Attach</text>
</g>
<!-- Attachment&#45;&gt;Attach -->
<g id="edge2" class="edge"><title>Attachment&#45;&gt;Attach</title>
<path fill="none" stroke="black" d="M336.178,-264.16C335.055,-227.467 333.048,-161.895 331.89,-124.072"/>
<ellipse fill="none" stroke="black" cx="336.302" cy="-268.209" rx="4" ry="4"/>
<polygon fill="black" stroke="black" points="331.88,-123.732 336.071,-113.599 331.727,-118.734 331.574,-113.736 331.574,-113.736 331.574,-113.736 331.727,-118.734 327.076,-113.874 331.88,-123.732 331.88,-123.732"/>
</g>
<!-- Update -->
<g id="node3" class="node"><title>Update</title>
<ellipse fill="none" stroke="black" cx="439" cy="-95" rx="46.1672" ry="18.3848"/>
<text text-anchor="middle" x="439" y="-91.4" font-family="Times Roman,serif" font-size="14.00">Update</text>
</g>
<!-- StaffLevel -->
<g id="node4" class="node"><title>StaffLevel</title>
<ellipse fill="none" stroke="black" cx="716" cy="-95" rx="60.8112" ry="18.3848"/>
<text text-anchor="middle" x="716" y="-91.4" font-family="Times Roman,serif" font-size="14.00">StaffLevel</text>
</g>
<!-- Folder -->
<g id="node5" class="node"><title>Folder</title>
<ellipse fill="none" stroke="black" cx="562" cy="-291" rx="41.2167" ry="18.3848"/>
<text text-anchor="middle" x="562" y="-287.4" font-family="Times Roman,serif" font-size="14.00">Folder</text>
</g>
<!-- Folder&#45;&gt;Topic -->
<g id="edge6" class="edge"><title>Folder&#45;&gt;Topic</title>
<path fill="none" stroke="black" d="M546.713,-265.764C537.182,-250.03 524.929,-229.803 515.226,-213.786"/>
<ellipse fill="none" stroke="black" cx="548.954" cy="-269.463" rx="4.00002" ry="4.00002"/>
<polygon fill="black" stroke="black" points="515.029,-213.461 513.697,-202.576 512.439,-209.184 509.848,-204.908 509.848,-204.908 509.848,-204.908 512.439,-209.184 505.999,-207.239 515.029,-213.461 515.029,-213.461"/>
</g>
<!-- Notification -->
<g id="node13" class="node"><title>Notification</title>
<ellipse fill="none" stroke="black" cx="570" cy="-95" rx="67.1751" ry="18.3848"/>
<text text-anchor="middle" x="570" y="-91.4" font-family="Times Roman,serif" font-size="14.00">Notification</text>
</g>
<!-- Folder&#45;&gt;Notification -->
<g id="edge8" class="edge"><title>Folder&#45;&gt;Notification</title>
<path fill="none" stroke="black" d="M563.096,-264.16C564.593,-227.467 567.27,-161.895 568.813,-124.072"/>
<ellipse fill="none" stroke="black" cx="562.93" cy="-268.21" rx="4" ry="4"/>
<polygon fill="black" stroke="black" points="568.827,-123.728 573.732,-113.92 569.031,-118.732 569.235,-113.736 569.235,-113.736 569.235,-113.736 569.031,-118.732 564.739,-113.553 568.827,-123.728 568.827,-123.728"/>
</g>
<!-- Topic&#45;&gt;Update -->
<g id="edge10" class="edge"><title>Topic&#45;&gt;Update</title>
<path fill="none" stroke="black" d="M491.659,-160.748C488.324,-151.237 483.804,-140.702 478,-132 474.893,-127.341 471.1,-122.834 467.113,-118.663"/>
<ellipse fill="none" stroke="black" cx="492.935" cy="-164.634" rx="4.00001" ry="4.00001"/>
<polygon fill="black" stroke="black" points="466.99,-118.543 462.977,-108.338 463.412,-115.05 459.834,-111.558 459.834,-111.558 459.834,-111.558 463.412,-115.05 456.691,-114.778 466.99,-118.543 466.99,-118.543"/>
</g>
<!-- Topic&#45;&gt;Notification -->
<g id="edge14" class="edge"><title>Topic&#45;&gt;Notification</title>
<path fill="none" stroke="black" d="M517.285,-163.307C527.176,-150.491 539.419,-134.626 549.616,-121.413"/>
<ellipse fill="none" stroke="black" cx="514.798" cy="-166.529" rx="4.00002" ry="4.00002"/>
<polygon fill="black" stroke="black" points="549.867,-121.088 559.539,-115.92 552.922,-117.129 555.977,-113.171 555.977,-113.171 555.977,-113.171 552.922,-117.129 552.414,-110.422 549.867,-121.088 549.867,-121.088"/>
</g>
<!-- Topic&#45;&gt;Attach -->
<g id="edge12" class="edge"><title>Topic&#45;&gt;Attach</title>
<path fill="none" stroke="black" d="M467.31,-169.646C438.692,-153.974 396.617,-130.933 366.795,-114.602"/>
<ellipse fill="none" stroke="black" cx="471.063" cy="-171.701" rx="4.00002" ry="4.00002"/>
<polygon fill="black" stroke="black" points="366.733,-114.568 360.124,-105.818 362.348,-112.167 357.962,-109.765 357.962,-109.765 357.962,-109.765 362.348,-112.167 355.801,-113.712 366.733,-114.568 366.733,-114.568"/>
</g>
<!-- Deployment -->
<g id="node7" class="node"><title>Deployment</title>
<ellipse fill="none" stroke="black" cx="894" cy="-19" rx="70.9184" ry="18.3848"/>
<text text-anchor="middle" x="894" y="-15.4" font-family="Times Roman,serif" font-size="14.00">Deployment</text>
</g>
<!-- FundingRound -->
<g id="node8" class="node"><title>FundingRound</title>
<ellipse fill="none" stroke="black" cx="914" cy="-95" rx="80.8184" ry="18.3848"/>
<text text-anchor="middle" x="914" y="-91.4" font-family="Times Roman,serif" font-size="14.00">FundingRound</text>
</g>
<!-- EmploymentStatus -->
<g id="node9" class="node"><title>EmploymentStatus</title>
<ellipse fill="none" stroke="black" cx="1327" cy="-291" rx="104.151" ry="18.3848"/>
<text text-anchor="middle" x="1327" y="-287.4" font-family="Times Roman,serif" font-size="14.00">EmploymentStatus</text>
</g>
<!-- Person -->
<g id="node10" class="node"><title>Person</title>
<ellipse fill="none" stroke="black" cx="1161" cy="-291" rx="44.0472" ry="18.3848"/>
<text text-anchor="middle" x="1161" y="-287.4" font-family="Times Roman,serif" font-size="14.00">Person</text>
</g>
<!-- Assignment -->
<g id="node14" class="node"><title>Assignment</title>
<ellipse fill="none" stroke="black" cx="1140" cy="-19" rx="68.0887" ry="18.3848"/>
<text text-anchor="middle" x="1140" y="-15.4" font-family="Times Roman,serif" font-size="14.00">Assignment</text>
</g>
<!-- Person&#45;&gt;Assignment -->
<g id="edge20" class="edge"><title>Person&#45;&gt;Assignment</title>
<path fill="none" stroke="black" d="M1182.58,-267.847C1191.58,-259.317 1202.6,-250.227 1214,-244 1268.7,-214.121 1311.37,-255.689 1349,-206 1359.2,-192.537 1350.18,-184.847 1349,-168 1346.1,-126.807 1363.05,-107.207 1336,-76 1319.06,-56.4579 1257.74,-40.672 1208.14,-30.7108"/>
<ellipse fill="none" stroke="black" cx="1179.54" cy="-270.822" rx="4.00002" ry="4.00002"/>
<polygon fill="black" stroke="black" points="1207.88,-30.6612 1198.94,-24.3199 1202.98,-29.6984 1198.07,-28.7357 1198.07,-28.7357 1198.07,-28.7357 1202.98,-29.6984 1197.2,-33.1515 1207.88,-30.6612 1207.88,-30.6612"/>
</g>
<!-- Company -->
<g id="node15" class="node"><title>Company</title>
<ellipse fill="none" stroke="black" cx="927" cy="-187" rx="56.7776" ry="18.3848"/>
<text text-anchor="middle" x="927" y="-183.4" font-family="Times Roman,serif" font-size="14.00">Company</text>
</g>
<!-- Person&#45;&gt;Company -->
<g id="edge18" class="edge"><title>Person&#45;&gt;Company</title>
<path fill="none" stroke="black" d="M1121.21,-273.315C1079.2,-254.645 1013.2,-225.313 970.015,-206.118"/>
<polygon fill="black" stroke="black" points="1121.27,-273.342 1128.58,-281.516 1125.84,-275.373 1130.41,-277.404 1130.41,-277.404 1130.41,-277.404 1125.84,-275.373 1132.24,-273.292 1121.27,-273.342 1121.27,-273.342"/>
<polygon fill="black" stroke="black" points="969.766,-206.007 962.455,-197.833 965.197,-203.976 960.628,-201.946 960.628,-201.946 960.628,-201.946 965.197,-203.976 958.8,-206.058 969.766,-206.007 969.766,-206.007"/>
</g>
<!-- Product -->
<g id="node17" class="node"><title>Product</title>
<ellipse fill="none" stroke="black" cx="1062" cy="-95" rx="48.9975" ry="18.3848"/>
<text text-anchor="middle" x="1062" y="-91.4" font-family="Times Roman,serif" font-size="14.00">Product</text>
</g>
<!-- Person&#45;&gt;Product -->
<g id="edge22" class="edge"><title>Person&#45;&gt;Product</title>
<path fill="none" stroke="black" d="M1160.89,-262.182C1159.38,-228.017 1152.35,-170.83 1124,-132 1118.79,-124.869 1111.76,-118.861 1104.29,-113.898"/>
<polygon fill="black" stroke="black" points="1160.9,-262.418 1156.71,-272.552 1161.05,-267.415 1161.21,-272.413 1161.21,-272.413 1161.21,-272.413 1161.05,-267.415 1165.7,-272.273 1160.9,-262.418 1160.9,-262.418"/>
<polygon fill="black" stroke="black" points="1103.98,-113.711 1097.74,-104.694 1099.7,-111.129 1095.42,-108.548 1095.42,-108.548 1095.42,-108.548 1099.7,-111.129 1093.1,-112.401 1103.98,-113.711 1103.98,-113.711"/>
</g>
<!-- EmploymentStatu -->
<g id="node26" class="node"><title>EmploymentStatu</title>
<ellipse fill="none" stroke="black" cx="1228" cy="-95" rx="99.201" ry="18.3848"/>
<text text-anchor="middle" x="1228" y="-91.4" font-family="Times Roman,serif" font-size="14.00">EmploymentStatu</text>
</g>
<!-- Person&#45;&gt;EmploymentStatu -->
<g id="edge16" class="edge"><title>Person&#45;&gt;EmploymentStatu</title>
<path fill="none" stroke="black" d="M1168.16,-264.523C1175.12,-239.449 1186.34,-200.852 1198,-168 1203.35,-152.933 1210.05,-136.436 1215.77,-122.942"/>
<ellipse fill="none" stroke="black" cx="1167.03" cy="-268.624" rx="4.00001" ry="4.00001"/>
<polygon fill="black" stroke="black" points="1215.78,-122.904 1223.86,-115.482 1217.75,-118.307 1219.72,-113.711 1219.72,-113.711 1219.72,-113.711 1217.75,-118.307 1215.58,-111.94 1215.78,-122.904 1215.78,-122.904"/>
<text text-anchor="middle" x="1273.5" y="-183.4" font-family="Times Roman,serif" font-size="14.00">employment_statuses</text>
</g>
<!-- Office -->
<g id="node11" class="node"><title>Office</title>
<ellipse fill="none" stroke="black" cx="1488" cy="-291" rx="39.0967" ry="18.3848"/>
<text text-anchor="middle" x="1488" y="-287.4" font-family="Times Roman,serif" font-size="14.00">Office</text>
</g>
<!-- User -->
<g id="node12" class="node"><title>User</title>
<ellipse fill="none" stroke="black" cx="468" cy="-291" rx="33.9411" ry="18.3848"/>
<text text-anchor="middle" x="468" y="-287.4" font-family="Times Roman,serif" font-size="14.00">User</text>
</g>
<!-- User&#45;&gt;Update -->
<g id="edge26" class="edge"><title>User&#45;&gt;Update</title>
<path fill="none" stroke="black" d="M463.842,-264.208C461.261,-247.479 457.895,-225.491 455,-206 450.87,-178.195 446.309,-146.448 443.117,-124.049"/>
<ellipse fill="none" stroke="black" cx="464.503" cy="-268.483" rx="4.00001" ry="4.00001"/>
<polygon fill="black" stroke="black" points="443.077,-123.762 446.124,-113.228 442.373,-118.812 441.668,-113.862 441.668,-113.862 441.668,-113.862 442.373,-118.812 437.213,-114.496 443.077,-123.762 443.077,-123.762"/>
</g>
<!-- User&#45;&gt;Topic -->
<g id="edge24" class="edge"><title>User&#45;&gt;Topic</title>
<path fill="none" stroke="black" d="M475.863,-264.62C480.342,-249.594 485.955,-230.764 490.53,-215.414"/>
<ellipse fill="none" stroke="black" cx="474.685" cy="-268.574" rx="4.00001" ry="4.00001"/>
<polygon fill="black" stroke="black" points="490.649,-215.015 497.818,-206.718 492.077,-210.224 493.506,-205.432 493.506,-205.432 493.506,-205.432 492.077,-210.224 489.193,-204.147 490.649,-215.015 490.649,-215.015"/>
</g>
<!-- Company&#45;&gt;StaffLevel -->
<g id="edge30" class="edge"><title>Company&#45;&gt;StaffLevel</title>
<path fill="none" stroke="black" d="M869.073,-176.186C844.278,-170.315 815.464,-161.793 791,-150 774.137,-141.871 757.165,-129.824 743.642,-119.076"/>
<ellipse fill="none" stroke="black" cx="873.072" cy="-177.104" rx="4.00001" ry="4.00001"/>
<polygon fill="black" stroke="black" points="743.448,-118.918 738.543,-109.111 739.574,-115.758 735.699,-112.598 735.699,-112.598 735.699,-112.598 739.574,-115.758 732.855,-116.085 743.448,-118.918 743.448,-118.918"/>
</g>
<!-- Company&#45;&gt;Deployment -->
<g id="edge34" class="edge"><title>Company&#45;&gt;Deployment</title>
<path fill="none" stroke="black" d="M884.278,-168.717C861.963,-156.694 836.715,-138.596 824,-114 816.244,-98.9972 816.75,-91.2535 824,-76 830.56,-62.1992 842.276,-50.6427 854.271,-41.6228"/>
<ellipse fill="none" stroke="black" cx="887.849" cy="-170.567" rx="4.00002" ry="4.00002"/>
<polygon fill="black" stroke="black" points="854.382,-41.5443 865.149,-39.4665 858.47,-38.6657 862.559,-35.7871 862.559,-35.7871 862.559,-35.7871 858.47,-38.6657 859.968,-32.1077 854.382,-41.5443 854.382,-41.5443"/>
</g>
<!-- Company&#45;&gt;FundingRound -->
<g id="edge28" class="edge"><title>Company&#45;&gt;FundingRound</title>
<path fill="none" stroke="black" d="M923.248,-160.447C921.624,-148.958 919.721,-135.485 918.064,-123.76"/>
<ellipse fill="none" stroke="black" cx="923.81" cy="-164.422" rx="4.00001" ry="4.00001"/>
<polygon fill="black" stroke="black" points="918.026,-123.492 921.083,-112.96 917.326,-118.541 916.627,-113.59 916.627,-113.59 916.627,-113.59 917.326,-118.541 912.171,-114.22 918.026,-123.492 918.026,-123.492"/>
</g>
<!-- Company&#45;&gt;Product -->
<g id="edge36" class="edge"><title>Company&#45;&gt;Product</title>
<path fill="none" stroke="black" d="M935.304,-158.718C939.319,-149.146 945.043,-139.095 953,-132 954.294,-130.846 986.231,-120.065 1015.2,-110.437"/>
<polygon fill="black" stroke="black" points="935.198,-159.002 927.498,-166.809 933.457,-163.689 931.716,-168.376 931.716,-168.376 931.716,-168.376 933.457,-163.689 935.934,-169.943 935.198,-159.002 935.198,-159.002"/>
<polygon fill="black" stroke="black" points="1015.37,-110.38 1026.28,-111.502 1020.12,-108.806 1024.86,-107.231 1024.86,-107.231 1024.86,-107.231 1020.12,-108.806 1023.45,-102.96 1015.37,-110.38 1015.37,-110.38"/>
</g>
<!-- Company&#45;&gt;EmploymentStatu -->
<g id="edge32" class="edge"><title>Company&#45;&gt;EmploymentStatu</title>
<path fill="none" stroke="black" d="M956.62,-165.504C973.997,-153.887 996.835,-140.268 1019,-132 1019.79,-131.706 1087.7,-119.705 1145.89,-109.45"/>
<ellipse fill="none" stroke="black" cx="953.31" cy="-167.756" rx="4.00002" ry="4.00002"/>
<polygon fill="black" stroke="black" points="1146.03,-109.426 1156.66,-112.122 1150.96,-108.558 1155.88,-107.69 1155.88,-107.69 1155.88,-107.69 1150.96,-108.558 1155.1,-103.259 1146.03,-109.426 1146.03,-109.426"/>
<text text-anchor="middle" x="1094.5" y="-137.4" font-family="Times Roman,serif" font-size="14.00">employment_statuses</text>
</g>
<!-- Product&#45;&gt;Deployment -->
<g id="edge40" class="edge"><title>Product&#45;&gt;Deployment</title>
<path fill="none" stroke="black" d="M1023.08,-77.3917C997.928,-66.015 965.121,-51.1737 938.875,-39.3007"/>
<ellipse fill="none" stroke="black" cx="1026.76" cy="-79.0563" rx="4.00002" ry="4.00002"/>
<polygon fill="black" stroke="black" points="938.64,-39.1944 931.384,-30.9727 934.085,-37.1335 929.529,-35.0726 929.529,-35.0726 929.529,-35.0726 934.085,-37.1335 927.674,-39.1726 938.64,-39.1944 938.64,-39.1944"/>
</g>
<!-- Product&#45;&gt;Assignment -->
<g id="edge38" class="edge"><title>Product&#45;&gt;Assignment</title>
<path fill="none" stroke="black" d="M1085.86,-71.7502C1094.8,-63.0388 1105,-53.1032 1114.11,-44.2217"/>
<ellipse fill="none" stroke="black" cx="1082.96" cy="-74.5816" rx="4.00002" ry="4.00002"/>
<polygon fill="black" stroke="black" points="1114.3,-44.0378 1124.61,-40.2822 1117.88,-40.5485 1121.47,-37.0591 1121.47,-37.0591 1121.47,-37.0591 1117.88,-40.5485 1118.33,-33.8361 1114.3,-44.0378 1114.3,-44.0378"/>
</g>
</g>
</svg>
