<?xml version="1.0" encoding="UTF-8" standalone="no"?>
<!DOCTYPE svg PUBLIC "-//W3C//DTD SVG 1.1//EN"
 "http://www.w3.org/Graphics/SVG/1.1/DTD/svg11.dtd">
<!-- Generated by graphviz version 2.26.3 (20100126.1600)
 -->
<!-- Title: models_diagram Pages: 1 -->
<svg width="1571pt" height="250pt"
 viewBox="0.00 0.00 1571.00 250.00" xmlns="http://www.w3.org/2000/svg" xmlns:xlink="http://www.w3.org/1999/xlink">
<g id="graph1" class="graph" transform="scale(1 1) rotate(0) translate(4 246)">
<title>models_diagram</title>
<polygon fill="white" stroke="white" points="-4,5 -4,-246 1568,-246 1568,5 -4,5"/>
<!-- _diagram_info -->
<g id="node1" class="node"><title>_diagram_info</title>
<text text-anchor="start" x="8" y="-225.8" font-family="Times Roman,serif" font-size="13.00">Models diagram</text>
<text text-anchor="start" x="8" y="-208.8" font-family="Times Roman,serif" font-size="13.00">Date: Oct 12 2011 &#45; 10:44</text>
<text text-anchor="start" x="8" y="-191.8" font-family="Times Roman,serif" font-size="13.00">Migration version: 20111011112234</text>
<text text-anchor="start" x="8" y="-174.8" font-family="Times Roman,serif" font-size="13.00">Generated by RailRoady 1.0.2</text>
<text text-anchor="start" x="8" y="-157.8" font-family="Times Roman,serif" font-size="13.00">http://railroady.prestonlee.com</text>
</g>
<!-- Update -->
<g id="node2" class="node"><title>Update</title>
<ellipse fill="none" stroke="black" cx="437" cy="-19" rx="46.1672" ry="18.3848"/>
<text text-anchor="middle" x="437" y="-15.4" font-family="Times Roman,serif" font-size="14.00">Update</text>
</g>
<!-- StaffLevel -->
<g id="node3" class="node"><title>StaffLevel</title>
<ellipse fill="none" stroke="black" cx="558" cy="-93" rx="60.8112" ry="18.3848"/>
<text text-anchor="middle" x="558" y="-89.4" font-family="Times Roman,serif" font-size="14.00">StaffLevel</text>
</g>
<!-- Folder -->
<g id="node4" class="node"><title>Folder</title>
<ellipse fill="none" stroke="black" cx="309" cy="-195" rx="41.2167" ry="18.3848"/>
<text text-anchor="middle" x="309" y="-191.4" font-family="Times Roman,serif" font-size="14.00">Folder</text>
</g>
<!-- Topic -->
<g id="node5" class="node"><title>Topic</title>
<ellipse fill="none" stroke="black" cx="406" cy="-93" rx="34.8574" ry="18.3848"/>
<text text-anchor="middle" x="406" y="-89.4" font-family="Times Roman,serif" font-size="14.00">Topic</text>
</g>
<!-- Folder&#45;&gt;Topic -->
<g id="edge2" class="edge"><title>Folder&#45;&gt;Topic</title>
<path fill="none" stroke="black" d="M331.264,-171.588C346.712,-155.344 367.24,-133.758 382.872,-117.32"/>
<ellipse fill="none" stroke="black" cx="328.211" cy="-174.798" rx="4.00002" ry="4.00002"/>
<polygon fill="black" stroke="black" points="383.218,-116.956 393.371,-112.81 386.664,-113.333 390.11,-109.709 390.11,-109.709 390.11,-109.709 386.664,-113.333 386.849,-106.608 383.218,-116.956 383.218,-116.956"/>
</g>
<!-- Notification -->
<g id="node12" class="node"><title>Notification</title>
<ellipse fill="none" stroke="black" cx="286" cy="-93" rx="67.1751" ry="18.3848"/>
<text text-anchor="middle" x="286" y="-89.4" font-family="Times Roman,serif" font-size="14.00">Notification</text>
</g>
<!-- Folder&#45;&gt;Notification -->
<g id="edge4" class="edge"><title>Folder&#45;&gt;Notification</title>
<path fill="none" stroke="black" d="M302.915,-168.015C299.686,-153.696 295.719,-136.103 292.439,-121.555"/>
<ellipse fill="none" stroke="black" cx="303.902" cy="-172.39" rx="4.00001" ry="4.00001"/>
<polygon fill="black" stroke="black" points="292.392,-121.345 294.582,-110.6 291.292,-116.467 290.192,-111.59 290.192,-111.59 290.192,-111.59 291.292,-116.467 285.802,-112.58 292.392,-121.345 292.392,-121.345"/>
</g>
<!-- Topic&#45;&gt;Update -->
<g id="edge6" class="edge"><title>Topic&#45;&gt;Update</title>
<path fill="none" stroke="black" d="M416.835,-67.1355C419.601,-60.5337 422.585,-53.4104 425.388,-46.7198"/>
<ellipse fill="none" stroke="black" cx="415.208" cy="-71.0185" rx="4.00002" ry="4.00002"/>
<polygon fill="black" stroke="black" points="425.454,-46.5616 433.468,-39.0769 427.386,-41.9499 429.318,-37.3382 429.318,-37.3382 429.318,-37.3382 427.386,-41.9499 425.167,-35.5994 425.454,-46.5616 425.454,-46.5616"/>
</g>
<!-- Deployment -->
<g id="node6" class="node"><title>Deployment</title>
<ellipse fill="none" stroke="black" cx="794" cy="-195" rx="70.9184" ry="18.3848"/>
<text text-anchor="middle" x="794" y="-191.4" font-family="Times Roman,serif" font-size="14.00">Deployment</text>
</g>
<!-- FundingRound -->
<g id="node7" class="node"><title>FundingRound</title>
<ellipse fill="none" stroke="black" cx="718" cy="-93" rx="80.8184" ry="18.3848"/>
<text text-anchor="middle" x="718" y="-89.4" font-family="Times Roman,serif" font-size="14.00">FundingRound</text>
</g>
<!-- EmploymentStatus -->
<g id="node8" class="node"><title>EmploymentStatus</title>
<ellipse fill="none" stroke="black" cx="987" cy="-195" rx="104.151" ry="18.3848"/>
<text text-anchor="middle" x="987" y="-191.4" font-family="Times Roman,serif" font-size="14.00">EmploymentStatus</text>
</g>
<!-- Person -->
<g id="node9" class="node"><title>Person</title>
<ellipse fill="none" stroke="black" cx="1153" cy="-195" rx="44.0472" ry="18.3848"/>
<text text-anchor="middle" x="1153" y="-191.4" font-family="Times Roman,serif" font-size="14.00">Person</text>
</g>
<!-- Office -->
<g id="node10" class="node"><title>Office</title>
<ellipse fill="none" stroke="black" cx="1254" cy="-195" rx="39.0967" ry="18.3848"/>
<text text-anchor="middle" x="1254" y="-191.4" font-family="Times Roman,serif" font-size="14.00">Office</text>
</g>
<!-- User -->
<g id="node11" class="node"><title>User</title>
<ellipse fill="none" stroke="black" cx="447" cy="-195" rx="33.9411" ry="18.3848"/>
<text text-anchor="middle" x="447" y="-191.4" font-family="Times Roman,serif" font-size="14.00">User</text>
</g>
<!-- User&#45;&gt;Update -->
<g id="edge10" class="edge"><title>User&#45;&gt;Update</title>
<path fill="none" stroke="black" d="M449.803,-168.349C451.882,-143.766 453.765,-106.3 450,-74 448.974,-65.2007 447.055,-55.7667 445,-47.2404"/>
<ellipse fill="none" stroke="black" cx="449.429" cy="-172.493" rx="4" ry="4"/>
<polygon fill="black" stroke="black" points="444.959,-47.0809 446.836,-36.2769 443.718,-42.2374 442.477,-37.3939 442.477,-37.3939 442.477,-37.3939 443.718,-42.2374 438.118,-38.5108 444.959,-47.0809 444.959,-47.0809"/>
</g>
<!-- User&#45;&gt;Topic -->
<g id="edge8" class="edge"><title>User&#45;&gt;Topic</title>
<path fill="none" stroke="black" d="M436.522,-168.934C430.593,-154.182 423.179,-135.737 417.143,-120.721"/>
<ellipse fill="none" stroke="black" cx="438.178" cy="-173.053" rx="4.00001" ry="4.00001"/>
<polygon fill="black" stroke="black" points="417.134,-120.7 417.58,-109.743 415.27,-116.061 413.405,-111.422 413.405,-111.422 413.405,-111.422 415.27,-116.061 409.229,-113.1 417.134,-120.7 417.134,-120.7"/>
</g>
<!-- Assignment -->
<g id="node13" class="node"><title>Assignment</title>
<ellipse fill="none" stroke="black" cx="1379" cy="-195" rx="68.0887" ry="18.3848"/>
<text text-anchor="middle" x="1379" y="-191.4" font-family="Times Roman,serif" font-size="14.00">Assignment</text>
</g>
<!-- Company -->
<g id="node14" class="node"><title>Company</title>
<ellipse fill="none" stroke="black" cx="648" cy="-195" rx="56.7776" ry="18.3848"/>
<text text-anchor="middle" x="648" y="-191.4" font-family="Times Roman,serif" font-size="14.00">Company</text>
</g>
<!-- Company&#45;&gt;StaffLevel -->
<g id="edge14" class="edge"><title>Company&#45;&gt;StaffLevel</title>
<path fill="none" stroke="black" d="M626.24,-170.338C612.506,-154.774 594.792,-134.698 580.854,-118.902"/>
<ellipse fill="none" stroke="black" cx="629.263" cy="-173.765" rx="4.00002" ry="4.00002"/>
<polygon fill="black" stroke="black" points="580.567,-118.576 577.325,-108.1 577.259,-114.827 573.951,-111.078 573.951,-111.078 573.951,-111.078 577.259,-114.827 570.577,-114.055 580.567,-118.576 580.567,-118.576"/>
</g>
<!-- Company&#45;&gt;FundingRound -->
<g id="edge12" class="edge"><title>Company&#45;&gt;FundingRound</title>
<path fill="none" stroke="black" d="M665.225,-169.901C675.61,-154.768 688.837,-135.494 699.451,-120.028"/>
<ellipse fill="none" stroke="black" cx="662.778" cy="-173.466" rx="4.00002" ry="4.00002"/>
<polygon fill="black" stroke="black" points="699.699,-119.667 709.068,-113.968 702.529,-115.544 705.358,-111.422 705.358,-111.422 705.358,-111.422 702.529,-115.544 701.647,-108.875 699.699,-119.667 699.699,-119.667"/>
</g>
<!-- Product -->
<g id="node15" class="node"><title>Product</title>
<ellipse fill="none" stroke="black" cx="1514" cy="-195" rx="48.9975" ry="18.3848"/>
<text text-anchor="middle" x="1514" y="-191.4" font-family="Times Roman,serif" font-size="14.00">Product</text>
</g>
</g>
</svg>
