<?xml version="1.0" encoding="UTF-8" standalone="no"?>
<!DOCTYPE svg PUBLIC "-//W3C//DTD SVG 1.1//EN"
 "http://www.w3.org/Graphics/SVG/1.1/DTD/svg11.dtd">
<!-- Generated by graphviz version 2.26.3 (20100126.1600)
 -->
<!-- Title: models_diagram Pages: 1 -->
<svg width="2120pt" height="656pt"
 viewBox="0.00 0.00 2120.00 656.00" xmlns="http://www.w3.org/2000/svg" xmlns:xlink="http://www.w3.org/1999/xlink">
<g id="graph1" class="graph" transform="scale(1 1) rotate(0) translate(4 652)">
<title>models_diagram</title>
<polygon fill="white" stroke="white" points="-4,5 -4,-652 2117,-652 2117,5 -4,5"/>
<!-- _diagram_info -->
<g id="node1" class="node"><title>_diagram_info</title>
<text text-anchor="start" x="8" y="-516.8" font-family="Times Roman,serif" font-size="13.00">Models diagram</text>
<text text-anchor="start" x="8" y="-499.8" font-family="Times Roman,serif" font-size="13.00">Date: Oct 12 2011 &#45; 10:44</text>
<text text-anchor="start" x="8" y="-482.8" font-family="Times Roman,serif" font-size="13.00">Migration version: 20111011112234</text>
<text text-anchor="start" x="8" y="-465.8" font-family="Times Roman,serif" font-size="13.00">Generated by RailRoady 1.0.2</text>
<text text-anchor="start" x="8" y="-448.8" font-family="Times Roman,serif" font-size="13.00">http://railroady.prestonlee.com</text>
</g>
<!-- Update -->
<g id="node2" class="node"><title>Update</title>
<polyline fill="none" stroke="black" points="505,-1 665,-1 "/>
<path fill="none" stroke="black" d="M665,-1C671,-1 677,-7 677,-13"/>
<polyline fill="none" stroke="black" points="677,-13 677,-95 "/>
<path fill="none" stroke="black" d="M677,-95C677,-101 671,-107 665,-107"/>
<polyline fill="none" stroke="black" points="665,-107 505,-107 "/>
<path fill="none" stroke="black" d="M505,-107C499,-107 493,-101 493,-95"/>
<polyline fill="none" stroke="black" points="493,-95 493,-13 "/>
<path fill="none" stroke="black" d="M493,-13C493,-7 499,-1 505,-1"/>
<text text-anchor="middle" x="585" y="-90.4" font-family="Times Roman,serif" font-size="14.00">Update</text>
<polyline fill="none" stroke="black" points="493,-81 677,-81 "/>
<text text-anchor="start" x="501" y="-64.4" font-family="Times Roman,serif" font-size="14.00">type_of_update :string</text>
<text text-anchor="start" x="501" y="-46.4" font-family="Times Roman,serif" font-size="14.00">created_at :datetime</text>
<text text-anchor="start" x="501" y="-28.4" font-family="Times Roman,serif" font-size="14.00">updated_at :datetime</text>
<text text-anchor="start" x="501" y="-10.4" font-family="Times Roman,serif" font-size="14.00">progress_status :integer</text>
</g>
<!-- StaffLevel -->
<g id="node3" class="node"><title>StaffLevel</title>
<polyline fill="none" stroke="black" points="679.5,-172 884.5,-172 "/>
<path fill="none" stroke="black" d="M884.5,-172C890.5,-172 896.5,-178 896.5,-184"/>
<polyline fill="none" stroke="black" points="896.5,-184 896.5,-248 "/>
<path fill="none" stroke="black" d="M896.5,-248C896.5,-254 890.5,-260 884.5,-260"/>
<polyline fill="none" stroke="black" points="884.5,-260 679.5,-260 "/>
<path fill="none" stroke="black" d="M679.5,-260C673.5,-260 667.5,-254 667.5,-248"/>
<polyline fill="none" stroke="black" points="667.5,-248 667.5,-184 "/>
<path fill="none" stroke="black" d="M667.5,-184C667.5,-178 673.5,-172 679.5,-172"/>
<text text-anchor="middle" x="782" y="-243.4" font-family="Times Roman,serif" font-size="14.00">StaffLevel</text>
<polyline fill="none" stroke="black" points="667.5,-234 896.5,-234 "/>
<text text-anchor="start" x="675.5" y="-217.4" font-family="Times Roman,serif" font-size="14.00">number_of_employees :integer</text>
<text text-anchor="start" x="675.5" y="-199.4" font-family="Times Roman,serif" font-size="14.00">created_at :datetime</text>
<text text-anchor="start" x="675.5" y="-181.4" font-family="Times Roman,serif" font-size="14.00">updated_at :datetime</text>
</g>
<!-- Folder -->
<g id="node4" class="node"><title>Folder</title>
<polyline fill="none" stroke="black" points="279.5,-442 420.5,-442 "/>
<path fill="none" stroke="black" d="M420.5,-442C426.5,-442 432.5,-448 432.5,-454"/>
<polyline fill="none" stroke="black" points="432.5,-454 432.5,-518 "/>
<path fill="none" stroke="black" d="M432.5,-518C432.5,-524 426.5,-530 420.5,-530"/>
<polyline fill="none" stroke="black" points="420.5,-530 279.5,-530 "/>
<path fill="none" stroke="black" d="M279.5,-530C273.5,-530 267.5,-524 267.5,-518"/>
<polyline fill="none" stroke="black" points="267.5,-518 267.5,-454 "/>
<path fill="none" stroke="black" d="M267.5,-454C267.5,-448 273.5,-442 279.5,-442"/>
<text text-anchor="middle" x="350" y="-513.4" font-family="Times Roman,serif" font-size="14.00">Folder</text>
<polyline fill="none" stroke="black" points="267.5,-504 432.5,-504 "/>
<text text-anchor="start" x="275.5" y="-487.4" font-family="Times Roman,serif" font-size="14.00">title :string</text>
<text text-anchor="start" x="275.5" y="-469.4" font-family="Times Roman,serif" font-size="14.00">created_at :datetime</text>
<text text-anchor="start" x="275.5" y="-451.4" font-family="Times Roman,serif" font-size="14.00">updated_at :datetime</text>
</g>
<!-- Topic -->
<g id="node5" class="node"><title>Topic</title>
<polyline fill="none" stroke="black" points="459.5,-145 600.5,-145 "/>
<path fill="none" stroke="black" d="M600.5,-145C606.5,-145 612.5,-151 612.5,-157"/>
<polyline fill="none" stroke="black" points="612.5,-157 612.5,-275 "/>
<path fill="none" stroke="black" d="M612.5,-275C612.5,-281 606.5,-287 600.5,-287"/>
<polyline fill="none" stroke="black" points="600.5,-287 459.5,-287 "/>
<path fill="none" stroke="black" d="M459.5,-287C453.5,-287 447.5,-281 447.5,-275"/>
<polyline fill="none" stroke="black" points="447.5,-275 447.5,-157 "/>
<path fill="none" stroke="black" d="M447.5,-157C447.5,-151 453.5,-145 459.5,-145"/>
<text text-anchor="middle" x="530" y="-270.4" font-family="Times Roman,serif" font-size="14.00">Topic</text>
<polyline fill="none" stroke="black" points="447.5,-261 612.5,-261 "/>
<text text-anchor="start" x="455.5" y="-244.4" font-family="Times Roman,serif" font-size="14.00">title :string</text>
<text text-anchor="start" x="455.5" y="-226.4" font-family="Times Roman,serif" font-size="14.00">content :text</text>
<text text-anchor="start" x="455.5" y="-208.4" font-family="Times Roman,serif" font-size="14.00">created_at :datetime</text>
<text text-anchor="start" x="455.5" y="-190.4" font-family="Times Roman,serif" font-size="14.00">updated_at :datetime</text>
<text text-anchor="start" x="455.5" y="-172.4" font-family="Times Roman,serif" font-size="14.00">progress :integer</text>
<text text-anchor="start" x="455.5" y="-154.4" font-family="Times Roman,serif" font-size="14.00">version :string</text>
</g>
<!-- Folder&#45;&gt;Topic -->
<g id="edge2" class="edge"><title>Folder&#45;&gt;Topic</title>
<path fill="none" stroke="black" d="M384.057,-434.915C410.206,-395.691 446.797,-340.804 476.798,-295.803"/>
<ellipse fill="none" stroke="black" cx="381.741" cy="-438.389" rx="4.00002" ry="4.00002"/>
<polygon fill="black" stroke="black" points="476.965,-295.552 486.256,-289.728 479.739,-291.392 482.512,-287.232 482.512,-287.232 482.512,-287.232 479.739,-291.392 478.768,-284.736 476.965,-295.552 476.965,-295.552"/>
</g>
<!-- Notification -->
<g id="node12" class="node"><title>Notification</title>
<polyline fill="none" stroke="black" points="239.5,-172 418.5,-172 "/>
<path fill="none" stroke="black" d="M418.5,-172C424.5,-172 430.5,-178 430.5,-184"/>
<polyline fill="none" stroke="black" points="430.5,-184 430.5,-248 "/>
<path fill="none" stroke="black" d="M430.5,-248C430.5,-254 424.5,-260 418.5,-260"/>
<polyline fill="none" stroke="black" points="418.5,-260 239.5,-260 "/>
<path fill="none" stroke="black" d="M239.5,-260C233.5,-260 227.5,-254 227.5,-248"/>
<polyline fill="none" stroke="black" points="227.5,-248 227.5,-184 "/>
<path fill="none" stroke="black" d="M227.5,-184C227.5,-178 233.5,-172 239.5,-172"/>
<text text-anchor="middle" x="329" y="-243.4" font-family="Times Roman,serif" font-size="14.00">Notification</text>
<polyline fill="none" stroke="black" points="227.5,-234 430.5,-234 "/>
<text text-anchor="start" x="235.5" y="-217.4" font-family="Times Roman,serif" font-size="14.00">next_notification :datetime</text>
<text text-anchor="start" x="235.5" y="-199.4" font-family="Times Roman,serif" font-size="14.00">created_at :datetime</text>
<text text-anchor="start" x="235.5" y="-181.4" font-family="Times Roman,serif" font-size="14.00">updated_at :datetime</text>
</g>
<!-- Folder&#45;&gt;Notification -->
<g id="edge4" class="edge"><title>Folder&#45;&gt;Notification</title>
<path fill="none" stroke="black" d="M345.92,-433.539C342.267,-386.572 336.931,-317.974 333.233,-270.418"/>
<ellipse fill="none" stroke="black" cx="346.246" cy="-437.729" rx="4" ry="4"/>
<polygon fill="black" stroke="black" points="333.222,-270.277 336.933,-259.958 332.834,-265.292 332.446,-260.307 332.446,-260.307 332.446,-260.307 332.834,-265.292 327.96,-260.656 333.222,-270.277 333.222,-270.277"/>
</g>
<!-- Topic&#45;&gt;Update -->
<g id="edge6" class="edge"><title>Topic&#45;&gt;Update</title>
<path fill="none" stroke="black" d="M556.737,-137.247C559.039,-130.468 561.348,-123.667 563.599,-117.035"/>
<ellipse fill="none" stroke="black" cx="555.41" cy="-141.157" rx="4.00001" ry="4.00001"/>
<polygon fill="black" stroke="black" points="563.634,-116.931 571.11,-108.909 565.242,-112.197 566.849,-107.462 566.849,-107.462 566.849,-107.462 565.242,-112.197 562.588,-106.016 563.634,-116.931 563.634,-116.931"/>
</g>
<!-- Deployment -->
<g id="node6" class="node"><title>Deployment</title>
<polyline fill="none" stroke="black" points="1049.5,-451 1190.5,-451 "/>
<path fill="none" stroke="black" d="M1190.5,-451C1196.5,-451 1202.5,-457 1202.5,-463"/>
<polyline fill="none" stroke="black" points="1202.5,-463 1202.5,-509 "/>
<path fill="none" stroke="black" d="M1202.5,-509C1202.5,-515 1196.5,-521 1190.5,-521"/>
<polyline fill="none" stroke="black" points="1190.5,-521 1049.5,-521 "/>
<path fill="none" stroke="black" d="M1049.5,-521C1043.5,-521 1037.5,-515 1037.5,-509"/>
<polyline fill="none" stroke="black" points="1037.5,-509 1037.5,-463 "/>
<path fill="none" stroke="black" d="M1037.5,-463C1037.5,-457 1043.5,-451 1049.5,-451"/>
<text text-anchor="middle" x="1120" y="-504.4" font-family="Times Roman,serif" font-size="14.00">Deployment</text>
<polyline fill="none" stroke="black" points="1037.5,-495 1202.5,-495 "/>
<text text-anchor="start" x="1045.5" y="-478.4" font-family="Times Roman,serif" font-size="14.00">created_at :datetime</text>
<text text-anchor="start" x="1045.5" y="-460.4" font-family="Times Roman,serif" font-size="14.00">updated_at :datetime</text>
</g>
<!-- FundingRound -->
<g id="node7" class="node"><title>FundingRound</title>
<polyline fill="none" stroke="black" points="925.5,-163 1090.5,-163 "/>
<path fill="none" stroke="black" d="M1090.5,-163C1096.5,-163 1102.5,-169 1102.5,-175"/>
<polyline fill="none" stroke="black" points="1102.5,-175 1102.5,-257 "/>
<path fill="none" stroke="black" d="M1102.5,-257C1102.5,-263 1096.5,-269 1090.5,-269"/>
<polyline fill="none" stroke="black" points="1090.5,-269 925.5,-269 "/>
<path fill="none" stroke="black" d="M925.5,-269C919.5,-269 913.5,-263 913.5,-257"/>
<polyline fill="none" stroke="black" points="913.5,-257 913.5,-175 "/>
<path fill="none" stroke="black" d="M913.5,-175C913.5,-169 919.5,-163 925.5,-163"/>
<text text-anchor="middle" x="1008" y="-252.4" font-family="Times Roman,serif" font-size="14.00">FundingRound</text>
<polyline fill="none" stroke="black" points="913.5,-243 1102.5,-243 "/>
<text text-anchor="start" x="921.5" y="-226.4" font-family="Times Roman,serif" font-size="14.00">date_of_record :datetime</text>
<text text-anchor="start" x="921.5" y="-208.4" font-family="Times Roman,serif" font-size="14.00">money :integer</text>
<text text-anchor="start" x="921.5" y="-190.4" font-family="Times Roman,serif" font-size="14.00">created_at :datetime</text>
<text text-anchor="start" x="921.5" y="-172.4" font-family="Times Roman,serif" font-size="14.00">updated_at :datetime</text>
</g>
<!-- EmploymentStatus -->
<g id="node8" class="node"><title>EmploymentStatus</title>
<polyline fill="none" stroke="black" points="1231.5,-433 1372.5,-433 "/>
<path fill="none" stroke="black" d="M1372.5,-433C1378.5,-433 1384.5,-439 1384.5,-445"/>
<polyline fill="none" stroke="black" points="1384.5,-445 1384.5,-527 "/>
<path fill="none" stroke="black" d="M1384.5,-527C1384.5,-533 1378.5,-539 1372.5,-539"/>
<polyline fill="none" stroke="black" points="1372.5,-539 1231.5,-539 "/>
<path fill="none" stroke="black" d="M1231.5,-539C1225.5,-539 1219.5,-533 1219.5,-527"/>
<polyline fill="none" stroke="black" points="1219.5,-527 1219.5,-445 "/>
<path fill="none" stroke="black" d="M1219.5,-445C1219.5,-439 1225.5,-433 1231.5,-433"/>
<text text-anchor="middle" x="1302" y="-522.4" font-family="Times Roman,serif" font-size="14.00">EmploymentStatus</text>
<polyline fill="none" stroke="black" points="1219.5,-513 1384.5,-513 "/>
<text text-anchor="start" x="1227.5" y="-496.4" font-family="Times Roman,serif" font-size="14.00">is_past :string</text>
<text text-anchor="start" x="1227.5" y="-478.4" font-family="Times Roman,serif" font-size="14.00">title :string</text>
<text text-anchor="start" x="1227.5" y="-460.4" font-family="Times Roman,serif" font-size="14.00">created_at :datetime</text>
<text text-anchor="start" x="1227.5" y="-442.4" font-family="Times Roman,serif" font-size="14.00">updated_at :datetime</text>
</g>
<!-- Person -->
<g id="node9" class="node"><title>Person</title>
<polyline fill="none" stroke="black" points="1413.5,-424 1554.5,-424 "/>
<path fill="none" stroke="black" d="M1554.5,-424C1560.5,-424 1566.5,-430 1566.5,-436"/>
<polyline fill="none" stroke="black" points="1566.5,-436 1566.5,-536 "/>
<path fill="none" stroke="black" d="M1566.5,-536C1566.5,-542 1560.5,-548 1554.5,-548"/>
<polyline fill="none" stroke="black" points="1554.5,-548 1413.5,-548 "/>
<path fill="none" stroke="black" d="M1413.5,-548C1407.5,-548 1401.5,-542 1401.5,-536"/>
<polyline fill="none" stroke="black" points="1401.5,-536 1401.5,-436 "/>
<path fill="none" stroke="black" d="M1401.5,-436C1401.5,-430 1407.5,-424 1413.5,-424"/>
<text text-anchor="middle" x="1484" y="-531.4" font-family="Times Roman,serif" font-size="14.00">Person</text>
<polyline fill="none" stroke="black" points="1401.5,-522 1566.5,-522 "/>
<text text-anchor="start" x="1409.5" y="-505.4" font-family="Times Roman,serif" font-size="14.00">first_name :string</text>
<text text-anchor="start" x="1409.5" y="-487.4" font-family="Times Roman,serif" font-size="14.00">created_at :datetime</text>
<text text-anchor="start" x="1409.5" y="-469.4" font-family="Times Roman,serif" font-size="14.00">updated_at :datetime</text>
<text text-anchor="start" x="1409.5" y="-451.4" font-family="Times Roman,serif" font-size="14.00">last_name :string</text>
<text text-anchor="start" x="1409.5" y="-433.4" font-family="Times Roman,serif" font-size="14.00">permalink :string</text>
</g>
<!-- Office -->
<g id="node10" class="node"><title>Office</title>
<polyline fill="none" stroke="black" points="1595.5,-370 1736.5,-370 "/>
<path fill="none" stroke="black" d="M1736.5,-370C1742.5,-370 1748.5,-376 1748.5,-382"/>
<polyline fill="none" stroke="black" points="1748.5,-382 1748.5,-590 "/>
<path fill="none" stroke="black" d="M1748.5,-590C1748.5,-596 1742.5,-602 1736.5,-602"/>
<polyline fill="none" stroke="black" points="1736.5,-602 1595.5,-602 "/>
<path fill="none" stroke="black" d="M1595.5,-602C1589.5,-602 1583.5,-596 1583.5,-590"/>
<polyline fill="none" stroke="black" points="1583.5,-590 1583.5,-382 "/>
<path fill="none" stroke="black" d="M1583.5,-382C1583.5,-376 1589.5,-370 1595.5,-370"/>
<text text-anchor="middle" x="1666" y="-585.4" font-family="Times Roman,serif" font-size="14.00">Office</text>
<polyline fill="none" stroke="black" points="1583.5,-576 1748.5,-576 "/>
<text text-anchor="start" x="1591.5" y="-559.4" font-family="Times Roman,serif" font-size="14.00">description :text</text>
<text text-anchor="start" x="1591.5" y="-541.4" font-family="Times Roman,serif" font-size="14.00">address1 :text</text>
<text text-anchor="start" x="1591.5" y="-523.4" font-family="Times Roman,serif" font-size="14.00">address2 :text</text>
<text text-anchor="start" x="1591.5" y="-505.4" font-family="Times Roman,serif" font-size="14.00">zip_code :integer</text>
<text text-anchor="start" x="1591.5" y="-487.4" font-family="Times Roman,serif" font-size="14.00">city :string</text>
<text text-anchor="start" x="1591.5" y="-469.4" font-family="Times Roman,serif" font-size="14.00">state_code :string</text>
<text text-anchor="start" x="1591.5" y="-451.4" font-family="Times Roman,serif" font-size="14.00">country_code :string</text>
<text text-anchor="start" x="1591.5" y="-433.4" font-family="Times Roman,serif" font-size="14.00">latitude :decimal</text>
<text text-anchor="start" x="1591.5" y="-415.4" font-family="Times Roman,serif" font-size="14.00">longitude :decimal</text>
<text text-anchor="start" x="1591.5" y="-397.4" font-family="Times Roman,serif" font-size="14.00">created_at :datetime</text>
<text text-anchor="start" x="1591.5" y="-379.4" font-family="Times Roman,serif" font-size="14.00">updated_at :datetime</text>
</g>
<!-- User -->
<g id="node11" class="node"><title>User</title>
<polyline fill="none" stroke="black" points="504,-325 734,-325 "/>
<path fill="none" stroke="black" d="M734,-325C740,-325 746,-331 746,-337"/>
<polyline fill="none" stroke="black" points="746,-337 746,-635 "/>
<path fill="none" stroke="black" d="M746,-635C746,-641 740,-647 734,-647"/>
<polyline fill="none" stroke="black" points="734,-647 504,-647 "/>
<path fill="none" stroke="black" d="M504,-647C498,-647 492,-641 492,-635"/>
<polyline fill="none" stroke="black" points="492,-635 492,-337 "/>
<path fill="none" stroke="black" d="M492,-337C492,-331 498,-325 504,-325"/>
<text text-anchor="middle" x="619" y="-630.4" font-family="Times Roman,serif" font-size="14.00">User</text>
<polyline fill="none" stroke="black" points="492,-621 746,-621 "/>
<text text-anchor="start" x="500" y="-604.4" font-family="Times Roman,serif" font-size="14.00">firstName :string</text>
<text text-anchor="start" x="500" y="-586.4" font-family="Times Roman,serif" font-size="14.00">email :string</text>
<text text-anchor="start" x="500" y="-568.4" font-family="Times Roman,serif" font-size="14.00">encrypted_password :string</text>
<text text-anchor="start" x="500" y="-550.4" font-family="Times Roman,serif" font-size="14.00">confirmation_token :string</text>
<text text-anchor="start" x="500" y="-532.4" font-family="Times Roman,serif" font-size="14.00">confirmed_at :datetime</text>
<text text-anchor="start" x="500" y="-514.4" font-family="Times Roman,serif" font-size="14.00">confirmation_sent_at :datetime</text>
<text text-anchor="start" x="500" y="-496.4" font-family="Times Roman,serif" font-size="14.00">reset_password_token :string</text>
<text text-anchor="start" x="500" y="-478.4" font-family="Times Roman,serif" font-size="14.00">reset_password_sent_at :datetime</text>
<text text-anchor="start" x="500" y="-460.4" font-family="Times Roman,serif" font-size="14.00">remember_created_at :datetime</text>
<text text-anchor="start" x="500" y="-442.4" font-family="Times Roman,serif" font-size="14.00">current_sign_in_at :datetime</text>
<text text-anchor="start" x="500" y="-424.4" font-family="Times Roman,serif" font-size="14.00">last_sign_in_at :datetime</text>
<text text-anchor="start" x="500" y="-406.4" font-family="Times Roman,serif" font-size="14.00">current_sign_in_ip :string</text>
<text text-anchor="start" x="500" y="-388.4" font-family="Times Roman,serif" font-size="14.00">last_sign_in_ip :string</text>
<text text-anchor="start" x="500" y="-370.4" font-family="Times Roman,serif" font-size="14.00">created_at :datetime</text>
<text text-anchor="start" x="500" y="-352.4" font-family="Times Roman,serif" font-size="14.00">updated_at :datetime</text>
<text text-anchor="start" x="500" y="-334.4" font-family="Times Roman,serif" font-size="14.00">lastName :string</text>
</g>
<!-- User&#45;&gt;Update -->
<g id="edge10" class="edge"><title>User&#45;&gt;Update</title>
<path fill="none" stroke="black" d="M633.024,-316.605C634.158,-261.17 631.702,-199.572 621,-144 619.271,-135.02 616.653,-125.796 613.603,-116.838"/>
<ellipse fill="none" stroke="black" cx="632.926" cy="-320.739" rx="4" ry="4"/>
<polygon fill="black" stroke="black" points="613.536,-116.652 614.377,-105.719 611.84,-111.949 610.144,-107.245 610.144,-107.245 610.144,-107.245 611.84,-111.949 605.911,-108.771 613.536,-116.652 613.536,-116.652"/>
</g>
<!-- User&#45;&gt;Topic -->
<g id="edge8" class="edge"><title>User&#45;&gt;Topic</title>
<path fill="none" stroke="black" d="M563.306,-317.041C561.005,-310.06 558.747,-303.21 556.558,-296.57"/>
<ellipse fill="none" stroke="black" cx="564.563" cy="-320.853" rx="4.00001" ry="4.00001"/>
<polygon fill="black" stroke="black" points="556.535,-296.5 557.678,-285.594 554.97,-291.751 553.405,-287.003 553.405,-287.003 553.405,-287.003 554.97,-291.751 549.131,-288.412 556.535,-296.5 556.535,-296.5"/>
</g>
<!-- Assignment -->
<g id="node13" class="node"><title>Assignment</title>
<polyline fill="none" stroke="black" points="1777.5,-451 1918.5,-451 "/>
<path fill="none" stroke="black" d="M1918.5,-451C1924.5,-451 1930.5,-457 1930.5,-463"/>
<polyline fill="none" stroke="black" points="1930.5,-463 1930.5,-509 "/>
<path fill="none" stroke="black" d="M1930.5,-509C1930.5,-515 1924.5,-521 1918.5,-521"/>
<polyline fill="none" stroke="black" points="1918.5,-521 1777.5,-521 "/>
<path fill="none" stroke="black" d="M1777.5,-521C1771.5,-521 1765.5,-515 1765.5,-509"/>
<polyline fill="none" stroke="black" points="1765.5,-509 1765.5,-463 "/>
<path fill="none" stroke="black" d="M1765.5,-463C1765.5,-457 1771.5,-451 1777.5,-451"/>
<text text-anchor="middle" x="1848" y="-504.4" font-family="Times Roman,serif" font-size="14.00">Assignment</text>
<polyline fill="none" stroke="black" points="1765.5,-495 1930.5,-495 "/>
<text text-anchor="start" x="1773.5" y="-478.4" font-family="Times Roman,serif" font-size="14.00">created_at :datetime</text>
<text text-anchor="start" x="1773.5" y="-460.4" font-family="Times Roman,serif" font-size="14.00">updated_at :datetime</text>
</g>
<!-- Company -->
<g id="node14" class="node"><title>Company</title>
<polyline fill="none" stroke="black" points="867.5,-442 1008.5,-442 "/>
<path fill="none" stroke="black" d="M1008.5,-442C1014.5,-442 1020.5,-448 1020.5,-454"/>
<polyline fill="none" stroke="black" points="1020.5,-454 1020.5,-518 "/>
<path fill="none" stroke="black" d="M1020.5,-518C1020.5,-524 1014.5,-530 1008.5,-530"/>
<polyline fill="none" stroke="black" points="1008.5,-530 867.5,-530 "/>
<path fill="none" stroke="black" d="M867.5,-530C861.5,-530 855.5,-524 855.5,-518"/>
<polyline fill="none" stroke="black" points="855.5,-518 855.5,-454 "/>
<path fill="none" stroke="black" d="M855.5,-454C855.5,-448 861.5,-442 867.5,-442"/>
<text text-anchor="middle" x="938" y="-513.4" font-family="Times Roman,serif" font-size="14.00">Company</text>
<polyline fill="none" stroke="black" points="855.5,-504 1020.5,-504 "/>
<text text-anchor="start" x="863.5" y="-487.4" font-family="Times Roman,serif" font-size="14.00">name :string</text>
<text text-anchor="start" x="863.5" y="-469.4" font-family="Times Roman,serif" font-size="14.00">created_at :datetime</text>
<text text-anchor="start" x="863.5" y="-451.4" font-family="Times Roman,serif" font-size="14.00">updated_at :datetime</text>
</g>
<!-- Company&#45;&gt;StaffLevel -->
<g id="edge14" class="edge"><title>Company&#45;&gt;StaffLevel</title>
<path fill="none" stroke="black" d="M908.407,-434.781C880.987,-387.324 840.369,-317.023 812.624,-269.003"/>
<ellipse fill="none" stroke="black" cx="910.413" cy="-438.254" rx="4.00002" ry="4.00002"/>
<polygon fill="black" stroke="black" points="812.602,-268.966 811.496,-258.056 810.101,-264.636 807.6,-260.307 807.6,-260.307 807.6,-260.307 810.101,-264.636 803.703,-262.558 812.602,-268.966 812.602,-268.966"/>
</g>
<!-- Company&#45;&gt;FundingRound -->
<g id="edge12" class="edge"><title>Company&#45;&gt;FundingRound</title>
<path fill="none" stroke="black" d="M951.554,-433.722C963.026,-389.47 979.502,-325.922 991.694,-278.896"/>
<ellipse fill="none" stroke="black" cx="950.485" cy="-437.845" rx="4.00001" ry="4.00001"/>
<polygon fill="black" stroke="black" points="991.717,-278.804 998.583,-270.254 992.972,-273.964 994.227,-269.124 994.227,-269.124 994.227,-269.124 992.972,-273.964 989.871,-267.995 991.717,-278.804 991.717,-278.804"/>
</g>
<!-- Product -->
<g id="node15" class="node"><title>Product</title>
<polyline fill="none" stroke="black" points="1959.5,-433 2100.5,-433 "/>
<path fill="none" stroke="black" d="M2100.5,-433C2106.5,-433 2112.5,-439 2112.5,-445"/>
<polyline fill="none" stroke="black" points="2112.5,-445 2112.5,-527 "/>
<path fill="none" stroke="black" d="M2112.5,-527C2112.5,-533 2106.5,-539 2100.5,-539"/>
<polyline fill="none" stroke="black" points="2100.5,-539 1959.5,-539 "/>
<path fill="none" stroke="black" d="M1959.5,-539C1953.5,-539 1947.5,-533 1947.5,-527"/>
<polyline fill="none" stroke="black" points="1947.5,-527 1947.5,-445 "/>
<path fill="none" stroke="black" d="M1947.5,-445C1947.5,-439 1953.5,-433 1959.5,-433"/>
<text text-anchor="middle" x="2030" y="-522.4" font-family="Times Roman,serif" font-size="14.00">Product</text>
<polyline fill="none" stroke="black" points="1947.5,-513 2112.5,-513 "/>
<text text-anchor="start" x="1955.5" y="-496.4" font-family="Times Roman,serif" font-size="14.00">name :string</text>
<text text-anchor="start" x="1955.5" y="-478.4" font-family="Times Roman,serif" font-size="14.00">created_at :datetime</text>
<text text-anchor="start" x="1955.5" y="-460.4" font-family="Times Roman,serif" font-size="14.00">updated_at :datetime</text>
<text text-anchor="start" x="1955.5" y="-442.4" font-family="Times Roman,serif" font-size="14.00">permalink :string</text>
</g>
</g>
</svg>
