<?xml version="1.0" encoding="UTF-8" standalone="no"?>
<!DOCTYPE svg PUBLIC "-//W3C//DTD SVG 1.1//EN"
 "http://www.w3.org/Graphics/SVG/1.1/DTD/svg11.dtd">
<!-- Generated by graphviz version 2.26.3 (20100126.1600)
 -->
<!-- Title: models_diagram Pages: 1 -->
<svg width="2213pt" height="692pt"
 viewBox="0.00 0.00 2213.00 692.00" xmlns="http://www.w3.org/2000/svg" xmlns:xlink="http://www.w3.org/1999/xlink">
<g id="graph1" class="graph" transform="scale(1 1) rotate(0) translate(4 688)">
<title>models_diagram</title>
<polygon fill="white" stroke="white" points="-4,5 -4,-688 2210,-688 2210,5 -4,5"/>
<!-- _diagram_info -->
<g id="node1" class="node"><title>_diagram_info</title>
<text text-anchor="start" x="8" y="-552.8" font-family="Times Roman,serif" font-size="13.00">Models diagram</text>
<text text-anchor="start" x="8" y="-535.8" font-family="Times Roman,serif" font-size="13.00">Date: Oct 12 2011 &#45; 12:20</text>
<text text-anchor="start" x="8" y="-518.8" font-family="Times Roman,serif" font-size="13.00">Migration version: 20111011234743</text>
<text text-anchor="start" x="8" y="-501.8" font-family="Times Roman,serif" font-size="13.00">Generated by RailRoady 1.0.2</text>
<text text-anchor="start" x="8" y="-484.8" font-family="Times Roman,serif" font-size="13.00">http://railroady.prestonlee.com</text>
</g>
<!-- Attachment -->
<g id="node2" class="node"><title>Attachment</title>
<polyline fill="none" stroke="black" points="495.5,-1 712.5,-1 "/>
<path fill="none" stroke="black" d="M712.5,-1C718.5,-1 724.5,-7 724.5,-13"/>
<polyline fill="none" stroke="black" points="724.5,-13 724.5,-131 "/>
<path fill="none" stroke="black" d="M724.5,-131C724.5,-137 718.5,-143 712.5,-143"/>
<polyline fill="none" stroke="black" points="712.5,-143 495.5,-143 "/>
<path fill="none" stroke="black" d="M495.5,-143C489.5,-143 483.5,-137 483.5,-131"/>
<polyline fill="none" stroke="black" points="483.5,-131 483.5,-13 "/>
<path fill="none" stroke="black" d="M483.5,-13C483.5,-7 489.5,-1 495.5,-1"/>
<text text-anchor="middle" x="604" y="-126.4" font-family="Times Roman,serif" font-size="14.00">Attachment</text>
<polyline fill="none" stroke="black" points="483.5,-117 724.5,-117 "/>
<text text-anchor="start" x="491.5" y="-100.4" font-family="Times Roman,serif" font-size="14.00">document_file_name :string</text>
<text text-anchor="start" x="491.5" y="-82.4" font-family="Times Roman,serif" font-size="14.00">document_content_type :string</text>
<text text-anchor="start" x="491.5" y="-64.4" font-family="Times Roman,serif" font-size="14.00">document_file_size :integer</text>
<text text-anchor="start" x="491.5" y="-46.4" font-family="Times Roman,serif" font-size="14.00">document_updated_at :datetime</text>
<text text-anchor="start" x="491.5" y="-28.4" font-family="Times Roman,serif" font-size="14.00">created_at :datetime</text>
<text text-anchor="start" x="491.5" y="-10.4" font-family="Times Roman,serif" font-size="14.00">updated_at :datetime</text>
</g>
<!-- Update -->
<g id="node3" class="node"><title>Update</title>
<polyline fill="none" stroke="black" points="294,-19 454,-19 "/>
<path fill="none" stroke="black" d="M454,-19C460,-19 466,-25 466,-31"/>
<polyline fill="none" stroke="black" points="466,-31 466,-113 "/>
<path fill="none" stroke="black" d="M466,-113C466,-119 460,-125 454,-125"/>
<polyline fill="none" stroke="black" points="454,-125 294,-125 "/>
<path fill="none" stroke="black" d="M294,-125C288,-125 282,-119 282,-113"/>
<polyline fill="none" stroke="black" points="282,-113 282,-31 "/>
<path fill="none" stroke="black" d="M282,-31C282,-25 288,-19 294,-19"/>
<text text-anchor="middle" x="374" y="-108.4" font-family="Times Roman,serif" font-size="14.00">Update</text>
<polyline fill="none" stroke="black" points="282,-99 466,-99 "/>
<text text-anchor="start" x="290" y="-82.4" font-family="Times Roman,serif" font-size="14.00">type_of_update :string</text>
<text text-anchor="start" x="290" y="-64.4" font-family="Times Roman,serif" font-size="14.00">created_at :datetime</text>
<text text-anchor="start" x="290" y="-46.4" font-family="Times Roman,serif" font-size="14.00">updated_at :datetime</text>
<text text-anchor="start" x="290" y="-28.4" font-family="Times Roman,serif" font-size="14.00">progress_status :integer</text>
</g>
<!-- StaffLevel -->
<g id="node4" class="node"><title>StaffLevel</title>
<polyline fill="none" stroke="black" points="815.5,-208 1020.5,-208 "/>
<path fill="none" stroke="black" d="M1020.5,-208C1026.5,-208 1032.5,-214 1032.5,-220"/>
<polyline fill="none" stroke="black" points="1032.5,-220 1032.5,-284 "/>
<path fill="none" stroke="black" d="M1032.5,-284C1032.5,-290 1026.5,-296 1020.5,-296"/>
<polyline fill="none" stroke="black" points="1020.5,-296 815.5,-296 "/>
<path fill="none" stroke="black" d="M815.5,-296C809.5,-296 803.5,-290 803.5,-284"/>
<polyline fill="none" stroke="black" points="803.5,-284 803.5,-220 "/>
<path fill="none" stroke="black" d="M803.5,-220C803.5,-214 809.5,-208 815.5,-208"/>
<text text-anchor="middle" x="918" y="-279.4" font-family="Times Roman,serif" font-size="14.00">StaffLevel</text>
<polyline fill="none" stroke="black" points="803.5,-270 1032.5,-270 "/>
<text text-anchor="start" x="811.5" y="-253.4" font-family="Times Roman,serif" font-size="14.00">number_of_employees :integer</text>
<text text-anchor="start" x="811.5" y="-235.4" font-family="Times Roman,serif" font-size="14.00">created_at :datetime</text>
<text text-anchor="start" x="811.5" y="-217.4" font-family="Times Roman,serif" font-size="14.00">updated_at :datetime</text>
</g>
<!-- Folder -->
<g id="node5" class="node"><title>Folder</title>
<polyline fill="none" stroke="black" points="593.5,-478 734.5,-478 "/>
<path fill="none" stroke="black" d="M734.5,-478C740.5,-478 746.5,-484 746.5,-490"/>
<polyline fill="none" stroke="black" points="746.5,-490 746.5,-554 "/>
<path fill="none" stroke="black" d="M746.5,-554C746.5,-560 740.5,-566 734.5,-566"/>
<polyline fill="none" stroke="black" points="734.5,-566 593.5,-566 "/>
<path fill="none" stroke="black" d="M593.5,-566C587.5,-566 581.5,-560 581.5,-554"/>
<polyline fill="none" stroke="black" points="581.5,-554 581.5,-490 "/>
<path fill="none" stroke="black" d="M581.5,-490C581.5,-484 587.5,-478 593.5,-478"/>
<text text-anchor="middle" x="664" y="-549.4" font-family="Times Roman,serif" font-size="14.00">Folder</text>
<polyline fill="none" stroke="black" points="581.5,-540 746.5,-540 "/>
<text text-anchor="start" x="589.5" y="-523.4" font-family="Times Roman,serif" font-size="14.00">title :string</text>
<text text-anchor="start" x="589.5" y="-505.4" font-family="Times Roman,serif" font-size="14.00">created_at :datetime</text>
<text text-anchor="start" x="589.5" y="-487.4" font-family="Times Roman,serif" font-size="14.00">updated_at :datetime</text>
</g>
<!-- Topic -->
<g id="node6" class="node"><title>Topic</title>
<polyline fill="none" stroke="black" points="413.5,-181 554.5,-181 "/>
<path fill="none" stroke="black" d="M554.5,-181C560.5,-181 566.5,-187 566.5,-193"/>
<polyline fill="none" stroke="black" points="566.5,-193 566.5,-311 "/>
<path fill="none" stroke="black" d="M566.5,-311C566.5,-317 560.5,-323 554.5,-323"/>
<polyline fill="none" stroke="black" points="554.5,-323 413.5,-323 "/>
<path fill="none" stroke="black" d="M413.5,-323C407.5,-323 401.5,-317 401.5,-311"/>
<polyline fill="none" stroke="black" points="401.5,-311 401.5,-193 "/>
<path fill="none" stroke="black" d="M401.5,-193C401.5,-187 407.5,-181 413.5,-181"/>
<text text-anchor="middle" x="484" y="-306.4" font-family="Times Roman,serif" font-size="14.00">Topic</text>
<polyline fill="none" stroke="black" points="401.5,-297 566.5,-297 "/>
<text text-anchor="start" x="409.5" y="-280.4" font-family="Times Roman,serif" font-size="14.00">title :string</text>
<text text-anchor="start" x="409.5" y="-262.4" font-family="Times Roman,serif" font-size="14.00">content :text</text>
<text text-anchor="start" x="409.5" y="-244.4" font-family="Times Roman,serif" font-size="14.00">created_at :datetime</text>
<text text-anchor="start" x="409.5" y="-226.4" font-family="Times Roman,serif" font-size="14.00">updated_at :datetime</text>
<text text-anchor="start" x="409.5" y="-208.4" font-family="Times Roman,serif" font-size="14.00">progress :integer</text>
<text text-anchor="start" x="409.5" y="-190.4" font-family="Times Roman,serif" font-size="14.00">version :string</text>
</g>
<!-- Folder&#45;&gt;Topic -->
<g id="edge2" class="edge"><title>Folder&#45;&gt;Topic</title>
<path fill="none" stroke="black" d="M629.943,-470.915C603.794,-431.691 567.203,-376.804 537.202,-331.803"/>
<ellipse fill="none" stroke="black" cx="632.259" cy="-474.389" rx="4.00002" ry="4.00002"/>
<polygon fill="black" stroke="black" points="537.035,-331.552 535.232,-320.736 534.261,-327.392 531.488,-323.232 531.488,-323.232 531.488,-323.232 534.261,-327.392 527.744,-325.728 537.035,-331.552 537.035,-331.552"/>
</g>
<!-- Notification -->
<g id="node13" class="node"><title>Notification</title>
<polyline fill="none" stroke="black" points="595.5,-208 774.5,-208 "/>
<path fill="none" stroke="black" d="M774.5,-208C780.5,-208 786.5,-214 786.5,-220"/>
<polyline fill="none" stroke="black" points="786.5,-220 786.5,-284 "/>
<path fill="none" stroke="black" d="M786.5,-284C786.5,-290 780.5,-296 774.5,-296"/>
<polyline fill="none" stroke="black" points="774.5,-296 595.5,-296 "/>
<path fill="none" stroke="black" d="M595.5,-296C589.5,-296 583.5,-290 583.5,-284"/>
<polyline fill="none" stroke="black" points="583.5,-284 583.5,-220 "/>
<path fill="none" stroke="black" d="M583.5,-220C583.5,-214 589.5,-208 595.5,-208"/>
<text text-anchor="middle" x="685" y="-279.4" font-family="Times Roman,serif" font-size="14.00">Notification</text>
<polyline fill="none" stroke="black" points="583.5,-270 786.5,-270 "/>
<text text-anchor="start" x="591.5" y="-253.4" font-family="Times Roman,serif" font-size="14.00">next_notification :datetime</text>
<text text-anchor="start" x="591.5" y="-235.4" font-family="Times Roman,serif" font-size="14.00">created_at :datetime</text>
<text text-anchor="start" x="591.5" y="-217.4" font-family="Times Roman,serif" font-size="14.00">updated_at :datetime</text>
</g>
<!-- Folder&#45;&gt;Notification -->
<g id="edge4" class="edge"><title>Folder&#45;&gt;Notification</title>
<path fill="none" stroke="black" d="M668.08,-469.539C671.733,-422.572 677.069,-353.974 680.767,-306.418"/>
<ellipse fill="none" stroke="black" cx="667.754" cy="-473.729" rx="4" ry="4"/>
<polygon fill="black" stroke="black" points="680.778,-306.277 686.04,-296.656 681.166,-301.292 681.554,-296.307 681.554,-296.307 681.554,-296.307 681.166,-301.292 677.067,-295.958 680.778,-306.277 680.778,-306.277"/>
</g>
<!-- Topic&#45;&gt;Attachment -->
<g id="edge8" class="edge"><title>Topic&#45;&gt;Attachment</title>
<path fill="none" stroke="black" d="M535.905,-174.142C540.83,-166.755 545.829,-159.257 550.765,-151.852"/>
<ellipse fill="none" stroke="black" cx="533.646" cy="-177.531" rx="4.00002" ry="4.00002"/>
<polygon fill="black" stroke="black" points="550.977,-151.534 560.269,-145.71 553.751,-147.374 556.524,-143.213 556.524,-143.213 556.524,-143.213 553.751,-147.374 552.78,-140.717 550.977,-151.534 550.977,-151.534"/>
</g>
<!-- Topic&#45;&gt;Update -->
<g id="edge6" class="edge"><title>Topic&#45;&gt;Update</title>
<path fill="none" stroke="black" d="M436.241,-173.848C428.073,-160.482 419.688,-146.762 411.823,-133.893"/>
<ellipse fill="none" stroke="black" cx="438.439" cy="-177.446" rx="4.00002" ry="4.00002"/>
<polygon fill="black" stroke="black" points="411.686,-133.668 410.311,-122.788 409.079,-129.401 406.471,-125.135 406.471,-125.135 406.471,-125.135 409.079,-129.401 402.632,-127.481 411.686,-133.668 411.686,-133.668"/>
</g>
<!-- Deployment -->
<g id="node7" class="node"><title>Deployment</title>
<polyline fill="none" stroke="black" points="1142.5,-487 1283.5,-487 "/>
<path fill="none" stroke="black" d="M1283.5,-487C1289.5,-487 1295.5,-493 1295.5,-499"/>
<polyline fill="none" stroke="black" points="1295.5,-499 1295.5,-545 "/>
<path fill="none" stroke="black" d="M1295.5,-545C1295.5,-551 1289.5,-557 1283.5,-557"/>
<polyline fill="none" stroke="black" points="1283.5,-557 1142.5,-557 "/>
<path fill="none" stroke="black" d="M1142.5,-557C1136.5,-557 1130.5,-551 1130.5,-545"/>
<polyline fill="none" stroke="black" points="1130.5,-545 1130.5,-499 "/>
<path fill="none" stroke="black" d="M1130.5,-499C1130.5,-493 1136.5,-487 1142.5,-487"/>
<text text-anchor="middle" x="1213" y="-540.4" font-family="Times Roman,serif" font-size="14.00">Deployment</text>
<polyline fill="none" stroke="black" points="1130.5,-531 1295.5,-531 "/>
<text text-anchor="start" x="1138.5" y="-514.4" font-family="Times Roman,serif" font-size="14.00">created_at :datetime</text>
<text text-anchor="start" x="1138.5" y="-496.4" font-family="Times Roman,serif" font-size="14.00">updated_at :datetime</text>
</g>
<!-- FundingRound -->
<g id="node8" class="node"><title>FundingRound</title>
<polyline fill="none" stroke="black" points="1061.5,-199 1226.5,-199 "/>
<path fill="none" stroke="black" d="M1226.5,-199C1232.5,-199 1238.5,-205 1238.5,-211"/>
<polyline fill="none" stroke="black" points="1238.5,-211 1238.5,-293 "/>
<path fill="none" stroke="black" d="M1238.5,-293C1238.5,-299 1232.5,-305 1226.5,-305"/>
<polyline fill="none" stroke="black" points="1226.5,-305 1061.5,-305 "/>
<path fill="none" stroke="black" d="M1061.5,-305C1055.5,-305 1049.5,-299 1049.5,-293"/>
<polyline fill="none" stroke="black" points="1049.5,-293 1049.5,-211 "/>
<path fill="none" stroke="black" d="M1049.5,-211C1049.5,-205 1055.5,-199 1061.5,-199"/>
<text text-anchor="middle" x="1144" y="-288.4" font-family="Times Roman,serif" font-size="14.00">FundingRound</text>
<polyline fill="none" stroke="black" points="1049.5,-279 1238.5,-279 "/>
<text text-anchor="start" x="1057.5" y="-262.4" font-family="Times Roman,serif" font-size="14.00">date_of_record :datetime</text>
<text text-anchor="start" x="1057.5" y="-244.4" font-family="Times Roman,serif" font-size="14.00">money :integer</text>
<text text-anchor="start" x="1057.5" y="-226.4" font-family="Times Roman,serif" font-size="14.00">created_at :datetime</text>
<text text-anchor="start" x="1057.5" y="-208.4" font-family="Times Roman,serif" font-size="14.00">updated_at :datetime</text>
</g>
<!-- EmploymentStatus -->
<g id="node9" class="node"><title>EmploymentStatus</title>
<polyline fill="none" stroke="black" points="1324.5,-469 1465.5,-469 "/>
<path fill="none" stroke="black" d="M1465.5,-469C1471.5,-469 1477.5,-475 1477.5,-481"/>
<polyline fill="none" stroke="black" points="1477.5,-481 1477.5,-563 "/>
<path fill="none" stroke="black" d="M1477.5,-563C1477.5,-569 1471.5,-575 1465.5,-575"/>
<polyline fill="none" stroke="black" points="1465.5,-575 1324.5,-575 "/>
<path fill="none" stroke="black" d="M1324.5,-575C1318.5,-575 1312.5,-569 1312.5,-563"/>
<polyline fill="none" stroke="black" points="1312.5,-563 1312.5,-481 "/>
<path fill="none" stroke="black" d="M1312.5,-481C1312.5,-475 1318.5,-469 1324.5,-469"/>
<text text-anchor="middle" x="1395" y="-558.4" font-family="Times Roman,serif" font-size="14.00">EmploymentStatus</text>
<polyline fill="none" stroke="black" points="1312.5,-549 1477.5,-549 "/>
<text text-anchor="start" x="1320.5" y="-532.4" font-family="Times Roman,serif" font-size="14.00">is_past :string</text>
<text text-anchor="start" x="1320.5" y="-514.4" font-family="Times Roman,serif" font-size="14.00">title :string</text>
<text text-anchor="start" x="1320.5" y="-496.4" font-family="Times Roman,serif" font-size="14.00">created_at :datetime</text>
<text text-anchor="start" x="1320.5" y="-478.4" font-family="Times Roman,serif" font-size="14.00">updated_at :datetime</text>
</g>
<!-- Person -->
<g id="node10" class="node"><title>Person</title>
<polyline fill="none" stroke="black" points="1506.5,-460 1647.5,-460 "/>
<path fill="none" stroke="black" d="M1647.5,-460C1653.5,-460 1659.5,-466 1659.5,-472"/>
<polyline fill="none" stroke="black" points="1659.5,-472 1659.5,-572 "/>
<path fill="none" stroke="black" d="M1659.5,-572C1659.5,-578 1653.5,-584 1647.5,-584"/>
<polyline fill="none" stroke="black" points="1647.5,-584 1506.5,-584 "/>
<path fill="none" stroke="black" d="M1506.5,-584C1500.5,-584 1494.5,-578 1494.5,-572"/>
<polyline fill="none" stroke="black" points="1494.5,-572 1494.5,-472 "/>
<path fill="none" stroke="black" d="M1494.5,-472C1494.5,-466 1500.5,-460 1506.5,-460"/>
<text text-anchor="middle" x="1577" y="-567.4" font-family="Times Roman,serif" font-size="14.00">Person</text>
<polyline fill="none" stroke="black" points="1494.5,-558 1659.5,-558 "/>
<text text-anchor="start" x="1502.5" y="-541.4" font-family="Times Roman,serif" font-size="14.00">first_name :string</text>
<text text-anchor="start" x="1502.5" y="-523.4" font-family="Times Roman,serif" font-size="14.00">created_at :datetime</text>
<text text-anchor="start" x="1502.5" y="-505.4" font-family="Times Roman,serif" font-size="14.00">updated_at :datetime</text>
<text text-anchor="start" x="1502.5" y="-487.4" font-family="Times Roman,serif" font-size="14.00">last_name :string</text>
<text text-anchor="start" x="1502.5" y="-469.4" font-family="Times Roman,serif" font-size="14.00">permalink :string</text>
</g>
<!-- Office -->
<g id="node11" class="node"><title>Office</title>
<polyline fill="none" stroke="black" points="1688.5,-406 1829.5,-406 "/>
<path fill="none" stroke="black" d="M1829.5,-406C1835.5,-406 1841.5,-412 1841.5,-418"/>
<polyline fill="none" stroke="black" points="1841.5,-418 1841.5,-626 "/>
<path fill="none" stroke="black" d="M1841.5,-626C1841.5,-632 1835.5,-638 1829.5,-638"/>
<polyline fill="none" stroke="black" points="1829.5,-638 1688.5,-638 "/>
<path fill="none" stroke="black" d="M1688.5,-638C1682.5,-638 1676.5,-632 1676.5,-626"/>
<polyline fill="none" stroke="black" points="1676.5,-626 1676.5,-418 "/>
<path fill="none" stroke="black" d="M1676.5,-418C1676.5,-412 1682.5,-406 1688.5,-406"/>
<text text-anchor="middle" x="1759" y="-621.4" font-family="Times Roman,serif" font-size="14.00">Office</text>
<polyline fill="none" stroke="black" points="1676.5,-612 1841.5,-612 "/>
<text text-anchor="start" x="1684.5" y="-595.4" font-family="Times Roman,serif" font-size="14.00">description :text</text>
<text text-anchor="start" x="1684.5" y="-577.4" font-family="Times Roman,serif" font-size="14.00">address1 :text</text>
<text text-anchor="start" x="1684.5" y="-559.4" font-family="Times Roman,serif" font-size="14.00">address2 :text</text>
<text text-anchor="start" x="1684.5" y="-541.4" font-family="Times Roman,serif" font-size="14.00">zip_code :integer</text>
<text text-anchor="start" x="1684.5" y="-523.4" font-family="Times Roman,serif" font-size="14.00">city :string</text>
<text text-anchor="start" x="1684.5" y="-505.4" font-family="Times Roman,serif" font-size="14.00">state_code :string</text>
<text text-anchor="start" x="1684.5" y="-487.4" font-family="Times Roman,serif" font-size="14.00">country_code :string</text>
<text text-anchor="start" x="1684.5" y="-469.4" font-family="Times Roman,serif" font-size="14.00">latitude :decimal</text>
<text text-anchor="start" x="1684.5" y="-451.4" font-family="Times Roman,serif" font-size="14.00">longitude :decimal</text>
<text text-anchor="start" x="1684.5" y="-433.4" font-family="Times Roman,serif" font-size="14.00">created_at :datetime</text>
<text text-anchor="start" x="1684.5" y="-415.4" font-family="Times Roman,serif" font-size="14.00">updated_at :datetime</text>
</g>
<!-- User -->
<g id="node12" class="node"><title>User</title>
<polyline fill="none" stroke="black" points="280,-361 510,-361 "/>
<path fill="none" stroke="black" d="M510,-361C516,-361 522,-367 522,-373"/>
<polyline fill="none" stroke="black" points="522,-373 522,-671 "/>
<path fill="none" stroke="black" d="M522,-671C522,-677 516,-683 510,-683"/>
<polyline fill="none" stroke="black" points="510,-683 280,-683 "/>
<path fill="none" stroke="black" d="M280,-683C274,-683 268,-677 268,-671"/>
<polyline fill="none" stroke="black" points="268,-671 268,-373 "/>
<path fill="none" stroke="black" d="M268,-373C268,-367 274,-361 280,-361"/>
<text text-anchor="middle" x="395" y="-666.4" font-family="Times Roman,serif" font-size="14.00">User</text>
<polyline fill="none" stroke="black" points="268,-657 522,-657 "/>
<text text-anchor="start" x="276" y="-640.4" font-family="Times Roman,serif" font-size="14.00">firstName :string</text>
<text text-anchor="start" x="276" y="-622.4" font-family="Times Roman,serif" font-size="14.00">email :string</text>
<text text-anchor="start" x="276" y="-604.4" font-family="Times Roman,serif" font-size="14.00">encrypted_password :string</text>
<text text-anchor="start" x="276" y="-586.4" font-family="Times Roman,serif" font-size="14.00">confirmation_token :string</text>
<text text-anchor="start" x="276" y="-568.4" font-family="Times Roman,serif" font-size="14.00">confirmed_at :datetime</text>
<text text-anchor="start" x="276" y="-550.4" font-family="Times Roman,serif" font-size="14.00">confirmation_sent_at :datetime</text>
<text text-anchor="start" x="276" y="-532.4" font-family="Times Roman,serif" font-size="14.00">reset_password_token :string</text>
<text text-anchor="start" x="276" y="-514.4" font-family="Times Roman,serif" font-size="14.00">reset_password_sent_at :datetime</text>
<text text-anchor="start" x="276" y="-496.4" font-family="Times Roman,serif" font-size="14.00">remember_created_at :datetime</text>
<text text-anchor="start" x="276" y="-478.4" font-family="Times Roman,serif" font-size="14.00">current_sign_in_at :datetime</text>
<text text-anchor="start" x="276" y="-460.4" font-family="Times Roman,serif" font-size="14.00">last_sign_in_at :datetime</text>
<text text-anchor="start" x="276" y="-442.4" font-family="Times Roman,serif" font-size="14.00">current_sign_in_ip :string</text>
<text text-anchor="start" x="276" y="-424.4" font-family="Times Roman,serif" font-size="14.00">last_sign_in_ip :string</text>
<text text-anchor="start" x="276" y="-406.4" font-family="Times Roman,serif" font-size="14.00">created_at :datetime</text>
<text text-anchor="start" x="276" y="-388.4" font-family="Times Roman,serif" font-size="14.00">updated_at :datetime</text>
<text text-anchor="start" x="276" y="-370.4" font-family="Times Roman,serif" font-size="14.00">lastName :string</text>
</g>
<!-- User&#45;&gt;Update -->
<g id="edge12" class="edge"><title>User&#45;&gt;Update</title>
<path fill="none" stroke="black" d="M387.091,-352.531C383.545,-276.537 379.578,-191.527 376.95,-135.213"/>
<ellipse fill="none" stroke="black" cx="387.291" cy="-356.815" rx="4" ry="4"/>
<polygon fill="black" stroke="black" points="376.941,-135.03 380.97,-124.831 376.708,-130.036 376.475,-125.041 376.475,-125.041 376.475,-125.041 376.708,-130.036 371.98,-125.251 376.941,-135.03 376.941,-135.03"/>
</g>
<!-- User&#45;&gt;Topic -->
<g id="edge10" class="edge"><title>User&#45;&gt;Topic</title>
<path fill="none" stroke="black" d="M450.694,-353.041C452.995,-346.06 455.253,-339.21 457.442,-332.57"/>
<ellipse fill="none" stroke="black" cx="449.437" cy="-356.853" rx="4.00001" ry="4.00001"/>
<polygon fill="black" stroke="black" points="457.465,-332.5 464.869,-324.412 459.03,-327.751 460.595,-323.003 460.595,-323.003 460.595,-323.003 459.03,-327.751 456.322,-321.594 457.465,-332.5 457.465,-332.5"/>
</g>
<!-- Assignment -->
<g id="node14" class="node"><title>Assignment</title>
<polyline fill="none" stroke="black" points="1870.5,-487 2011.5,-487 "/>
<path fill="none" stroke="black" d="M2011.5,-487C2017.5,-487 2023.5,-493 2023.5,-499"/>
<polyline fill="none" stroke="black" points="2023.5,-499 2023.5,-545 "/>
<path fill="none" stroke="black" d="M2023.5,-545C2023.5,-551 2017.5,-557 2011.5,-557"/>
<polyline fill="none" stroke="black" points="2011.5,-557 1870.5,-557 "/>
<path fill="none" stroke="black" d="M1870.5,-557C1864.5,-557 1858.5,-551 1858.5,-545"/>
<polyline fill="none" stroke="black" points="1858.5,-545 1858.5,-499 "/>
<path fill="none" stroke="black" d="M1858.5,-499C1858.5,-493 1864.5,-487 1870.5,-487"/>
<text text-anchor="middle" x="1941" y="-540.4" font-family="Times Roman,serif" font-size="14.00">Assignment</text>
<polyline fill="none" stroke="black" points="1858.5,-531 2023.5,-531 "/>
<text text-anchor="start" x="1866.5" y="-514.4" font-family="Times Roman,serif" font-size="14.00">created_at :datetime</text>
<text text-anchor="start" x="1866.5" y="-496.4" font-family="Times Roman,serif" font-size="14.00">updated_at :datetime</text>
</g>
<!-- Company -->
<g id="node15" class="node"><title>Company</title>
<polyline fill="none" stroke="black" points="960.5,-478 1101.5,-478 "/>
<path fill="none" stroke="black" d="M1101.5,-478C1107.5,-478 1113.5,-484 1113.5,-490"/>
<polyline fill="none" stroke="black" points="1113.5,-490 1113.5,-554 "/>
<path fill="none" stroke="black" d="M1113.5,-554C1113.5,-560 1107.5,-566 1101.5,-566"/>
<polyline fill="none" stroke="black" points="1101.5,-566 960.5,-566 "/>
<path fill="none" stroke="black" d="M960.5,-566C954.5,-566 948.5,-560 948.5,-554"/>
<polyline fill="none" stroke="black" points="948.5,-554 948.5,-490 "/>
<path fill="none" stroke="black" d="M948.5,-490C948.5,-484 954.5,-478 960.5,-478"/>
<text text-anchor="middle" x="1031" y="-549.4" font-family="Times Roman,serif" font-size="14.00">Company</text>
<polyline fill="none" stroke="black" points="948.5,-540 1113.5,-540 "/>
<text text-anchor="start" x="956.5" y="-523.4" font-family="Times Roman,serif" font-size="14.00">name :string</text>
<text text-anchor="start" x="956.5" y="-505.4" font-family="Times Roman,serif" font-size="14.00">created_at :datetime</text>
<text text-anchor="start" x="956.5" y="-487.4" font-family="Times Roman,serif" font-size="14.00">updated_at :datetime</text>
</g>
<!-- Company&#45;&gt;StaffLevel -->
<g id="edge16" class="edge"><title>Company&#45;&gt;StaffLevel</title>
<path fill="none" stroke="black" d="M1009.3,-470.161C989.524,-422.898 960.42,-353.358 940.417,-305.563"/>
<ellipse fill="none" stroke="black" cx="1010.92" cy="-474.027" rx="4.00002" ry="4.00002"/>
<polygon fill="black" stroke="black" points="940.404,-305.532 940.694,-294.57 938.474,-300.919 936.543,-296.307 936.543,-296.307 936.543,-296.307 938.474,-300.919 932.392,-298.044 940.404,-305.532 940.404,-305.532"/>
</g>
<!-- Company&#45;&gt;FundingRound -->
<g id="edge14" class="edge"><title>Company&#45;&gt;FundingRound</title>
<path fill="none" stroke="black" d="M1052.63,-470.308C1071.2,-425.954 1098,-361.901 1117.78,-314.641"/>
<ellipse fill="none" stroke="black" cx="1051.08" cy="-474.027" rx="4.00002" ry="4.00002"/>
<polygon fill="black" stroke="black" points="1117.91,-314.349 1125.92,-306.862 1119.84,-309.737 1121.77,-305.124 1121.77,-305.124 1121.77,-305.124 1119.84,-309.737 1117.62,-303.387 1117.91,-314.349 1117.91,-314.349"/>
</g>
<!-- Product -->
<g id="node16" class="node"><title>Product</title>
<polyline fill="none" stroke="black" points="2052.5,-469 2193.5,-469 "/>
<path fill="none" stroke="black" d="M2193.5,-469C2199.5,-469 2205.5,-475 2205.5,-481"/>
<polyline fill="none" stroke="black" points="2205.5,-481 2205.5,-563 "/>
<path fill="none" stroke="black" d="M2205.5,-563C2205.5,-569 2199.5,-575 2193.5,-575"/>
<polyline fill="none" stroke="black" points="2193.5,-575 2052.5,-575 "/>
<path fill="none" stroke="black" d="M2052.5,-575C2046.5,-575 2040.5,-569 2040.5,-563"/>
<polyline fill="none" stroke="black" points="2040.5,-563 2040.5,-481 "/>
<path fill="none" stroke="black" d="M2040.5,-481C2040.5,-475 2046.5,-469 2052.5,-469"/>
<text text-anchor="middle" x="2123" y="-558.4" font-family="Times Roman,serif" font-size="14.00">Product</text>
<polyline fill="none" stroke="black" points="2040.5,-549 2205.5,-549 "/>
<text text-anchor="start" x="2048.5" y="-532.4" font-family="Times Roman,serif" font-size="14.00">name :string</text>
<text text-anchor="start" x="2048.5" y="-514.4" font-family="Times Roman,serif" font-size="14.00">created_at :datetime</text>
<text text-anchor="start" x="2048.5" y="-496.4" font-family="Times Roman,serif" font-size="14.00">updated_at :datetime</text>
<text text-anchor="start" x="2048.5" y="-478.4" font-family="Times Roman,serif" font-size="14.00">permalink :string</text>
</g>
</g>
</svg>
