<?xml version="1.0" encoding="UTF-8" standalone="no"?>
<!DOCTYPE svg PUBLIC "-//W3C//DTD SVG 1.1//EN"
 "http://www.w3.org/Graphics/SVG/1.1/DTD/svg11.dtd">
<!-- Generated by graphviz version 2.26.3 (20100126.1600)
 -->
<!-- Title: models_diagram Pages: 1 -->
<svg width="1602pt" height="250pt"
 viewBox="0.00 0.00 1602.00 250.00" xmlns="http://www.w3.org/2000/svg" xmlns:xlink="http://www.w3.org/1999/xlink">
<g id="graph1" class="graph" transform="scale(1 1) rotate(0) translate(4 246)">
<title>models_diagram</title>
<polygon fill="white" stroke="white" points="-4,5 -4,-246 1599,-246 1599,5 -4,5"/>
<!-- _diagram_info -->
<g id="node1" class="node"><title>_diagram_info</title>
<text text-anchor="start" x="8" y="-225.8" font-family="Times Roman,serif" font-size="13.00">Models diagram</text>
<text text-anchor="start" x="8" y="-208.8" font-family="Times Roman,serif" font-size="13.00">Date: Oct 12 2011 &#45; 12:21</text>
<text text-anchor="start" x="8" y="-191.8" font-family="Times Roman,serif" font-size="13.00">Migration version: 20111011234743</text>
<text text-anchor="start" x="8" y="-174.8" font-family="Times Roman,serif" font-size="13.00">Generated by RailRoady 1.0.2</text>
<text text-anchor="start" x="8" y="-157.8" font-family="Times Roman,serif" font-size="13.00">http://railroady.prestonlee.com</text>
</g>
<!-- Attachment -->
<g id="node2" class="node"><title>Attachment</title>
<ellipse fill="none" stroke="black" cx="403" cy="-19" rx="68.7979" ry="18.3848"/>
<text text-anchor="middle" x="403" y="-15.4" font-family="Times Roman,serif" font-size="14.00">Attachment</text>
</g>
<!-- Update -->
<g id="node3" class="node"><title>Update</title>
<ellipse fill="none" stroke="black" cx="270" cy="-19" rx="46.1672" ry="18.3848"/>
<text text-anchor="middle" x="270" y="-15.4" font-family="Times Roman,serif" font-size="14.00">Update</text>
</g>
<!-- StaffLevel -->
<g id="node4" class="node"><title>StaffLevel</title>
<ellipse fill="none" stroke="black" cx="599" cy="-93" rx="60.8112" ry="18.3848"/>
<text text-anchor="middle" x="599" y="-89.4" font-family="Times Roman,serif" font-size="14.00">StaffLevel</text>
</g>
<!-- Folder -->
<g id="node5" class="node"><title>Folder</title>
<ellipse fill="none" stroke="black" cx="424" cy="-195" rx="41.2167" ry="18.3848"/>
<text text-anchor="middle" x="424" y="-191.4" font-family="Times Roman,serif" font-size="14.00">Folder</text>
</g>
<!-- Topic -->
<g id="node6" class="node"><title>Topic</title>
<ellipse fill="none" stroke="black" cx="333" cy="-93" rx="34.8574" ry="18.3848"/>
<text text-anchor="middle" x="333" y="-89.4" font-family="Times Roman,serif" font-size="14.00">Topic</text>
</g>
<!-- Folder&#45;&gt;Topic -->
<g id="edge2" class="edge"><title>Folder&#45;&gt;Topic</title>
<path fill="none" stroke="black" d="M403.147,-171.626C388.749,-155.488 369.635,-134.063 354.996,-117.655"/>
<ellipse fill="none" stroke="black" cx="405.9" cy="-174.712" rx="4.00002" ry="4.00002"/>
<polygon fill="black" stroke="black" points="354.866,-117.509 351.567,-107.052 351.538,-113.778 348.209,-110.047 348.209,-110.047 348.209,-110.047 351.538,-113.778 344.851,-113.043 354.866,-117.509 354.866,-117.509"/>
</g>
<!-- Notification -->
<g id="node13" class="node"><title>Notification</title>
<ellipse fill="none" stroke="black" cx="453" cy="-93" rx="67.1751" ry="18.3848"/>
<text text-anchor="middle" x="453" y="-89.4" font-family="Times Roman,serif" font-size="14.00">Notification</text>
</g>
<!-- Folder&#45;&gt;Notification -->
<g id="edge4" class="edge"><title>Folder&#45;&gt;Notification</title>
<path fill="none" stroke="black" d="M431.535,-168.499C435.661,-153.986 440.775,-136 444.975,-121.224"/>
<ellipse fill="none" stroke="black" cx="430.413" cy="-172.444" rx="4.00001" ry="4.00001"/>
<polygon fill="black" stroke="black" points="444.98,-121.209 452.043,-112.82 446.347,-116.399 447.715,-111.59 447.715,-111.59 447.715,-111.59 446.347,-116.399 443.386,-110.359 444.98,-121.209 444.98,-121.209"/>
</g>
<!-- Topic&#45;&gt;Attachment -->
<g id="edge8" class="edge"><title>Topic&#45;&gt;Attachment</title>
<path fill="none" stroke="black" d="M354.589,-70.1774C362.311,-62.0141 371.059,-52.766 378.974,-44.3985"/>
<ellipse fill="none" stroke="black" cx="351.633" cy="-73.3024" rx="4.00002" ry="4.00002"/>
<polygon fill="black" stroke="black" points="379.084,-44.2829 389.225,-40.1106 382.52,-40.6505 385.956,-37.0182 385.956,-37.0182 385.956,-37.0182 382.52,-40.6505 382.687,-33.9257 379.084,-44.2829 379.084,-44.2829"/>
</g>
<!-- Topic&#45;&gt;Update -->
<g id="edge6" class="edge"><title>Topic&#45;&gt;Update</title>
<path fill="none" stroke="black" d="M312.96,-69.4612C306.154,-61.4667 298.521,-52.5013 291.599,-44.3701"/>
<ellipse fill="none" stroke="black" cx="315.795" cy="-72.7912" rx="4.00002" ry="4.00002"/>
<polygon fill="black" stroke="black" points="291.453,-44.1982 288.397,-33.6668 288.211,-40.391 284.97,-36.5839 284.97,-36.5839 284.97,-36.5839 288.211,-40.391 281.544,-39.501 291.453,-44.1982 291.453,-44.1982"/>
</g>
<!-- Deployment -->
<g id="node7" class="node"><title>Deployment</title>
<ellipse fill="none" stroke="black" cx="825" cy="-195" rx="70.9184" ry="18.3848"/>
<text text-anchor="middle" x="825" y="-191.4" font-family="Times Roman,serif" font-size="14.00">Deployment</text>
</g>
<!-- FundingRound -->
<g id="node8" class="node"><title>FundingRound</title>
<ellipse fill="none" stroke="black" cx="759" cy="-93" rx="80.8184" ry="18.3848"/>
<text text-anchor="middle" x="759" y="-89.4" font-family="Times Roman,serif" font-size="14.00">FundingRound</text>
</g>
<!-- EmploymentStatus -->
<g id="node9" class="node"><title>EmploymentStatus</title>
<ellipse fill="none" stroke="black" cx="1018" cy="-195" rx="104.151" ry="18.3848"/>
<text text-anchor="middle" x="1018" y="-191.4" font-family="Times Roman,serif" font-size="14.00">EmploymentStatus</text>
</g>
<!-- Person -->
<g id="node10" class="node"><title>Person</title>
<ellipse fill="none" stroke="black" cx="1184" cy="-195" rx="44.0472" ry="18.3848"/>
<text text-anchor="middle" x="1184" y="-191.4" font-family="Times Roman,serif" font-size="14.00">Person</text>
</g>
<!-- Office -->
<g id="node11" class="node"><title>Office</title>
<ellipse fill="none" stroke="black" cx="1285" cy="-195" rx="39.0967" ry="18.3848"/>
<text text-anchor="middle" x="1285" y="-191.4" font-family="Times Roman,serif" font-size="14.00">Office</text>
</g>
<!-- User -->
<g id="node12" class="node"><title>User</title>
<ellipse fill="none" stroke="black" cx="302" cy="-195" rx="33.9411" ry="18.3848"/>
<text text-anchor="middle" x="302" y="-191.4" font-family="Times Roman,serif" font-size="14.00">User</text>
</g>
<!-- User&#45;&gt;Update -->
<g id="edge12" class="edge"><title>User&#45;&gt;Update</title>
<path fill="none" stroke="black" d="M297.16,-168.381C291.242,-135.832 281.266,-80.9614 275.192,-47.5551"/>
<ellipse fill="none" stroke="black" cx="297.92" cy="-172.562" rx="4.00001" ry="4.00001"/>
<polygon fill="black" stroke="black" points="275.156,-47.3573 277.794,-36.7136 274.261,-42.438 273.367,-37.5186 273.367,-37.5186 273.367,-37.5186 274.261,-42.438 268.94,-38.3236 275.156,-47.3573 275.156,-47.3573"/>
</g>
<!-- User&#45;&gt;Topic -->
<g id="edge10" class="edge"><title>User&#45;&gt;Topic</title>
<path fill="none" stroke="black" d="M310.054,-168.499C314.465,-153.986 319.931,-136 324.422,-121.224"/>
<ellipse fill="none" stroke="black" cx="308.849" cy="-172.464" rx="4.00001" ry="4.00001"/>
<polygon fill="black" stroke="black" points="324.442,-121.158 331.656,-112.898 325.896,-116.374 327.35,-111.59 327.35,-111.59 327.35,-111.59 325.896,-116.374 323.045,-110.281 324.442,-121.158 324.442,-121.158"/>
</g>
<!-- Assignment -->
<g id="node14" class="node"><title>Assignment</title>
<ellipse fill="none" stroke="black" cx="1410" cy="-195" rx="68.0887" ry="18.3848"/>
<text text-anchor="middle" x="1410" y="-191.4" font-family="Times Roman,serif" font-size="14.00">Assignment</text>
</g>
<!-- Company -->
<g id="node15" class="node"><title>Company</title>
<ellipse fill="none" stroke="black" cx="679" cy="-195" rx="56.7776" ry="18.3848"/>
<text text-anchor="middle" x="679" y="-191.4" font-family="Times Roman,serif" font-size="14.00">Company</text>
</g>
<!-- Company&#45;&gt;StaffLevel -->
<g id="edge16" class="edge"><title>Company&#45;&gt;StaffLevel</title>
<path fill="none" stroke="black" d="M659.657,-170.338C647.562,-154.916 631.993,-135.066 619.657,-119.337"/>
<ellipse fill="none" stroke="black" cx="662.229" cy="-173.617" rx="4.00002" ry="4.00002"/>
<polygon fill="black" stroke="black" points="619.35,-118.946 616.719,-108.301 616.264,-115.012 613.179,-111.078 613.179,-111.078 613.179,-111.078 616.264,-115.012 609.638,-113.855 619.35,-118.946 619.35,-118.946"/>
</g>
<!-- Company&#45;&gt;FundingRound -->
<g id="edge14" class="edge"><title>Company&#45;&gt;FundingRound</title>
<path fill="none" stroke="black" d="M698.31,-170.38C710.325,-155.061 725.776,-135.361 738.081,-119.672"/>
<ellipse fill="none" stroke="black" cx="695.771" cy="-173.617" rx="4.00002" ry="4.00002"/>
<polygon fill="black" stroke="black" points="738.38,-119.29 748.093,-114.199 741.466,-115.356 744.552,-111.422 744.552,-111.422 744.552,-111.422 741.466,-115.356 741.011,-108.644 738.38,-119.29 738.38,-119.29"/>
</g>
<!-- Product -->
<g id="node16" class="node"><title>Product</title>
<ellipse fill="none" stroke="black" cx="1545" cy="-195" rx="48.9975" ry="18.3848"/>
<text text-anchor="middle" x="1545" y="-191.4" font-family="Times Roman,serif" font-size="14.00">Product</text>
</g>
</g>
</svg>
