<?xml version="1.0" encoding="UTF-8" standalone="no"?>
<!DOCTYPE svg PUBLIC "-//W3C//DTD SVG 1.1//EN"
 "http://www.w3.org/Graphics/SVG/1.1/DTD/svg11.dtd">
<!-- Generated by graphviz version 2.26.3 (20100126.1600)
 -->
<!-- Title: models_diagram Pages: 1 -->
<svg width="1287pt" height="346pt"
 viewBox="0.00 0.00 1287.00 346.00" xmlns="http://www.w3.org/2000/svg" xmlns:xlink="http://www.w3.org/1999/xlink">
<g id="graph1" class="graph" transform="scale(1 1) rotate(0) translate(4 342)">
<title>models_diagram</title>
<polygon fill="white" stroke="white" points="-4,5 -4,-342 1284,-342 1284,5 -4,5"/>
<!-- _diagram_info -->
<g id="node1" class="node"><title>_diagram_info</title>
<text text-anchor="start" x="8" y="-321.8" font-family="Times Roman,serif" font-size="13.00">Models diagram</text>
<text text-anchor="start" x="8" y="-304.8" font-family="Times Roman,serif" font-size="13.00">Date: Oct 18 2011 &#45; 15:53</text>
<text text-anchor="start" x="8" y="-287.8" font-family="Times Roman,serif" font-size="13.00">Migration version: 20111017113700</text>
<text text-anchor="start" x="8" y="-270.8" font-family="Times Roman,serif" font-size="13.00">Generated by RailRoady 1.0.2</text>
<text text-anchor="start" x="8" y="-253.8" font-family="Times Roman,serif" font-size="13.00">http://railroady.prestonlee.com</text>
</g>
<!-- Attachment -->
<g id="node2" class="node"><title>Attachment</title>
<ellipse fill="none" stroke="black" cx="103" cy="-187" rx="68.7979" ry="18.3848"/>
<text text-anchor="middle" x="103" y="-183.4" font-family="Times Roman,serif" font-size="14.00">Attachment</text>
</g>
<!-- Topic -->
<g id="node6" class="node"><title>Topic</title>
<ellipse fill="none" stroke="black" cx="247" cy="-95" rx="34.8574" ry="18.3848"/>
<text text-anchor="middle" x="247" y="-91.4" font-family="Times Roman,serif" font-size="14.00">Topic</text>
</g>
<!-- Attachment&#45;&gt;Topic -->
<g id="edge4" class="edge"><title>Attachment&#45;&gt;Topic</title>
<path fill="none" stroke="black" d="M138.495,-164.323C162.274,-149.131 193.276,-129.324 216.05,-114.774"/>
<polygon fill="black" stroke="black" points="138.175,-164.527 127.325,-166.119 133.961,-167.219 129.748,-169.911 129.748,-169.911 129.748,-169.911 133.961,-167.219 132.171,-173.703 138.175,-164.527 138.175,-164.527"/>
<polygon fill="black" stroke="black" points="216.221,-114.664 227.071,-113.072 220.435,-111.972 224.648,-109.28 224.648,-109.28 224.648,-109.28 220.435,-111.972 222.225,-105.488 216.221,-114.664 216.221,-114.664"/>
</g>
<!-- Attach -->
<g id="node17" class="node"><title>Attach</title>
<ellipse fill="none" stroke="black" cx="89" cy="-19" rx="43.8406" ry="18.3848"/>
<text text-anchor="middle" x="89" y="-15.4" font-family="Times Roman,serif" font-size="14.00">Attach</text>
</g>
<!-- Attachment&#45;&gt;Attach -->
<g id="edge2" class="edge"><title>Attachment&#45;&gt;Attach</title>
<path fill="none" stroke="black" d="M100.769,-160.225C98.2156,-129.587 94.0489,-79.5873 91.4195,-48.0338"/>
<ellipse fill="none" stroke="black" cx="101.116" cy="-164.393" rx="4" ry="4"/>
<polygon fill="black" stroke="black" points="91.3892,-47.6697 95.0431,-37.3305 90.974,-42.687 90.5587,-37.7042 90.5587,-37.7042 90.5587,-37.7042 90.974,-42.687 86.0742,-38.078 91.3892,-47.6697 91.3892,-47.6697"/>
</g>
<!-- Update -->
<g id="node3" class="node"><title>Update</title>
<ellipse fill="none" stroke="black" cx="197" cy="-19" rx="46.1672" ry="18.3848"/>
<text text-anchor="middle" x="197" y="-15.4" font-family="Times Roman,serif" font-size="14.00">Update</text>
</g>
<!-- StaffLevel -->
<g id="node4" class="node"><title>StaffLevel</title>
<ellipse fill="none" stroke="black" cx="729" cy="-95" rx="60.8112" ry="18.3848"/>
<text text-anchor="middle" x="729" y="-91.4" font-family="Times Roman,serif" font-size="14.00">StaffLevel</text>
</g>
<!-- Folder -->
<g id="node5" class="node"><title>Folder</title>
<ellipse fill="none" stroke="black" cx="324" cy="-187" rx="41.2167" ry="18.3848"/>
<text text-anchor="middle" x="324" y="-183.4" font-family="Times Roman,serif" font-size="14.00">Folder</text>
</g>
<!-- Folder&#45;&gt;Topic -->
<g id="edge6" class="edge"><title>Folder&#45;&gt;Topic</title>
<path fill="none" stroke="black" d="M303.69,-162.734C292.635,-149.525 278.981,-133.212 267.844,-119.904"/>
<ellipse fill="none" stroke="black" cx="306.586" cy="-166.194" rx="4.00002" ry="4.00002"/>
<polygon fill="black" stroke="black" points="267.698,-119.731 264.731,-109.174 264.489,-115.896 261.28,-112.062 261.28,-112.062 261.28,-112.062 264.489,-115.896 257.829,-114.95 267.698,-119.731 267.698,-119.731"/>
</g>
<!-- Notification -->
<g id="node14" class="node"><title>Notification</title>
<ellipse fill="none" stroke="black" cx="328" cy="-19" rx="67.1751" ry="18.3848"/>
<text text-anchor="middle" x="328" y="-15.4" font-family="Times Roman,serif" font-size="14.00">Notification</text>
</g>
<!-- Folder&#45;&gt;Notification -->
<g id="edge8" class="edge"><title>Folder&#45;&gt;Notification</title>
<path fill="none" stroke="black" d="M324.638,-160.225C325.367,-129.587 326.557,-79.5873 327.309,-48.0338"/>
<ellipse fill="none" stroke="black" cx="324.539" cy="-164.38" rx="4" ry="4"/>
<polygon fill="black" stroke="black" points="327.317,-47.7014 332.053,-37.8114 327.436,-42.7028 327.555,-37.7042 327.555,-37.7042 327.555,-37.7042 327.436,-42.7028 323.056,-37.5971 327.317,-47.7014 327.317,-47.7014"/>
</g>
<!-- Topic&#45;&gt;Update -->
<g id="edge10" class="edge"><title>Topic&#45;&gt;Update</title>
<path fill="none" stroke="black" d="M236.314,-69.1399C234.106,-64.6408 231.641,-60.0952 229,-56 226.377,-51.9316 223.335,-47.8406 220.191,-43.9388"/>
<ellipse fill="none" stroke="black" cx="238.085" cy="-72.9527" rx="4.00002" ry="4.00002"/>
<polygon fill="black" stroke="black" points="220.156,-43.8974 217.133,-33.3566 216.927,-40.0803 213.697,-36.2633 213.697,-36.2633 213.697,-36.2633 216.927,-40.0803 210.262,-39.1699 220.156,-43.8974 220.156,-43.8974"/>
</g>
<!-- Topic&#45;&gt;Notification -->
<g id="edge14" class="edge"><title>Topic&#45;&gt;Notification</title>
<path fill="none" stroke="black" d="M270.705,-72.7583C280.435,-63.6291 291.736,-53.0253 301.718,-43.6597"/>
<ellipse fill="none" stroke="black" cx="267.493" cy="-75.7722" rx="4.00002" ry="4.00002"/>
<polygon fill="black" stroke="black" points="301.753,-43.6266 312.125,-40.0658 305.4,-40.2054 309.046,-36.7841 309.046,-36.7841 309.046,-36.7841 305.4,-40.2054 305.967,-33.5025 301.753,-43.6266 301.753,-43.6266"/>
</g>
<!-- Topic&#45;&gt;Attach -->
<g id="edge12" class="edge"><title>Topic&#45;&gt;Attach</title>
<path fill="none" stroke="black" d="M213.622,-78.9446C188.404,-66.8145 153.75,-50.1456 127.386,-37.464"/>
<ellipse fill="none" stroke="black" cx="217.305" cy="-80.7162" rx="4.00002" ry="4.00002"/>
<polygon fill="black" stroke="black" points="127.092,-37.3228 120.031,-28.9327 122.586,-35.1554 118.08,-32.988 118.08,-32.988 118.08,-32.988 122.586,-35.1554 116.13,-37.0432 127.092,-37.3228 127.092,-37.3228"/>
</g>
<!-- Deployment -->
<g id="node7" class="node"><title>Deployment</title>
<ellipse fill="none" stroke="black" cx="806" cy="-19" rx="70.9184" ry="18.3848"/>
<text text-anchor="middle" x="806" y="-15.4" font-family="Times Roman,serif" font-size="14.00">Deployment</text>
</g>
<!-- FundingRound -->
<g id="node8" class="node"><title>FundingRound</title>
<ellipse fill="none" stroke="black" cx="435" cy="-95" rx="80.8184" ry="18.3848"/>
<text text-anchor="middle" x="435" y="-91.4" font-family="Times Roman,serif" font-size="14.00">FundingRound</text>
</g>
<!-- EmploymentStatus -->
<g id="node9" class="node"><title>EmploymentStatus</title>
<ellipse fill="none" stroke="black" cx="1175" cy="-291" rx="104.151" ry="18.3848"/>
<text text-anchor="middle" x="1175" y="-287.4" font-family="Times Roman,serif" font-size="14.00">EmploymentStatus</text>
</g>
<!-- Research -->
<g id="node10" class="node"><title>Research</title>
<ellipse fill="none" stroke="black" cx="324" cy="-291" rx="55.8614" ry="18.3848"/>
<text text-anchor="middle" x="324" y="-287.4" font-family="Times Roman,serif" font-size="14.00">Research</text>
</g>
<!-- Research&#45;&gt;Folder -->
<g id="edge16" class="edge"><title>Research&#45;&gt;Folder</title>
<path fill="none" stroke="black" d="M324,-263.926C324,-249.224 324,-231.041 324,-216.044"/>
<ellipse fill="none" stroke="black" cx="324" cy="-268.407" rx="4" ry="4"/>
<polygon fill="black" stroke="black" points="324,-215.783 328.5,-205.783 324,-210.783 324,-205.783 324,-205.783 324,-205.783 324,-210.783 319.5,-205.783 324,-215.783 324,-215.783"/>
</g>
<!-- Person -->
<g id="node11" class="node"><title>Person</title>
<ellipse fill="none" stroke="black" cx="1009" cy="-291" rx="44.0472" ry="18.3848"/>
<text text-anchor="middle" x="1009" y="-287.4" font-family="Times Roman,serif" font-size="14.00">Person</text>
</g>
<!-- Assignment -->
<g id="node15" class="node"><title>Assignment</title>
<ellipse fill="none" stroke="black" cx="1128" cy="-19" rx="68.0887" ry="18.3848"/>
<text text-anchor="middle" x="1128" y="-15.4" font-family="Times Roman,serif" font-size="14.00">Assignment</text>
</g>
<!-- Person&#45;&gt;Assignment -->
<g id="edge22" class="edge"><title>Person&#45;&gt;Assignment</title>
<path fill="none" stroke="black" d="M1034.07,-268.695C1052.89,-251.834 1076.08,-230.797 1080,-226 1105.13,-195.233 1128.28,-127.377 1131,-114 1135.44,-92.1347 1134.36,-66.8643 1132.34,-47.8858"/>
<ellipse fill="none" stroke="black" cx="1030.86" cy="-271.557" rx="4.00002" ry="4.00002"/>
<polygon fill="black" stroke="black" points="1132.32,-47.7096 1135.59,-37.2415 1131.72,-42.7458 1131.12,-37.782 1131.12,-37.782 1131.12,-37.782 1131.72,-42.7458 1126.65,-38.3224 1132.32,-47.7096 1132.32,-47.7096"/>
</g>
<!-- Company -->
<g id="node16" class="node"><title>Company</title>
<ellipse fill="none" stroke="black" cx="696" cy="-187" rx="56.7776" ry="18.3848"/>
<text text-anchor="middle" x="696" y="-183.4" font-family="Times Roman,serif" font-size="14.00">Company</text>
</g>
<!-- Person&#45;&gt;Company -->
<g id="edge20" class="edge"><title>Person&#45;&gt;Company</title>
<path fill="none" stroke="black" d="M964.575,-276.239C906.753,-257.027 805.995,-223.548 745.693,-203.512"/>
<polygon fill="black" stroke="black" points="964.818,-276.32 972.889,-283.743 969.563,-277.896 974.308,-279.473 974.308,-279.473 974.308,-279.473 969.563,-277.896 975.727,-275.202 964.818,-276.32 964.818,-276.32"/>
<polygon fill="black" stroke="black" points="745.503,-203.448 737.432,-196.025 740.758,-201.872 736.013,-200.295 736.013,-200.295 736.013,-200.295 740.758,-201.872 734.594,-204.566 745.503,-203.448 745.503,-203.448"/>
</g>
<!-- Product -->
<g id="node18" class="node"><title>Product</title>
<ellipse fill="none" stroke="black" cx="1073" cy="-95" rx="48.9975" ry="18.3848"/>
<text text-anchor="middle" x="1073" y="-91.4" font-family="Times Roman,serif" font-size="14.00">Product</text>
</g>
<!-- Person&#45;&gt;Product -->
<g id="edge24" class="edge"><title>Person&#45;&gt;Product</title>
<path fill="none" stroke="black" d="M1034.71,-267.035C1049.62,-251.314 1066.99,-229.391 1075,-206 1084.17,-179.241 1082.17,-146.683 1078.79,-123.769"/>
<polygon fill="black" stroke="black" points="1034.65,-267.099 1024.43,-271.081 1031.14,-270.667 1027.64,-274.234 1027.64,-274.234 1027.64,-274.234 1031.14,-270.667 1030.85,-277.387 1034.65,-267.099 1034.65,-267.099"/>
<polygon fill="black" stroke="black" points="1078.75,-123.536 1081.56,-112.936 1077.94,-118.603 1077.12,-113.67 1077.12,-113.67 1077.12,-113.67 1077.94,-118.603 1072.68,-114.404 1078.75,-123.536 1078.75,-123.536"/>
</g>
<!-- EmploymentStatu -->
<g id="node28" class="node"><title>EmploymentStatu</title>
<ellipse fill="none" stroke="black" cx="907" cy="-95" rx="99.201" ry="18.3848"/>
<text text-anchor="middle" x="907" y="-91.4" font-family="Times Roman,serif" font-size="14.00">EmploymentStatu</text>
</g>
<!-- Person&#45;&gt;EmploymentStatu -->
<g id="edge18" class="edge"><title>Person&#45;&gt;EmploymentStatu</title>
<path fill="none" stroke="black" d="M978.246,-270.409C958.12,-255.144 933.19,-232.456 920,-206 907.221,-180.367 904.857,-147.386 905.146,-124.056"/>
<ellipse fill="none" stroke="black" cx="981.646" cy="-272.919" rx="4.00002" ry="4.00002"/>
<polygon fill="black" stroke="black" points="905.154,-123.76 909.95,-113.899 905.303,-118.763 905.452,-113.765 905.452,-113.765 905.452,-113.765 905.303,-118.763 900.954,-113.631 905.154,-123.76 905.154,-123.76"/>
<text text-anchor="middle" x="995.5" y="-183.4" font-family="Times Roman,serif" font-size="14.00">employment_statuses</text>
</g>
<!-- Office -->
<g id="node12" class="node"><title>Office</title>
<ellipse fill="none" stroke="black" cx="573" cy="-95" rx="39.0967" ry="18.3848"/>
<text text-anchor="middle" x="573" y="-91.4" font-family="Times Roman,serif" font-size="14.00">Office</text>
</g>
<!-- User -->
<g id="node13" class="node"><title>User</title>
<ellipse fill="none" stroke="black" cx="229" cy="-187" rx="33.9411" ry="18.3848"/>
<text text-anchor="middle" x="229" y="-183.4" font-family="Times Roman,serif" font-size="14.00">User</text>
</g>
<!-- User&#45;&gt;Update -->
<g id="edge28" class="edge"><title>User&#45;&gt;Update</title>
<path fill="none" stroke="black" d="M217.808,-161.166C212.367,-147.424 206.304,-130.084 203,-114 198.503,-92.1116 197.083,-66.8425 196.744,-47.8704"/>
<ellipse fill="none" stroke="black" cx="219.407" cy="-165.1" rx="4.00001" ry="4.00001"/>
<polygon fill="black" stroke="black" points="196.743,-47.7702 201.153,-37.7305 196.698,-42.7704 196.654,-37.7706 196.654,-37.7706 196.654,-37.7706 196.698,-42.7704 192.154,-37.8108 196.743,-47.7702 196.743,-47.7702"/>
</g>
<!-- User&#45;&gt;Topic -->
<g id="edge26" class="edge"><title>User&#45;&gt;Topic</title>
<path fill="none" stroke="black" d="M234.195,-160.447C236.443,-148.958 239.079,-135.485 241.373,-123.76"/>
<ellipse fill="none" stroke="black" cx="233.411" cy="-164.457" rx="4.00001" ry="4.00001"/>
<polygon fill="black" stroke="black" points="241.443,-123.404 247.779,-114.454 242.403,-118.497 243.363,-113.59 243.363,-113.59 243.363,-113.59 242.403,-118.497 238.947,-112.726 241.443,-123.404 241.443,-123.404"/>
</g>
<!-- Company&#45;&gt;StaffLevel -->
<g id="edge32" class="edge"><title>Company&#45;&gt;StaffLevel</title>
<path fill="none" stroke="black" d="M701.51,-160.329C703.729,-151.207 706.582,-141.031 710,-132 711.176,-128.893 712.543,-125.709 713.994,-122.574"/>
<ellipse fill="none" stroke="black" cx="700.555" cy="-164.45" rx="4.00001" ry="4.00001"/>
<polygon fill="black" stroke="black" points="714.07,-122.418 722.529,-115.439 716.282,-117.934 718.493,-113.449 718.493,-113.449 718.493,-113.449 716.282,-117.934 714.457,-111.459 714.07,-122.418 714.07,-122.418"/>
</g>
<!-- Company&#45;&gt;Deployment -->
<g id="edge38" class="edge"><title>Company&#45;&gt;Deployment</title>
<path fill="none" stroke="black" d="M676.029,-162.462C659.296,-138.724 640.824,-102.543 659,-76 669.426,-60.7754 709.643,-45.7771 745.38,-34.9896"/>
<ellipse fill="none" stroke="black" cx="678.533" cy="-165.879" rx="4.00002" ry="4.00002"/>
<polygon fill="black" stroke="black" points="745.72,-34.8893 756.585,-36.3783 750.516,-33.4756 755.312,-32.0619 755.312,-32.0619 755.312,-32.0619 750.516,-33.4756 754.04,-27.7455 745.72,-34.8893 745.72,-34.8893"/>
</g>
<!-- Company&#45;&gt;FundingRound -->
<g id="edge30" class="edge"><title>Company&#45;&gt;FundingRound</title>
<path fill="none" stroke="black" d="M649.417,-170.58C604.341,-154.691 536.072,-130.627 488.725,-113.937"/>
<ellipse fill="none" stroke="black" cx="653.435" cy="-171.996" rx="4.00001" ry="4.00001"/>
<polygon fill="black" stroke="black" points="488.683,-113.923 480.747,-106.354 483.967,-112.26 479.251,-110.598 479.251,-110.598 479.251,-110.598 483.967,-112.26 477.755,-114.842 488.683,-113.923 488.683,-113.923"/>
</g>
<!-- Company&#45;&gt;Office -->
<g id="edge36" class="edge"><title>Company&#45;&gt;Office</title>
<path fill="none" stroke="black" d="M655.162,-168.207C645.241,-162.899 634.927,-156.717 626,-150 614.462,-141.318 603.151,-130.071 593.96,-120.012"/>
<ellipse fill="none" stroke="black" cx="658.742" cy="-170.069" rx="4.00002" ry="4.00002"/>
<polygon fill="black" stroke="black" points="593.724,-119.746 590.444,-109.282 590.402,-116.008 587.081,-112.271 587.081,-112.271 587.081,-112.271 590.402,-116.008 583.717,-115.26 593.724,-119.746 593.724,-119.746"/>
</g>
<!-- Company&#45;&gt;Product -->
<g id="edge40" class="edge"><title>Company&#45;&gt;Product</title>
<path fill="none" stroke="black" d="M755.989,-176.027C792.298,-169.131 839.459,-159.723 881,-150 941.044,-135.946 955.899,-131.605 1015,-114 1018.78,-112.875 1022.68,-111.676 1026.59,-110.448"/>
<polygon fill="black" stroke="black" points="755.876,-176.048 745.215,-173.481 750.963,-176.975 746.05,-177.903 746.05,-177.903 746.05,-177.903 750.963,-176.975 746.885,-182.325 755.876,-176.048 755.876,-176.048"/>
<polygon fill="black" stroke="black" points="1026.75,-110.399 1037.64,-111.65 1031.51,-108.881 1036.28,-107.362 1036.28,-107.362 1036.28,-107.362 1031.51,-108.881 1034.91,-103.075 1026.75,-110.399 1026.75,-110.399"/>
</g>
<!-- Company&#45;&gt;EmploymentStatu -->
<g id="edge34" class="edge"><title>Company&#45;&gt;EmploymentStatu</title>
<path fill="none" stroke="black" d="M706.541,-160.953C712.044,-150.455 719.794,-139.158 730,-132 738.15,-126.285 781.67,-117.15 823.513,-109.388"/>
<ellipse fill="none" stroke="black" cx="704.676" cy="-164.788" rx="4.00002" ry="4.00002"/>
<polygon fill="black" stroke="black" points="823.69,-109.356 834.338,-111.976 828.607,-108.453 833.525,-107.55 833.525,-107.55 833.525,-107.55 828.607,-108.453 832.713,-103.124 823.69,-109.356 823.69,-109.356"/>
<text text-anchor="middle" x="805.5" y="-137.4" font-family="Times Roman,serif" font-size="14.00">employment_statuses</text>
</g>
<!-- Product&#45;&gt;Deployment -->
<g id="edge44" class="edge"><title>Product&#45;&gt;Deployment</title>
<path fill="none" stroke="black" d="M1028.6,-80.2029C1024.02,-78.7512 1019.42,-77.3262 1015,-76 965.308,-61.0948 908.486,-45.7029 866.645,-34.6765"/>
<ellipse fill="none" stroke="black" cx="1032.46" cy="-81.4388" rx="4.00001" ry="4.00001"/>
<polygon fill="black" stroke="black" points="866.554,-34.6527 858.026,-27.759 861.718,-33.382 856.883,-32.1113 856.883,-32.1113 856.883,-32.1113 861.718,-33.382 855.739,-36.4635 866.554,-34.6527 866.554,-34.6527"/>
</g>
<!-- Product&#45;&gt;Assignment -->
<g id="edge42" class="edge"><title>Product&#45;&gt;Assignment</title>
<path fill="none" stroke="black" d="M1090.92,-70.2387C1096.6,-62.391 1102.9,-53.6824 1108.67,-45.7044"/>
<ellipse fill="none" stroke="black" cx="1088.38" cy="-73.7486" rx="4.00002" ry="4.00002"/>
<polygon fill="black" stroke="black" points="1108.81,-45.5108 1118.32,-40.0478 1111.75,-41.4602 1114.68,-37.4096 1114.68,-37.4096 1114.68,-37.4096 1111.75,-41.4602 1111.03,-34.7714 1108.81,-45.5108 1108.81,-45.5108"/>
</g>
</g>
</svg>
