<?xml version="1.0" encoding="UTF-8" standalone="no"?>
<!DOCTYPE svg PUBLIC "-//W3C//DTD SVG 1.1//EN"
 "http://www.w3.org/Graphics/SVG/1.1/DTD/svg11.dtd">
<!-- Generated by graphviz version 2.26.3 (20100126.1600)
 -->
<!-- Title: models_diagram Pages: 1 -->
<svg width="1102pt" height="324pt"
 viewBox="0.00 0.00 1102.00 324.00" xmlns="http://www.w3.org/2000/svg" xmlns:xlink="http://www.w3.org/1999/xlink">
<g id="graph1" class="graph" transform="scale(1 1) rotate(0) translate(4 320)">
<title>models_diagram</title>
<polygon fill="white" stroke="white" points="-4,5 -4,-320 1099,-320 1099,5 -4,5"/>
<!-- _diagram_info -->
<g id="node1" class="node"><title>_diagram_info</title>
<text text-anchor="start" x="8" y="-299.8" font-family="Times Roman,serif" font-size="13.00">Models diagram</text>
<text text-anchor="start" x="8" y="-282.8" font-family="Times Roman,serif" font-size="13.00">Date: Oct 08 2011 &#45; 14:17</text>
<text text-anchor="start" x="8" y="-265.8" font-family="Times Roman,serif" font-size="13.00">Migration version: 20111008021123</text>
<text text-anchor="start" x="8" y="-248.8" font-family="Times Roman,serif" font-size="13.00">Generated by RailRoady 1.0.2</text>
<text text-anchor="start" x="8" y="-231.8" font-family="Times Roman,serif" font-size="13.00">http://railroady.prestonlee.com</text>
</g>
<!-- Update -->
<g id="node2" class="node"><title>Update</title>
<ellipse fill="none" stroke="black" cx="419" cy="-93" rx="46.1672" ry="18.3848"/>
<text text-anchor="middle" x="419" y="-89.4" font-family="Times Roman,serif" font-size="14.00">Update</text>
</g>
<!-- StaffLevel -->
<g id="node3" class="node"><title>StaffLevel</title>
<ellipse fill="none" stroke="black" cx="759" cy="-19" rx="60.8112" ry="18.3848"/>
<text text-anchor="middle" x="759" y="-15.4" font-family="Times Roman,serif" font-size="14.00">StaffLevel</text>
</g>
<!-- Folder -->
<g id="node4" class="node"><title>Folder</title>
<ellipse fill="none" stroke="black" cx="309" cy="-269" rx="41.2167" ry="18.3848"/>
<text text-anchor="middle" x="309" y="-265.4" font-family="Times Roman,serif" font-size="14.00">Folder</text>
</g>
<!-- Topic -->
<g id="node5" class="node"><title>Topic</title>
<ellipse fill="none" stroke="black" cx="406" cy="-167" rx="34.8574" ry="18.3848"/>
<text text-anchor="middle" x="406" y="-163.4" font-family="Times Roman,serif" font-size="14.00">Topic</text>
</g>
<!-- Folder&#45;&gt;Topic -->
<g id="edge2" class="edge"><title>Folder&#45;&gt;Topic</title>
<path fill="none" stroke="black" d="M331.264,-245.588C346.712,-229.344 367.24,-207.758 382.872,-191.32"/>
<ellipse fill="none" stroke="black" cx="328.211" cy="-248.798" rx="4.00002" ry="4.00002"/>
<polygon fill="black" stroke="black" points="383.218,-190.956 393.371,-186.81 386.664,-187.333 390.11,-183.709 390.11,-183.709 390.11,-183.709 386.664,-187.333 386.849,-180.608 383.218,-190.956 383.218,-190.956"/>
</g>
<!-- Notification -->
<g id="node10" class="node"><title>Notification</title>
<ellipse fill="none" stroke="black" cx="286" cy="-167" rx="67.1751" ry="18.3848"/>
<text text-anchor="middle" x="286" y="-163.4" font-family="Times Roman,serif" font-size="14.00">Notification</text>
</g>
<!-- Folder&#45;&gt;Notification -->
<g id="edge4" class="edge"><title>Folder&#45;&gt;Notification</title>
<path fill="none" stroke="black" d="M302.915,-242.015C299.686,-227.696 295.719,-210.103 292.439,-195.555"/>
<ellipse fill="none" stroke="black" cx="303.902" cy="-246.39" rx="4.00001" ry="4.00001"/>
<polygon fill="black" stroke="black" points="292.392,-195.345 294.582,-184.6 291.292,-190.467 290.192,-185.59 290.192,-185.59 290.192,-185.59 291.292,-190.467 285.802,-186.58 292.392,-195.345 292.392,-195.345"/>
</g>
<!-- Topic&#45;&gt;Update -->
<g id="edge6" class="edge"><title>Topic&#45;&gt;Update</title>
<path fill="none" stroke="black" d="M410.689,-140.309C411.757,-134.229 412.896,-127.745 413.978,-121.589"/>
<ellipse fill="none" stroke="black" cx="409.973" cy="-144.387" rx="4.00001" ry="4.00001"/>
<polygon fill="black" stroke="black" points="413.99,-121.517 420.153,-112.446 414.855,-116.592 415.721,-111.667 415.721,-111.667 415.721,-111.667 414.855,-116.592 411.288,-110.889 413.99,-121.517 413.99,-121.517"/>
</g>
<!-- Deployment -->
<g id="node6" class="node"><title>Deployment</title>
<ellipse fill="none" stroke="black" cx="429" cy="-19" rx="70.9184" ry="18.3848"/>
<text text-anchor="middle" x="429" y="-15.4" font-family="Times Roman,serif" font-size="14.00">Deployment</text>
</g>
<!-- FundingRound -->
<g id="node7" class="node"><title>FundingRound</title>
<ellipse fill="none" stroke="black" cx="599" cy="-19" rx="80.8184" ry="18.3848"/>
<text text-anchor="middle" x="599" y="-15.4" font-family="Times Roman,serif" font-size="14.00">FundingRound</text>
</g>
<!-- Person -->
<g id="node8" class="node"><title>Person</title>
<ellipse fill="none" stroke="black" cx="813" cy="-167" rx="44.0472" ry="18.3848"/>
<text text-anchor="middle" x="813" y="-163.4" font-family="Times Roman,serif" font-size="14.00">Person</text>
</g>
<!-- Assignment -->
<g id="node11" class="node"><title>Assignment</title>
<ellipse fill="none" stroke="black" cx="813" cy="-93" rx="68.0887" ry="18.3848"/>
<text text-anchor="middle" x="813" y="-89.4" font-family="Times Roman,serif" font-size="14.00">Assignment</text>
</g>
<!-- Person&#45;&gt;Assignment -->
<g id="edge12" class="edge"><title>Person&#45;&gt;Assignment</title>
<path fill="none" stroke="black" d="M813,-140.309C813,-134.377 813,-128.061 813,-122.04"/>
<ellipse fill="none" stroke="black" cx="813" cy="-144.327" rx="4" ry="4"/>
<polygon fill="black" stroke="black" points="813,-121.667 817.5,-111.667 813,-116.667 813,-111.667 813,-111.667 813,-111.667 813,-116.667 808.5,-111.667 813,-121.667 813,-121.667"/>
</g>
<!-- Company -->
<g id="node12" class="node"><title>Company</title>
<ellipse fill="none" stroke="black" cx="670" cy="-93" rx="56.7776" ry="18.3848"/>
<text text-anchor="middle" x="670" y="-89.4" font-family="Times Roman,serif" font-size="14.00">Company</text>
</g>
<!-- Person&#45;&gt;Company -->
<g id="edge10" class="edge"><title>Person&#45;&gt;Company</title>
<path fill="none" stroke="black" d="M776.1,-147.905C755.6,-137.297 730.101,-124.101 709.239,-113.305"/>
<polygon fill="black" stroke="black" points="776.207,-147.96 783.021,-156.553 780.648,-150.258 785.089,-152.556 785.089,-152.556 785.089,-152.556 780.648,-150.258 787.157,-148.56 776.207,-147.96 776.207,-147.96"/>
<polygon fill="black" stroke="black" points="709.194,-113.282 702.381,-104.69 704.754,-110.984 700.313,-108.686 700.313,-108.686 700.313,-108.686 704.754,-110.984 698.245,-112.683 709.194,-113.282 709.194,-113.282"/>
</g>
<!-- Employment -->
<g id="node18" class="node"><title>Employment</title>
<ellipse fill="none" stroke="black" cx="1021" cy="-19" rx="72.832" ry="18.3848"/>
<text text-anchor="middle" x="1021" y="-15.4" font-family="Times Roman,serif" font-size="14.00">Employment</text>
</g>
<!-- Person&#45;&gt;Employment -->
<g id="edge8" class="edge"><title>Person&#45;&gt;Employment</title>
<path fill="none" stroke="black" d="M847.894,-148.287C865.951,-138.182 888.11,-125.114 907,-112 937.646,-90.7244 970.433,-63.4519 992.941,-43.9516"/>
<ellipse fill="none" stroke="black" cx="843.926" cy="-150.488" rx="4.00002" ry="4.00002"/>
<polygon fill="black" stroke="black" points="993.209,-43.7177 1003.7,-40.5357 996.977,-40.4311 1000.74,-37.1445 1000.74,-37.1445 1000.74,-37.1445 996.977,-40.4311 997.787,-33.7532 993.209,-43.7177 993.209,-43.7177"/>
</g>
<!-- Project -->
<g id="node22" class="node"><title>Project</title>
<ellipse fill="none" stroke="black" cx="884" cy="-19" rx="45.9619" ry="18.3848"/>
<text text-anchor="middle" x="884" y="-15.4" font-family="Times Roman,serif" font-size="14.00">Project</text>
</g>
<!-- Person&#45;&gt;Project -->
<g id="edge14" class="edge"><title>Person&#45;&gt;Project</title>
<path fill="none" stroke="black" d="M852.785,-148.635C867.233,-139.763 881.97,-127.605 890,-112 900.229,-92.1229 897.669,-66.6113 893.145,-47.3375"/>
<polygon fill="black" stroke="black" points="852.565,-148.761 841.651,-149.831 848.227,-151.248 843.889,-153.735 843.889,-153.735 843.889,-153.735 848.227,-151.248 846.127,-157.639 852.565,-148.761 852.565,-148.761"/>
<polygon fill="black" stroke="black" points="893.132,-47.2874 894.929,-36.4698 891.855,-42.4532 890.578,-37.6189 890.578,-37.6189 890.578,-37.6189 891.855,-42.4532 886.227,-38.768 893.132,-47.2874 893.132,-47.2874"/>
</g>
<!-- User -->
<g id="node9" class="node"><title>User</title>
<ellipse fill="none" stroke="black" cx="447" cy="-269" rx="33.9411" ry="18.3848"/>
<text text-anchor="middle" x="447" y="-265.4" font-family="Times Roman,serif" font-size="14.00">User</text>
</g>
<!-- User&#45;&gt;Update -->
<g id="edge18" class="edge"><title>User&#45;&gt;Update</title>
<path fill="none" stroke="black" d="M451.849,-242.381C455.399,-217.532 458.302,-179.636 450,-148 447.398,-138.086 442.561,-128.075 437.468,-119.362"/>
<ellipse fill="none" stroke="black" cx="451.192" cy="-246.642" rx="4.00001" ry="4.00001"/>
<polygon fill="black" stroke="black" points="437.431,-119.303 435.973,-108.434 434.791,-115.056 432.151,-110.81 432.151,-110.81 432.151,-110.81 434.791,-115.056 428.33,-113.186 437.431,-119.303 437.431,-119.303"/>
</g>
<!-- User&#45;&gt;Topic -->
<g id="edge16" class="edge"><title>User&#45;&gt;Topic</title>
<path fill="none" stroke="black" d="M436.522,-242.934C430.593,-228.182 423.179,-209.737 417.143,-194.721"/>
<ellipse fill="none" stroke="black" cx="438.178" cy="-247.053" rx="4.00001" ry="4.00001"/>
<polygon fill="black" stroke="black" points="417.134,-194.7 417.58,-183.743 415.27,-190.061 413.405,-185.422 413.405,-185.422 413.405,-185.422 415.27,-190.061 409.229,-187.1 417.134,-194.7 417.134,-194.7"/>
</g>
<!-- Company&#45;&gt;StaffLevel -->
<g id="edge22" class="edge"><title>Company&#45;&gt;StaffLevel</title>
<path fill="none" stroke="black" d="M697.316,-70.2882C707.765,-61.5996 719.709,-51.6691 730.285,-42.875"/>
<ellipse fill="none" stroke="black" cx="694.167" cy="-72.9057" rx="4.00002" ry="4.00002"/>
<polygon fill="black" stroke="black" points="730.37,-42.8045 740.937,-39.8713 734.215,-39.6078 738.06,-36.4111 738.06,-36.4111 738.06,-36.4111 734.215,-39.6078 735.183,-32.9509 730.37,-42.8045 730.37,-42.8045"/>
</g>
<!-- Company&#45;&gt;Deployment -->
<g id="edge26" class="edge"><title>Company&#45;&gt;Deployment</title>
<path fill="none" stroke="black" d="M620.837,-77.9042C581.374,-65.787 525.961,-48.7722 484.831,-36.1431"/>
<ellipse fill="none" stroke="black" cx="624.747" cy="-79.1048" rx="4.00001" ry="4.00001"/>
<polygon fill="black" stroke="black" points="484.789,-36.1304 476.551,-28.8933 480.01,-34.6628 475.23,-33.1951 475.23,-33.1951 475.23,-33.1951 480.01,-34.6628 473.909,-37.4969 484.789,-36.1304 484.789,-36.1304"/>
</g>
<!-- Company&#45;&gt;FundingRound -->
<g id="edge20" class="edge"><title>Company&#45;&gt;FundingRound</title>
<path fill="none" stroke="black" d="M647.167,-69.2021C639.715,-61.435 631.405,-52.7745 623.815,-44.8632"/>
<ellipse fill="none" stroke="black" cx="650.044" cy="-72.2003" rx="4.00002" ry="4.00002"/>
<polygon fill="black" stroke="black" points="623.445,-44.4783 619.769,-34.147 619.984,-40.8704 616.522,-37.2625 616.522,-37.2625 616.522,-37.2625 619.984,-40.8704 613.275,-40.378 623.445,-44.4783 623.445,-44.4783"/>
</g>
<!-- Company&#45;&gt;Employment -->
<g id="edge24" class="edge"><title>Company&#45;&gt;Employment</title>
<path fill="none" stroke="black" d="M719.699,-78.0916C725.179,-76.6275 730.693,-75.2308 736,-74 825.261,-53.2972 849.226,-56.3479 939,-38 945.107,-36.7518 951.456,-35.3921 957.796,-33.9926"/>
<ellipse fill="none" stroke="black" cx="715.583" cy="-79.2178" rx="4.00001" ry="4.00001"/>
<polygon fill="black" stroke="black" points="957.958,-33.9565 968.699,-36.1623 962.837,-32.8638 967.716,-31.771 967.716,-31.771 967.716,-31.771 962.837,-32.8638 966.732,-27.3798 957.958,-33.9565 957.958,-33.9565"/>
</g>
<!-- Company&#45;&gt;Project -->
<g id="edge28" class="edge"><title>Company&#45;&gt;Project</title>
<path fill="none" stroke="black" d="M718.731,-76.1492C754.992,-63.6102 804.1,-46.629 839.347,-34.4409"/>
<polygon fill="black" stroke="black" points="718.702,-76.1591 707.78,-75.1743 713.976,-77.7932 709.251,-79.4273 709.251,-79.4273 709.251,-79.4273 713.976,-77.7932 710.722,-83.6802 718.702,-76.1591 718.702,-76.1591"/>
<polygon fill="black" stroke="black" points="839.447,-34.4062 850.369,-35.3909 844.173,-32.7721 848.898,-31.138 848.898,-31.138 848.898,-31.138 844.173,-32.7721 847.427,-26.8851 839.447,-34.4062 839.447,-34.4062"/>
</g>
<!-- Product -->
<g id="node13" class="node"><title>Product</title>
<ellipse fill="none" stroke="black" cx="709" cy="-269" rx="48.9975" ry="18.3848"/>
<text text-anchor="middle" x="709" y="-265.4" font-family="Times Roman,serif" font-size="14.00">Product</text>
</g>
<!-- Product&#45;&gt;Deployment -->
<g id="edge34" class="edge"><title>Product&#45;&gt;Deployment</title>
<path fill="none" stroke="black" d="M683.737,-246.444C631.317,-199.64 511.09,-92.2942 456.666,-43.7019"/>
<ellipse fill="none" stroke="black" cx="686.771" cy="-249.152" rx="4.00002" ry="4.00002"/>
<polygon fill="black" stroke="black" points="456.589,-43.6333 452.127,-33.6164 452.86,-40.3032 449.13,-36.9731 449.13,-36.9731 449.13,-36.9731 452.86,-40.3032 446.133,-40.3298 456.589,-43.6333 456.589,-43.6333"/>
</g>
<!-- Product&#45;&gt;Person -->
<g id="edge32" class="edge"><title>Product&#45;&gt;Person</title>
<path fill="none" stroke="black" d="M733.838,-244.64C750.365,-228.43 771.983,-207.228 788.451,-191.077"/>
<polygon fill="black" stroke="black" points="733.782,-244.695 723.491,-248.484 730.212,-248.196 726.642,-251.697 726.642,-251.697 726.642,-251.697 730.212,-248.196 729.793,-254.91 733.782,-244.695 733.782,-244.695"/>
<polygon fill="black" stroke="black" points="788.479,-191.049 798.769,-187.26 792.049,-187.548 795.618,-184.047 795.618,-184.047 795.618,-184.047 792.049,-187.548 792.467,-180.835 788.479,-191.049 788.479,-191.049"/>
</g>
<!-- Product&#45;&gt;Assignment -->
<g id="edge30" class="edge"><title>Product&#45;&gt;Assignment</title>
<path fill="none" stroke="black" d="M716.997,-242.557C725.411,-217.07 740.185,-178.054 760,-148 767.071,-137.275 776.38,-126.791 785.221,-117.902"/>
<ellipse fill="none" stroke="black" cx="715.719" cy="-246.521" rx="4.00001" ry="4.00001"/>
<polygon fill="black" stroke="black" points="785.311,-117.814 795.616,-114.064 788.894,-114.326 792.477,-110.839 792.477,-110.839 792.477,-110.839 788.894,-114.326 789.339,-107.614 785.311,-117.814 785.311,-117.814"/>
</g>
<!-- Product&#45;&gt;Company -->
<g id="edge36" class="edge"><title>Product&#45;&gt;Company</title>
<path fill="none" stroke="black" d="M702.692,-240.532C695.422,-207.726 683.548,-154.137 676.287,-121.372"/>
<polygon fill="black" stroke="black" points="702.737,-240.734 700.507,-251.471 703.818,-245.616 704.9,-250.498 704.9,-250.498 704.9,-250.498 703.818,-245.616 709.293,-249.524 702.737,-240.734 702.737,-240.734"/>
<polygon fill="black" stroke="black" points="676.267,-121.282 678.497,-110.545 675.185,-116.4 674.104,-111.519 674.104,-111.519 674.104,-111.519 675.185,-116.4 669.71,-112.492 676.267,-121.282 676.267,-121.282"/>
</g>
</g>
</svg>
