<?xml version="1.0" encoding="UTF-8" standalone="no"?>
<!DOCTYPE svg PUBLIC "-//W3C//DTD SVG 1.1//EN"
 "http://www.w3.org/Graphics/SVG/1.1/DTD/svg11.dtd">
<!-- Generated by graphviz version 2.26.3 (20100126.1600)
 -->
<!-- Title: models_diagram Pages: 1 -->
<svg width="1307pt" height="818pt"
 viewBox="0.00 0.00 1307.00 818.00" xmlns="http://www.w3.org/2000/svg" xmlns:xlink="http://www.w3.org/1999/xlink">
<g id="graph1" class="graph" transform="scale(1 1) rotate(0) translate(4 814)">
<title>models_diagram</title>
<polygon fill="white" stroke="white" points="-4,5 -4,-814 1304,-814 1304,5 -4,5"/>
<!-- _diagram_info -->
<g id="node1" class="node"><title>_diagram_info</title>
<text text-anchor="start" x="8" y="-678.8" font-family="Times Roman,serif" font-size="13.00">Models diagram</text>
<text text-anchor="start" x="8" y="-661.8" font-family="Times Roman,serif" font-size="13.00">Date: Oct 08 2011 &#45; 14:17</text>
<text text-anchor="start" x="8" y="-644.8" font-family="Times Roman,serif" font-size="13.00">Migration version: 20111008021123</text>
<text text-anchor="start" x="8" y="-627.8" font-family="Times Roman,serif" font-size="13.00">Generated by RailRoady 1.0.2</text>
<text text-anchor="start" x="8" y="-610.8" font-family="Times Roman,serif" font-size="13.00">http://railroady.prestonlee.com</text>
</g>
<!-- Update -->
<g id="node2" class="node"><title>Update</title>
<polyline fill="none" stroke="black" points="467,-154 627,-154 "/>
<path fill="none" stroke="black" d="M627,-154C633,-154 639,-160 639,-166"/>
<polyline fill="none" stroke="black" points="639,-166 639,-248 "/>
<path fill="none" stroke="black" d="M639,-248C639,-254 633,-260 627,-260"/>
<polyline fill="none" stroke="black" points="627,-260 467,-260 "/>
<path fill="none" stroke="black" d="M467,-260C461,-260 455,-254 455,-248"/>
<polyline fill="none" stroke="black" points="455,-248 455,-166 "/>
<path fill="none" stroke="black" d="M455,-166C455,-160 461,-154 467,-154"/>
<text text-anchor="middle" x="547" y="-243.4" font-family="Times Roman,serif" font-size="14.00">Update</text>
<polyline fill="none" stroke="black" points="455,-234 639,-234 "/>
<text text-anchor="start" x="463" y="-217.4" font-family="Times Roman,serif" font-size="14.00">type_of_update :string</text>
<text text-anchor="start" x="463" y="-199.4" font-family="Times Roman,serif" font-size="14.00">created_at :datetime</text>
<text text-anchor="start" x="463" y="-181.4" font-family="Times Roman,serif" font-size="14.00">updated_at :datetime</text>
<text text-anchor="start" x="463" y="-163.4" font-family="Times Roman,serif" font-size="14.00">progress_status :integer</text>
</g>
<!-- StaffLevel -->
<g id="node3" class="node"><title>StaffLevel</title>
<polyline fill="none" stroke="black" points="848.5,-1 1013.5,-1 "/>
<path fill="none" stroke="black" d="M1013.5,-1C1019.5,-1 1025.5,-7 1025.5,-13"/>
<polyline fill="none" stroke="black" points="1025.5,-13 1025.5,-95 "/>
<path fill="none" stroke="black" d="M1025.5,-95C1025.5,-101 1019.5,-107 1013.5,-107"/>
<polyline fill="none" stroke="black" points="1013.5,-107 848.5,-107 "/>
<path fill="none" stroke="black" d="M848.5,-107C842.5,-107 836.5,-101 836.5,-95"/>
<polyline fill="none" stroke="black" points="836.5,-95 836.5,-13 "/>
<path fill="none" stroke="black" d="M836.5,-13C836.5,-7 842.5,-1 848.5,-1"/>
<text text-anchor="middle" x="931" y="-90.4" font-family="Times Roman,serif" font-size="14.00">StaffLevel</text>
<polyline fill="none" stroke="black" points="836.5,-81 1025.5,-81 "/>
<text text-anchor="start" x="844.5" y="-64.4" font-family="Times Roman,serif" font-size="14.00">date_of_record :datetime</text>
<text text-anchor="start" x="844.5" y="-46.4" font-family="Times Roman,serif" font-size="14.00">staff_number :integer</text>
<text text-anchor="start" x="844.5" y="-28.4" font-family="Times Roman,serif" font-size="14.00">created_at :datetime</text>
<text text-anchor="start" x="844.5" y="-10.4" font-family="Times Roman,serif" font-size="14.00">updated_at :datetime</text>
</g>
<!-- Folder -->
<g id="node4" class="node"><title>Folder</title>
<polyline fill="none" stroke="black" points="279.5,-604 420.5,-604 "/>
<path fill="none" stroke="black" d="M420.5,-604C426.5,-604 432.5,-610 432.5,-616"/>
<polyline fill="none" stroke="black" points="432.5,-616 432.5,-680 "/>
<path fill="none" stroke="black" d="M432.5,-680C432.5,-686 426.5,-692 420.5,-692"/>
<polyline fill="none" stroke="black" points="420.5,-692 279.5,-692 "/>
<path fill="none" stroke="black" d="M279.5,-692C273.5,-692 267.5,-686 267.5,-680"/>
<polyline fill="none" stroke="black" points="267.5,-680 267.5,-616 "/>
<path fill="none" stroke="black" d="M267.5,-616C267.5,-610 273.5,-604 279.5,-604"/>
<text text-anchor="middle" x="350" y="-675.4" font-family="Times Roman,serif" font-size="14.00">Folder</text>
<polyline fill="none" stroke="black" points="267.5,-666 432.5,-666 "/>
<text text-anchor="start" x="275.5" y="-649.4" font-family="Times Roman,serif" font-size="14.00">title :string</text>
<text text-anchor="start" x="275.5" y="-631.4" font-family="Times Roman,serif" font-size="14.00">created_at :datetime</text>
<text text-anchor="start" x="275.5" y="-613.4" font-family="Times Roman,serif" font-size="14.00">updated_at :datetime</text>
</g>
<!-- Topic -->
<g id="node5" class="node"><title>Topic</title>
<polyline fill="none" stroke="black" points="452.5,-307 593.5,-307 "/>
<path fill="none" stroke="black" d="M593.5,-307C599.5,-307 605.5,-313 605.5,-319"/>
<polyline fill="none" stroke="black" points="605.5,-319 605.5,-437 "/>
<path fill="none" stroke="black" d="M605.5,-437C605.5,-443 599.5,-449 593.5,-449"/>
<polyline fill="none" stroke="black" points="593.5,-449 452.5,-449 "/>
<path fill="none" stroke="black" d="M452.5,-449C446.5,-449 440.5,-443 440.5,-437"/>
<polyline fill="none" stroke="black" points="440.5,-437 440.5,-319 "/>
<path fill="none" stroke="black" d="M440.5,-319C440.5,-313 446.5,-307 452.5,-307"/>
<text text-anchor="middle" x="523" y="-432.4" font-family="Times Roman,serif" font-size="14.00">Topic</text>
<polyline fill="none" stroke="black" points="440.5,-423 605.5,-423 "/>
<text text-anchor="start" x="448.5" y="-406.4" font-family="Times Roman,serif" font-size="14.00">title :string</text>
<text text-anchor="start" x="448.5" y="-388.4" font-family="Times Roman,serif" font-size="14.00">content :text</text>
<text text-anchor="start" x="448.5" y="-370.4" font-family="Times Roman,serif" font-size="14.00">created_at :datetime</text>
<text text-anchor="start" x="448.5" y="-352.4" font-family="Times Roman,serif" font-size="14.00">updated_at :datetime</text>
<text text-anchor="start" x="448.5" y="-334.4" font-family="Times Roman,serif" font-size="14.00">progress :integer</text>
<text text-anchor="start" x="448.5" y="-316.4" font-family="Times Roman,serif" font-size="14.00">version :string</text>
</g>
<!-- Folder&#45;&gt;Topic -->
<g id="edge2" class="edge"><title>Folder&#45;&gt;Topic</title>
<path fill="none" stroke="black" d="M382.732,-596.915C407.865,-557.691 443.033,-502.804 471.867,-457.803"/>
<ellipse fill="none" stroke="black" cx="380.532" cy="-600.349" rx="4.00002" ry="4.00002"/>
<polygon fill="black" stroke="black" points="471.964,-457.652 481.148,-451.66 474.661,-453.442 477.359,-449.232 477.359,-449.232 477.359,-449.232 474.661,-453.442 473.57,-446.804 471.964,-457.652 471.964,-457.652"/>
</g>
<!-- Notification -->
<g id="node10" class="node"><title>Notification</title>
<polyline fill="none" stroke="black" points="232.5,-334 411.5,-334 "/>
<path fill="none" stroke="black" d="M411.5,-334C417.5,-334 423.5,-340 423.5,-346"/>
<polyline fill="none" stroke="black" points="423.5,-346 423.5,-410 "/>
<path fill="none" stroke="black" d="M423.5,-410C423.5,-416 417.5,-422 411.5,-422"/>
<polyline fill="none" stroke="black" points="411.5,-422 232.5,-422 "/>
<path fill="none" stroke="black" d="M232.5,-422C226.5,-422 220.5,-416 220.5,-410"/>
<polyline fill="none" stroke="black" points="220.5,-410 220.5,-346 "/>
<path fill="none" stroke="black" d="M220.5,-346C220.5,-340 226.5,-334 232.5,-334"/>
<text text-anchor="middle" x="322" y="-405.4" font-family="Times Roman,serif" font-size="14.00">Notification</text>
<polyline fill="none" stroke="black" points="220.5,-396 423.5,-396 "/>
<text text-anchor="start" x="228.5" y="-379.4" font-family="Times Roman,serif" font-size="14.00">next_notification :datetime</text>
<text text-anchor="start" x="228.5" y="-361.4" font-family="Times Roman,serif" font-size="14.00">created_at :datetime</text>
<text text-anchor="start" x="228.5" y="-343.4" font-family="Times Roman,serif" font-size="14.00">updated_at :datetime</text>
</g>
<!-- Folder&#45;&gt;Notification -->
<g id="edge4" class="edge"><title>Folder&#45;&gt;Notification</title>
<path fill="none" stroke="black" d="M344.56,-595.539C339.689,-548.572 332.575,-479.974 327.643,-432.418"/>
<ellipse fill="none" stroke="black" cx="344.995" cy="-599.739" rx="4" ry="4"/>
<polygon fill="black" stroke="black" points="327.626,-432.254 331.071,-421.843 327.111,-427.28 326.595,-422.307 326.595,-422.307 326.595,-422.307 327.111,-427.28 322.119,-422.771 327.626,-432.254 327.626,-432.254"/>
</g>
<!-- Topic&#45;&gt;Update -->
<g id="edge6" class="edge"><title>Topic&#45;&gt;Update</title>
<path fill="none" stroke="black" d="M534.112,-298.827C535.465,-289.184 536.834,-279.433 538.148,-270.068"/>
<ellipse fill="none" stroke="black" cx="533.526" cy="-303.005" rx="4.00001" ry="4.00001"/>
<polygon fill="black" stroke="black" points="538.16,-269.984 544.006,-260.707 538.855,-265.033 539.55,-260.081 539.55,-260.081 539.55,-260.081 538.855,-265.033 535.094,-259.456 538.16,-269.984 538.16,-269.984"/>
</g>
<!-- Deployment -->
<g id="node6" class="node"><title>Deployment</title>
<polyline fill="none" stroke="black" points="460.5,-19 601.5,-19 "/>
<path fill="none" stroke="black" d="M601.5,-19C607.5,-19 613.5,-25 613.5,-31"/>
<polyline fill="none" stroke="black" points="613.5,-31 613.5,-77 "/>
<path fill="none" stroke="black" d="M613.5,-77C613.5,-83 607.5,-89 601.5,-89"/>
<polyline fill="none" stroke="black" points="601.5,-89 460.5,-89 "/>
<path fill="none" stroke="black" d="M460.5,-89C454.5,-89 448.5,-83 448.5,-77"/>
<polyline fill="none" stroke="black" points="448.5,-77 448.5,-31 "/>
<path fill="none" stroke="black" d="M448.5,-31C448.5,-25 454.5,-19 460.5,-19"/>
<text text-anchor="middle" x="531" y="-72.4" font-family="Times Roman,serif" font-size="14.00">Deployment</text>
<polyline fill="none" stroke="black" points="448.5,-63 613.5,-63 "/>
<text text-anchor="start" x="456.5" y="-46.4" font-family="Times Roman,serif" font-size="14.00">created_at :datetime</text>
<text text-anchor="start" x="456.5" y="-28.4" font-family="Times Roman,serif" font-size="14.00">updated_at :datetime</text>
</g>
<!-- FundingRound -->
<g id="node7" class="node"><title>FundingRound</title>
<polyline fill="none" stroke="black" points="642.5,-1 807.5,-1 "/>
<path fill="none" stroke="black" d="M807.5,-1C813.5,-1 819.5,-7 819.5,-13"/>
<polyline fill="none" stroke="black" points="819.5,-13 819.5,-95 "/>
<path fill="none" stroke="black" d="M819.5,-95C819.5,-101 813.5,-107 807.5,-107"/>
<polyline fill="none" stroke="black" points="807.5,-107 642.5,-107 "/>
<path fill="none" stroke="black" d="M642.5,-107C636.5,-107 630.5,-101 630.5,-95"/>
<polyline fill="none" stroke="black" points="630.5,-95 630.5,-13 "/>
<path fill="none" stroke="black" d="M630.5,-13C630.5,-7 636.5,-1 642.5,-1"/>
<text text-anchor="middle" x="725" y="-90.4" font-family="Times Roman,serif" font-size="14.00">FundingRound</text>
<polyline fill="none" stroke="black" points="630.5,-81 819.5,-81 "/>
<text text-anchor="start" x="638.5" y="-64.4" font-family="Times Roman,serif" font-size="14.00">date_of_record :datetime</text>
<text text-anchor="start" x="638.5" y="-46.4" font-family="Times Roman,serif" font-size="14.00">money :integer</text>
<text text-anchor="start" x="638.5" y="-28.4" font-family="Times Roman,serif" font-size="14.00">created_at :datetime</text>
<text text-anchor="start" x="638.5" y="-10.4" font-family="Times Roman,serif" font-size="14.00">updated_at :datetime</text>
</g>
<!-- Person -->
<g id="node8" class="node"><title>Person</title>
<polyline fill="none" stroke="black" points="933.5,-334 1074.5,-334 "/>
<path fill="none" stroke="black" d="M1074.5,-334C1080.5,-334 1086.5,-340 1086.5,-346"/>
<polyline fill="none" stroke="black" points="1086.5,-346 1086.5,-410 "/>
<path fill="none" stroke="black" d="M1086.5,-410C1086.5,-416 1080.5,-422 1074.5,-422"/>
<polyline fill="none" stroke="black" points="1074.5,-422 933.5,-422 "/>
<path fill="none" stroke="black" d="M933.5,-422C927.5,-422 921.5,-416 921.5,-410"/>
<polyline fill="none" stroke="black" points="921.5,-410 921.5,-346 "/>
<path fill="none" stroke="black" d="M921.5,-346C921.5,-340 927.5,-334 933.5,-334"/>
<text text-anchor="middle" x="1004" y="-405.4" font-family="Times Roman,serif" font-size="14.00">Person</text>
<polyline fill="none" stroke="black" points="921.5,-396 1086.5,-396 "/>
<text text-anchor="start" x="929.5" y="-379.4" font-family="Times Roman,serif" font-size="14.00">name :string</text>
<text text-anchor="start" x="929.5" y="-361.4" font-family="Times Roman,serif" font-size="14.00">created_at :datetime</text>
<text text-anchor="start" x="929.5" y="-343.4" font-family="Times Roman,serif" font-size="14.00">updated_at :datetime</text>
</g>
<!-- Assignment -->
<g id="node11" class="node"><title>Assignment</title>
<polyline fill="none" stroke="black" points="933.5,-172 1074.5,-172 "/>
<path fill="none" stroke="black" d="M1074.5,-172C1080.5,-172 1086.5,-178 1086.5,-184"/>
<polyline fill="none" stroke="black" points="1086.5,-184 1086.5,-230 "/>
<path fill="none" stroke="black" d="M1086.5,-230C1086.5,-236 1080.5,-242 1074.5,-242"/>
<polyline fill="none" stroke="black" points="1074.5,-242 933.5,-242 "/>
<path fill="none" stroke="black" d="M933.5,-242C927.5,-242 921.5,-236 921.5,-230"/>
<polyline fill="none" stroke="black" points="921.5,-230 921.5,-184 "/>
<path fill="none" stroke="black" d="M921.5,-184C921.5,-178 927.5,-172 933.5,-172"/>
<text text-anchor="middle" x="1004" y="-225.4" font-family="Times Roman,serif" font-size="14.00">Assignment</text>
<polyline fill="none" stroke="black" points="921.5,-216 1086.5,-216 "/>
<text text-anchor="start" x="929.5" y="-199.4" font-family="Times Roman,serif" font-size="14.00">created_at :datetime</text>
<text text-anchor="start" x="929.5" y="-181.4" font-family="Times Roman,serif" font-size="14.00">updated_at :datetime</text>
</g>
<!-- Person&#45;&gt;Assignment -->
<g id="edge12" class="edge"><title>Person&#45;&gt;Assignment</title>
<path fill="none" stroke="black" d="M1004,-325.749C1004,-302.282 1004,-274.856 1004,-252.277"/>
<ellipse fill="none" stroke="black" cx="1004" cy="-329.963" rx="4" ry="4"/>
<polygon fill="black" stroke="black" points="1004,-252.276 1008.5,-242.276 1004,-247.276 1004,-242.276 1004,-242.276 1004,-242.276 1004,-247.276 999.5,-242.276 1004,-252.276 1004,-252.276"/>
</g>
<!-- Company -->
<g id="node12" class="node"><title>Company</title>
<polyline fill="none" stroke="black" points="751.5,-145 892.5,-145 "/>
<path fill="none" stroke="black" d="M892.5,-145C898.5,-145 904.5,-151 904.5,-157"/>
<polyline fill="none" stroke="black" points="904.5,-157 904.5,-257 "/>
<path fill="none" stroke="black" d="M904.5,-257C904.5,-263 898.5,-269 892.5,-269"/>
<polyline fill="none" stroke="black" points="892.5,-269 751.5,-269 "/>
<path fill="none" stroke="black" d="M751.5,-269C745.5,-269 739.5,-263 739.5,-257"/>
<polyline fill="none" stroke="black" points="739.5,-257 739.5,-157 "/>
<path fill="none" stroke="black" d="M739.5,-157C739.5,-151 745.5,-145 751.5,-145"/>
<text text-anchor="middle" x="822" y="-252.4" font-family="Times Roman,serif" font-size="14.00">Company</text>
<polyline fill="none" stroke="black" points="739.5,-243 904.5,-243 "/>
<text text-anchor="start" x="747.5" y="-226.4" font-family="Times Roman,serif" font-size="14.00">name :string</text>
<text text-anchor="start" x="747.5" y="-208.4" font-family="Times Roman,serif" font-size="14.00">company_type :string</text>
<text text-anchor="start" x="747.5" y="-190.4" font-family="Times Roman,serif" font-size="14.00">company_field :string</text>
<text text-anchor="start" x="747.5" y="-172.4" font-family="Times Roman,serif" font-size="14.00">created_at :datetime</text>
<text text-anchor="start" x="747.5" y="-154.4" font-family="Times Roman,serif" font-size="14.00">updated_at :datetime</text>
</g>
<!-- Person&#45;&gt;Company -->
<g id="edge10" class="edge"><title>Person&#45;&gt;Company</title>
<path fill="none" stroke="black" d="M949.602,-326.89C932.734,-311.041 913.851,-293.3 895.891,-276.425"/>
<polygon fill="black" stroke="black" points="949.843,-327.116 954.049,-337.243 953.487,-330.54 957.13,-333.963 957.13,-333.963 957.13,-333.963 953.487,-330.54 960.212,-330.684 949.843,-327.116 949.843,-327.116"/>
<polygon fill="black" stroke="black" points="895.547,-276.102 891.341,-265.975 891.903,-272.678 888.259,-269.255 888.259,-269.255 888.259,-269.255 891.903,-272.678 885.178,-272.534 895.547,-276.102 895.547,-276.102"/>
</g>
<!-- Employment -->
<g id="node18" class="node"><title>Employment</title>
<ellipse fill="none" stroke="black" cx="1226" cy="-54" rx="72.832" ry="18.3848"/>
<text text-anchor="middle" x="1226" y="-50.4" font-family="Times Roman,serif" font-size="14.00">Employment</text>
</g>
<!-- Person&#45;&gt;Employment -->
<g id="edge8" class="edge"><title>Person&#45;&gt;Employment</title>
<path fill="none" stroke="black" d="M1062.33,-328.074C1080.51,-310.802 1099.77,-290.586 1115,-270 1160.73,-208.181 1197.64,-124.816 1215.09,-81.9793"/>
<ellipse fill="none" stroke="black" cx="1059.13" cy="-331.078" rx="4.00002" ry="4.00002"/>
<polygon fill="black" stroke="black" points="1215.17,-81.7684 1223.08,-74.1691 1217.04,-77.1294 1218.9,-72.4903 1218.9,-72.4903 1218.9,-72.4903 1217.04,-77.1294 1214.73,-70.8116 1215.17,-81.7684 1215.17,-81.7684"/>
</g>
<!-- Project -->
<g id="node22" class="node"><title>Project</title>
<ellipse fill="none" stroke="black" cx="1089" cy="-54" rx="45.9619" ry="18.3848"/>
<text text-anchor="middle" x="1089" y="-50.4" font-family="Times Roman,serif" font-size="14.00">Project</text>
</g>
<!-- Person&#45;&gt;Project -->
<g id="edge14" class="edge"><title>Person&#45;&gt;Project</title>
<path fill="none" stroke="black" d="M1060.33,-325.984C1074.38,-309.587 1087.56,-290.386 1095,-270 1118.25,-206.328 1105.69,-124.932 1096.29,-82.5514"/>
<polygon fill="black" stroke="black" points="1060.02,-326.327 1050.02,-330.812 1056.7,-330.064 1053.38,-333.801 1053.38,-333.801 1053.38,-333.801 1056.7,-330.064 1056.74,-336.791 1060.02,-326.327 1060.02,-326.327"/>
<polygon fill="black" stroke="black" points="1096.25,-82.3927 1098.37,-71.634 1095.12,-77.5222 1093.99,-72.6518 1093.99,-72.6518 1093.99,-72.6518 1095.12,-77.5222 1089.61,-73.6695 1096.25,-82.3927 1096.25,-82.3927"/>
</g>
<!-- User -->
<g id="node9" class="node"><title>User</title>
<polyline fill="none" stroke="black" points="504,-487 734,-487 "/>
<path fill="none" stroke="black" d="M734,-487C740,-487 746,-493 746,-499"/>
<polyline fill="none" stroke="black" points="746,-499 746,-797 "/>
<path fill="none" stroke="black" d="M746,-797C746,-803 740,-809 734,-809"/>
<polyline fill="none" stroke="black" points="734,-809 504,-809 "/>
<path fill="none" stroke="black" d="M504,-809C498,-809 492,-803 492,-797"/>
<polyline fill="none" stroke="black" points="492,-797 492,-499 "/>
<path fill="none" stroke="black" d="M492,-499C492,-493 498,-487 504,-487"/>
<text text-anchor="middle" x="619" y="-792.4" font-family="Times Roman,serif" font-size="14.00">User</text>
<polyline fill="none" stroke="black" points="492,-783 746,-783 "/>
<text text-anchor="start" x="500" y="-766.4" font-family="Times Roman,serif" font-size="14.00">firstName :string</text>
<text text-anchor="start" x="500" y="-748.4" font-family="Times Roman,serif" font-size="14.00">email :string</text>
<text text-anchor="start" x="500" y="-730.4" font-family="Times Roman,serif" font-size="14.00">encrypted_password :string</text>
<text text-anchor="start" x="500" y="-712.4" font-family="Times Roman,serif" font-size="14.00">confirmation_token :string</text>
<text text-anchor="start" x="500" y="-694.4" font-family="Times Roman,serif" font-size="14.00">confirmed_at :datetime</text>
<text text-anchor="start" x="500" y="-676.4" font-family="Times Roman,serif" font-size="14.00">confirmation_sent_at :datetime</text>
<text text-anchor="start" x="500" y="-658.4" font-family="Times Roman,serif" font-size="14.00">reset_password_token :string</text>
<text text-anchor="start" x="500" y="-640.4" font-family="Times Roman,serif" font-size="14.00">reset_password_sent_at :datetime</text>
<text text-anchor="start" x="500" y="-622.4" font-family="Times Roman,serif" font-size="14.00">remember_created_at :datetime</text>
<text text-anchor="start" x="500" y="-604.4" font-family="Times Roman,serif" font-size="14.00">current_sign_in_at :datetime</text>
<text text-anchor="start" x="500" y="-586.4" font-family="Times Roman,serif" font-size="14.00">last_sign_in_at :datetime</text>
<text text-anchor="start" x="500" y="-568.4" font-family="Times Roman,serif" font-size="14.00">current_sign_in_ip :string</text>
<text text-anchor="start" x="500" y="-550.4" font-family="Times Roman,serif" font-size="14.00">last_sign_in_ip :string</text>
<text text-anchor="start" x="500" y="-532.4" font-family="Times Roman,serif" font-size="14.00">created_at :datetime</text>
<text text-anchor="start" x="500" y="-514.4" font-family="Times Roman,serif" font-size="14.00">updated_at :datetime</text>
<text text-anchor="start" x="500" y="-496.4" font-family="Times Roman,serif" font-size="14.00">lastName :string</text>
</g>
<!-- User&#45;&gt;Update -->
<g id="edge18" class="edge"><title>User&#45;&gt;Update</title>
<path fill="none" stroke="black" d="M635.626,-478.4C636.115,-422.409 631.155,-360.529 614,-306 609.941,-293.096 603.605,-280.346 596.415,-268.507"/>
<ellipse fill="none" stroke="black" cx="635.569" cy="-482.617" rx="4" ry="4"/>
<polygon fill="black" stroke="black" points="596.411,-268.5 594.848,-257.645 593.73,-264.279 591.05,-260.058 591.05,-260.058 591.05,-260.058 593.73,-264.279 587.251,-262.471 596.411,-268.5 596.411,-268.5"/>
</g>
<!-- User&#45;&gt;Topic -->
<g id="edge16" class="edge"><title>User&#45;&gt;Topic</title>
<path fill="none" stroke="black" d="M558.926,-479.041C556.444,-472.06 554.008,-465.21 551.647,-458.57"/>
<ellipse fill="none" stroke="black" cx="560.292" cy="-482.883" rx="4.00001" ry="4.00001"/>
<polygon fill="black" stroke="black" points="551.596,-458.425 552.485,-447.495 549.921,-453.714 548.245,-449.003 548.245,-449.003 548.245,-449.003 549.921,-453.714 544.005,-450.51 551.596,-458.425 551.596,-458.425"/>
</g>
<!-- Company&#45;&gt;StaffLevel -->
<g id="edge22" class="edge"><title>Company&#45;&gt;StaffLevel</title>
<path fill="none" stroke="black" d="M871.13,-138.037C876.403,-130.636 881.743,-123.14 886.951,-115.83"/>
<ellipse fill="none" stroke="black" cx="868.655" cy="-141.511" rx="4.00002" ry="4.00002"/>
<polygon fill="black" stroke="black" points="887.19,-115.495 896.657,-109.962 890.091,-111.423 892.992,-107.351 892.992,-107.351 892.992,-107.351 890.091,-111.423 889.327,-104.74 887.19,-115.495 887.19,-115.495"/>
</g>
<!-- Company&#45;&gt;Deployment -->
<g id="edge26" class="edge"><title>Company&#45;&gt;Deployment</title>
<path fill="none" stroke="black" d="M732.124,-157.134C723.351,-152.585 714.54,-148.138 706,-144 669.448,-126.288 658.209,-126.403 622,-108 613.613,-103.737 604.94,-99.0193 596.431,-94.1985"/>
<ellipse fill="none" stroke="black" cx="735.931" cy="-159.122" rx="4.00002" ry="4.00002"/>
<polygon fill="black" stroke="black" points="596.315,-94.1315 589.883,-85.2498 591.978,-91.6419 587.642,-89.1523 587.642,-89.1523 587.642,-89.1523 591.978,-91.6419 585.402,-93.0549 596.315,-94.1315 596.315,-94.1315"/>
</g>
<!-- Company&#45;&gt;FundingRound -->
<g id="edge20" class="edge"><title>Company&#45;&gt;FundingRound</title>
<path fill="none" stroke="black" d="M778.092,-137.743C773.544,-130.569 768.942,-123.31 764.447,-116.221"/>
<ellipse fill="none" stroke="black" cx="780.405" cy="-141.391" rx="4.00002" ry="4.00002"/>
<polygon fill="black" stroke="black" points="764.178,-115.797 762.624,-104.941 761.501,-111.574 758.824,-107.351 758.824,-107.351 758.824,-107.351 761.501,-111.574 755.023,-109.76 764.178,-115.797 764.178,-115.797"/>
</g>
<!-- Company&#45;&gt;Employment -->
<g id="edge24" class="edge"><title>Company&#45;&gt;Employment</title>
<path fill="none" stroke="black" d="M912.222,-144.313C912.481,-144.208 912.741,-144.104 913,-144 1009.49,-105.452 1047.07,-145.426 1144,-108 1162.61,-100.815 1181.34,-88.9134 1196.19,-78.1098"/>
<ellipse fill="none" stroke="black" cx="908.382" cy="-145.99" rx="4.00002" ry="4.00002"/>
<polygon fill="black" stroke="black" points="1196.46,-77.9135 1207.16,-75.5217 1200.46,-74.9165 1204.46,-71.9196 1204.46,-71.9196 1204.46,-71.9196 1200.46,-74.9165 1201.76,-68.3175 1196.46,-77.9135 1196.46,-77.9135"/>
</g>
<!-- Company&#45;&gt;Project -->
<g id="edge28" class="edge"><title>Company&#45;&gt;Project</title>
<path fill="none" stroke="black" d="M914.015,-143.932C966.08,-121.427 988.31,-134.937 1034,-108 1046.68,-100.527 1058.61,-89.5093 1068.1,-79.3719"/>
<polygon fill="black" stroke="black" points="913.76,-144.049 902.795,-144.123 909.215,-146.131 904.669,-148.214 904.669,-148.214 904.669,-148.214 909.215,-146.131 906.544,-152.305 913.76,-144.049 913.76,-144.049"/>
<polygon fill="black" stroke="black" points="1068.17,-79.2992 1078.2,-74.8742 1071.51,-75.5819 1074.86,-71.8646 1074.86,-71.8646 1074.86,-71.8646 1071.51,-75.5819 1071.51,-68.8551 1068.17,-79.2992 1068.17,-79.2992"/>
</g>
<!-- Product -->
<g id="node13" class="node"><title>Product</title>
<polyline fill="none" stroke="black" points="775.5,-586 924.5,-586 "/>
<path fill="none" stroke="black" d="M924.5,-586C930.5,-586 936.5,-592 936.5,-598"/>
<polyline fill="none" stroke="black" points="936.5,-598 936.5,-698 "/>
<path fill="none" stroke="black" d="M936.5,-698C936.5,-704 930.5,-710 924.5,-710"/>
<polyline fill="none" stroke="black" points="924.5,-710 775.5,-710 "/>
<path fill="none" stroke="black" d="M775.5,-710C769.5,-710 763.5,-704 763.5,-698"/>
<polyline fill="none" stroke="black" points="763.5,-698 763.5,-598 "/>
<path fill="none" stroke="black" d="M763.5,-598C763.5,-592 769.5,-586 775.5,-586"/>
<text text-anchor="middle" x="850" y="-693.4" font-family="Times Roman,serif" font-size="14.00">Product</text>
<polyline fill="none" stroke="black" points="763.5,-684 936.5,-684 "/>
<text text-anchor="start" x="771.5" y="-667.4" font-family="Times Roman,serif" font-size="14.00">name :string</text>
<text text-anchor="start" x="771.5" y="-649.4" font-family="Times Roman,serif" font-size="14.00">staff_numbers :integer</text>
<text text-anchor="start" x="771.5" y="-631.4" font-family="Times Roman,serif" font-size="14.00">capital :integer</text>
<text text-anchor="start" x="771.5" y="-613.4" font-family="Times Roman,serif" font-size="14.00">created_at :datetime</text>
<text text-anchor="start" x="771.5" y="-595.4" font-family="Times Roman,serif" font-size="14.00">updated_at :datetime</text>
</g>
<!-- Product&#45;&gt;Deployment -->
<g id="edge34" class="edge"><title>Product&#45;&gt;Deployment</title>
<path fill="none" stroke="black" d="M834.478,-577.819C809.041,-474.666 750.748,-279.68 648,-144 634.047,-125.575 615.404,-108.962 597.107,-95.1708"/>
<ellipse fill="none" stroke="black" cx="835.45" cy="-581.806" rx="4.00001" ry="4.00001"/>
<polygon fill="black" stroke="black" points="596.807,-94.9506 591.404,-85.4079 592.775,-91.9936 588.743,-89.0367 588.743,-89.0367 588.743,-89.0367 592.775,-91.9936 586.082,-92.6654 596.807,-94.9506 596.807,-94.9506"/>
</g>
<!-- Product&#45;&gt;Person -->
<g id="edge32" class="edge"><title>Product&#45;&gt;Person</title>
<path fill="none" stroke="black" d="M890.643,-576.743C916.688,-531.08 949.936,-472.787 973.677,-431.164"/>
<polygon fill="black" stroke="black" points="890.479,-577.031 881.615,-583.488 888.001,-581.374 885.524,-585.718 885.524,-585.718 885.524,-585.718 888.001,-581.374 889.433,-587.947 890.479,-577.031 890.479,-577.031"/>
<polygon fill="black" stroke="black" points="973.788,-430.968 982.652,-424.512 976.266,-426.625 978.743,-422.282 978.743,-422.282 978.743,-422.282 976.266,-426.625 974.834,-420.053 973.788,-430.968 973.788,-430.968"/>
</g>
<!-- Product&#45;&gt;Assignment -->
<g id="edge30" class="edge"><title>Product&#45;&gt;Assignment</title>
<path fill="none" stroke="black" d="M851.658,-577.656C855.87,-505.885 869.597,-393.003 913,-306 923.393,-285.167 939.498,-265.542 955.288,-249.344"/>
<ellipse fill="none" stroke="black" cx="851.432" cy="-581.773" rx="4" ry="4"/>
<polygon fill="black" stroke="black" points="955.419,-249.214 965.677,-245.338 958.959,-245.683 962.499,-242.152 962.499,-242.152 962.499,-242.152 958.959,-245.683 959.321,-238.966 955.419,-249.214 955.419,-249.214"/>
</g>
<!-- Product&#45;&gt;Company -->
<g id="edge36" class="edge"><title>Product&#45;&gt;Company</title>
<path fill="none" stroke="black" d="M845.405,-575.627C840.21,-493.811 831.802,-361.38 826.604,-279.508"/>
<polygon fill="black" stroke="black" points="845.414,-575.771 841.557,-586.036 845.731,-580.761 846.048,-585.751 846.048,-585.751 846.048,-585.751 845.731,-580.761 850.539,-585.466 845.414,-575.771 845.414,-575.771"/>
<polygon fill="black" stroke="black" points="826.589,-279.268 830.446,-269.003 826.272,-274.278 825.955,-269.288 825.955,-269.288 825.955,-269.288 826.272,-274.278 821.464,-269.574 826.589,-279.268 826.589,-279.268"/>
</g>
</g>
</svg>
