<?xml version="1.0" encoding="UTF-8" standalone="no"?>
<!DOCTYPE svg PUBLIC "-//W3C//DTD SVG 1.1//EN"
 "http://www.w3.org/Graphics/SVG/1.1/DTD/svg11.dtd">
<!-- Generated by graphviz version 2.26.3 (20100126.1600)
 -->
<!-- Title: models_diagram Pages: 1 -->
<svg width="1587pt" height="346pt"
 viewBox="0.00 0.00 1587.00 346.00" xmlns="http://www.w3.org/2000/svg" xmlns:xlink="http://www.w3.org/1999/xlink">
<g id="graph1" class="graph" transform="scale(1 1) rotate(0) translate(4 342)">
<title>models_diagram</title>
<polygon fill="white" stroke="white" points="-4,5 -4,-342 1584,-342 1584,5 -4,5"/>
<!-- _diagram_info -->
<g id="node1" class="node"><title>_diagram_info</title>
<text text-anchor="start" x="8" y="-321.8" font-family="Times Roman,serif" font-size="13.00">Models diagram</text>
<text text-anchor="start" x="8" y="-304.8" font-family="Times Roman,serif" font-size="13.00">Date: Oct 17 2011 &#45; 02:11</text>
<text text-anchor="start" x="8" y="-287.8" font-family="Times Roman,serif" font-size="13.00">Migration version: 20111015112216</text>
<text text-anchor="start" x="8" y="-270.8" font-family="Times Roman,serif" font-size="13.00">Generated by RailRoady 1.0.2</text>
<text text-anchor="start" x="8" y="-253.8" font-family="Times Roman,serif" font-size="13.00">http://railroady.prestonlee.com</text>
</g>
<!-- Attachment -->
<g id="node2" class="node"><title>Attachment</title>
<ellipse fill="none" stroke="black" cx="337" cy="-291" rx="68.7979" ry="18.3848"/>
<text text-anchor="middle" x="337" y="-287.4" font-family="Times Roman,serif" font-size="14.00">Attachment</text>
</g>
<!-- Topic -->
<g id="node6" class="node"><title>Topic</title>
<ellipse fill="none" stroke="black" cx="488" cy="-187" rx="34.8574" ry="18.3848"/>
<text text-anchor="middle" x="488" y="-183.4" font-family="Times Roman,serif" font-size="14.00">Topic</text>
</g>
<!-- Attachment&#45;&gt;Topic -->
<g id="edge4" class="edge"><title>Attachment&#45;&gt;Topic</title>
<path fill="none" stroke="black" d="M370.566,-267.882C396.787,-249.822 432.892,-224.955 458.122,-207.578"/>
<polygon fill="black" stroke="black" points="370.51,-267.92 359.721,-269.887 366.392,-270.757 362.274,-273.593 362.274,-273.593 362.274,-273.593 366.392,-270.757 364.827,-277.299 370.51,-267.92 370.51,-267.92"/>
<polygon fill="black" stroke="black" points="458.323,-207.44 469.111,-205.474 462.44,-204.604 466.558,-201.768 466.558,-201.768 466.558,-201.768 462.44,-204.604 464.006,-198.062 458.323,-207.44 458.323,-207.44"/>
</g>
<!-- Attach -->
<g id="node16" class="node"><title>Attach</title>
<ellipse fill="none" stroke="black" cx="330" cy="-95" rx="43.8406" ry="18.3848"/>
<text text-anchor="middle" x="330" y="-91.4" font-family="Times Roman,serif" font-size="14.00">Attach</text>
</g>
<!-- Attachment&#45;&gt;Attach -->
<g id="edge2" class="edge"><title>Attachment&#45;&gt;Attach</title>
<path fill="none" stroke="black" d="M336.041,-264.16C334.731,-227.467 332.389,-161.895 331.038,-124.072"/>
<ellipse fill="none" stroke="black" cx="336.186" cy="-268.209" rx="4" ry="4"/>
<polygon fill="black" stroke="black" points="331.026,-123.73 335.166,-113.576 330.848,-118.733 330.669,-113.736 330.669,-113.736 330.669,-113.736 330.848,-118.733 326.172,-113.897 331.026,-123.73 331.026,-123.73"/>
</g>
<!-- Update -->
<g id="node3" class="node"><title>Update</title>
<ellipse fill="none" stroke="black" cx="438" cy="-95" rx="46.1672" ry="18.3848"/>
<text text-anchor="middle" x="438" y="-91.4" font-family="Times Roman,serif" font-size="14.00">Update</text>
</g>
<!-- StaffLevel -->
<g id="node4" class="node"><title>StaffLevel</title>
<ellipse fill="none" stroke="black" cx="1029" cy="-95" rx="60.8112" ry="18.3848"/>
<text text-anchor="middle" x="1029" y="-91.4" font-family="Times Roman,serif" font-size="14.00">StaffLevel</text>
</g>
<!-- Folder -->
<g id="node5" class="node"><title>Folder</title>
<ellipse fill="none" stroke="black" cx="564" cy="-291" rx="41.2167" ry="18.3848"/>
<text text-anchor="middle" x="564" y="-287.4" font-family="Times Roman,serif" font-size="14.00">Folder</text>
</g>
<!-- Folder&#45;&gt;Topic -->
<g id="edge6" class="edge"><title>Folder&#45;&gt;Topic</title>
<path fill="none" stroke="black" d="M546.218,-266.667C534.329,-250.397 518.714,-229.03 506.649,-212.52"/>
<ellipse fill="none" stroke="black" cx="548.748" cy="-270.128" rx="4.00002" ry="4.00002"/>
<polygon fill="black" stroke="black" points="506.602,-212.456 504.335,-201.727 503.652,-208.419 500.702,-204.382 500.702,-204.382 500.702,-204.382 503.652,-208.419 497.069,-207.037 506.602,-212.456 506.602,-212.456"/>
</g>
<!-- Notification -->
<g id="node13" class="node"><title>Notification</title>
<ellipse fill="none" stroke="black" cx="569" cy="-95" rx="67.1751" ry="18.3848"/>
<text text-anchor="middle" x="569" y="-91.4" font-family="Times Roman,serif" font-size="14.00">Notification</text>
</g>
<!-- Folder&#45;&gt;Notification -->
<g id="edge8" class="edge"><title>Folder&#45;&gt;Notification</title>
<path fill="none" stroke="black" d="M564.685,-264.16C565.621,-227.467 567.293,-161.895 568.258,-124.072"/>
<ellipse fill="none" stroke="black" cx="564.581" cy="-268.208" rx="4" ry="4"/>
<polygon fill="black" stroke="black" points="568.267,-123.733 573.021,-113.851 568.394,-118.735 568.522,-113.736 568.522,-113.736 568.522,-113.736 568.394,-118.735 564.023,-113.622 568.267,-123.733 568.267,-123.733"/>
</g>
<!-- Topic&#45;&gt;Update -->
<g id="edge10" class="edge"><title>Topic&#45;&gt;Update</title>
<path fill="none" stroke="black" d="M479.873,-160.966C476.471,-151.558 472.111,-141.035 467,-132 464.875,-128.244 462.391,-124.461 459.787,-120.822"/>
<ellipse fill="none" stroke="black" cx="481.191" cy="-164.77" rx="4.00001" ry="4.00001"/>
<polygon fill="black" stroke="black" points="459.649,-120.641 457.188,-109.955 456.627,-116.658 453.604,-112.675 453.604,-112.675 453.604,-112.675 456.627,-116.658 450.019,-115.396 459.649,-120.641 459.649,-120.641"/>
</g>
<!-- Topic&#45;&gt;Notification -->
<g id="edge14" class="edge"><title>Topic&#45;&gt;Notification</title>
<path fill="none" stroke="black" d="M508.51,-163.705C520.088,-150.555 534.575,-134.1 546.468,-120.592"/>
<ellipse fill="none" stroke="black" cx="505.5" cy="-167.124" rx="4.00002" ry="4.00002"/>
<polygon fill="black" stroke="black" points="546.522,-120.531 556.507,-115.999 549.826,-116.778 553.13,-113.025 553.13,-113.025 553.13,-113.025 549.826,-116.778 549.752,-110.052 546.522,-120.531 546.522,-120.531"/>
</g>
<!-- Topic&#45;&gt;Attach -->
<g id="edge12" class="edge"><title>Topic&#45;&gt;Attach</title>
<path fill="none" stroke="black" d="M457.176,-169.052C430.67,-153.618 392.457,-131.367 364.846,-115.29"/>
<ellipse fill="none" stroke="black" cx="460.889" cy="-171.214" rx="4.00002" ry="4.00002"/>
<polygon fill="black" stroke="black" points="364.562,-115.125 358.185,-106.204 360.241,-112.609 355.92,-110.093 355.92,-110.093 355.92,-110.093 360.241,-112.609 353.656,-113.982 364.562,-115.125 364.562,-115.125"/>
</g>
<!-- Deployment -->
<g id="node7" class="node"><title>Deployment</title>
<ellipse fill="none" stroke="black" cx="1106" cy="-19" rx="70.9184" ry="18.3848"/>
<text text-anchor="middle" x="1106" y="-15.4" font-family="Times Roman,serif" font-size="14.00">Deployment</text>
</g>
<!-- FundingRound -->
<g id="node8" class="node"><title>FundingRound</title>
<ellipse fill="none" stroke="black" cx="735" cy="-95" rx="80.8184" ry="18.3848"/>
<text text-anchor="middle" x="735" y="-91.4" font-family="Times Roman,serif" font-size="14.00">FundingRound</text>
</g>
<!-- EmploymentStatus -->
<g id="node9" class="node"><title>EmploymentStatus</title>
<ellipse fill="none" stroke="black" cx="1475" cy="-291" rx="104.151" ry="18.3848"/>
<text text-anchor="middle" x="1475" y="-287.4" font-family="Times Roman,serif" font-size="14.00">EmploymentStatus</text>
</g>
<!-- Person -->
<g id="node10" class="node"><title>Person</title>
<ellipse fill="none" stroke="black" cx="1309" cy="-291" rx="44.0472" ry="18.3848"/>
<text text-anchor="middle" x="1309" y="-287.4" font-family="Times Roman,serif" font-size="14.00">Person</text>
</g>
<!-- Assignment -->
<g id="node14" class="node"><title>Assignment</title>
<ellipse fill="none" stroke="black" cx="1428" cy="-19" rx="68.0887" ry="18.3848"/>
<text text-anchor="middle" x="1428" y="-15.4" font-family="Times Roman,serif" font-size="14.00">Assignment</text>
</g>
<!-- Person&#45;&gt;Assignment -->
<g id="edge20" class="edge"><title>Person&#45;&gt;Assignment</title>
<path fill="none" stroke="black" d="M1334.07,-268.695C1352.89,-251.834 1376.08,-230.797 1380,-226 1405.13,-195.233 1428.28,-127.377 1431,-114 1435.44,-92.1347 1434.36,-66.8643 1432.34,-47.8858"/>
<ellipse fill="none" stroke="black" cx="1330.86" cy="-271.557" rx="4.00002" ry="4.00002"/>
<polygon fill="black" stroke="black" points="1432.32,-47.7096 1435.59,-37.2415 1431.72,-42.7458 1431.12,-37.782 1431.12,-37.782 1431.12,-37.782 1431.72,-42.7458 1426.65,-38.3224 1432.32,-47.7096 1432.32,-47.7096"/>
</g>
<!-- Company -->
<g id="node15" class="node"><title>Company</title>
<ellipse fill="none" stroke="black" cx="996" cy="-187" rx="56.7776" ry="18.3848"/>
<text text-anchor="middle" x="996" y="-183.4" font-family="Times Roman,serif" font-size="14.00">Company</text>
</g>
<!-- Person&#45;&gt;Company -->
<g id="edge18" class="edge"><title>Person&#45;&gt;Company</title>
<path fill="none" stroke="black" d="M1264.57,-276.239C1206.75,-257.027 1105.99,-223.548 1045.69,-203.512"/>
<polygon fill="black" stroke="black" points="1264.82,-276.32 1272.89,-283.743 1269.56,-277.896 1274.31,-279.473 1274.31,-279.473 1274.31,-279.473 1269.56,-277.896 1275.73,-275.202 1264.82,-276.32 1264.82,-276.32"/>
<polygon fill="black" stroke="black" points="1045.5,-203.448 1037.43,-196.025 1040.76,-201.872 1036.01,-200.295 1036.01,-200.295 1036.01,-200.295 1040.76,-201.872 1034.59,-204.566 1045.5,-203.448 1045.5,-203.448"/>
</g>
<!-- Product -->
<g id="node17" class="node"><title>Product</title>
<ellipse fill="none" stroke="black" cx="1373" cy="-95" rx="48.9975" ry="18.3848"/>
<text text-anchor="middle" x="1373" y="-91.4" font-family="Times Roman,serif" font-size="14.00">Product</text>
</g>
<!-- Person&#45;&gt;Product -->
<g id="edge22" class="edge"><title>Person&#45;&gt;Product</title>
<path fill="none" stroke="black" d="M1334.71,-267.035C1349.62,-251.314 1366.99,-229.391 1375,-206 1384.17,-179.241 1382.17,-146.683 1378.79,-123.769"/>
<polygon fill="black" stroke="black" points="1334.65,-267.099 1324.43,-271.081 1331.14,-270.667 1327.64,-274.234 1327.64,-274.234 1327.64,-274.234 1331.14,-270.667 1330.85,-277.387 1334.65,-267.099 1334.65,-267.099"/>
<polygon fill="black" stroke="black" points="1378.75,-123.536 1381.56,-112.936 1377.94,-118.603 1377.12,-113.67 1377.12,-113.67 1377.12,-113.67 1377.94,-118.603 1372.68,-114.404 1378.75,-123.536 1378.75,-123.536"/>
</g>
<!-- EmploymentStatu -->
<g id="node26" class="node"><title>EmploymentStatu</title>
<ellipse fill="none" stroke="black" cx="1207" cy="-95" rx="99.201" ry="18.3848"/>
<text text-anchor="middle" x="1207" y="-91.4" font-family="Times Roman,serif" font-size="14.00">EmploymentStatu</text>
</g>
<!-- Person&#45;&gt;EmploymentStatu -->
<g id="edge16" class="edge"><title>Person&#45;&gt;EmploymentStatu</title>
<path fill="none" stroke="black" d="M1278.25,-270.409C1258.12,-255.144 1233.19,-232.456 1220,-206 1207.22,-180.367 1204.86,-147.386 1205.15,-124.056"/>
<ellipse fill="none" stroke="black" cx="1281.65" cy="-272.919" rx="4.00002" ry="4.00002"/>
<polygon fill="black" stroke="black" points="1205.15,-123.76 1209.95,-113.899 1205.3,-118.763 1205.45,-113.765 1205.45,-113.765 1205.45,-113.765 1205.3,-118.763 1200.95,-113.631 1205.15,-123.76 1205.15,-123.76"/>
<text text-anchor="middle" x="1295.5" y="-183.4" font-family="Times Roman,serif" font-size="14.00">employment_statuses</text>
</g>
<!-- Office -->
<g id="node11" class="node"><title>Office</title>
<ellipse fill="none" stroke="black" cx="873" cy="-95" rx="39.0967" ry="18.3848"/>
<text text-anchor="middle" x="873" y="-91.4" font-family="Times Roman,serif" font-size="14.00">Office</text>
</g>
<!-- User -->
<g id="node12" class="node"><title>User</title>
<ellipse fill="none" stroke="black" cx="459" cy="-291" rx="33.9411" ry="18.3848"/>
<text text-anchor="middle" x="459" y="-287.4" font-family="Times Roman,serif" font-size="14.00">User</text>
</g>
<!-- User&#45;&gt;Update -->
<g id="edge26" class="edge"><title>User&#45;&gt;Update</title>
<path fill="none" stroke="black" d="M453.439,-264.32C450.174,-247.633 446.257,-225.65 444,-206 440.802,-178.154 439.302,-146.178 438.602,-123.72"/>
<ellipse fill="none" stroke="black" cx="454.293" cy="-268.6" rx="4.00001" ry="4.00001"/>
<polygon fill="black" stroke="black" points="438.596,-123.515 442.817,-113.394 438.457,-118.517 438.319,-113.519 438.319,-113.519 438.319,-113.519 438.457,-118.517 433.82,-113.644 438.596,-123.515 438.596,-123.515"/>
</g>
<!-- User&#45;&gt;Topic -->
<g id="edge24" class="edge"><title>User&#45;&gt;Topic</title>
<path fill="none" stroke="black" d="M466.356,-264.62C470.546,-249.594 475.796,-230.764 480.077,-215.414"/>
<ellipse fill="none" stroke="black" cx="465.259" cy="-268.554" rx="4.00001" ry="4.00001"/>
<polygon fill="black" stroke="black" points="480.174,-215.065 487.195,-206.641 481.517,-210.248 482.86,-205.432 482.86,-205.432 482.86,-205.432 481.517,-210.248 478.526,-204.223 480.174,-215.065 480.174,-215.065"/>
</g>
<!-- Company&#45;&gt;StaffLevel -->
<g id="edge30" class="edge"><title>Company&#45;&gt;StaffLevel</title>
<path fill="none" stroke="black" d="M1001.51,-160.329C1003.73,-151.207 1006.58,-141.031 1010,-132 1011.18,-128.893 1012.54,-125.709 1013.99,-122.574"/>
<ellipse fill="none" stroke="black" cx="1000.55" cy="-164.45" rx="4.00001" ry="4.00001"/>
<polygon fill="black" stroke="black" points="1014.07,-122.418 1022.53,-115.439 1016.28,-117.934 1018.49,-113.449 1018.49,-113.449 1018.49,-113.449 1016.28,-117.934 1014.46,-111.459 1014.07,-122.418 1014.07,-122.418"/>
</g>
<!-- Company&#45;&gt;Deployment -->
<g id="edge36" class="edge"><title>Company&#45;&gt;Deployment</title>
<path fill="none" stroke="black" d="M976.029,-162.462C959.296,-138.724 940.824,-102.543 959,-76 969.426,-60.7754 1009.64,-45.7771 1045.38,-34.9896"/>
<ellipse fill="none" stroke="black" cx="978.533" cy="-165.879" rx="4.00002" ry="4.00002"/>
<polygon fill="black" stroke="black" points="1045.72,-34.8893 1056.58,-36.3783 1050.52,-33.4756 1055.31,-32.0619 1055.31,-32.0619 1055.31,-32.0619 1050.52,-33.4756 1054.04,-27.7455 1045.72,-34.8893 1045.72,-34.8893"/>
</g>
<!-- Company&#45;&gt;FundingRound -->
<g id="edge28" class="edge"><title>Company&#45;&gt;FundingRound</title>
<path fill="none" stroke="black" d="M949.417,-170.58C904.341,-154.691 836.072,-130.627 788.725,-113.937"/>
<ellipse fill="none" stroke="black" cx="953.435" cy="-171.996" rx="4.00001" ry="4.00001"/>
<polygon fill="black" stroke="black" points="788.683,-113.923 780.747,-106.354 783.967,-112.26 779.251,-110.598 779.251,-110.598 779.251,-110.598 783.967,-112.26 777.755,-114.842 788.683,-113.923 788.683,-113.923"/>
</g>
<!-- Company&#45;&gt;Office -->
<g id="edge34" class="edge"><title>Company&#45;&gt;Office</title>
<path fill="none" stroke="black" d="M955.162,-168.207C945.241,-162.899 934.927,-156.717 926,-150 914.462,-141.318 903.151,-130.071 893.96,-120.012"/>
<ellipse fill="none" stroke="black" cx="958.742" cy="-170.069" rx="4.00002" ry="4.00002"/>
<polygon fill="black" stroke="black" points="893.724,-119.746 890.444,-109.282 890.402,-116.008 887.081,-112.271 887.081,-112.271 887.081,-112.271 890.402,-116.008 883.717,-115.26 893.724,-119.746 893.724,-119.746"/>
</g>
<!-- Company&#45;&gt;Product -->
<g id="edge38" class="edge"><title>Company&#45;&gt;Product</title>
<path fill="none" stroke="black" d="M1055.99,-176.027C1092.3,-169.131 1139.46,-159.723 1181,-150 1241.04,-135.946 1255.9,-131.605 1315,-114 1318.78,-112.875 1322.68,-111.676 1326.59,-110.448"/>
<polygon fill="black" stroke="black" points="1055.88,-176.048 1045.21,-173.481 1050.96,-176.975 1046.05,-177.903 1046.05,-177.903 1046.05,-177.903 1050.96,-176.975 1046.88,-182.325 1055.88,-176.048 1055.88,-176.048"/>
<polygon fill="black" stroke="black" points="1326.75,-110.399 1337.64,-111.65 1331.51,-108.881 1336.28,-107.362 1336.28,-107.362 1336.28,-107.362 1331.51,-108.881 1334.91,-103.075 1326.75,-110.399 1326.75,-110.399"/>
</g>
<!-- Company&#45;&gt;EmploymentStatu -->
<g id="edge32" class="edge"><title>Company&#45;&gt;EmploymentStatu</title>
<path fill="none" stroke="black" d="M1006.54,-160.953C1012.04,-150.455 1019.79,-139.158 1030,-132 1038.15,-126.285 1081.67,-117.15 1123.51,-109.388"/>
<ellipse fill="none" stroke="black" cx="1004.68" cy="-164.788" rx="4.00002" ry="4.00002"/>
<polygon fill="black" stroke="black" points="1123.69,-109.356 1134.34,-111.976 1128.61,-108.453 1133.53,-107.55 1133.53,-107.55 1133.53,-107.55 1128.61,-108.453 1132.71,-103.124 1123.69,-109.356 1123.69,-109.356"/>
<text text-anchor="middle" x="1105.5" y="-137.4" font-family="Times Roman,serif" font-size="14.00">employment_statuses</text>
</g>
<!-- Product&#45;&gt;Deployment -->
<g id="edge42" class="edge"><title>Product&#45;&gt;Deployment</title>
<path fill="none" stroke="black" d="M1328.6,-80.2029C1324.02,-78.7512 1319.42,-77.3262 1315,-76 1265.31,-61.0948 1208.49,-45.7029 1166.65,-34.6765"/>
<ellipse fill="none" stroke="black" cx="1332.46" cy="-81.4388" rx="4.00001" ry="4.00001"/>
<polygon fill="black" stroke="black" points="1166.55,-34.6527 1158.03,-27.759 1161.72,-33.382 1156.88,-32.1113 1156.88,-32.1113 1156.88,-32.1113 1161.72,-33.382 1155.74,-36.4635 1166.55,-34.6527 1166.55,-34.6527"/>
</g>
<!-- Product&#45;&gt;Assignment -->
<g id="edge40" class="edge"><title>Product&#45;&gt;Assignment</title>
<path fill="none" stroke="black" d="M1390.92,-70.2387C1396.6,-62.391 1402.9,-53.6824 1408.67,-45.7044"/>
<ellipse fill="none" stroke="black" cx="1388.38" cy="-73.7486" rx="4.00002" ry="4.00002"/>
<polygon fill="black" stroke="black" points="1408.81,-45.5108 1418.32,-40.0478 1411.75,-41.4602 1414.68,-37.4096 1414.68,-37.4096 1414.68,-37.4096 1411.75,-41.4602 1411.03,-34.7714 1408.81,-45.5108 1408.81,-45.5108"/>
</g>
</g>
</svg>
